%TF.GenerationSoftware,KiCad,Pcbnew,8.0.4+dfsg-1*%
%TF.CreationDate,2024-12-02T22:27:05+01:00*%
%TF.ProjectId,usb-serial,7573622d-7365-4726-9961-6c2e6b696361,rev?*%
%TF.SameCoordinates,Original*%
%TF.FileFunction,Legend,Top*%
%TF.FilePolarity,Positive*%
%FSLAX46Y46*%
G04 Gerber Fmt 4.6, Leading zero omitted, Abs format (unit mm)*
G04 Created by KiCad (PCBNEW 8.0.4+dfsg-1) date 2024-12-02 22:27:05*
%MOMM*%
%LPD*%
G01*
G04 APERTURE LIST*
G04 Aperture macros list*
%AMRoundRect*
0 Rectangle with rounded corners*
0 $1 Rounding radius*
0 $2 $3 $4 $5 $6 $7 $8 $9 X,Y pos of 4 corners*
0 Add a 4 corners polygon primitive as box body*
4,1,4,$2,$3,$4,$5,$6,$7,$8,$9,$2,$3,0*
0 Add four circle primitives for the rounded corners*
1,1,$1+$1,$2,$3*
1,1,$1+$1,$4,$5*
1,1,$1+$1,$6,$7*
1,1,$1+$1,$8,$9*
0 Add four rect primitives between the rounded corners*
20,1,$1+$1,$2,$3,$4,$5,0*
20,1,$1+$1,$4,$5,$6,$7,0*
20,1,$1+$1,$6,$7,$8,$9,0*
20,1,$1+$1,$8,$9,$2,$3,0*%
G04 Aperture macros list end*
%ADD10C,0.150000*%
%ADD11C,0.120000*%
%ADD12RoundRect,0.062500X0.117500X0.062500X-0.117500X0.062500X-0.117500X-0.062500X0.117500X-0.062500X0*%
%ADD13RoundRect,0.135000X0.135000X0.185000X-0.135000X0.185000X-0.135000X-0.185000X0.135000X-0.185000X0*%
%ADD14RoundRect,0.140000X0.170000X-0.140000X0.170000X0.140000X-0.170000X0.140000X-0.170000X-0.140000X0*%
%ADD15RoundRect,0.150000X-0.650000X-0.150000X0.650000X-0.150000X0.650000X0.150000X-0.650000X0.150000X0*%
%ADD16RoundRect,0.243750X0.243750X0.456250X-0.243750X0.456250X-0.243750X-0.456250X0.243750X-0.456250X0*%
%ADD17RoundRect,0.062500X-0.337500X-0.062500X0.337500X-0.062500X0.337500X0.062500X-0.337500X0.062500X0*%
%ADD18RoundRect,0.062500X-0.062500X-0.337500X0.062500X-0.337500X0.062500X0.337500X-0.062500X0.337500X0*%
%ADD19R,3.350000X3.350000*%
%ADD20RoundRect,0.250000X0.250000X0.475000X-0.250000X0.475000X-0.250000X-0.475000X0.250000X-0.475000X0*%
%ADD21R,2.580000X1.000000*%
%ADD22RoundRect,0.250000X1.500000X-0.250000X1.500000X0.250000X-1.500000X0.250000X-1.500000X-0.250000X0*%
%ADD23RoundRect,0.250001X1.449999X-0.499999X1.449999X0.499999X-1.449999X0.499999X-1.449999X-0.499999X0*%
%ADD24RoundRect,0.250000X-0.250000X-0.475000X0.250000X-0.475000X0.250000X0.475000X-0.250000X0.475000X0*%
%ADD25C,0.650000*%
%ADD26R,1.450000X0.600000*%
%ADD27R,1.450000X0.300000*%
%ADD28O,2.100000X1.000000*%
%ADD29O,1.600000X1.000000*%
%ADD30RoundRect,0.150000X0.512500X0.150000X-0.512500X0.150000X-0.512500X-0.150000X0.512500X-0.150000X0*%
%ADD31RoundRect,0.250000X0.375000X0.625000X-0.375000X0.625000X-0.375000X-0.625000X0.375000X-0.625000X0*%
G04 APERTURE END LIST*
D10*
X41500588Y-19426569D02*
X40929160Y-19426569D01*
X41214874Y-19426569D02*
X41214874Y-18426569D01*
X41214874Y-18426569D02*
X41119636Y-18569426D01*
X41119636Y-18569426D02*
X41024398Y-18664664D01*
X41024398Y-18664664D02*
X40929160Y-18712283D01*
X40536905Y-16964819D02*
X40536905Y-15964819D01*
X40536905Y-15964819D02*
X40775000Y-15964819D01*
X40775000Y-15964819D02*
X40917857Y-16012438D01*
X40917857Y-16012438D02*
X41013095Y-16107676D01*
X41013095Y-16107676D02*
X41060714Y-16202914D01*
X41060714Y-16202914D02*
X41108333Y-16393390D01*
X41108333Y-16393390D02*
X41108333Y-16536247D01*
X41108333Y-16536247D02*
X41060714Y-16726723D01*
X41060714Y-16726723D02*
X41013095Y-16821961D01*
X41013095Y-16821961D02*
X40917857Y-16917200D01*
X40917857Y-16917200D02*
X40775000Y-16964819D01*
X40775000Y-16964819D02*
X40536905Y-16964819D01*
X41441667Y-15964819D02*
X42060714Y-15964819D01*
X42060714Y-15964819D02*
X41727381Y-16345771D01*
X41727381Y-16345771D02*
X41870238Y-16345771D01*
X41870238Y-16345771D02*
X41965476Y-16393390D01*
X41965476Y-16393390D02*
X42013095Y-16441009D01*
X42013095Y-16441009D02*
X42060714Y-16536247D01*
X42060714Y-16536247D02*
X42060714Y-16774342D01*
X42060714Y-16774342D02*
X42013095Y-16869580D01*
X42013095Y-16869580D02*
X41965476Y-16917200D01*
X41965476Y-16917200D02*
X41870238Y-16964819D01*
X41870238Y-16964819D02*
X41584524Y-16964819D01*
X41584524Y-16964819D02*
X41489286Y-16917200D01*
X41489286Y-16917200D02*
X41441667Y-16869580D01*
X40536905Y-25854819D02*
X40536905Y-24854819D01*
X40536905Y-24854819D02*
X40775000Y-24854819D01*
X40775000Y-24854819D02*
X40917857Y-24902438D01*
X40917857Y-24902438D02*
X41013095Y-24997676D01*
X41013095Y-24997676D02*
X41060714Y-25092914D01*
X41060714Y-25092914D02*
X41108333Y-25283390D01*
X41108333Y-25283390D02*
X41108333Y-25426247D01*
X41108333Y-25426247D02*
X41060714Y-25616723D01*
X41060714Y-25616723D02*
X41013095Y-25711961D01*
X41013095Y-25711961D02*
X40917857Y-25807200D01*
X40917857Y-25807200D02*
X40775000Y-25854819D01*
X40775000Y-25854819D02*
X40536905Y-25854819D01*
X41965476Y-25188152D02*
X41965476Y-25854819D01*
X41727381Y-24807200D02*
X41489286Y-25521485D01*
X41489286Y-25521485D02*
X42108333Y-25521485D01*
X10628333Y-18869819D02*
X10295000Y-18393628D01*
X10056905Y-18869819D02*
X10056905Y-17869819D01*
X10056905Y-17869819D02*
X10437857Y-17869819D01*
X10437857Y-17869819D02*
X10533095Y-17917438D01*
X10533095Y-17917438D02*
X10580714Y-17965057D01*
X10580714Y-17965057D02*
X10628333Y-18060295D01*
X10628333Y-18060295D02*
X10628333Y-18203152D01*
X10628333Y-18203152D02*
X10580714Y-18298390D01*
X10580714Y-18298390D02*
X10533095Y-18346009D01*
X10533095Y-18346009D02*
X10437857Y-18393628D01*
X10437857Y-18393628D02*
X10056905Y-18393628D01*
X10961667Y-17869819D02*
X11580714Y-17869819D01*
X11580714Y-17869819D02*
X11247381Y-18250771D01*
X11247381Y-18250771D02*
X11390238Y-18250771D01*
X11390238Y-18250771D02*
X11485476Y-18298390D01*
X11485476Y-18298390D02*
X11533095Y-18346009D01*
X11533095Y-18346009D02*
X11580714Y-18441247D01*
X11580714Y-18441247D02*
X11580714Y-18679342D01*
X11580714Y-18679342D02*
X11533095Y-18774580D01*
X11533095Y-18774580D02*
X11485476Y-18822200D01*
X11485476Y-18822200D02*
X11390238Y-18869819D01*
X11390238Y-18869819D02*
X11104524Y-18869819D01*
X11104524Y-18869819D02*
X11009286Y-18822200D01*
X11009286Y-18822200D02*
X10961667Y-18774580D01*
X10152142Y-15362319D02*
X9818809Y-14886128D01*
X9580714Y-15362319D02*
X9580714Y-14362319D01*
X9580714Y-14362319D02*
X9961666Y-14362319D01*
X9961666Y-14362319D02*
X10056904Y-14409938D01*
X10056904Y-14409938D02*
X10104523Y-14457557D01*
X10104523Y-14457557D02*
X10152142Y-14552795D01*
X10152142Y-14552795D02*
X10152142Y-14695652D01*
X10152142Y-14695652D02*
X10104523Y-14790890D01*
X10104523Y-14790890D02*
X10056904Y-14838509D01*
X10056904Y-14838509D02*
X9961666Y-14886128D01*
X9961666Y-14886128D02*
X9580714Y-14886128D01*
X11104523Y-15362319D02*
X10533095Y-15362319D01*
X10818809Y-15362319D02*
X10818809Y-14362319D01*
X10818809Y-14362319D02*
X10723571Y-14505176D01*
X10723571Y-14505176D02*
X10628333Y-14600414D01*
X10628333Y-14600414D02*
X10533095Y-14648033D01*
X11485476Y-14457557D02*
X11533095Y-14409938D01*
X11533095Y-14409938D02*
X11628333Y-14362319D01*
X11628333Y-14362319D02*
X11866428Y-14362319D01*
X11866428Y-14362319D02*
X11961666Y-14409938D01*
X11961666Y-14409938D02*
X12009285Y-14457557D01*
X12009285Y-14457557D02*
X12056904Y-14552795D01*
X12056904Y-14552795D02*
X12056904Y-14648033D01*
X12056904Y-14648033D02*
X12009285Y-14790890D01*
X12009285Y-14790890D02*
X11437857Y-15362319D01*
X11437857Y-15362319D02*
X12056904Y-15362319D01*
X30204580Y-16676666D02*
X30252200Y-16724285D01*
X30252200Y-16724285D02*
X30299819Y-16867142D01*
X30299819Y-16867142D02*
X30299819Y-16962380D01*
X30299819Y-16962380D02*
X30252200Y-17105237D01*
X30252200Y-17105237D02*
X30156961Y-17200475D01*
X30156961Y-17200475D02*
X30061723Y-17248094D01*
X30061723Y-17248094D02*
X29871247Y-17295713D01*
X29871247Y-17295713D02*
X29728390Y-17295713D01*
X29728390Y-17295713D02*
X29537914Y-17248094D01*
X29537914Y-17248094D02*
X29442676Y-17200475D01*
X29442676Y-17200475D02*
X29347438Y-17105237D01*
X29347438Y-17105237D02*
X29299819Y-16962380D01*
X29299819Y-16962380D02*
X29299819Y-16867142D01*
X29299819Y-16867142D02*
X29347438Y-16724285D01*
X29347438Y-16724285D02*
X29395057Y-16676666D01*
X29299819Y-16343332D02*
X29299819Y-15724285D01*
X29299819Y-15724285D02*
X29680771Y-16057618D01*
X29680771Y-16057618D02*
X29680771Y-15914761D01*
X29680771Y-15914761D02*
X29728390Y-15819523D01*
X29728390Y-15819523D02*
X29776009Y-15771904D01*
X29776009Y-15771904D02*
X29871247Y-15724285D01*
X29871247Y-15724285D02*
X30109342Y-15724285D01*
X30109342Y-15724285D02*
X30204580Y-15771904D01*
X30204580Y-15771904D02*
X30252200Y-15819523D01*
X30252200Y-15819523D02*
X30299819Y-15914761D01*
X30299819Y-15914761D02*
X30299819Y-16200475D01*
X30299819Y-16200475D02*
X30252200Y-16295713D01*
X30252200Y-16295713D02*
X30204580Y-16343332D01*
X34163095Y-16849819D02*
X34163095Y-17659342D01*
X34163095Y-17659342D02*
X34210714Y-17754580D01*
X34210714Y-17754580D02*
X34258333Y-17802200D01*
X34258333Y-17802200D02*
X34353571Y-17849819D01*
X34353571Y-17849819D02*
X34544047Y-17849819D01*
X34544047Y-17849819D02*
X34639285Y-17802200D01*
X34639285Y-17802200D02*
X34686904Y-17754580D01*
X34686904Y-17754580D02*
X34734523Y-17659342D01*
X34734523Y-17659342D02*
X34734523Y-16849819D01*
X35734523Y-17849819D02*
X35163095Y-17849819D01*
X35448809Y-17849819D02*
X35448809Y-16849819D01*
X35448809Y-16849819D02*
X35353571Y-16992676D01*
X35353571Y-16992676D02*
X35258333Y-17087914D01*
X35258333Y-17087914D02*
X35163095Y-17135533D01*
X4341905Y-15059819D02*
X4341905Y-14059819D01*
X4341905Y-14059819D02*
X4580000Y-14059819D01*
X4580000Y-14059819D02*
X4722857Y-14107438D01*
X4722857Y-14107438D02*
X4818095Y-14202676D01*
X4818095Y-14202676D02*
X4865714Y-14297914D01*
X4865714Y-14297914D02*
X4913333Y-14488390D01*
X4913333Y-14488390D02*
X4913333Y-14631247D01*
X4913333Y-14631247D02*
X4865714Y-14821723D01*
X4865714Y-14821723D02*
X4818095Y-14916961D01*
X4818095Y-14916961D02*
X4722857Y-15012200D01*
X4722857Y-15012200D02*
X4580000Y-15059819D01*
X4580000Y-15059819D02*
X4341905Y-15059819D01*
X5865714Y-15059819D02*
X5294286Y-15059819D01*
X5580000Y-15059819D02*
X5580000Y-14059819D01*
X5580000Y-14059819D02*
X5484762Y-14202676D01*
X5484762Y-14202676D02*
X5389524Y-14297914D01*
X5389524Y-14297914D02*
X5294286Y-14345533D01*
X28125866Y-18752874D02*
X28935389Y-18752874D01*
X28935389Y-18752874D02*
X29030627Y-18705255D01*
X29030627Y-18705255D02*
X29078247Y-18657636D01*
X29078247Y-18657636D02*
X29125866Y-18562398D01*
X29125866Y-18562398D02*
X29125866Y-18371922D01*
X29125866Y-18371922D02*
X29078247Y-18276684D01*
X29078247Y-18276684D02*
X29030627Y-18229065D01*
X29030627Y-18229065D02*
X28935389Y-18181446D01*
X28935389Y-18181446D02*
X28125866Y-18181446D01*
X28125866Y-17276684D02*
X28125866Y-17467160D01*
X28125866Y-17467160D02*
X28173485Y-17562398D01*
X28173485Y-17562398D02*
X28221104Y-17610017D01*
X28221104Y-17610017D02*
X28363961Y-17705255D01*
X28363961Y-17705255D02*
X28554437Y-17752874D01*
X28554437Y-17752874D02*
X28935389Y-17752874D01*
X28935389Y-17752874D02*
X29030627Y-17705255D01*
X29030627Y-17705255D02*
X29078247Y-17657636D01*
X29078247Y-17657636D02*
X29125866Y-17562398D01*
X29125866Y-17562398D02*
X29125866Y-17371922D01*
X29125866Y-17371922D02*
X29078247Y-17276684D01*
X29078247Y-17276684D02*
X29030627Y-17229065D01*
X29030627Y-17229065D02*
X28935389Y-17181446D01*
X28935389Y-17181446D02*
X28697294Y-17181446D01*
X28697294Y-17181446D02*
X28602056Y-17229065D01*
X28602056Y-17229065D02*
X28554437Y-17276684D01*
X28554437Y-17276684D02*
X28506818Y-17371922D01*
X28506818Y-17371922D02*
X28506818Y-17562398D01*
X28506818Y-17562398D02*
X28554437Y-17657636D01*
X28554437Y-17657636D02*
X28602056Y-17705255D01*
X28602056Y-17705255D02*
X28697294Y-17752874D01*
X40536905Y-15694819D02*
X40536905Y-14694819D01*
X40536905Y-14694819D02*
X40775000Y-14694819D01*
X40775000Y-14694819D02*
X40917857Y-14742438D01*
X40917857Y-14742438D02*
X41013095Y-14837676D01*
X41013095Y-14837676D02*
X41060714Y-14932914D01*
X41060714Y-14932914D02*
X41108333Y-15123390D01*
X41108333Y-15123390D02*
X41108333Y-15266247D01*
X41108333Y-15266247D02*
X41060714Y-15456723D01*
X41060714Y-15456723D02*
X41013095Y-15551961D01*
X41013095Y-15551961D02*
X40917857Y-15647200D01*
X40917857Y-15647200D02*
X40775000Y-15694819D01*
X40775000Y-15694819D02*
X40536905Y-15694819D01*
X42013095Y-14694819D02*
X41536905Y-14694819D01*
X41536905Y-14694819D02*
X41489286Y-15171009D01*
X41489286Y-15171009D02*
X41536905Y-15123390D01*
X41536905Y-15123390D02*
X41632143Y-15075771D01*
X41632143Y-15075771D02*
X41870238Y-15075771D01*
X41870238Y-15075771D02*
X41965476Y-15123390D01*
X41965476Y-15123390D02*
X42013095Y-15171009D01*
X42013095Y-15171009D02*
X42060714Y-15266247D01*
X42060714Y-15266247D02*
X42060714Y-15504342D01*
X42060714Y-15504342D02*
X42013095Y-15599580D01*
X42013095Y-15599580D02*
X41965476Y-15647200D01*
X41965476Y-15647200D02*
X41870238Y-15694819D01*
X41870238Y-15694819D02*
X41632143Y-15694819D01*
X41632143Y-15694819D02*
X41536905Y-15647200D01*
X41536905Y-15647200D02*
X41489286Y-15599580D01*
X15073333Y-26524580D02*
X15025714Y-26572200D01*
X15025714Y-26572200D02*
X14882857Y-26619819D01*
X14882857Y-26619819D02*
X14787619Y-26619819D01*
X14787619Y-26619819D02*
X14644762Y-26572200D01*
X14644762Y-26572200D02*
X14549524Y-26476961D01*
X14549524Y-26476961D02*
X14501905Y-26381723D01*
X14501905Y-26381723D02*
X14454286Y-26191247D01*
X14454286Y-26191247D02*
X14454286Y-26048390D01*
X14454286Y-26048390D02*
X14501905Y-25857914D01*
X14501905Y-25857914D02*
X14549524Y-25762676D01*
X14549524Y-25762676D02*
X14644762Y-25667438D01*
X14644762Y-25667438D02*
X14787619Y-25619819D01*
X14787619Y-25619819D02*
X14882857Y-25619819D01*
X14882857Y-25619819D02*
X15025714Y-25667438D01*
X15025714Y-25667438D02*
X15073333Y-25715057D01*
X15454286Y-25715057D02*
X15501905Y-25667438D01*
X15501905Y-25667438D02*
X15597143Y-25619819D01*
X15597143Y-25619819D02*
X15835238Y-25619819D01*
X15835238Y-25619819D02*
X15930476Y-25667438D01*
X15930476Y-25667438D02*
X15978095Y-25715057D01*
X15978095Y-25715057D02*
X16025714Y-25810295D01*
X16025714Y-25810295D02*
X16025714Y-25905533D01*
X16025714Y-25905533D02*
X15978095Y-26048390D01*
X15978095Y-26048390D02*
X15406667Y-26619819D01*
X15406667Y-26619819D02*
X16025714Y-26619819D01*
X24598333Y-24494819D02*
X24265000Y-24018628D01*
X24026905Y-24494819D02*
X24026905Y-23494819D01*
X24026905Y-23494819D02*
X24407857Y-23494819D01*
X24407857Y-23494819D02*
X24503095Y-23542438D01*
X24503095Y-23542438D02*
X24550714Y-23590057D01*
X24550714Y-23590057D02*
X24598333Y-23685295D01*
X24598333Y-23685295D02*
X24598333Y-23828152D01*
X24598333Y-23828152D02*
X24550714Y-23923390D01*
X24550714Y-23923390D02*
X24503095Y-23971009D01*
X24503095Y-23971009D02*
X24407857Y-24018628D01*
X24407857Y-24018628D02*
X24026905Y-24018628D01*
X25074524Y-24494819D02*
X25265000Y-24494819D01*
X25265000Y-24494819D02*
X25360238Y-24447200D01*
X25360238Y-24447200D02*
X25407857Y-24399580D01*
X25407857Y-24399580D02*
X25503095Y-24256723D01*
X25503095Y-24256723D02*
X25550714Y-24066247D01*
X25550714Y-24066247D02*
X25550714Y-23685295D01*
X25550714Y-23685295D02*
X25503095Y-23590057D01*
X25503095Y-23590057D02*
X25455476Y-23542438D01*
X25455476Y-23542438D02*
X25360238Y-23494819D01*
X25360238Y-23494819D02*
X25169762Y-23494819D01*
X25169762Y-23494819D02*
X25074524Y-23542438D01*
X25074524Y-23542438D02*
X25026905Y-23590057D01*
X25026905Y-23590057D02*
X24979286Y-23685295D01*
X24979286Y-23685295D02*
X24979286Y-23923390D01*
X24979286Y-23923390D02*
X25026905Y-24018628D01*
X25026905Y-24018628D02*
X25074524Y-24066247D01*
X25074524Y-24066247D02*
X25169762Y-24113866D01*
X25169762Y-24113866D02*
X25360238Y-24113866D01*
X25360238Y-24113866D02*
X25455476Y-24066247D01*
X25455476Y-24066247D02*
X25503095Y-24018628D01*
X25503095Y-24018628D02*
X25550714Y-23923390D01*
X10628333Y-22044819D02*
X10295000Y-21568628D01*
X10056905Y-22044819D02*
X10056905Y-21044819D01*
X10056905Y-21044819D02*
X10437857Y-21044819D01*
X10437857Y-21044819D02*
X10533095Y-21092438D01*
X10533095Y-21092438D02*
X10580714Y-21140057D01*
X10580714Y-21140057D02*
X10628333Y-21235295D01*
X10628333Y-21235295D02*
X10628333Y-21378152D01*
X10628333Y-21378152D02*
X10580714Y-21473390D01*
X10580714Y-21473390D02*
X10533095Y-21521009D01*
X10533095Y-21521009D02*
X10437857Y-21568628D01*
X10437857Y-21568628D02*
X10056905Y-21568628D01*
X11485476Y-21378152D02*
X11485476Y-22044819D01*
X11247381Y-20997200D02*
X11009286Y-21711485D01*
X11009286Y-21711485D02*
X11628333Y-21711485D01*
X45386666Y-16349819D02*
X45386666Y-17064104D01*
X45386666Y-17064104D02*
X45339047Y-17206961D01*
X45339047Y-17206961D02*
X45243809Y-17302200D01*
X45243809Y-17302200D02*
X45100952Y-17349819D01*
X45100952Y-17349819D02*
X45005714Y-17349819D01*
X46386666Y-17349819D02*
X45815238Y-17349819D01*
X46100952Y-17349819D02*
X46100952Y-16349819D01*
X46100952Y-16349819D02*
X46005714Y-16492676D01*
X46005714Y-16492676D02*
X45910476Y-16587914D01*
X45910476Y-16587914D02*
X45815238Y-16635533D01*
X57451666Y-20409819D02*
X57451666Y-21124104D01*
X57451666Y-21124104D02*
X57404047Y-21266961D01*
X57404047Y-21266961D02*
X57308809Y-21362200D01*
X57308809Y-21362200D02*
X57165952Y-21409819D01*
X57165952Y-21409819D02*
X57070714Y-21409819D01*
X57880238Y-20505057D02*
X57927857Y-20457438D01*
X57927857Y-20457438D02*
X58023095Y-20409819D01*
X58023095Y-20409819D02*
X58261190Y-20409819D01*
X58261190Y-20409819D02*
X58356428Y-20457438D01*
X58356428Y-20457438D02*
X58404047Y-20505057D01*
X58404047Y-20505057D02*
X58451666Y-20600295D01*
X58451666Y-20600295D02*
X58451666Y-20695533D01*
X58451666Y-20695533D02*
X58404047Y-20838390D01*
X58404047Y-20838390D02*
X57832619Y-21409819D01*
X57832619Y-21409819D02*
X58451666Y-21409819D01*
X15073333Y-24489580D02*
X15025714Y-24537200D01*
X15025714Y-24537200D02*
X14882857Y-24584819D01*
X14882857Y-24584819D02*
X14787619Y-24584819D01*
X14787619Y-24584819D02*
X14644762Y-24537200D01*
X14644762Y-24537200D02*
X14549524Y-24441961D01*
X14549524Y-24441961D02*
X14501905Y-24346723D01*
X14501905Y-24346723D02*
X14454286Y-24156247D01*
X14454286Y-24156247D02*
X14454286Y-24013390D01*
X14454286Y-24013390D02*
X14501905Y-23822914D01*
X14501905Y-23822914D02*
X14549524Y-23727676D01*
X14549524Y-23727676D02*
X14644762Y-23632438D01*
X14644762Y-23632438D02*
X14787619Y-23584819D01*
X14787619Y-23584819D02*
X14882857Y-23584819D01*
X14882857Y-23584819D02*
X15025714Y-23632438D01*
X15025714Y-23632438D02*
X15073333Y-23680057D01*
X16025714Y-24584819D02*
X15454286Y-24584819D01*
X15740000Y-24584819D02*
X15740000Y-23584819D01*
X15740000Y-23584819D02*
X15644762Y-23727676D01*
X15644762Y-23727676D02*
X15549524Y-23822914D01*
X15549524Y-23822914D02*
X15454286Y-23870533D01*
X1994819Y-22693094D02*
X2804342Y-22693094D01*
X2804342Y-22693094D02*
X2899580Y-22645475D01*
X2899580Y-22645475D02*
X2947200Y-22597856D01*
X2947200Y-22597856D02*
X2994819Y-22502618D01*
X2994819Y-22502618D02*
X2994819Y-22312142D01*
X2994819Y-22312142D02*
X2947200Y-22216904D01*
X2947200Y-22216904D02*
X2899580Y-22169285D01*
X2899580Y-22169285D02*
X2804342Y-22121666D01*
X2804342Y-22121666D02*
X1994819Y-22121666D01*
X2947200Y-21693094D02*
X2994819Y-21550237D01*
X2994819Y-21550237D02*
X2994819Y-21312142D01*
X2994819Y-21312142D02*
X2947200Y-21216904D01*
X2947200Y-21216904D02*
X2899580Y-21169285D01*
X2899580Y-21169285D02*
X2804342Y-21121666D01*
X2804342Y-21121666D02*
X2709104Y-21121666D01*
X2709104Y-21121666D02*
X2613866Y-21169285D01*
X2613866Y-21169285D02*
X2566247Y-21216904D01*
X2566247Y-21216904D02*
X2518628Y-21312142D01*
X2518628Y-21312142D02*
X2471009Y-21502618D01*
X2471009Y-21502618D02*
X2423390Y-21597856D01*
X2423390Y-21597856D02*
X2375771Y-21645475D01*
X2375771Y-21645475D02*
X2280533Y-21693094D01*
X2280533Y-21693094D02*
X2185295Y-21693094D01*
X2185295Y-21693094D02*
X2090057Y-21645475D01*
X2090057Y-21645475D02*
X2042438Y-21597856D01*
X2042438Y-21597856D02*
X1994819Y-21502618D01*
X1994819Y-21502618D02*
X1994819Y-21264523D01*
X1994819Y-21264523D02*
X2042438Y-21121666D01*
X2471009Y-20359761D02*
X2518628Y-20216904D01*
X2518628Y-20216904D02*
X2566247Y-20169285D01*
X2566247Y-20169285D02*
X2661485Y-20121666D01*
X2661485Y-20121666D02*
X2804342Y-20121666D01*
X2804342Y-20121666D02*
X2899580Y-20169285D01*
X2899580Y-20169285D02*
X2947200Y-20216904D01*
X2947200Y-20216904D02*
X2994819Y-20312142D01*
X2994819Y-20312142D02*
X2994819Y-20693094D01*
X2994819Y-20693094D02*
X1994819Y-20693094D01*
X1994819Y-20693094D02*
X1994819Y-20359761D01*
X1994819Y-20359761D02*
X2042438Y-20264523D01*
X2042438Y-20264523D02*
X2090057Y-20216904D01*
X2090057Y-20216904D02*
X2185295Y-20169285D01*
X2185295Y-20169285D02*
X2280533Y-20169285D01*
X2280533Y-20169285D02*
X2375771Y-20216904D01*
X2375771Y-20216904D02*
X2423390Y-20264523D01*
X2423390Y-20264523D02*
X2471009Y-20359761D01*
X2471009Y-20359761D02*
X2471009Y-20693094D01*
X2994819Y-19169285D02*
X2994819Y-19740713D01*
X2994819Y-19454999D02*
X1994819Y-19454999D01*
X1994819Y-19454999D02*
X2137676Y-19550237D01*
X2137676Y-19550237D02*
X2232914Y-19645475D01*
X2232914Y-19645475D02*
X2280533Y-19740713D01*
X15615595Y-17234819D02*
X15615595Y-18044342D01*
X15615595Y-18044342D02*
X15663214Y-18139580D01*
X15663214Y-18139580D02*
X15710833Y-18187200D01*
X15710833Y-18187200D02*
X15806071Y-18234819D01*
X15806071Y-18234819D02*
X15996547Y-18234819D01*
X15996547Y-18234819D02*
X16091785Y-18187200D01*
X16091785Y-18187200D02*
X16139404Y-18139580D01*
X16139404Y-18139580D02*
X16187023Y-18044342D01*
X16187023Y-18044342D02*
X16187023Y-17234819D01*
X16567976Y-17234819D02*
X17187023Y-17234819D01*
X17187023Y-17234819D02*
X16853690Y-17615771D01*
X16853690Y-17615771D02*
X16996547Y-17615771D01*
X16996547Y-17615771D02*
X17091785Y-17663390D01*
X17091785Y-17663390D02*
X17139404Y-17711009D01*
X17139404Y-17711009D02*
X17187023Y-17806247D01*
X17187023Y-17806247D02*
X17187023Y-18044342D01*
X17187023Y-18044342D02*
X17139404Y-18139580D01*
X17139404Y-18139580D02*
X17091785Y-18187200D01*
X17091785Y-18187200D02*
X16996547Y-18234819D01*
X16996547Y-18234819D02*
X16710833Y-18234819D01*
X16710833Y-18234819D02*
X16615595Y-18187200D01*
X16615595Y-18187200D02*
X16567976Y-18139580D01*
X37824580Y-16656666D02*
X37872200Y-16704285D01*
X37872200Y-16704285D02*
X37919819Y-16847142D01*
X37919819Y-16847142D02*
X37919819Y-16942380D01*
X37919819Y-16942380D02*
X37872200Y-17085237D01*
X37872200Y-17085237D02*
X37776961Y-17180475D01*
X37776961Y-17180475D02*
X37681723Y-17228094D01*
X37681723Y-17228094D02*
X37491247Y-17275713D01*
X37491247Y-17275713D02*
X37348390Y-17275713D01*
X37348390Y-17275713D02*
X37157914Y-17228094D01*
X37157914Y-17228094D02*
X37062676Y-17180475D01*
X37062676Y-17180475D02*
X36967438Y-17085237D01*
X36967438Y-17085237D02*
X36919819Y-16942380D01*
X36919819Y-16942380D02*
X36919819Y-16847142D01*
X36919819Y-16847142D02*
X36967438Y-16704285D01*
X36967438Y-16704285D02*
X37015057Y-16656666D01*
X36919819Y-16323332D02*
X36919819Y-15656666D01*
X36919819Y-15656666D02*
X37919819Y-16085237D01*
X8556666Y-26096009D02*
X8223333Y-26096009D01*
X8223333Y-26619819D02*
X8223333Y-25619819D01*
X8223333Y-25619819D02*
X8699523Y-25619819D01*
X9604285Y-26619819D02*
X9032857Y-26619819D01*
X9318571Y-26619819D02*
X9318571Y-25619819D01*
X9318571Y-25619819D02*
X9223333Y-25762676D01*
X9223333Y-25762676D02*
X9128095Y-25857914D01*
X9128095Y-25857914D02*
X9032857Y-25905533D01*
D11*
%TO.C,D3*%
X42740000Y-16110000D02*
X42740000Y-16910000D01*
X44100000Y-16110000D02*
X42740000Y-16110000D01*
X44100000Y-16910000D02*
X42740000Y-16910000D01*
%TO.C,D4*%
X42740000Y-25000000D02*
X42740000Y-25800000D01*
X44100000Y-25000000D02*
X42740000Y-25000000D01*
X44100000Y-25800000D02*
X42740000Y-25800000D01*
%TO.C,R3*%
X10948641Y-19305000D02*
X10641359Y-19305000D01*
X10948641Y-20065000D02*
X10641359Y-20065000D01*
%TO.C,R12*%
X7773641Y-14225000D02*
X7466359Y-14225000D01*
X7773641Y-14985000D02*
X7466359Y-14985000D01*
%TO.C,C3*%
X30755000Y-16617836D02*
X30755000Y-16402164D01*
X31475000Y-16617836D02*
X31475000Y-16402164D01*
%TO.C,U1*%
X32175000Y-18230000D02*
X32175000Y-18490000D01*
X32175000Y-23680000D02*
X32175000Y-23420000D01*
X34925000Y-18230000D02*
X32175000Y-18230000D01*
X34925000Y-18230000D02*
X37675000Y-18230000D01*
X34925000Y-23680000D02*
X32175000Y-23680000D01*
X34925000Y-23680000D02*
X37675000Y-23680000D01*
X37675000Y-18230000D02*
X37675000Y-18490000D01*
X37675000Y-23680000D02*
X37675000Y-23420000D01*
X31405000Y-18490000D02*
X31165000Y-18160000D01*
X31645000Y-18160000D01*
X31405000Y-18490000D01*
G36*
X31405000Y-18490000D02*
G01*
X31165000Y-18160000D01*
X31645000Y-18160000D01*
X31405000Y-18490000D01*
G37*
%TO.C,D1*%
X1237500Y-15565000D02*
X3922500Y-15565000D01*
X3922500Y-13645000D02*
X1237500Y-13645000D01*
X3922500Y-15565000D02*
X3922500Y-13645000D01*
%TO.C,U6*%
X22155000Y-18345000D02*
X22155000Y-17860000D01*
X22155000Y-22840000D02*
X22155000Y-22115000D01*
X22880000Y-17620000D02*
X22455000Y-17620000D01*
X22880000Y-22840000D02*
X22155000Y-22840000D01*
X26650000Y-17620000D02*
X27375000Y-17620000D01*
X26650000Y-22840000D02*
X27375000Y-22840000D01*
X27375000Y-17620000D02*
X27375000Y-18345000D01*
X27375000Y-22840000D02*
X27375000Y-22115000D01*
X22155000Y-17620000D02*
X21915000Y-17290000D01*
X22395000Y-17290000D01*
X22155000Y-17620000D01*
G36*
X22155000Y-17620000D02*
G01*
X21915000Y-17290000D01*
X22395000Y-17290000D01*
X22155000Y-17620000D01*
G37*
%TO.C,D5*%
X42740000Y-14840000D02*
X42740000Y-15640000D01*
X44100000Y-14840000D02*
X42740000Y-14840000D01*
X44100000Y-15640000D02*
X42740000Y-15640000D01*
%TO.C,C2*%
X18041252Y-25430000D02*
X17518748Y-25430000D01*
X18041252Y-26900000D02*
X17518748Y-26900000D01*
%TO.C,R9*%
X22888641Y-23660000D02*
X22581359Y-23660000D01*
X22888641Y-24420000D02*
X22581359Y-24420000D01*
%TO.C,R4*%
X10948641Y-22480000D02*
X10641359Y-22480000D01*
X10948641Y-23240000D02*
X10641359Y-23240000D01*
%TO.C,J1*%
X42405000Y-18195000D02*
X43660000Y-18195000D01*
X43660000Y-17895000D02*
X43660000Y-18195000D01*
X43660000Y-17895000D02*
X47780000Y-17895000D01*
X43660000Y-19715000D02*
X43660000Y-20195000D01*
X43660000Y-21715000D02*
X43660000Y-22195000D01*
X43660000Y-23715000D02*
X43660000Y-24015000D01*
X43660000Y-24015000D02*
X47780000Y-24015000D01*
X47780000Y-17895000D02*
X47780000Y-18195000D01*
X47780000Y-19715000D02*
X47780000Y-20195000D01*
X47780000Y-21715000D02*
X47780000Y-22195000D01*
X47780000Y-23715000D02*
X47780000Y-24015000D01*
%TO.C,J2*%
X53205000Y-14895000D02*
X53205000Y-15915000D01*
X53205000Y-15915000D02*
X54805000Y-15915000D01*
X53205000Y-25995000D02*
X54805000Y-25995000D01*
X53205000Y-27015000D02*
X53205000Y-25995000D01*
X54805000Y-15915000D02*
X54805000Y-17195000D01*
X54805000Y-24715000D02*
X51915000Y-24715000D01*
X54805000Y-25995000D02*
X54805000Y-24715000D01*
X57455000Y-14895000D02*
X53205000Y-14895000D01*
X57455000Y-27015000D02*
X53205000Y-27015000D01*
X61025000Y-25295000D02*
X61025000Y-16615000D01*
%TO.C,C1*%
X17518748Y-23395000D02*
X18041252Y-23395000D01*
X17518748Y-24865000D02*
X18041252Y-24865000D01*
%TO.C,USB1*%
X-1360000Y-16300000D02*
X-1360000Y-25700000D01*
X540000Y-16300000D02*
X-1360000Y-16300000D01*
X540000Y-25700000D02*
X-1360000Y-25700000D01*
X4440000Y-16300000D02*
X2440000Y-16300000D01*
X4440000Y-25700000D02*
X2440000Y-25700000D01*
%TO.C,U3*%
X16510000Y-18760000D02*
X15710000Y-18760000D01*
X16510000Y-18760000D02*
X17310000Y-18760000D01*
X16510000Y-21880000D02*
X15710000Y-21880000D01*
X16510000Y-21880000D02*
X17310000Y-21880000D01*
X18050000Y-22160000D02*
X17570000Y-22160000D01*
X17810000Y-21830000D01*
X18050000Y-22160000D01*
G36*
X18050000Y-22160000D02*
G01*
X17570000Y-22160000D01*
X17810000Y-21830000D01*
X18050000Y-22160000D01*
G37*
%TO.C,C7*%
X38375000Y-16617836D02*
X38375000Y-16402164D01*
X39095000Y-16617836D02*
X39095000Y-16402164D01*
%TO.C,F1*%
X12667064Y-25255000D02*
X11462936Y-25255000D01*
X12667064Y-27075000D02*
X11462936Y-27075000D01*
%TD*%
%LPC*%
D12*
%TO.C,D3*%
X43180000Y-16510000D03*
X44020000Y-16510000D03*
%TD*%
%TO.C,D4*%
X43180000Y-25400000D03*
X44020000Y-25400000D03*
%TD*%
D13*
%TO.C,R3*%
X11305000Y-19685000D03*
X10285000Y-19685000D03*
%TD*%
%TO.C,R12*%
X8130000Y-14605000D03*
X7110000Y-14605000D03*
%TD*%
D14*
%TO.C,C3*%
X31115000Y-16990000D03*
X31115000Y-16030000D03*
%TD*%
D15*
%TO.C,U1*%
X31325000Y-19050000D03*
X31325000Y-20320000D03*
X31325000Y-21590000D03*
X31325000Y-22860000D03*
X38525000Y-22860000D03*
X38525000Y-21590000D03*
X38525000Y-20320000D03*
X38525000Y-19050000D03*
%TD*%
D16*
%TO.C,D1*%
X3175000Y-14605000D03*
X1300000Y-14605000D03*
%TD*%
D17*
%TO.C,U6*%
X22315000Y-18730000D03*
X22315000Y-19230000D03*
X22315000Y-19730000D03*
X22315000Y-20230000D03*
X22315000Y-20730000D03*
X22315000Y-21230000D03*
X22315000Y-21730000D03*
D18*
X23265000Y-22680000D03*
X23765000Y-22680000D03*
X24265000Y-22680000D03*
X24765000Y-22680000D03*
X25265000Y-22680000D03*
X25765000Y-22680000D03*
X26265000Y-22680000D03*
D17*
X27215000Y-21730000D03*
X27215000Y-21230000D03*
X27215000Y-20730000D03*
X27215000Y-20230000D03*
X27215000Y-19730000D03*
X27215000Y-19230000D03*
X27215000Y-18730000D03*
D18*
X26265000Y-17780000D03*
X25765000Y-17780000D03*
X25265000Y-17780000D03*
X24765000Y-17780000D03*
X24265000Y-17780000D03*
X23765000Y-17780000D03*
X23265000Y-17780000D03*
D19*
X24765000Y-20230000D03*
%TD*%
D12*
%TO.C,D5*%
X43180000Y-15240000D03*
X44020000Y-15240000D03*
%TD*%
D20*
%TO.C,C2*%
X18730000Y-26165000D03*
X16830000Y-26165000D03*
%TD*%
D13*
%TO.C,R9*%
X23245000Y-24040000D03*
X22225000Y-24040000D03*
%TD*%
%TO.C,R4*%
X11305000Y-22860000D03*
X10285000Y-22860000D03*
%TD*%
D21*
%TO.C,J1*%
X43635000Y-18955000D03*
X47805000Y-18955000D03*
X43635000Y-20955000D03*
X47805000Y-20955000D03*
X43635000Y-22955000D03*
X47805000Y-22955000D03*
%TD*%
D22*
%TO.C,J2*%
X53665000Y-23955000D03*
X53665000Y-21955000D03*
X53665000Y-19955000D03*
X53665000Y-17955000D03*
D23*
X59415000Y-26305000D03*
X59415000Y-15605000D03*
%TD*%
D24*
%TO.C,C1*%
X16830000Y-24130000D03*
X18730000Y-24130000D03*
%TD*%
D25*
%TO.C,USB1*%
X5140000Y-18110000D03*
X5140000Y-23890000D03*
D26*
X6585000Y-17750000D03*
X6585000Y-18550000D03*
D27*
X6585000Y-19750000D03*
X6585000Y-20750000D03*
X6585000Y-21250000D03*
X6585000Y-22250000D03*
D26*
X6585000Y-23450000D03*
X6585000Y-24250000D03*
D27*
X6585000Y-22750000D03*
X6585000Y-21750000D03*
X6585000Y-20250000D03*
X6585000Y-19250000D03*
D28*
X5670000Y-16680000D03*
D29*
X1490000Y-16680000D03*
D28*
X5670000Y-25320000D03*
D29*
X1490000Y-25320000D03*
%TD*%
D30*
%TO.C,U3*%
X17647500Y-21270000D03*
X17647500Y-20320000D03*
X17647500Y-19370000D03*
X15372500Y-19370000D03*
X15372500Y-20320000D03*
X15372500Y-21270000D03*
%TD*%
D14*
%TO.C,C7*%
X38735000Y-16990000D03*
X38735000Y-16030000D03*
%TD*%
D31*
%TO.C,F1*%
X13465000Y-26165000D03*
X10665000Y-26165000D03*
%TD*%
%LPD*%
M02*
