%TF.GenerationSoftware,KiCad,Pcbnew,8.0.4+dfsg-1*%
%TF.CreationDate,2024-10-16T21:23:15+02:00*%
%TF.ProjectId,usb-serial,7573622d-7365-4726-9961-6c2e6b696361,rev?*%
%TF.SameCoordinates,Original*%
%TF.FileFunction,Legend,Bot*%
%TF.FilePolarity,Positive*%
%FSLAX46Y46*%
G04 Gerber Fmt 4.6, Leading zero omitted, Abs format (unit mm)*
G04 Created by KiCad (PCBNEW 8.0.4+dfsg-1) date 2024-10-16 21:23:15*
%MOMM*%
%LPD*%
G01*
G04 APERTURE LIST*
%ADD10C,0.300000*%
%ADD11C,0.650000*%
%ADD12O,2.100000X1.000000*%
%ADD13O,1.600000X1.000000*%
G04 APERTURE END LIST*
D10*
X54690489Y-19610912D02*
X54690489Y-18110912D01*
X54047631Y-19539484D02*
X53904774Y-19610912D01*
X53904774Y-19610912D02*
X53619060Y-19610912D01*
X53619060Y-19610912D02*
X53476203Y-19539484D01*
X53476203Y-19539484D02*
X53404774Y-19396626D01*
X53404774Y-19396626D02*
X53404774Y-19325198D01*
X53404774Y-19325198D02*
X53476203Y-19182341D01*
X53476203Y-19182341D02*
X53619060Y-19110912D01*
X53619060Y-19110912D02*
X53833346Y-19110912D01*
X53833346Y-19110912D02*
X53976203Y-19039484D01*
X53976203Y-19039484D02*
X54047631Y-18896626D01*
X54047631Y-18896626D02*
X54047631Y-18825198D01*
X54047631Y-18825198D02*
X53976203Y-18682341D01*
X53976203Y-18682341D02*
X53833346Y-18610912D01*
X53833346Y-18610912D02*
X53619060Y-18610912D01*
X53619060Y-18610912D02*
X53476203Y-18682341D01*
X52547631Y-19610912D02*
X52690488Y-19539484D01*
X52690488Y-19539484D02*
X52761917Y-19468055D01*
X52761917Y-19468055D02*
X52833345Y-19325198D01*
X52833345Y-19325198D02*
X52833345Y-18896626D01*
X52833345Y-18896626D02*
X52761917Y-18753769D01*
X52761917Y-18753769D02*
X52690488Y-18682341D01*
X52690488Y-18682341D02*
X52547631Y-18610912D01*
X52547631Y-18610912D02*
X52333345Y-18610912D01*
X52333345Y-18610912D02*
X52190488Y-18682341D01*
X52190488Y-18682341D02*
X52119060Y-18753769D01*
X52119060Y-18753769D02*
X52047631Y-18896626D01*
X52047631Y-18896626D02*
X52047631Y-19325198D01*
X52047631Y-19325198D02*
X52119060Y-19468055D01*
X52119060Y-19468055D02*
X52190488Y-19539484D01*
X52190488Y-19539484D02*
X52333345Y-19610912D01*
X52333345Y-19610912D02*
X52547631Y-19610912D01*
X51190488Y-19610912D02*
X51333345Y-19539484D01*
X51333345Y-19539484D02*
X51404774Y-19396626D01*
X51404774Y-19396626D02*
X51404774Y-18110912D01*
X49976203Y-19610912D02*
X49976203Y-18825198D01*
X49976203Y-18825198D02*
X50047631Y-18682341D01*
X50047631Y-18682341D02*
X50190488Y-18610912D01*
X50190488Y-18610912D02*
X50476203Y-18610912D01*
X50476203Y-18610912D02*
X50619060Y-18682341D01*
X49976203Y-19539484D02*
X50119060Y-19610912D01*
X50119060Y-19610912D02*
X50476203Y-19610912D01*
X50476203Y-19610912D02*
X50619060Y-19539484D01*
X50619060Y-19539484D02*
X50690488Y-19396626D01*
X50690488Y-19396626D02*
X50690488Y-19253769D01*
X50690488Y-19253769D02*
X50619060Y-19110912D01*
X50619060Y-19110912D02*
X50476203Y-19039484D01*
X50476203Y-19039484D02*
X50119060Y-19039484D01*
X50119060Y-19039484D02*
X49976203Y-18968055D01*
X49476202Y-18610912D02*
X48904774Y-18610912D01*
X49261917Y-18110912D02*
X49261917Y-19396626D01*
X49261917Y-19396626D02*
X49190488Y-19539484D01*
X49190488Y-19539484D02*
X49047631Y-19610912D01*
X49047631Y-19610912D02*
X48904774Y-19610912D01*
X47833345Y-19539484D02*
X47976202Y-19610912D01*
X47976202Y-19610912D02*
X48261917Y-19610912D01*
X48261917Y-19610912D02*
X48404774Y-19539484D01*
X48404774Y-19539484D02*
X48476202Y-19396626D01*
X48476202Y-19396626D02*
X48476202Y-18825198D01*
X48476202Y-18825198D02*
X48404774Y-18682341D01*
X48404774Y-18682341D02*
X48261917Y-18610912D01*
X48261917Y-18610912D02*
X47976202Y-18610912D01*
X47976202Y-18610912D02*
X47833345Y-18682341D01*
X47833345Y-18682341D02*
X47761917Y-18825198D01*
X47761917Y-18825198D02*
X47761917Y-18968055D01*
X47761917Y-18968055D02*
X48476202Y-19110912D01*
X46476203Y-19610912D02*
X46476203Y-18110912D01*
X46476203Y-19539484D02*
X46619060Y-19610912D01*
X46619060Y-19610912D02*
X46904774Y-19610912D01*
X46904774Y-19610912D02*
X47047631Y-19539484D01*
X47047631Y-19539484D02*
X47119060Y-19468055D01*
X47119060Y-19468055D02*
X47190488Y-19325198D01*
X47190488Y-19325198D02*
X47190488Y-18896626D01*
X47190488Y-18896626D02*
X47119060Y-18753769D01*
X47119060Y-18753769D02*
X47047631Y-18682341D01*
X47047631Y-18682341D02*
X46904774Y-18610912D01*
X46904774Y-18610912D02*
X46619060Y-18610912D01*
X46619060Y-18610912D02*
X46476203Y-18682341D01*
X44619060Y-18110912D02*
X44619060Y-19325198D01*
X44619060Y-19325198D02*
X44547631Y-19468055D01*
X44547631Y-19468055D02*
X44476203Y-19539484D01*
X44476203Y-19539484D02*
X44333345Y-19610912D01*
X44333345Y-19610912D02*
X44047631Y-19610912D01*
X44047631Y-19610912D02*
X43904774Y-19539484D01*
X43904774Y-19539484D02*
X43833345Y-19468055D01*
X43833345Y-19468055D02*
X43761917Y-19325198D01*
X43761917Y-19325198D02*
X43761917Y-18110912D01*
X43119059Y-19539484D02*
X42904774Y-19610912D01*
X42904774Y-19610912D02*
X42547631Y-19610912D01*
X42547631Y-19610912D02*
X42404774Y-19539484D01*
X42404774Y-19539484D02*
X42333345Y-19468055D01*
X42333345Y-19468055D02*
X42261916Y-19325198D01*
X42261916Y-19325198D02*
X42261916Y-19182341D01*
X42261916Y-19182341D02*
X42333345Y-19039484D01*
X42333345Y-19039484D02*
X42404774Y-18968055D01*
X42404774Y-18968055D02*
X42547631Y-18896626D01*
X42547631Y-18896626D02*
X42833345Y-18825198D01*
X42833345Y-18825198D02*
X42976202Y-18753769D01*
X42976202Y-18753769D02*
X43047631Y-18682341D01*
X43047631Y-18682341D02*
X43119059Y-18539484D01*
X43119059Y-18539484D02*
X43119059Y-18396626D01*
X43119059Y-18396626D02*
X43047631Y-18253769D01*
X43047631Y-18253769D02*
X42976202Y-18182341D01*
X42976202Y-18182341D02*
X42833345Y-18110912D01*
X42833345Y-18110912D02*
X42476202Y-18110912D01*
X42476202Y-18110912D02*
X42261916Y-18182341D01*
X41119060Y-18825198D02*
X40904774Y-18896626D01*
X40904774Y-18896626D02*
X40833345Y-18968055D01*
X40833345Y-18968055D02*
X40761917Y-19110912D01*
X40761917Y-19110912D02*
X40761917Y-19325198D01*
X40761917Y-19325198D02*
X40833345Y-19468055D01*
X40833345Y-19468055D02*
X40904774Y-19539484D01*
X40904774Y-19539484D02*
X41047631Y-19610912D01*
X41047631Y-19610912D02*
X41619060Y-19610912D01*
X41619060Y-19610912D02*
X41619060Y-18110912D01*
X41619060Y-18110912D02*
X41119060Y-18110912D01*
X41119060Y-18110912D02*
X40976203Y-18182341D01*
X40976203Y-18182341D02*
X40904774Y-18253769D01*
X40904774Y-18253769D02*
X40833345Y-18396626D01*
X40833345Y-18396626D02*
X40833345Y-18539484D01*
X40833345Y-18539484D02*
X40904774Y-18682341D01*
X40904774Y-18682341D02*
X40976203Y-18753769D01*
X40976203Y-18753769D02*
X41119060Y-18825198D01*
X41119060Y-18825198D02*
X41619060Y-18825198D01*
X40119060Y-19039484D02*
X38976203Y-19039484D01*
X38333345Y-19539484D02*
X38119060Y-19610912D01*
X38119060Y-19610912D02*
X37761917Y-19610912D01*
X37761917Y-19610912D02*
X37619060Y-19539484D01*
X37619060Y-19539484D02*
X37547631Y-19468055D01*
X37547631Y-19468055D02*
X37476202Y-19325198D01*
X37476202Y-19325198D02*
X37476202Y-19182341D01*
X37476202Y-19182341D02*
X37547631Y-19039484D01*
X37547631Y-19039484D02*
X37619060Y-18968055D01*
X37619060Y-18968055D02*
X37761917Y-18896626D01*
X37761917Y-18896626D02*
X38047631Y-18825198D01*
X38047631Y-18825198D02*
X38190488Y-18753769D01*
X38190488Y-18753769D02*
X38261917Y-18682341D01*
X38261917Y-18682341D02*
X38333345Y-18539484D01*
X38333345Y-18539484D02*
X38333345Y-18396626D01*
X38333345Y-18396626D02*
X38261917Y-18253769D01*
X38261917Y-18253769D02*
X38190488Y-18182341D01*
X38190488Y-18182341D02*
X38047631Y-18110912D01*
X38047631Y-18110912D02*
X37690488Y-18110912D01*
X37690488Y-18110912D02*
X37476202Y-18182341D01*
X36261917Y-19539484D02*
X36404774Y-19610912D01*
X36404774Y-19610912D02*
X36690489Y-19610912D01*
X36690489Y-19610912D02*
X36833346Y-19539484D01*
X36833346Y-19539484D02*
X36904774Y-19396626D01*
X36904774Y-19396626D02*
X36904774Y-18825198D01*
X36904774Y-18825198D02*
X36833346Y-18682341D01*
X36833346Y-18682341D02*
X36690489Y-18610912D01*
X36690489Y-18610912D02*
X36404774Y-18610912D01*
X36404774Y-18610912D02*
X36261917Y-18682341D01*
X36261917Y-18682341D02*
X36190489Y-18825198D01*
X36190489Y-18825198D02*
X36190489Y-18968055D01*
X36190489Y-18968055D02*
X36904774Y-19110912D01*
X35547632Y-19610912D02*
X35547632Y-18610912D01*
X35547632Y-18896626D02*
X35476203Y-18753769D01*
X35476203Y-18753769D02*
X35404775Y-18682341D01*
X35404775Y-18682341D02*
X35261917Y-18610912D01*
X35261917Y-18610912D02*
X35119060Y-18610912D01*
X34619061Y-19610912D02*
X34619061Y-18610912D01*
X34619061Y-18110912D02*
X34690489Y-18182341D01*
X34690489Y-18182341D02*
X34619061Y-18253769D01*
X34619061Y-18253769D02*
X34547632Y-18182341D01*
X34547632Y-18182341D02*
X34619061Y-18110912D01*
X34619061Y-18110912D02*
X34619061Y-18253769D01*
X33261918Y-19610912D02*
X33261918Y-18825198D01*
X33261918Y-18825198D02*
X33333346Y-18682341D01*
X33333346Y-18682341D02*
X33476203Y-18610912D01*
X33476203Y-18610912D02*
X33761918Y-18610912D01*
X33761918Y-18610912D02*
X33904775Y-18682341D01*
X33261918Y-19539484D02*
X33404775Y-19610912D01*
X33404775Y-19610912D02*
X33761918Y-19610912D01*
X33761918Y-19610912D02*
X33904775Y-19539484D01*
X33904775Y-19539484D02*
X33976203Y-19396626D01*
X33976203Y-19396626D02*
X33976203Y-19253769D01*
X33976203Y-19253769D02*
X33904775Y-19110912D01*
X33904775Y-19110912D02*
X33761918Y-19039484D01*
X33761918Y-19039484D02*
X33404775Y-19039484D01*
X33404775Y-19039484D02*
X33261918Y-18968055D01*
X32333346Y-19610912D02*
X32476203Y-19539484D01*
X32476203Y-19539484D02*
X32547632Y-19396626D01*
X32547632Y-19396626D02*
X32547632Y-18110912D01*
X30761918Y-18110912D02*
X29833346Y-18110912D01*
X29833346Y-18110912D02*
X30333346Y-18682341D01*
X30333346Y-18682341D02*
X30119061Y-18682341D01*
X30119061Y-18682341D02*
X29976204Y-18753769D01*
X29976204Y-18753769D02*
X29904775Y-18825198D01*
X29904775Y-18825198D02*
X29833346Y-18968055D01*
X29833346Y-18968055D02*
X29833346Y-19325198D01*
X29833346Y-19325198D02*
X29904775Y-19468055D01*
X29904775Y-19468055D02*
X29976204Y-19539484D01*
X29976204Y-19539484D02*
X30119061Y-19610912D01*
X30119061Y-19610912D02*
X30547632Y-19610912D01*
X30547632Y-19610912D02*
X30690489Y-19539484D01*
X30690489Y-19539484D02*
X30761918Y-19468055D01*
X29190490Y-19468055D02*
X29119061Y-19539484D01*
X29119061Y-19539484D02*
X29190490Y-19610912D01*
X29190490Y-19610912D02*
X29261918Y-19539484D01*
X29261918Y-19539484D02*
X29190490Y-19468055D01*
X29190490Y-19468055D02*
X29190490Y-19610912D01*
X28619061Y-18110912D02*
X27690489Y-18110912D01*
X27690489Y-18110912D02*
X28190489Y-18682341D01*
X28190489Y-18682341D02*
X27976204Y-18682341D01*
X27976204Y-18682341D02*
X27833347Y-18753769D01*
X27833347Y-18753769D02*
X27761918Y-18825198D01*
X27761918Y-18825198D02*
X27690489Y-18968055D01*
X27690489Y-18968055D02*
X27690489Y-19325198D01*
X27690489Y-19325198D02*
X27761918Y-19468055D01*
X27761918Y-19468055D02*
X27833347Y-19539484D01*
X27833347Y-19539484D02*
X27976204Y-19610912D01*
X27976204Y-19610912D02*
X28404775Y-19610912D01*
X28404775Y-19610912D02*
X28547632Y-19539484D01*
X28547632Y-19539484D02*
X28619061Y-19468055D01*
X27261918Y-18110912D02*
X26761918Y-19610912D01*
X26761918Y-19610912D02*
X26261918Y-18110912D01*
X24833347Y-18110912D02*
X23976205Y-18110912D01*
X24404776Y-19610912D02*
X24404776Y-18110912D01*
X23690490Y-18110912D02*
X22833348Y-18110912D01*
X23261919Y-19610912D02*
X23261919Y-18110912D01*
X21619062Y-19610912D02*
X22333348Y-19610912D01*
X22333348Y-19610912D02*
X22333348Y-18110912D01*
X19333348Y-19610912D02*
X19333348Y-18825198D01*
X19333348Y-18825198D02*
X19404776Y-18682341D01*
X19404776Y-18682341D02*
X19547633Y-18610912D01*
X19547633Y-18610912D02*
X19833348Y-18610912D01*
X19833348Y-18610912D02*
X19976205Y-18682341D01*
X19333348Y-19539484D02*
X19476205Y-19610912D01*
X19476205Y-19610912D02*
X19833348Y-19610912D01*
X19833348Y-19610912D02*
X19976205Y-19539484D01*
X19976205Y-19539484D02*
X20047633Y-19396626D01*
X20047633Y-19396626D02*
X20047633Y-19253769D01*
X20047633Y-19253769D02*
X19976205Y-19110912D01*
X19976205Y-19110912D02*
X19833348Y-19039484D01*
X19833348Y-19039484D02*
X19476205Y-19039484D01*
X19476205Y-19039484D02*
X19333348Y-18968055D01*
X17976205Y-19610912D02*
X17976205Y-18110912D01*
X17976205Y-19539484D02*
X18119062Y-19610912D01*
X18119062Y-19610912D02*
X18404776Y-19610912D01*
X18404776Y-19610912D02*
X18547633Y-19539484D01*
X18547633Y-19539484D02*
X18619062Y-19468055D01*
X18619062Y-19468055D02*
X18690490Y-19325198D01*
X18690490Y-19325198D02*
X18690490Y-18896626D01*
X18690490Y-18896626D02*
X18619062Y-18753769D01*
X18619062Y-18753769D02*
X18547633Y-18682341D01*
X18547633Y-18682341D02*
X18404776Y-18610912D01*
X18404776Y-18610912D02*
X18119062Y-18610912D01*
X18119062Y-18610912D02*
X17976205Y-18682341D01*
X16619062Y-19610912D02*
X16619062Y-18825198D01*
X16619062Y-18825198D02*
X16690490Y-18682341D01*
X16690490Y-18682341D02*
X16833347Y-18610912D01*
X16833347Y-18610912D02*
X17119062Y-18610912D01*
X17119062Y-18610912D02*
X17261919Y-18682341D01*
X16619062Y-19539484D02*
X16761919Y-19610912D01*
X16761919Y-19610912D02*
X17119062Y-19610912D01*
X17119062Y-19610912D02*
X17261919Y-19539484D01*
X17261919Y-19539484D02*
X17333347Y-19396626D01*
X17333347Y-19396626D02*
X17333347Y-19253769D01*
X17333347Y-19253769D02*
X17261919Y-19110912D01*
X17261919Y-19110912D02*
X17119062Y-19039484D01*
X17119062Y-19039484D02*
X16761919Y-19039484D01*
X16761919Y-19039484D02*
X16619062Y-18968055D01*
X15904776Y-18610912D02*
X15904776Y-20110912D01*
X15904776Y-18682341D02*
X15761919Y-18610912D01*
X15761919Y-18610912D02*
X15476204Y-18610912D01*
X15476204Y-18610912D02*
X15333347Y-18682341D01*
X15333347Y-18682341D02*
X15261919Y-18753769D01*
X15261919Y-18753769D02*
X15190490Y-18896626D01*
X15190490Y-18896626D02*
X15190490Y-19325198D01*
X15190490Y-19325198D02*
X15261919Y-19468055D01*
X15261919Y-19468055D02*
X15333347Y-19539484D01*
X15333347Y-19539484D02*
X15476204Y-19610912D01*
X15476204Y-19610912D02*
X15761919Y-19610912D01*
X15761919Y-19610912D02*
X15904776Y-19539484D01*
X14761918Y-18610912D02*
X14190490Y-18610912D01*
X14547633Y-18110912D02*
X14547633Y-19396626D01*
X14547633Y-19396626D02*
X14476204Y-19539484D01*
X14476204Y-19539484D02*
X14333347Y-19610912D01*
X14333347Y-19610912D02*
X14190490Y-19610912D01*
X13119061Y-19539484D02*
X13261918Y-19610912D01*
X13261918Y-19610912D02*
X13547633Y-19610912D01*
X13547633Y-19610912D02*
X13690490Y-19539484D01*
X13690490Y-19539484D02*
X13761918Y-19396626D01*
X13761918Y-19396626D02*
X13761918Y-18825198D01*
X13761918Y-18825198D02*
X13690490Y-18682341D01*
X13690490Y-18682341D02*
X13547633Y-18610912D01*
X13547633Y-18610912D02*
X13261918Y-18610912D01*
X13261918Y-18610912D02*
X13119061Y-18682341D01*
X13119061Y-18682341D02*
X13047633Y-18825198D01*
X13047633Y-18825198D02*
X13047633Y-18968055D01*
X13047633Y-18968055D02*
X13761918Y-19110912D01*
X12404776Y-19610912D02*
X12404776Y-18610912D01*
X12404776Y-18896626D02*
X12333347Y-18753769D01*
X12333347Y-18753769D02*
X12261919Y-18682341D01*
X12261919Y-18682341D02*
X12119061Y-18610912D01*
X12119061Y-18610912D02*
X11976204Y-18610912D01*
X54190489Y-21240114D02*
X53976203Y-21311542D01*
X53976203Y-21311542D02*
X53904774Y-21382971D01*
X53904774Y-21382971D02*
X53833346Y-21525828D01*
X53833346Y-21525828D02*
X53833346Y-21740114D01*
X53833346Y-21740114D02*
X53904774Y-21882971D01*
X53904774Y-21882971D02*
X53976203Y-21954400D01*
X53976203Y-21954400D02*
X54119060Y-22025828D01*
X54119060Y-22025828D02*
X54690489Y-22025828D01*
X54690489Y-22025828D02*
X54690489Y-20525828D01*
X54690489Y-20525828D02*
X54190489Y-20525828D01*
X54190489Y-20525828D02*
X54047632Y-20597257D01*
X54047632Y-20597257D02*
X53976203Y-20668685D01*
X53976203Y-20668685D02*
X53904774Y-20811542D01*
X53904774Y-20811542D02*
X53904774Y-20954400D01*
X53904774Y-20954400D02*
X53976203Y-21097257D01*
X53976203Y-21097257D02*
X54047632Y-21168685D01*
X54047632Y-21168685D02*
X54190489Y-21240114D01*
X54190489Y-21240114D02*
X54690489Y-21240114D01*
X53333346Y-21025828D02*
X52976203Y-22025828D01*
X52619060Y-21025828D02*
X52976203Y-22025828D01*
X52976203Y-22025828D02*
X53119060Y-22382971D01*
X53119060Y-22382971D02*
X53190489Y-22454400D01*
X53190489Y-22454400D02*
X53333346Y-22525828D01*
X50976203Y-21597257D02*
X50261918Y-21597257D01*
X51119060Y-22025828D02*
X50619060Y-20525828D01*
X50619060Y-20525828D02*
X50119060Y-22025828D01*
X49619061Y-21025828D02*
X49619061Y-22025828D01*
X49619061Y-21168685D02*
X49547632Y-21097257D01*
X49547632Y-21097257D02*
X49404775Y-21025828D01*
X49404775Y-21025828D02*
X49190489Y-21025828D01*
X49190489Y-21025828D02*
X49047632Y-21097257D01*
X49047632Y-21097257D02*
X48976204Y-21240114D01*
X48976204Y-21240114D02*
X48976204Y-22025828D01*
X47619061Y-22025828D02*
X47619061Y-20525828D01*
X47619061Y-21954400D02*
X47761918Y-22025828D01*
X47761918Y-22025828D02*
X48047632Y-22025828D01*
X48047632Y-22025828D02*
X48190489Y-21954400D01*
X48190489Y-21954400D02*
X48261918Y-21882971D01*
X48261918Y-21882971D02*
X48333346Y-21740114D01*
X48333346Y-21740114D02*
X48333346Y-21311542D01*
X48333346Y-21311542D02*
X48261918Y-21168685D01*
X48261918Y-21168685D02*
X48190489Y-21097257D01*
X48190489Y-21097257D02*
X48047632Y-21025828D01*
X48047632Y-21025828D02*
X47761918Y-21025828D01*
X47761918Y-21025828D02*
X47619061Y-21097257D01*
X46333346Y-21954400D02*
X46476203Y-22025828D01*
X46476203Y-22025828D02*
X46761918Y-22025828D01*
X46761918Y-22025828D02*
X46904775Y-21954400D01*
X46904775Y-21954400D02*
X46976203Y-21811542D01*
X46976203Y-21811542D02*
X46976203Y-21240114D01*
X46976203Y-21240114D02*
X46904775Y-21097257D01*
X46904775Y-21097257D02*
X46761918Y-21025828D01*
X46761918Y-21025828D02*
X46476203Y-21025828D01*
X46476203Y-21025828D02*
X46333346Y-21097257D01*
X46333346Y-21097257D02*
X46261918Y-21240114D01*
X46261918Y-21240114D02*
X46261918Y-21382971D01*
X46261918Y-21382971D02*
X46976203Y-21525828D01*
X45619061Y-22025828D02*
X45619061Y-21025828D01*
X45619061Y-21311542D02*
X45547632Y-21168685D01*
X45547632Y-21168685D02*
X45476204Y-21097257D01*
X45476204Y-21097257D02*
X45333346Y-21025828D01*
X45333346Y-21025828D02*
X45190489Y-21025828D01*
X44761918Y-21954400D02*
X44619061Y-22025828D01*
X44619061Y-22025828D02*
X44333347Y-22025828D01*
X44333347Y-22025828D02*
X44190490Y-21954400D01*
X44190490Y-21954400D02*
X44119061Y-21811542D01*
X44119061Y-21811542D02*
X44119061Y-21740114D01*
X44119061Y-21740114D02*
X44190490Y-21597257D01*
X44190490Y-21597257D02*
X44333347Y-21525828D01*
X44333347Y-21525828D02*
X44547633Y-21525828D01*
X44547633Y-21525828D02*
X44690490Y-21454400D01*
X44690490Y-21454400D02*
X44761918Y-21311542D01*
X44761918Y-21311542D02*
X44761918Y-21240114D01*
X44761918Y-21240114D02*
X44690490Y-21097257D01*
X44690490Y-21097257D02*
X44547633Y-21025828D01*
X44547633Y-21025828D02*
X44333347Y-21025828D01*
X44333347Y-21025828D02*
X44190490Y-21097257D01*
X42404775Y-21954400D02*
X42190490Y-22025828D01*
X42190490Y-22025828D02*
X41833347Y-22025828D01*
X41833347Y-22025828D02*
X41690490Y-21954400D01*
X41690490Y-21954400D02*
X41619061Y-21882971D01*
X41619061Y-21882971D02*
X41547632Y-21740114D01*
X41547632Y-21740114D02*
X41547632Y-21597257D01*
X41547632Y-21597257D02*
X41619061Y-21454400D01*
X41619061Y-21454400D02*
X41690490Y-21382971D01*
X41690490Y-21382971D02*
X41833347Y-21311542D01*
X41833347Y-21311542D02*
X42119061Y-21240114D01*
X42119061Y-21240114D02*
X42261918Y-21168685D01*
X42261918Y-21168685D02*
X42333347Y-21097257D01*
X42333347Y-21097257D02*
X42404775Y-20954400D01*
X42404775Y-20954400D02*
X42404775Y-20811542D01*
X42404775Y-20811542D02*
X42333347Y-20668685D01*
X42333347Y-20668685D02*
X42261918Y-20597257D01*
X42261918Y-20597257D02*
X42119061Y-20525828D01*
X42119061Y-20525828D02*
X41761918Y-20525828D01*
X41761918Y-20525828D02*
X41547632Y-20597257D01*
X40261919Y-22025828D02*
X40261919Y-21240114D01*
X40261919Y-21240114D02*
X40333347Y-21097257D01*
X40333347Y-21097257D02*
X40476204Y-21025828D01*
X40476204Y-21025828D02*
X40761919Y-21025828D01*
X40761919Y-21025828D02*
X40904776Y-21097257D01*
X40261919Y-21954400D02*
X40404776Y-22025828D01*
X40404776Y-22025828D02*
X40761919Y-22025828D01*
X40761919Y-22025828D02*
X40904776Y-21954400D01*
X40904776Y-21954400D02*
X40976204Y-21811542D01*
X40976204Y-21811542D02*
X40976204Y-21668685D01*
X40976204Y-21668685D02*
X40904776Y-21525828D01*
X40904776Y-21525828D02*
X40761919Y-21454400D01*
X40761919Y-21454400D02*
X40404776Y-21454400D01*
X40404776Y-21454400D02*
X40261919Y-21382971D01*
X39547633Y-21025828D02*
X39547633Y-22025828D01*
X39547633Y-21168685D02*
X39476204Y-21097257D01*
X39476204Y-21097257D02*
X39333347Y-21025828D01*
X39333347Y-21025828D02*
X39119061Y-21025828D01*
X39119061Y-21025828D02*
X38976204Y-21097257D01*
X38976204Y-21097257D02*
X38904776Y-21240114D01*
X38904776Y-21240114D02*
X38904776Y-22025828D01*
X37547633Y-22025828D02*
X37547633Y-20525828D01*
X37547633Y-21954400D02*
X37690490Y-22025828D01*
X37690490Y-22025828D02*
X37976204Y-22025828D01*
X37976204Y-22025828D02*
X38119061Y-21954400D01*
X38119061Y-21954400D02*
X38190490Y-21882971D01*
X38190490Y-21882971D02*
X38261918Y-21740114D01*
X38261918Y-21740114D02*
X38261918Y-21311542D01*
X38261918Y-21311542D02*
X38190490Y-21168685D01*
X38190490Y-21168685D02*
X38119061Y-21097257D01*
X38119061Y-21097257D02*
X37976204Y-21025828D01*
X37976204Y-21025828D02*
X37690490Y-21025828D01*
X37690490Y-21025828D02*
X37547633Y-21097257D01*
X36190490Y-22025828D02*
X36190490Y-21240114D01*
X36190490Y-21240114D02*
X36261918Y-21097257D01*
X36261918Y-21097257D02*
X36404775Y-21025828D01*
X36404775Y-21025828D02*
X36690490Y-21025828D01*
X36690490Y-21025828D02*
X36833347Y-21097257D01*
X36190490Y-21954400D02*
X36333347Y-22025828D01*
X36333347Y-22025828D02*
X36690490Y-22025828D01*
X36690490Y-22025828D02*
X36833347Y-21954400D01*
X36833347Y-21954400D02*
X36904775Y-21811542D01*
X36904775Y-21811542D02*
X36904775Y-21668685D01*
X36904775Y-21668685D02*
X36833347Y-21525828D01*
X36833347Y-21525828D02*
X36690490Y-21454400D01*
X36690490Y-21454400D02*
X36333347Y-21454400D01*
X36333347Y-21454400D02*
X36190490Y-21382971D01*
X35476204Y-22025828D02*
X35476204Y-20525828D01*
X34833347Y-22025828D02*
X34833347Y-21240114D01*
X34833347Y-21240114D02*
X34904775Y-21097257D01*
X34904775Y-21097257D02*
X35047632Y-21025828D01*
X35047632Y-21025828D02*
X35261918Y-21025828D01*
X35261918Y-21025828D02*
X35404775Y-21097257D01*
X35404775Y-21097257D02*
X35476204Y-21168685D01*
X33904775Y-22025828D02*
X34047632Y-21954400D01*
X34047632Y-21954400D02*
X34119061Y-21811542D01*
X34119061Y-21811542D02*
X34119061Y-20525828D01*
X32261918Y-20668685D02*
X32190490Y-20597257D01*
X32190490Y-20597257D02*
X32047633Y-20525828D01*
X32047633Y-20525828D02*
X31690490Y-20525828D01*
X31690490Y-20525828D02*
X31547633Y-20597257D01*
X31547633Y-20597257D02*
X31476204Y-20668685D01*
X31476204Y-20668685D02*
X31404775Y-20811542D01*
X31404775Y-20811542D02*
X31404775Y-20954400D01*
X31404775Y-20954400D02*
X31476204Y-21168685D01*
X31476204Y-21168685D02*
X32333347Y-22025828D01*
X32333347Y-22025828D02*
X31404775Y-22025828D01*
X30476204Y-20525828D02*
X30333347Y-20525828D01*
X30333347Y-20525828D02*
X30190490Y-20597257D01*
X30190490Y-20597257D02*
X30119062Y-20668685D01*
X30119062Y-20668685D02*
X30047633Y-20811542D01*
X30047633Y-20811542D02*
X29976204Y-21097257D01*
X29976204Y-21097257D02*
X29976204Y-21454400D01*
X29976204Y-21454400D02*
X30047633Y-21740114D01*
X30047633Y-21740114D02*
X30119062Y-21882971D01*
X30119062Y-21882971D02*
X30190490Y-21954400D01*
X30190490Y-21954400D02*
X30333347Y-22025828D01*
X30333347Y-22025828D02*
X30476204Y-22025828D01*
X30476204Y-22025828D02*
X30619062Y-21954400D01*
X30619062Y-21954400D02*
X30690490Y-21882971D01*
X30690490Y-21882971D02*
X30761919Y-21740114D01*
X30761919Y-21740114D02*
X30833347Y-21454400D01*
X30833347Y-21454400D02*
X30833347Y-21097257D01*
X30833347Y-21097257D02*
X30761919Y-20811542D01*
X30761919Y-20811542D02*
X30690490Y-20668685D01*
X30690490Y-20668685D02*
X30619062Y-20597257D01*
X30619062Y-20597257D02*
X30476204Y-20525828D01*
X29404776Y-20668685D02*
X29333348Y-20597257D01*
X29333348Y-20597257D02*
X29190491Y-20525828D01*
X29190491Y-20525828D02*
X28833348Y-20525828D01*
X28833348Y-20525828D02*
X28690491Y-20597257D01*
X28690491Y-20597257D02*
X28619062Y-20668685D01*
X28619062Y-20668685D02*
X28547633Y-20811542D01*
X28547633Y-20811542D02*
X28547633Y-20954400D01*
X28547633Y-20954400D02*
X28619062Y-21168685D01*
X28619062Y-21168685D02*
X29476205Y-22025828D01*
X29476205Y-22025828D02*
X28547633Y-22025828D01*
X27261920Y-21025828D02*
X27261920Y-22025828D01*
X27619062Y-20454400D02*
X27976205Y-21525828D01*
X27976205Y-21525828D02*
X27047634Y-21525828D01*
%LPC*%
D11*
%TO.C,USB1*%
X5140000Y-18110000D03*
X5140000Y-23890000D03*
D12*
X5670000Y-16680000D03*
D13*
X1490000Y-16680000D03*
D12*
X5670000Y-25320000D03*
D13*
X1490000Y-25320000D03*
%TD*%
%LPD*%
M02*
