%TF.GenerationSoftware,KiCad,Pcbnew,8.0.4+dfsg-1*%
%TF.CreationDate,2024-12-02T22:27:05+01:00*%
%TF.ProjectId,usb-serial,7573622d-7365-4726-9961-6c2e6b696361,rev?*%
%TF.SameCoordinates,Original*%
%TF.FileFunction,Copper,L3,Inr*%
%TF.FilePolarity,Positive*%
%FSLAX46Y46*%
G04 Gerber Fmt 4.6, Leading zero omitted, Abs format (unit mm)*
G04 Created by KiCad (PCBNEW 8.0.4+dfsg-1) date 2024-12-02 22:27:05*
%MOMM*%
%LPD*%
G01*
G04 APERTURE LIST*
%TA.AperFunction,ComponentPad*%
%ADD10O,2.100000X1.000000*%
%TD*%
%TA.AperFunction,ComponentPad*%
%ADD11O,1.600000X1.000000*%
%TD*%
%TA.AperFunction,ViaPad*%
%ADD12C,0.560000*%
%TD*%
%TA.AperFunction,Conductor*%
%ADD13C,0.200000*%
%TD*%
G04 APERTURE END LIST*
D10*
%TO.N,GND*%
%TO.C,USB1*%
X5670000Y-16680000D03*
D11*
X1490000Y-16680000D03*
D10*
X5670000Y-25320000D03*
D11*
X1490000Y-25320000D03*
%TD*%
D12*
%TO.N,VBUS*%
X3175000Y-15875000D03*
X15240000Y-26165000D03*
X22479000Y-22516000D03*
X20320000Y-24130000D03*
%TO.N,GND*%
X8890000Y-14605000D03*
X25400000Y-27940000D03*
X20320000Y-22225000D03*
X27305000Y-17690000D03*
X20955000Y-18960000D03*
X6350000Y-13970000D03*
X19050000Y-20320000D03*
X25400000Y-13970000D03*
X8255000Y-24765000D03*
X31750000Y-14605000D03*
X31115000Y-15240000D03*
X19050000Y-27940000D03*
X6350000Y-27940000D03*
X12700000Y-27940000D03*
X8890000Y-17145000D03*
X19050000Y-13970000D03*
X31750000Y-27305000D03*
X22225000Y-17690000D03*
X27305000Y-22770000D03*
X1270000Y-27305000D03*
X20254000Y-26165000D03*
X12538946Y-22860000D03*
X15875000Y-24130000D03*
X29845000Y-22860000D03*
X12700000Y-13970000D03*
%TO.N,Net-(USB1-DP1)*%
X5080000Y-22225000D03*
X4445000Y-20320000D03*
%TO.N,Net-(USB1-DN1)*%
X5080000Y-19685000D03*
X4445000Y-21590000D03*
%TO.N,VDD*%
X40005000Y-19050000D03*
X51435000Y-23955000D03*
X41910000Y-18955000D03*
%TO.N,GND1*%
X38100000Y-23495000D03*
X38100000Y-27305000D03*
X50165000Y-13970000D03*
X41910000Y-20955000D03*
X59055000Y-18415000D03*
X43815000Y-27940000D03*
X38735000Y-15240000D03*
X38100000Y-14605000D03*
X59055000Y-23495000D03*
X42545000Y-16510000D03*
X50165000Y-27940000D03*
X42545000Y-25400000D03*
X56515000Y-13970000D03*
X42545000Y-15240000D03*
X56515000Y-27940000D03*
X43815000Y-13970000D03*
%TO.N,Net-(U3-VBUS)*%
X9525000Y-23495000D03*
X9525000Y-19050000D03*
X13970000Y-20320000D03*
%TO.N,+3V3*%
X29845000Y-19050000D03*
X21442589Y-21576327D03*
%TO.N,Net-(U1-OUT1)*%
X28575000Y-20320000D03*
X29845000Y-20320000D03*
%TD*%
D13*
%TO.N,Net-(USB1-DN1)*%
X5080000Y-20955000D02*
X5080000Y-19685000D01*
X4445000Y-21590000D02*
X5080000Y-20955000D01*
%TD*%
%TA.AperFunction,Conductor*%
%TO.N,GND1*%
G36*
X58964418Y-13335316D02*
G01*
X59235790Y-13354724D01*
X59253291Y-13357241D01*
X59514803Y-13414129D01*
X59531762Y-13419108D01*
X59782524Y-13512638D01*
X59798616Y-13519987D01*
X60033501Y-13648244D01*
X60048375Y-13657802D01*
X60262624Y-13818188D01*
X60275994Y-13829774D01*
X60465225Y-14019005D01*
X60476811Y-14032375D01*
X60637193Y-14246619D01*
X60646758Y-14261503D01*
X60775011Y-14496382D01*
X60782361Y-14512475D01*
X60875888Y-14763229D01*
X60880872Y-14780205D01*
X60937757Y-15041702D01*
X60940275Y-15059214D01*
X60959684Y-15330581D01*
X60960000Y-15339427D01*
X60960000Y-26570572D01*
X60959684Y-26579418D01*
X60940275Y-26850785D01*
X60937757Y-26868297D01*
X60880872Y-27129794D01*
X60875888Y-27146770D01*
X60782361Y-27397524D01*
X60775011Y-27413617D01*
X60646758Y-27648496D01*
X60637193Y-27663380D01*
X60476811Y-27877624D01*
X60465225Y-27890994D01*
X60275994Y-28080225D01*
X60262624Y-28091811D01*
X60048380Y-28252193D01*
X60033496Y-28261758D01*
X59798617Y-28390011D01*
X59782524Y-28397361D01*
X59531770Y-28490888D01*
X59514794Y-28495872D01*
X59253297Y-28552757D01*
X59235785Y-28555275D01*
X58964418Y-28574684D01*
X58955572Y-28575000D01*
X39469428Y-28575000D01*
X39460582Y-28574684D01*
X39189214Y-28555275D01*
X39171702Y-28552757D01*
X38910205Y-28495872D01*
X38893229Y-28490888D01*
X38642475Y-28397361D01*
X38626382Y-28390011D01*
X38391503Y-28261758D01*
X38376619Y-28252193D01*
X38162375Y-28091811D01*
X38149005Y-28080225D01*
X37959774Y-27890994D01*
X37948188Y-27877624D01*
X37787802Y-27663375D01*
X37778244Y-27648501D01*
X37649987Y-27413616D01*
X37642638Y-27397524D01*
X37549108Y-27146762D01*
X37544129Y-27129803D01*
X37487241Y-26868291D01*
X37484724Y-26850785D01*
X37465316Y-26579418D01*
X37465000Y-26570572D01*
X37465000Y-23955000D01*
X50849491Y-23955000D01*
X50869442Y-24106540D01*
X50869443Y-24106544D01*
X50927933Y-24247753D01*
X50927934Y-24247756D01*
X51020982Y-24369017D01*
X51142243Y-24462065D01*
X51142244Y-24462065D01*
X51142245Y-24462066D01*
X51283459Y-24520558D01*
X51435000Y-24540509D01*
X51586541Y-24520558D01*
X51727755Y-24462066D01*
X51849017Y-24369017D01*
X51942066Y-24247755D01*
X52000558Y-24106541D01*
X52020509Y-23955000D01*
X52000558Y-23803459D01*
X51978949Y-23751292D01*
X51942067Y-23662247D01*
X51942065Y-23662244D01*
X51849015Y-23540981D01*
X51727756Y-23447934D01*
X51727753Y-23447933D01*
X51586544Y-23389443D01*
X51586542Y-23389442D01*
X51586541Y-23389442D01*
X51435000Y-23369491D01*
X51283459Y-23389442D01*
X51283455Y-23389443D01*
X51142247Y-23447932D01*
X51142244Y-23447934D01*
X51020983Y-23540982D01*
X51020982Y-23540983D01*
X50927934Y-23662244D01*
X50927932Y-23662247D01*
X50869443Y-23803455D01*
X50869442Y-23803459D01*
X50849491Y-23955000D01*
X37465000Y-23955000D01*
X37465000Y-19050000D01*
X39419491Y-19050000D01*
X39439442Y-19201540D01*
X39439443Y-19201544D01*
X39497933Y-19342753D01*
X39497934Y-19342756D01*
X39590982Y-19464017D01*
X39712243Y-19557065D01*
X39712244Y-19557065D01*
X39712245Y-19557066D01*
X39853459Y-19615558D01*
X40005000Y-19635509D01*
X40156541Y-19615558D01*
X40297755Y-19557066D01*
X40419017Y-19464017D01*
X40512066Y-19342755D01*
X40570558Y-19201541D01*
X40590509Y-19050000D01*
X40578002Y-18955000D01*
X41324491Y-18955000D01*
X41344442Y-19106540D01*
X41344443Y-19106544D01*
X41402933Y-19247753D01*
X41402934Y-19247756D01*
X41495982Y-19369017D01*
X41617243Y-19462065D01*
X41617244Y-19462065D01*
X41617245Y-19462066D01*
X41758459Y-19520558D01*
X41910000Y-19540509D01*
X42061541Y-19520558D01*
X42202755Y-19462066D01*
X42324017Y-19369017D01*
X42417066Y-19247755D01*
X42475558Y-19106541D01*
X42495509Y-18955000D01*
X42475558Y-18803459D01*
X42453949Y-18751292D01*
X42417067Y-18662247D01*
X42417065Y-18662244D01*
X42325513Y-18542933D01*
X42324017Y-18540983D01*
X42324015Y-18540982D01*
X42324015Y-18540981D01*
X42202756Y-18447934D01*
X42202753Y-18447933D01*
X42061544Y-18389443D01*
X42061542Y-18389442D01*
X42061541Y-18389442D01*
X41910000Y-18369491D01*
X41758459Y-18389442D01*
X41758455Y-18389443D01*
X41617247Y-18447932D01*
X41617244Y-18447934D01*
X41495983Y-18540982D01*
X41495982Y-18540983D01*
X41402934Y-18662244D01*
X41402932Y-18662247D01*
X41344443Y-18803455D01*
X41344442Y-18803459D01*
X41324491Y-18955000D01*
X40578002Y-18955000D01*
X40570558Y-18898459D01*
X40531208Y-18803459D01*
X40512067Y-18757247D01*
X40512065Y-18757244D01*
X40419015Y-18635981D01*
X40297756Y-18542934D01*
X40297753Y-18542933D01*
X40156544Y-18484443D01*
X40156542Y-18484442D01*
X40156541Y-18484442D01*
X40005000Y-18464491D01*
X39853459Y-18484442D01*
X39853455Y-18484443D01*
X39712247Y-18542932D01*
X39712244Y-18542934D01*
X39590983Y-18635982D01*
X39590982Y-18635983D01*
X39497934Y-18757244D01*
X39497932Y-18757247D01*
X39439443Y-18898455D01*
X39439442Y-18898459D01*
X39419491Y-19050000D01*
X37465000Y-19050000D01*
X37465000Y-15339427D01*
X37465316Y-15330581D01*
X37484724Y-15059214D01*
X37487240Y-15041710D01*
X37544130Y-14780192D01*
X37549107Y-14763241D01*
X37642640Y-14512470D01*
X37649985Y-14496388D01*
X37778248Y-14261491D01*
X37787798Y-14246630D01*
X37948195Y-14032366D01*
X37959767Y-14019012D01*
X38149012Y-13829767D01*
X38162366Y-13818195D01*
X38376630Y-13657798D01*
X38391491Y-13648248D01*
X38626388Y-13519985D01*
X38642470Y-13512640D01*
X38893241Y-13419107D01*
X38910192Y-13414130D01*
X39171710Y-13357240D01*
X39189207Y-13354724D01*
X39460582Y-13335316D01*
X39469428Y-13335000D01*
X58955572Y-13335000D01*
X58964418Y-13335316D01*
G37*
%TD.AperFunction*%
%TD*%
M02*
