%TF.GenerationSoftware,KiCad,Pcbnew,8.0.4+dfsg-1*%
%TF.CreationDate,2024-12-02T22:27:05+01:00*%
%TF.ProjectId,usb-serial,7573622d-7365-4726-9961-6c2e6b696361,rev?*%
%TF.SameCoordinates,Original*%
%TF.FileFunction,Copper,L1,Top*%
%TF.FilePolarity,Positive*%
%FSLAX46Y46*%
G04 Gerber Fmt 4.6, Leading zero omitted, Abs format (unit mm)*
G04 Created by KiCad (PCBNEW 8.0.4+dfsg-1) date 2024-12-02 22:27:05*
%MOMM*%
%LPD*%
G01*
G04 APERTURE LIST*
G04 Aperture macros list*
%AMRoundRect*
0 Rectangle with rounded corners*
0 $1 Rounding radius*
0 $2 $3 $4 $5 $6 $7 $8 $9 X,Y pos of 4 corners*
0 Add a 4 corners polygon primitive as box body*
4,1,4,$2,$3,$4,$5,$6,$7,$8,$9,$2,$3,0*
0 Add four circle primitives for the rounded corners*
1,1,$1+$1,$2,$3*
1,1,$1+$1,$4,$5*
1,1,$1+$1,$6,$7*
1,1,$1+$1,$8,$9*
0 Add four rect primitives between the rounded corners*
20,1,$1+$1,$2,$3,$4,$5,0*
20,1,$1+$1,$4,$5,$6,$7,0*
20,1,$1+$1,$6,$7,$8,$9,0*
20,1,$1+$1,$8,$9,$2,$3,0*%
G04 Aperture macros list end*
%TA.AperFunction,SMDPad,CuDef*%
%ADD10RoundRect,0.062500X0.117500X0.062500X-0.117500X0.062500X-0.117500X-0.062500X0.117500X-0.062500X0*%
%TD*%
%TA.AperFunction,SMDPad,CuDef*%
%ADD11RoundRect,0.135000X0.135000X0.185000X-0.135000X0.185000X-0.135000X-0.185000X0.135000X-0.185000X0*%
%TD*%
%TA.AperFunction,SMDPad,CuDef*%
%ADD12RoundRect,0.140000X0.170000X-0.140000X0.170000X0.140000X-0.170000X0.140000X-0.170000X-0.140000X0*%
%TD*%
%TA.AperFunction,SMDPad,CuDef*%
%ADD13RoundRect,0.150000X-0.650000X-0.150000X0.650000X-0.150000X0.650000X0.150000X-0.650000X0.150000X0*%
%TD*%
%TA.AperFunction,SMDPad,CuDef*%
%ADD14RoundRect,0.243750X0.243750X0.456250X-0.243750X0.456250X-0.243750X-0.456250X0.243750X-0.456250X0*%
%TD*%
%TA.AperFunction,SMDPad,CuDef*%
%ADD15RoundRect,0.062500X-0.337500X-0.062500X0.337500X-0.062500X0.337500X0.062500X-0.337500X0.062500X0*%
%TD*%
%TA.AperFunction,SMDPad,CuDef*%
%ADD16RoundRect,0.062500X-0.062500X-0.337500X0.062500X-0.337500X0.062500X0.337500X-0.062500X0.337500X0*%
%TD*%
%TA.AperFunction,HeatsinkPad*%
%ADD17R,3.350000X3.350000*%
%TD*%
%TA.AperFunction,SMDPad,CuDef*%
%ADD18RoundRect,0.250000X0.250000X0.475000X-0.250000X0.475000X-0.250000X-0.475000X0.250000X-0.475000X0*%
%TD*%
%TA.AperFunction,SMDPad,CuDef*%
%ADD19R,2.580000X1.000000*%
%TD*%
%TA.AperFunction,SMDPad,CuDef*%
%ADD20RoundRect,0.250000X1.500000X-0.250000X1.500000X0.250000X-1.500000X0.250000X-1.500000X-0.250000X0*%
%TD*%
%TA.AperFunction,SMDPad,CuDef*%
%ADD21RoundRect,0.250001X1.449999X-0.499999X1.449999X0.499999X-1.449999X0.499999X-1.449999X-0.499999X0*%
%TD*%
%TA.AperFunction,SMDPad,CuDef*%
%ADD22RoundRect,0.250000X-0.250000X-0.475000X0.250000X-0.475000X0.250000X0.475000X-0.250000X0.475000X0*%
%TD*%
%TA.AperFunction,SMDPad,CuDef*%
%ADD23R,1.450000X0.600000*%
%TD*%
%TA.AperFunction,SMDPad,CuDef*%
%ADD24R,1.450000X0.300000*%
%TD*%
%TA.AperFunction,ComponentPad*%
%ADD25O,2.100000X1.000000*%
%TD*%
%TA.AperFunction,ComponentPad*%
%ADD26O,1.600000X1.000000*%
%TD*%
%TA.AperFunction,SMDPad,CuDef*%
%ADD27RoundRect,0.150000X0.512500X0.150000X-0.512500X0.150000X-0.512500X-0.150000X0.512500X-0.150000X0*%
%TD*%
%TA.AperFunction,SMDPad,CuDef*%
%ADD28RoundRect,0.250000X0.375000X0.625000X-0.375000X0.625000X-0.375000X-0.625000X0.375000X-0.625000X0*%
%TD*%
%TA.AperFunction,ViaPad*%
%ADD29C,0.560000*%
%TD*%
%TA.AperFunction,Conductor*%
%ADD30C,0.200000*%
%TD*%
%TA.AperFunction,Conductor*%
%ADD31C,0.250000*%
%TD*%
%TA.AperFunction,Conductor*%
%ADD32C,1.000000*%
%TD*%
%TA.AperFunction,Conductor*%
%ADD33C,0.500000*%
%TD*%
%TA.AperFunction,Conductor*%
%ADD34C,0.300000*%
%TD*%
G04 APERTURE END LIST*
D10*
%TO.P,D3,1,A1*%
%TO.N,GND1*%
X43180000Y-16510000D03*
%TO.P,D3,2,A2*%
%TO.N,VDD*%
X44020000Y-16510000D03*
%TD*%
%TO.P,D4,1,A1*%
%TO.N,GND1*%
X43180000Y-25400000D03*
%TO.P,D4,2,A2*%
%TO.N,OUT_TxD*%
X44020000Y-25400000D03*
%TD*%
D11*
%TO.P,R3,1*%
%TO.N,GND*%
X11305000Y-19685000D03*
%TO.P,R3,2*%
%TO.N,Net-(USB1-CC1)*%
X10285000Y-19685000D03*
%TD*%
%TO.P,R12,1*%
%TO.N,GND*%
X8130000Y-14605000D03*
%TO.P,R12,2*%
%TO.N,Net-(D1-K)*%
X7110000Y-14605000D03*
%TD*%
D12*
%TO.P,C3,1*%
%TO.N,+3V3*%
X31115000Y-16990000D03*
%TO.P,C3,2*%
%TO.N,GND*%
X31115000Y-16030000D03*
%TD*%
D13*
%TO.P,U1,1,VDDA*%
%TO.N,+3V3*%
X31325000Y-19050000D03*
%TO.P,U1,2,OUT1*%
%TO.N,Net-(U1-OUT1)*%
X31325000Y-20320000D03*
%TO.P,U1,3,IN2*%
%TO.N,Net-(U1-IN2)*%
X31325000Y-21590000D03*
%TO.P,U1,4,GNDA*%
%TO.N,GND*%
X31325000Y-22860000D03*
%TO.P,U1,5,GNDB*%
%TO.N,GND1*%
X38525000Y-22860000D03*
%TO.P,U1,6,OUT2*%
%TO.N,OUT_TxD*%
X38525000Y-21590000D03*
%TO.P,U1,7,IN1*%
%TO.N,IN_RxD*%
X38525000Y-20320000D03*
%TO.P,U1,8,VDDB*%
%TO.N,VDD*%
X38525000Y-19050000D03*
%TD*%
D14*
%TO.P,D1,1,K*%
%TO.N,Net-(D1-K)*%
X3175000Y-14605000D03*
%TO.P,D1,2,A*%
%TO.N,VBUS*%
X1300000Y-14605000D03*
%TD*%
D15*
%TO.P,U6,1,~{DCD}*%
%TO.N,unconnected-(U6-~{DCD}-Pad1)*%
X22315000Y-18730000D03*
%TO.P,U6,2,~{RI}/CLK*%
%TO.N,unconnected-(U6-~{RI}{slash}CLK-Pad2)*%
X22315000Y-19230000D03*
%TO.P,U6,3,GND*%
%TO.N,GND*%
X22315000Y-19730000D03*
%TO.P,U6,4,D+*%
%TO.N,Net-(U6-D+)*%
X22315000Y-20230000D03*
%TO.P,U6,5,D-*%
%TO.N,Net-(U6-D-)*%
X22315000Y-20730000D03*
%TO.P,U6,6,VDD*%
%TO.N,+3V3*%
X22315000Y-21230000D03*
%TO.P,U6,7,REGIN*%
%TO.N,VBUS*%
X22315000Y-21730000D03*
D16*
%TO.P,U6,8,VBUS*%
X23265000Y-22680000D03*
%TO.P,U6,9,~{RSTb}*%
%TO.N,Net-(U6-~{RSTb})*%
X23765000Y-22680000D03*
%TO.P,U6,10,NC*%
%TO.N,unconnected-(U6-NC-Pad10)*%
X24265000Y-22680000D03*
%TO.P,U6,11,~{SUSPENDb}*%
%TO.N,unconnected-(U6-~{SUSPENDb}-Pad11)*%
X24765000Y-22680000D03*
%TO.P,U6,12,SUSPEND*%
%TO.N,unconnected-(U6-SUSPEND-Pad12)*%
X25265000Y-22680000D03*
%TO.P,U6,13,CHREN*%
%TO.N,unconnected-(U6-CHREN-Pad13)*%
X25765000Y-22680000D03*
%TO.P,U6,14,CHR1*%
%TO.N,unconnected-(U6-CHR1-Pad14)*%
X26265000Y-22680000D03*
D15*
%TO.P,U6,15,CHR0*%
%TO.N,unconnected-(U6-CHR0-Pad15)*%
X27215000Y-21730000D03*
%TO.P,U6,16,~{WAKEUP}/GPIO.3*%
%TO.N,unconnected-(U6-~{WAKEUP}{slash}GPIO.3-Pad16)*%
X27215000Y-21230000D03*
%TO.P,U6,17,RS485/GPIO.2*%
%TO.N,unconnected-(U6-RS485{slash}GPIO.2-Pad17)*%
X27215000Y-20730000D03*
%TO.P,U6,18,~{RXT}/GPIO.1*%
%TO.N,unconnected-(U6-~{RXT}{slash}GPIO.1-Pad18)*%
X27215000Y-20230000D03*
%TO.P,U6,19,~{TXT}/GPIO.0*%
%TO.N,unconnected-(U6-~{TXT}{slash}GPIO.0-Pad19)*%
X27215000Y-19730000D03*
%TO.P,U6,20,GPIO.6*%
%TO.N,unconnected-(U6-GPIO.6-Pad20)*%
X27215000Y-19230000D03*
%TO.P,U6,21,GPIO.5*%
%TO.N,unconnected-(U6-GPIO.5-Pad21)*%
X27215000Y-18730000D03*
D16*
%TO.P,U6,22,GPIO.4*%
%TO.N,unconnected-(U6-GPIO.4-Pad22)*%
X26265000Y-17780000D03*
%TO.P,U6,23,~{CTS}*%
%TO.N,unconnected-(U6-~{CTS}-Pad23)*%
X25765000Y-17780000D03*
%TO.P,U6,24,~{RTS}*%
%TO.N,unconnected-(U6-~{RTS}-Pad24)*%
X25265000Y-17780000D03*
%TO.P,U6,25,RXD*%
%TO.N,Net-(U1-OUT1)*%
X24765000Y-17780000D03*
%TO.P,U6,26,TXD*%
%TO.N,Net-(U1-IN2)*%
X24265000Y-17780000D03*
%TO.P,U6,27,~{DSR}*%
%TO.N,unconnected-(U6-~{DSR}-Pad27)*%
X23765000Y-17780000D03*
%TO.P,U6,28,~{DTR}*%
%TO.N,unconnected-(U6-~{DTR}-Pad28)*%
X23265000Y-17780000D03*
D17*
%TO.P,U6,29,GND*%
%TO.N,GND*%
X24765000Y-20230000D03*
%TD*%
D10*
%TO.P,D5,1,A1*%
%TO.N,GND1*%
X43180000Y-15240000D03*
%TO.P,D5,2,A2*%
%TO.N,IN_RxD*%
X44020000Y-15240000D03*
%TD*%
D18*
%TO.P,C2,1*%
%TO.N,GND*%
X18730000Y-26165000D03*
%TO.P,C2,2*%
%TO.N,VBUS*%
X16830000Y-26165000D03*
%TD*%
D11*
%TO.P,R9,1*%
%TO.N,Net-(U6-~{RSTb})*%
X23245000Y-24040000D03*
%TO.P,R9,2*%
%TO.N,+3V3*%
X22225000Y-24040000D03*
%TD*%
%TO.P,R4,1*%
%TO.N,GND*%
X11305000Y-22860000D03*
%TO.P,R4,2*%
%TO.N,Net-(USB1-CC2)*%
X10285000Y-22860000D03*
%TD*%
D19*
%TO.P,J1,1,Pin_1*%
%TO.N,VDD*%
X43635000Y-18955000D03*
%TO.P,J1,2,Pin_2*%
%TO.N,unconnected-(J1-Pin_2-Pad2)*%
X47805000Y-18955000D03*
%TO.P,J1,3,Pin_3*%
%TO.N,GND1*%
X43635000Y-20955000D03*
%TO.P,J1,4,Pin_4*%
%TO.N,IN_RxD*%
X47805000Y-20955000D03*
%TO.P,J1,5,Pin_5*%
%TO.N,unconnected-(J1-Pin_5-Pad5)*%
X43635000Y-22955000D03*
%TO.P,J1,6,Pin_6*%
%TO.N,OUT_TxD*%
X47805000Y-22955000D03*
%TD*%
D20*
%TO.P,J2,1,Pin_1*%
%TO.N,VDD*%
X53665000Y-23955000D03*
%TO.P,J2,2,Pin_2*%
%TO.N,IN_RxD*%
X53665000Y-21955000D03*
%TO.P,J2,3,Pin_3*%
%TO.N,GND1*%
X53665000Y-19955000D03*
%TO.P,J2,4,Pin_4*%
%TO.N,OUT_TxD*%
X53665000Y-17955000D03*
D21*
%TO.P,J2,MP*%
%TO.N,N/C*%
X59415000Y-26305000D03*
X59415000Y-15605000D03*
%TD*%
D22*
%TO.P,C1,1*%
%TO.N,GND*%
X16830000Y-24130000D03*
%TO.P,C1,2*%
%TO.N,VBUS*%
X18730000Y-24130000D03*
%TD*%
D23*
%TO.P,USB1,A1,GND*%
%TO.N,GND*%
X6585000Y-17750000D03*
%TO.P,USB1,A4,VBUS*%
%TO.N,Net-(U3-VBUS)*%
X6585000Y-18550000D03*
D24*
%TO.P,USB1,A5,CC1*%
%TO.N,Net-(USB1-CC1)*%
X6585000Y-19750000D03*
%TO.P,USB1,A6,DP1*%
%TO.N,Net-(USB1-DP1)*%
X6585000Y-20750000D03*
%TO.P,USB1,A7,DN2*%
%TO.N,Net-(USB1-DN1)*%
X6585000Y-21250000D03*
%TO.P,USB1,A8,SBU1*%
%TO.N,unconnected-(USB1-SBU1-PadA8)*%
X6585000Y-22250000D03*
D23*
%TO.P,USB1,A9,VBUS*%
%TO.N,Net-(U3-VBUS)*%
X6585000Y-23450000D03*
%TO.P,USB1,A12,GND*%
%TO.N,GND*%
X6585000Y-24250000D03*
D24*
%TO.P,USB1,B5,CC2*%
%TO.N,Net-(USB1-CC2)*%
X6585000Y-22750000D03*
%TO.P,USB1,B6,DP2*%
%TO.N,Net-(USB1-DP1)*%
X6585000Y-21750000D03*
%TO.P,USB1,B7,DN1*%
%TO.N,Net-(USB1-DN1)*%
X6585000Y-20250000D03*
%TO.P,USB1,B8,SBU2*%
%TO.N,unconnected-(USB1-SBU2-PadB8)*%
X6585000Y-19250000D03*
D25*
%TO.P,USB1,S1,SHIELD*%
%TO.N,GND*%
X5670000Y-16680000D03*
D26*
X1490000Y-16680000D03*
D25*
X5670000Y-25320000D03*
D26*
X1490000Y-25320000D03*
%TD*%
D27*
%TO.P,U3,1,I/O1*%
%TO.N,Net-(U6-D-)*%
X17647500Y-21270000D03*
%TO.P,U3,2,GND*%
%TO.N,GND*%
X17647500Y-20320000D03*
%TO.P,U3,3,I/O2*%
%TO.N,Net-(U6-D+)*%
X17647500Y-19370000D03*
%TO.P,U3,4,I/O2*%
%TO.N,Net-(USB1-DP1)*%
X15372500Y-19370000D03*
%TO.P,U3,5,VBUS*%
%TO.N,Net-(U3-VBUS)*%
X15372500Y-20320000D03*
%TO.P,U3,6,I/O1*%
%TO.N,Net-(USB1-DN1)*%
X15372500Y-21270000D03*
%TD*%
D12*
%TO.P,C7,1*%
%TO.N,VDD*%
X38735000Y-16990000D03*
%TO.P,C7,2*%
%TO.N,GND1*%
X38735000Y-16030000D03*
%TD*%
D28*
%TO.P,F1,1*%
%TO.N,VBUS*%
X13465000Y-26165000D03*
%TO.P,F1,2*%
%TO.N,Net-(U3-VBUS)*%
X10665000Y-26165000D03*
%TD*%
D29*
%TO.N,VBUS*%
X3175000Y-15875000D03*
X15240000Y-26165000D03*
X22479000Y-22516000D03*
X20320000Y-24130000D03*
%TO.N,GND*%
X8890000Y-14605000D03*
X25400000Y-27940000D03*
X20320000Y-22225000D03*
X27305000Y-17690000D03*
X20955000Y-18960000D03*
X6350000Y-13970000D03*
X19050000Y-20320000D03*
X25400000Y-13970000D03*
X8255000Y-24765000D03*
X31750000Y-14605000D03*
X31115000Y-15240000D03*
X19050000Y-27940000D03*
X6350000Y-27940000D03*
X12700000Y-27940000D03*
X8890000Y-17145000D03*
X19050000Y-13970000D03*
X31750000Y-27305000D03*
X22225000Y-17690000D03*
X27305000Y-22770000D03*
X1270000Y-27305000D03*
X20254000Y-26165000D03*
X12538946Y-22860000D03*
X15875000Y-24130000D03*
X29845000Y-22860000D03*
X12700000Y-13970000D03*
%TO.N,Net-(USB1-DP1)*%
X5080000Y-22225000D03*
X4445000Y-20320000D03*
%TO.N,Net-(USB1-DN1)*%
X5080000Y-19685000D03*
X4445000Y-21590000D03*
%TO.N,VDD*%
X40005000Y-19050000D03*
X51435000Y-23955000D03*
X41910000Y-18955000D03*
%TO.N,GND1*%
X38100000Y-23495000D03*
X38100000Y-27305000D03*
X50165000Y-13970000D03*
X41910000Y-20955000D03*
X59055000Y-18415000D03*
X43815000Y-27940000D03*
X38735000Y-15240000D03*
X38100000Y-14605000D03*
X59055000Y-23495000D03*
X42545000Y-16510000D03*
X50165000Y-27940000D03*
X42545000Y-25400000D03*
X56515000Y-13970000D03*
X42545000Y-15240000D03*
X56515000Y-27940000D03*
X43815000Y-13970000D03*
%TO.N,Net-(U3-VBUS)*%
X9525000Y-23495000D03*
X9525000Y-19050000D03*
X13970000Y-20320000D03*
%TO.N,+3V3*%
X29845000Y-19050000D03*
X21442589Y-21576327D03*
%TO.N,Net-(U1-OUT1)*%
X28575000Y-20320000D03*
X29845000Y-20320000D03*
%TD*%
D30*
%TO.N,GND*%
X29845000Y-22860000D02*
X31325000Y-22860000D01*
%TO.N,Net-(U1-OUT1)*%
X29845000Y-20320000D02*
X31325000Y-20320000D01*
%TO.N,+3V3*%
X29845000Y-19050000D02*
X31325000Y-19050000D01*
%TO.N,Net-(U1-IN2)*%
X29845000Y-21590000D02*
X30480000Y-21590000D01*
X28175000Y-16110000D02*
X29210000Y-17145000D01*
X27305000Y-16110000D02*
X28175000Y-16110000D01*
X29210000Y-17145000D02*
X29210000Y-20955000D01*
X29210000Y-20955000D02*
X29845000Y-21590000D01*
X27305000Y-16110000D02*
X25234315Y-16110000D01*
X25234315Y-16110000D02*
X24265000Y-17079315D01*
X24265000Y-17079315D02*
X24265000Y-17780000D01*
%TO.N,Net-(U1-OUT1)*%
X28575000Y-20320000D02*
X28575000Y-17145000D01*
X24765000Y-17780000D02*
X24765000Y-17145000D01*
X25400000Y-16510000D02*
X27940000Y-16510000D01*
X24765000Y-17145000D02*
X25400000Y-16510000D01*
X27940000Y-16510000D02*
X28575000Y-17145000D01*
%TO.N,VBUS*%
X22315000Y-22225000D02*
X22479000Y-22389000D01*
D31*
X3175000Y-15875000D02*
X2570000Y-15875000D01*
D32*
X13465000Y-26165000D02*
X15240000Y-26165000D01*
D30*
X22479000Y-22516000D02*
X22606000Y-22516000D01*
D31*
X2570000Y-15875000D02*
X1300000Y-14605000D01*
D30*
X22606000Y-22516000D02*
X22770000Y-22680000D01*
X22315000Y-21730000D02*
X22315000Y-22225000D01*
D32*
X16830000Y-26165000D02*
X15240000Y-26165000D01*
D33*
X20320000Y-24130000D02*
X18730000Y-24130000D01*
D31*
X1270000Y-14575000D02*
X1300000Y-14605000D01*
D30*
X23265000Y-22680000D02*
X22770000Y-22680000D01*
X22479000Y-22389000D02*
X22479000Y-22516000D01*
%TO.N,GND*%
X24765000Y-20230000D02*
X22225000Y-17690000D01*
D33*
X6585000Y-24250000D02*
X7740000Y-24250000D01*
D30*
X17647500Y-20320000D02*
X19050000Y-20320000D01*
X24765000Y-20230000D02*
X27305000Y-17690000D01*
X24265000Y-19730000D02*
X22315000Y-19730000D01*
X22315000Y-19730000D02*
X21725000Y-19730000D01*
D34*
X8130000Y-14605000D02*
X8890000Y-14605000D01*
D33*
X8285000Y-17750000D02*
X6585000Y-17750000D01*
D30*
X24765000Y-20230000D02*
X27305000Y-22770000D01*
X24765000Y-20230000D02*
X24265000Y-19730000D01*
X21725000Y-19730000D02*
X20955000Y-18960000D01*
D33*
X8890000Y-17145000D02*
X8285000Y-17750000D01*
D31*
X31115000Y-15240000D02*
X31115000Y-16030000D01*
D33*
X7740000Y-24250000D02*
X8255000Y-24765000D01*
D34*
X15875000Y-24130000D02*
X16830000Y-24130000D01*
X16830000Y-24130000D02*
X16830000Y-24690603D01*
D30*
%TO.N,Net-(USB1-CC1)*%
X10220000Y-19750000D02*
X10285000Y-19685000D01*
X6585000Y-19750000D02*
X10220000Y-19750000D01*
%TO.N,Net-(USB1-CC2)*%
X6585000Y-22750000D02*
X10175000Y-22750000D01*
X10175000Y-22750000D02*
X10285000Y-22860000D01*
%TO.N,Net-(USB1-DP1)*%
X6585000Y-21750000D02*
X5555000Y-21750000D01*
X5555000Y-21750000D02*
X5080000Y-22225000D01*
X4875000Y-20750000D02*
X6585000Y-20750000D01*
X13650000Y-19370000D02*
X12270000Y-20750000D01*
X4445000Y-20320000D02*
X4875000Y-20750000D01*
X15372500Y-19370000D02*
X13650000Y-19370000D01*
X12270000Y-20750000D02*
X6585000Y-20750000D01*
%TO.N,Net-(USB1-DN1)*%
X5645000Y-20250000D02*
X5080000Y-19685000D01*
X15352500Y-21250000D02*
X15372500Y-21270000D01*
X10090000Y-21250000D02*
X15352500Y-21250000D01*
X9140225Y-21500225D02*
X9140225Y-21500226D01*
X6585000Y-21250000D02*
X8890000Y-21250000D01*
X6585000Y-21250000D02*
X4785000Y-21250000D01*
X9990450Y-21250000D02*
X10090000Y-21250000D01*
X6585000Y-20250000D02*
X5645000Y-20250000D01*
X9740225Y-21500226D02*
X9740225Y-21500225D01*
X4785000Y-21250000D02*
X4445000Y-21590000D01*
X9390450Y-21750451D02*
X9490000Y-21750451D01*
X8890000Y-21250000D02*
G75*
G02*
X9140200Y-21500225I0J-250200D01*
G01*
X9490000Y-21750451D02*
G75*
G03*
X9740251Y-21500226I0J250251D01*
G01*
X9740225Y-21500225D02*
G75*
G02*
X9990450Y-21250025I250175J25D01*
G01*
X9140225Y-21500226D02*
G75*
G03*
X9390450Y-21750375I250175J26D01*
G01*
%TO.N,Net-(U6-D-)*%
X20545000Y-20730000D02*
X20005000Y-21270000D01*
X19225926Y-21449075D02*
X19225926Y-21449074D01*
X18805000Y-21270000D02*
X17647500Y-21270000D01*
X22315000Y-20730000D02*
X20545000Y-20730000D01*
X19646852Y-21628149D02*
X19405000Y-21628149D01*
X19825926Y-21449074D02*
X19825926Y-21449075D01*
X19046852Y-21270000D02*
X18805000Y-21270000D01*
X20005000Y-21270000D02*
G75*
G03*
X19825900Y-21449074I0J-179100D01*
G01*
X19225926Y-21449074D02*
G75*
G03*
X19046852Y-21270074I-179026J-26D01*
G01*
X19825926Y-21449075D02*
G75*
G02*
X19646852Y-21628126I-179026J-25D01*
G01*
X19405000Y-21628149D02*
G75*
G02*
X19225951Y-21449075I0J179049D01*
G01*
%TO.N,Net-(U6-D+)*%
X19884005Y-19249005D02*
X19884005Y-19249004D01*
X19163010Y-19370000D02*
X18805000Y-19370000D01*
X22315000Y-20230000D02*
X20865000Y-20230000D01*
X19284005Y-19249004D02*
X19284005Y-19249005D01*
X19763010Y-19128009D02*
X19405000Y-19128009D01*
X18805000Y-19370000D02*
X17647500Y-19370000D01*
X20865000Y-20230000D02*
X20005000Y-19370000D01*
X19884005Y-19249004D02*
G75*
G03*
X19763010Y-19127995I-121005J4D01*
G01*
X19284005Y-19249005D02*
G75*
G02*
X19163010Y-19370005I-121005J5D01*
G01*
X19405000Y-19128009D02*
G75*
G03*
X19284009Y-19249004I0J-120991D01*
G01*
X20005000Y-19370000D02*
G75*
G02*
X19884000Y-19249005I0J121000D01*
G01*
%TO.N,VDD*%
X43635000Y-16895000D02*
X44020000Y-16510000D01*
X43635000Y-18955000D02*
X43635000Y-16895000D01*
D31*
X38735000Y-18840000D02*
X38525000Y-19050000D01*
X51435000Y-23955000D02*
X53665000Y-23955000D01*
X41910000Y-18955000D02*
X43635000Y-18955000D01*
X40005000Y-19050000D02*
X38525000Y-19050000D01*
X38735000Y-16990000D02*
X38735000Y-18840000D01*
D30*
%TO.N,Net-(U6-~{RSTb})*%
X23765000Y-23135000D02*
X23765000Y-22680000D01*
X23245000Y-23655000D02*
X23765000Y-23135000D01*
X23245000Y-24040000D02*
X23245000Y-23655000D01*
%TO.N,GND1*%
X42545000Y-15240000D02*
X43180000Y-15240000D01*
D31*
X38735000Y-15240000D02*
X38735000Y-16030000D01*
D30*
X42545000Y-25400000D02*
X43180000Y-25400000D01*
D31*
X41910000Y-20955000D02*
X43635000Y-20955000D01*
D30*
X43180000Y-16510000D02*
X42545000Y-16510000D01*
D33*
%TO.N,Net-(U3-VBUS)*%
X10665000Y-26165000D02*
X10665000Y-24635000D01*
X9025000Y-18550000D02*
X6585000Y-18550000D01*
D30*
X15372500Y-20320000D02*
X13970000Y-20320000D01*
D33*
X9525000Y-19050000D02*
X9025000Y-18550000D01*
X10160000Y-24130000D02*
X9525000Y-23495000D01*
X10665000Y-26165000D02*
X10795000Y-26035000D01*
X9480000Y-23450000D02*
X6585000Y-23450000D01*
X9525000Y-23495000D02*
X9480000Y-23450000D01*
X10665000Y-24635000D02*
X10412500Y-24382500D01*
X10665000Y-24635000D02*
X10160000Y-24130000D01*
D31*
%TO.N,Net-(D1-K)*%
X7110000Y-14605000D02*
X3175000Y-14605000D01*
D30*
%TO.N,+3V3*%
X21626500Y-21336500D02*
X21463000Y-21500000D01*
D31*
X31115000Y-18840000D02*
X31325000Y-19050000D01*
X31115000Y-16990000D02*
X31115000Y-18840000D01*
D30*
X21463000Y-21500000D02*
X21463000Y-23786000D01*
X21442589Y-21520411D02*
X21626500Y-21336500D01*
X22225000Y-24040000D02*
X21717000Y-24040000D01*
X21733000Y-21230000D02*
X21626500Y-21336500D01*
X21717000Y-24040000D02*
X21463000Y-23786000D01*
X21442589Y-21576327D02*
X21442589Y-21520411D01*
X22315000Y-21230000D02*
X21733000Y-21230000D01*
D31*
%TO.N,OUT_TxD*%
X44450000Y-24765000D02*
X47625000Y-24765000D01*
X53665000Y-17955000D02*
X56055000Y-17955000D01*
X47625000Y-24765000D02*
X50165000Y-24765000D01*
X47805000Y-22955000D02*
X47805000Y-24765000D01*
X50800000Y-25400000D02*
X55880000Y-25400000D01*
X43815000Y-24765000D02*
X44450000Y-24765000D01*
X50165000Y-24765000D02*
X50800000Y-25400000D01*
X56515000Y-24765000D02*
X56515000Y-18415000D01*
X40005000Y-21590000D02*
X40640000Y-22225000D01*
X40640000Y-24130000D02*
X41275000Y-24765000D01*
X38525000Y-21590000D02*
X40005000Y-21590000D01*
X40640000Y-22225000D02*
X40640000Y-24130000D01*
X41275000Y-24765000D02*
X43815000Y-24765000D01*
X47805000Y-24765000D02*
X47625000Y-24765000D01*
X43815000Y-25195000D02*
X43815000Y-24765000D01*
X44020000Y-25400000D02*
X43815000Y-25195000D01*
X56055000Y-17955000D02*
X56515000Y-18415000D01*
X55880000Y-25400000D02*
X56515000Y-24765000D01*
%TO.N,IN_RxD*%
X51165000Y-21955000D02*
X50165000Y-20955000D01*
X41275000Y-19685000D02*
X41275000Y-16924400D01*
X43815000Y-15445000D02*
X43815000Y-15875000D01*
X42324400Y-15875000D02*
X43815000Y-15875000D01*
X50165000Y-20955000D02*
X47805000Y-20955000D01*
X44020000Y-15240000D02*
X43815000Y-15445000D01*
X41275000Y-16924400D02*
X42324400Y-15875000D01*
X53665000Y-21955000D02*
X51165000Y-21955000D01*
X43815000Y-15875000D02*
X48260000Y-15875000D01*
X50165000Y-17780000D02*
X50165000Y-20955000D01*
X38525000Y-20320000D02*
X40640000Y-20320000D01*
X40640000Y-20320000D02*
X41275000Y-19685000D01*
X48260000Y-15875000D02*
X50165000Y-17780000D01*
%TD*%
%TA.AperFunction,Conductor*%
%TO.N,GND1*%
G36*
X60013561Y-13335597D02*
G01*
X60181173Y-13352105D01*
X60205009Y-13356847D01*
X60360323Y-13403962D01*
X60382773Y-13413260D01*
X60525918Y-13489772D01*
X60546121Y-13503272D01*
X60671578Y-13606233D01*
X60688766Y-13623421D01*
X60791727Y-13748878D01*
X60805228Y-13769083D01*
X60881736Y-13912219D01*
X60891037Y-13934676D01*
X60938152Y-14089990D01*
X60942895Y-14113832D01*
X60959403Y-14281438D01*
X60960000Y-14293592D01*
X60960000Y-14430500D01*
X60940315Y-14497539D01*
X60887511Y-14543294D01*
X60836000Y-14554500D01*
X57921908Y-14554500D01*
X57833437Y-14565123D01*
X57692657Y-14620639D01*
X57692655Y-14620640D01*
X57572077Y-14712077D01*
X57480640Y-14832655D01*
X57425124Y-14973437D01*
X57425123Y-14973438D01*
X57414500Y-15061900D01*
X57414500Y-16148091D01*
X57425123Y-16236562D01*
X57480639Y-16377342D01*
X57480640Y-16377344D01*
X57572077Y-16497922D01*
X57685476Y-16583915D01*
X57692658Y-16589361D01*
X57833436Y-16644876D01*
X57921901Y-16655500D01*
X60836000Y-16655499D01*
X60903039Y-16675184D01*
X60948794Y-16727987D01*
X60960000Y-16779499D01*
X60960000Y-25130500D01*
X60940315Y-25197539D01*
X60887511Y-25243294D01*
X60836000Y-25254500D01*
X57921908Y-25254500D01*
X57833437Y-25265123D01*
X57692657Y-25320639D01*
X57692655Y-25320640D01*
X57572077Y-25412077D01*
X57480640Y-25532655D01*
X57425124Y-25673437D01*
X57425123Y-25673438D01*
X57414500Y-25761900D01*
X57414500Y-26848091D01*
X57425123Y-26936562D01*
X57480639Y-27077342D01*
X57480640Y-27077344D01*
X57572077Y-27197922D01*
X57692655Y-27289359D01*
X57692658Y-27289361D01*
X57833436Y-27344876D01*
X57921901Y-27355500D01*
X60597756Y-27355499D01*
X60664795Y-27375184D01*
X60710550Y-27427987D01*
X60720494Y-27497146D01*
X60706588Y-27538926D01*
X60646758Y-27648496D01*
X60637193Y-27663380D01*
X60476811Y-27877624D01*
X60465225Y-27890994D01*
X60275994Y-28080225D01*
X60262624Y-28091811D01*
X60048380Y-28252193D01*
X60033496Y-28261758D01*
X59798617Y-28390011D01*
X59782524Y-28397361D01*
X59531770Y-28490888D01*
X59514794Y-28495872D01*
X59253297Y-28552757D01*
X59235785Y-28555275D01*
X58964418Y-28574684D01*
X58955572Y-28575000D01*
X39469428Y-28575000D01*
X39460582Y-28574684D01*
X39189214Y-28555275D01*
X39171702Y-28552757D01*
X38910205Y-28495872D01*
X38893229Y-28490888D01*
X38642475Y-28397361D01*
X38626382Y-28390011D01*
X38391503Y-28261758D01*
X38376619Y-28252193D01*
X38162375Y-28091811D01*
X38149005Y-28080225D01*
X37959774Y-27890994D01*
X37948188Y-27877624D01*
X37787802Y-27663375D01*
X37778244Y-27648501D01*
X37649987Y-27413616D01*
X37642638Y-27397524D01*
X37634306Y-27375184D01*
X37549108Y-27146762D01*
X37544129Y-27129803D01*
X37487241Y-26868291D01*
X37484724Y-26850785D01*
X37484531Y-26848091D01*
X37465316Y-26579418D01*
X37465000Y-26570572D01*
X37465000Y-25525000D01*
X42704095Y-25525000D01*
X42710265Y-25567360D01*
X42710265Y-25567362D01*
X42763402Y-25676055D01*
X42848945Y-25761598D01*
X42957636Y-25814734D01*
X43028092Y-25824999D01*
X43055000Y-25824998D01*
X43055000Y-25525000D01*
X42704095Y-25525000D01*
X37465000Y-25525000D01*
X37465000Y-23512322D01*
X37484685Y-23445283D01*
X37537489Y-23399528D01*
X37606647Y-23389584D01*
X37653679Y-23408878D01*
X37654141Y-23408005D01*
X37662354Y-23412346D01*
X37790397Y-23457149D01*
X37820792Y-23459999D01*
X38274999Y-23459999D01*
X38775000Y-23459999D01*
X39229196Y-23459999D01*
X39259606Y-23457148D01*
X39387645Y-23412346D01*
X39496792Y-23331792D01*
X39577346Y-23222645D01*
X39616762Y-23110000D01*
X38775000Y-23110000D01*
X38775000Y-23459999D01*
X38274999Y-23459999D01*
X38275000Y-23459998D01*
X38275000Y-22734000D01*
X38294685Y-22666961D01*
X38347489Y-22621206D01*
X38399000Y-22610000D01*
X39616761Y-22610000D01*
X39577346Y-22497354D01*
X39496792Y-22388207D01*
X39411257Y-22325080D01*
X39369007Y-22269433D01*
X39363548Y-22199776D01*
X39396616Y-22138227D01*
X39411243Y-22125551D01*
X39497150Y-22062150D01*
X39497153Y-22062146D01*
X39503721Y-22055579D01*
X39505548Y-22057406D01*
X39550054Y-22023616D01*
X39594177Y-22015500D01*
X39777390Y-22015500D01*
X39844429Y-22035185D01*
X39865071Y-22051819D01*
X40178181Y-22364929D01*
X40211666Y-22426252D01*
X40214500Y-22452610D01*
X40214500Y-24073982D01*
X40214500Y-24186018D01*
X40243497Y-24294237D01*
X40299515Y-24391263D01*
X40934515Y-25026263D01*
X41013737Y-25105485D01*
X41110763Y-25161503D01*
X41218982Y-25190500D01*
X42574313Y-25190500D01*
X42641352Y-25210185D01*
X42668102Y-25233385D01*
X42704094Y-25275000D01*
X43181000Y-25275000D01*
X43248039Y-25294685D01*
X43293794Y-25347489D01*
X43305000Y-25399000D01*
X43305000Y-25824999D01*
X43331902Y-25824999D01*
X43402361Y-25814734D01*
X43511051Y-25761599D01*
X43511959Y-25760692D01*
X43513512Y-25759843D01*
X43519417Y-25755628D01*
X43519926Y-25756340D01*
X43573280Y-25727203D01*
X43642972Y-25732184D01*
X43680228Y-25756125D01*
X43680289Y-25756041D01*
X43682017Y-25757274D01*
X43687327Y-25760687D01*
X43688651Y-25762011D01*
X43797488Y-25815219D01*
X43797489Y-25815219D01*
X43797491Y-25815220D01*
X43868051Y-25825500D01*
X43949540Y-25825499D01*
X43949547Y-25825500D01*
X43963982Y-25825500D01*
X44090453Y-25825500D01*
X44090461Y-25825499D01*
X44171950Y-25825499D01*
X44200172Y-25821387D01*
X44242509Y-25815220D01*
X44351347Y-25762012D01*
X44437012Y-25676347D01*
X44490220Y-25567509D01*
X44500500Y-25496949D01*
X44500499Y-25314500D01*
X44520183Y-25247461D01*
X44572987Y-25201706D01*
X44624499Y-25190500D01*
X47568982Y-25190500D01*
X47748982Y-25190500D01*
X47861018Y-25190500D01*
X49937390Y-25190500D01*
X50004429Y-25210185D01*
X50025071Y-25226819D01*
X50538737Y-25740485D01*
X50635763Y-25796503D01*
X50743982Y-25825500D01*
X50743984Y-25825500D01*
X55936016Y-25825500D01*
X55936018Y-25825500D01*
X56044237Y-25796503D01*
X56141263Y-25740485D01*
X56855485Y-25026263D01*
X56911503Y-24929237D01*
X56940500Y-24821018D01*
X56940500Y-24708981D01*
X56940500Y-18358982D01*
X56911503Y-18250763D01*
X56855485Y-18153737D01*
X56776263Y-18074515D01*
X56776262Y-18074514D01*
X56771932Y-18070184D01*
X56771921Y-18070174D01*
X56316265Y-17614517D01*
X56316264Y-17614516D01*
X56316263Y-17614515D01*
X56219237Y-17558497D01*
X56111018Y-17529500D01*
X56111017Y-17529500D01*
X55771945Y-17529500D01*
X55704906Y-17509815D01*
X55659151Y-17457011D01*
X55656590Y-17450990D01*
X55654227Y-17444999D01*
X55649361Y-17432658D01*
X55649360Y-17432657D01*
X55649360Y-17432656D01*
X55557922Y-17312077D01*
X55437343Y-17220639D01*
X55296561Y-17165122D01*
X55250926Y-17159642D01*
X55208102Y-17154500D01*
X52121898Y-17154500D01*
X52082853Y-17159188D01*
X52033438Y-17165122D01*
X51892656Y-17220639D01*
X51772077Y-17312077D01*
X51680639Y-17432656D01*
X51625122Y-17573438D01*
X51620040Y-17615763D01*
X51614500Y-17661898D01*
X51614500Y-18248102D01*
X51614820Y-18250763D01*
X51625122Y-18336561D01*
X51680639Y-18477343D01*
X51772077Y-18597922D01*
X51892656Y-18689360D01*
X51892657Y-18689360D01*
X51892658Y-18689361D01*
X52033436Y-18744877D01*
X52121898Y-18755500D01*
X52121903Y-18755500D01*
X55208097Y-18755500D01*
X55208102Y-18755500D01*
X55296564Y-18744877D01*
X55437342Y-18689361D01*
X55557922Y-18597922D01*
X55649361Y-18477342D01*
X55656590Y-18459009D01*
X55699496Y-18403866D01*
X55765404Y-18380673D01*
X55771945Y-18380500D01*
X55827390Y-18380500D01*
X55894429Y-18400185D01*
X55915066Y-18416814D01*
X56053182Y-18554929D01*
X56086666Y-18616250D01*
X56089500Y-18642609D01*
X56089500Y-24537390D01*
X56069815Y-24604429D01*
X56053181Y-24625071D01*
X55740071Y-24938181D01*
X55678748Y-24971666D01*
X55652390Y-24974500D01*
X55366731Y-24974500D01*
X55299692Y-24954815D01*
X55253937Y-24902011D01*
X55243993Y-24832853D01*
X55273018Y-24769297D01*
X55321239Y-24735146D01*
X55437342Y-24689361D01*
X55557922Y-24597922D01*
X55649361Y-24477342D01*
X55704877Y-24336564D01*
X55715500Y-24248102D01*
X55715500Y-23661898D01*
X55704877Y-23573436D01*
X55649361Y-23432658D01*
X55649360Y-23432657D01*
X55649360Y-23432656D01*
X55557922Y-23312077D01*
X55437343Y-23220639D01*
X55296561Y-23165122D01*
X55250926Y-23159642D01*
X55208102Y-23154500D01*
X52121898Y-23154500D01*
X52082853Y-23159188D01*
X52033438Y-23165122D01*
X51892656Y-23220639D01*
X51772082Y-23312074D01*
X51772079Y-23312076D01*
X51740916Y-23353171D01*
X51684723Y-23394693D01*
X51615001Y-23399244D01*
X51594665Y-23392807D01*
X51594649Y-23392800D01*
X51586541Y-23389442D01*
X51435000Y-23369491D01*
X51283459Y-23389442D01*
X51283455Y-23389443D01*
X51142247Y-23447932D01*
X51142244Y-23447934D01*
X51020983Y-23540982D01*
X51020982Y-23540983D01*
X50927934Y-23662244D01*
X50927932Y-23662247D01*
X50869443Y-23803455D01*
X50869442Y-23803459D01*
X50849491Y-23955000D01*
X50865155Y-24073982D01*
X50869442Y-24106540D01*
X50869443Y-24106544D01*
X50927933Y-24247753D01*
X50927934Y-24247756D01*
X51020982Y-24369017D01*
X51142243Y-24462065D01*
X51142244Y-24462065D01*
X51142245Y-24462066D01*
X51283459Y-24520558D01*
X51435000Y-24540509D01*
X51586541Y-24520558D01*
X51594656Y-24517196D01*
X51664121Y-24509724D01*
X51726602Y-24540995D01*
X51740915Y-24556829D01*
X51772076Y-24597921D01*
X51892656Y-24689360D01*
X51892657Y-24689360D01*
X51892658Y-24689361D01*
X52008760Y-24735146D01*
X52063903Y-24778051D01*
X52087096Y-24843959D01*
X52070976Y-24911943D01*
X52020659Y-24960420D01*
X51963269Y-24974500D01*
X51027610Y-24974500D01*
X50960571Y-24954815D01*
X50939929Y-24938181D01*
X50426265Y-24424517D01*
X50426263Y-24424515D01*
X50329237Y-24368497D01*
X50221018Y-24339500D01*
X50221017Y-24339500D01*
X48354500Y-24339500D01*
X48287461Y-24319815D01*
X48241706Y-24267011D01*
X48230500Y-24215500D01*
X48230500Y-23879499D01*
X48250185Y-23812460D01*
X48302989Y-23766705D01*
X48354500Y-23755499D01*
X49139856Y-23755499D01*
X49139864Y-23755499D01*
X49139879Y-23755497D01*
X49139882Y-23755497D01*
X49164987Y-23752586D01*
X49164988Y-23752585D01*
X49164991Y-23752585D01*
X49267765Y-23707206D01*
X49347206Y-23627765D01*
X49392585Y-23524991D01*
X49395500Y-23499865D01*
X49395499Y-22410136D01*
X49395497Y-22410117D01*
X49392586Y-22385012D01*
X49392585Y-22385010D01*
X49392585Y-22385009D01*
X49347206Y-22282235D01*
X49267765Y-22202794D01*
X49233458Y-22187646D01*
X49164992Y-22157415D01*
X49139865Y-22154500D01*
X46470143Y-22154500D01*
X46470117Y-22154502D01*
X46445012Y-22157413D01*
X46445008Y-22157415D01*
X46342235Y-22202793D01*
X46262794Y-22282234D01*
X46217415Y-22385006D01*
X46217415Y-22385008D01*
X46214500Y-22410131D01*
X46214500Y-23499856D01*
X46214502Y-23499882D01*
X46217413Y-23524987D01*
X46217415Y-23524991D01*
X46262793Y-23627764D01*
X46262794Y-23627765D01*
X46342235Y-23707206D01*
X46445009Y-23752585D01*
X46470135Y-23755500D01*
X47255500Y-23755499D01*
X47322539Y-23775183D01*
X47368294Y-23827987D01*
X47379500Y-23879499D01*
X47379500Y-24215500D01*
X47359815Y-24282539D01*
X47307011Y-24328294D01*
X47255500Y-24339500D01*
X41502610Y-24339500D01*
X41435571Y-24319815D01*
X41414929Y-24303181D01*
X41101819Y-23990071D01*
X41068334Y-23928748D01*
X41065500Y-23902390D01*
X41065500Y-22410131D01*
X42044500Y-22410131D01*
X42044500Y-23499856D01*
X42044502Y-23499882D01*
X42047413Y-23524987D01*
X42047415Y-23524991D01*
X42092793Y-23627764D01*
X42092794Y-23627765D01*
X42172235Y-23707206D01*
X42275009Y-23752585D01*
X42300135Y-23755500D01*
X44969864Y-23755499D01*
X44969879Y-23755497D01*
X44969882Y-23755497D01*
X44994987Y-23752586D01*
X44994988Y-23752585D01*
X44994991Y-23752585D01*
X45097765Y-23707206D01*
X45177206Y-23627765D01*
X45222585Y-23524991D01*
X45225500Y-23499865D01*
X45225499Y-22410136D01*
X45225497Y-22410117D01*
X45222586Y-22385012D01*
X45222585Y-22385010D01*
X45222585Y-22385009D01*
X45177206Y-22282235D01*
X45097765Y-22202794D01*
X45063458Y-22187646D01*
X44994992Y-22157415D01*
X44969865Y-22154500D01*
X42300143Y-22154500D01*
X42300117Y-22154502D01*
X42275012Y-22157413D01*
X42275008Y-22157415D01*
X42172235Y-22202793D01*
X42092794Y-22282234D01*
X42047415Y-22385006D01*
X42047415Y-22385008D01*
X42044500Y-22410131D01*
X41065500Y-22410131D01*
X41065500Y-22168984D01*
X41065500Y-22168982D01*
X41036503Y-22060763D01*
X40980485Y-21963737D01*
X40901263Y-21884515D01*
X40516533Y-21499785D01*
X42045001Y-21499785D01*
X42045002Y-21499808D01*
X42047908Y-21524869D01*
X42047909Y-21524873D01*
X42093211Y-21627474D01*
X42093214Y-21627479D01*
X42172520Y-21706785D01*
X42172525Y-21706788D01*
X42275123Y-21752089D01*
X42300206Y-21754999D01*
X43384999Y-21754999D01*
X43885000Y-21754999D01*
X44969786Y-21754999D01*
X44969808Y-21754997D01*
X44994869Y-21752091D01*
X44994873Y-21752090D01*
X45097474Y-21706788D01*
X45097479Y-21706785D01*
X45176785Y-21627479D01*
X45176788Y-21627474D01*
X45222089Y-21524877D01*
X45222089Y-21524875D01*
X45224999Y-21499794D01*
X45225000Y-21499791D01*
X45225000Y-21205000D01*
X43885000Y-21205000D01*
X43885000Y-21754999D01*
X43384999Y-21754999D01*
X43385000Y-21754998D01*
X43385000Y-21205000D01*
X42045001Y-21205000D01*
X42045001Y-21499785D01*
X40516533Y-21499785D01*
X40266263Y-21249515D01*
X40169237Y-21193497D01*
X40061018Y-21164500D01*
X40061017Y-21164500D01*
X39594177Y-21164500D01*
X39527138Y-21144815D01*
X39504524Y-21123617D01*
X39503721Y-21124421D01*
X39497152Y-21117852D01*
X39497150Y-21117851D01*
X39497150Y-21117850D01*
X39411677Y-21054768D01*
X39369428Y-20999123D01*
X39363969Y-20929467D01*
X39397036Y-20867917D01*
X39411670Y-20855236D01*
X39497150Y-20792150D01*
X39497152Y-20792146D01*
X39503721Y-20785579D01*
X39505548Y-20787406D01*
X39550054Y-20753616D01*
X39594177Y-20745500D01*
X40696016Y-20745500D01*
X40696018Y-20745500D01*
X40804237Y-20716503D01*
X40901263Y-20660485D01*
X41151543Y-20410205D01*
X42045000Y-20410205D01*
X42045000Y-20705000D01*
X43385000Y-20705000D01*
X43885000Y-20705000D01*
X45224999Y-20705000D01*
X45224999Y-20410214D01*
X45224997Y-20410191D01*
X45222091Y-20385130D01*
X45222090Y-20385126D01*
X45176788Y-20282525D01*
X45176785Y-20282520D01*
X45097479Y-20203214D01*
X45097474Y-20203211D01*
X44994876Y-20157910D01*
X44969794Y-20155000D01*
X43885000Y-20155000D01*
X43885000Y-20705000D01*
X43385000Y-20705000D01*
X43385000Y-20155000D01*
X42300214Y-20155000D01*
X42300191Y-20155002D01*
X42275130Y-20157908D01*
X42275126Y-20157909D01*
X42172525Y-20203211D01*
X42172520Y-20203214D01*
X42093214Y-20282520D01*
X42093211Y-20282525D01*
X42047910Y-20385122D01*
X42047910Y-20385124D01*
X42045000Y-20410205D01*
X41151543Y-20410205D01*
X41615485Y-19946263D01*
X41671503Y-19849237D01*
X41700500Y-19741018D01*
X41700500Y-19654322D01*
X41720185Y-19587283D01*
X41772989Y-19541528D01*
X41840684Y-19531383D01*
X41910000Y-19540509D01*
X41954242Y-19534684D01*
X42023277Y-19545449D01*
X42075533Y-19591828D01*
X42083862Y-19607536D01*
X42092794Y-19627765D01*
X42172235Y-19707206D01*
X42275009Y-19752585D01*
X42300135Y-19755500D01*
X44969864Y-19755499D01*
X44969879Y-19755497D01*
X44969882Y-19755497D01*
X44994987Y-19752586D01*
X44994988Y-19752585D01*
X44994991Y-19752585D01*
X45097765Y-19707206D01*
X45177206Y-19627765D01*
X45222585Y-19524991D01*
X45225500Y-19499865D01*
X45225499Y-18410136D01*
X45225498Y-18410131D01*
X46214500Y-18410131D01*
X46214500Y-19499856D01*
X46214502Y-19499882D01*
X46217413Y-19524987D01*
X46217415Y-19524991D01*
X46262793Y-19627764D01*
X46262794Y-19627765D01*
X46342235Y-19707206D01*
X46445009Y-19752585D01*
X46470135Y-19755500D01*
X49139864Y-19755499D01*
X49139879Y-19755497D01*
X49139882Y-19755497D01*
X49164987Y-19752586D01*
X49164988Y-19752585D01*
X49164991Y-19752585D01*
X49267765Y-19707206D01*
X49347206Y-19627765D01*
X49392585Y-19524991D01*
X49395500Y-19499865D01*
X49395499Y-18410136D01*
X49394345Y-18400185D01*
X49392586Y-18385012D01*
X49392585Y-18385010D01*
X49392585Y-18385009D01*
X49347206Y-18282235D01*
X49267765Y-18202794D01*
X49267763Y-18202793D01*
X49164992Y-18157415D01*
X49139865Y-18154500D01*
X46470143Y-18154500D01*
X46470117Y-18154502D01*
X46445012Y-18157413D01*
X46445008Y-18157415D01*
X46342235Y-18202793D01*
X46262794Y-18282234D01*
X46217415Y-18385006D01*
X46217415Y-18385008D01*
X46214500Y-18410131D01*
X45225498Y-18410131D01*
X45224345Y-18400185D01*
X45222586Y-18385012D01*
X45222585Y-18385010D01*
X45222585Y-18385009D01*
X45177206Y-18282235D01*
X45097765Y-18202794D01*
X45097763Y-18202793D01*
X44994992Y-18157415D01*
X44969868Y-18154500D01*
X44969865Y-18154500D01*
X44159500Y-18154500D01*
X44092461Y-18134815D01*
X44046706Y-18082011D01*
X44035500Y-18030500D01*
X44035500Y-17112255D01*
X44055185Y-17045216D01*
X44071818Y-17024575D01*
X44129914Y-16966478D01*
X44191237Y-16932992D01*
X44199722Y-16931453D01*
X44242509Y-16925220D01*
X44351347Y-16872012D01*
X44437012Y-16786347D01*
X44490220Y-16677509D01*
X44500500Y-16606949D01*
X44500499Y-16424500D01*
X44520183Y-16357461D01*
X44572987Y-16311706D01*
X44624499Y-16300500D01*
X48032390Y-16300500D01*
X48099429Y-16320185D01*
X48120071Y-16336819D01*
X49703181Y-17919929D01*
X49736666Y-17981252D01*
X49739500Y-18007610D01*
X49739500Y-20405500D01*
X49719815Y-20472539D01*
X49667011Y-20518294D01*
X49615500Y-20529500D01*
X49519438Y-20529500D01*
X49452399Y-20509815D01*
X49406644Y-20457011D01*
X49395644Y-20412653D01*
X49395499Y-20410151D01*
X49395499Y-20410136D01*
X49395497Y-20410117D01*
X49392586Y-20385012D01*
X49392585Y-20385010D01*
X49392585Y-20385009D01*
X49347206Y-20282235D01*
X49267765Y-20202794D01*
X49267763Y-20202793D01*
X49164992Y-20157415D01*
X49139865Y-20154500D01*
X46470143Y-20154500D01*
X46470117Y-20154502D01*
X46445012Y-20157413D01*
X46445008Y-20157415D01*
X46342235Y-20202793D01*
X46262794Y-20282234D01*
X46217415Y-20385006D01*
X46217415Y-20385008D01*
X46214500Y-20410131D01*
X46214500Y-21499856D01*
X46214502Y-21499882D01*
X46217413Y-21524987D01*
X46217415Y-21524991D01*
X46262793Y-21627764D01*
X46262794Y-21627765D01*
X46342235Y-21707206D01*
X46445009Y-21752585D01*
X46470135Y-21755500D01*
X49139864Y-21755499D01*
X49139879Y-21755497D01*
X49139882Y-21755497D01*
X49164987Y-21752586D01*
X49164988Y-21752585D01*
X49164991Y-21752585D01*
X49267765Y-21707206D01*
X49347206Y-21627765D01*
X49392585Y-21524991D01*
X49395500Y-21499865D01*
X49395500Y-21499848D01*
X49395645Y-21497353D01*
X49395861Y-21496746D01*
X49395913Y-21496306D01*
X49396014Y-21496317D01*
X49419161Y-21431560D01*
X49474514Y-21388924D01*
X49519439Y-21380500D01*
X49937390Y-21380500D01*
X50004429Y-21400185D01*
X50025071Y-21416819D01*
X50824515Y-22216263D01*
X50903737Y-22295485D01*
X51000763Y-22351503D01*
X51108982Y-22380500D01*
X51558055Y-22380500D01*
X51625094Y-22400185D01*
X51670849Y-22452989D01*
X51673410Y-22459010D01*
X51680639Y-22477343D01*
X51772077Y-22597922D01*
X51892656Y-22689360D01*
X51892657Y-22689360D01*
X51892658Y-22689361D01*
X52033436Y-22744877D01*
X52121898Y-22755500D01*
X52121903Y-22755500D01*
X55208097Y-22755500D01*
X55208102Y-22755500D01*
X55296564Y-22744877D01*
X55437342Y-22689361D01*
X55557922Y-22597922D01*
X55649361Y-22477342D01*
X55704877Y-22336564D01*
X55715500Y-22248102D01*
X55715500Y-21661898D01*
X55704877Y-21573436D01*
X55649361Y-21432658D01*
X55649360Y-21432657D01*
X55649360Y-21432656D01*
X55557922Y-21312077D01*
X55437343Y-21220639D01*
X55296561Y-21165122D01*
X55250926Y-21159642D01*
X55208102Y-21154500D01*
X52121898Y-21154500D01*
X52082853Y-21159188D01*
X52033438Y-21165122D01*
X51892656Y-21220639D01*
X51772077Y-21312077D01*
X51680639Y-21432656D01*
X51673410Y-21450990D01*
X51630504Y-21506134D01*
X51564596Y-21529327D01*
X51558055Y-21529500D01*
X51392610Y-21529500D01*
X51325571Y-21509815D01*
X51304929Y-21493181D01*
X50626819Y-20815071D01*
X50593334Y-20753748D01*
X50590500Y-20727390D01*
X50590500Y-20248053D01*
X51615000Y-20248053D01*
X51625613Y-20336443D01*
X51681079Y-20477095D01*
X51772435Y-20597564D01*
X51892904Y-20688920D01*
X52033556Y-20744386D01*
X52121946Y-20755000D01*
X53415000Y-20755000D01*
X53915000Y-20755000D01*
X55208054Y-20755000D01*
X55296443Y-20744386D01*
X55437095Y-20688920D01*
X55557564Y-20597564D01*
X55648920Y-20477095D01*
X55704386Y-20336443D01*
X55715000Y-20248053D01*
X55715000Y-20205000D01*
X53915000Y-20205000D01*
X53915000Y-20755000D01*
X53415000Y-20755000D01*
X53415000Y-20205000D01*
X51615000Y-20205000D01*
X51615000Y-20248053D01*
X50590500Y-20248053D01*
X50590500Y-19661946D01*
X51615000Y-19661946D01*
X51615000Y-19705000D01*
X53415000Y-19705000D01*
X53915000Y-19705000D01*
X55715000Y-19705000D01*
X55715000Y-19661946D01*
X55704386Y-19573556D01*
X55648920Y-19432904D01*
X55557564Y-19312435D01*
X55437095Y-19221079D01*
X55296443Y-19165613D01*
X55208054Y-19155000D01*
X53915000Y-19155000D01*
X53915000Y-19705000D01*
X53415000Y-19705000D01*
X53415000Y-19155000D01*
X52121946Y-19155000D01*
X52033556Y-19165613D01*
X51892904Y-19221079D01*
X51772435Y-19312435D01*
X51681079Y-19432904D01*
X51625613Y-19573556D01*
X51615000Y-19661946D01*
X50590500Y-19661946D01*
X50590500Y-17723984D01*
X50590500Y-17723982D01*
X50561503Y-17615763D01*
X50505485Y-17518737D01*
X50426263Y-17439515D01*
X48521263Y-15534515D01*
X48424237Y-15478497D01*
X48316018Y-15449500D01*
X48316017Y-15449500D01*
X44624500Y-15449500D01*
X44557461Y-15429815D01*
X44511706Y-15377011D01*
X44500500Y-15325501D01*
X44500499Y-15143049D01*
X44494331Y-15100715D01*
X44490220Y-15072491D01*
X44437012Y-14963653D01*
X44437010Y-14963651D01*
X44437010Y-14963650D01*
X44351348Y-14877988D01*
X44242511Y-14824780D01*
X44224869Y-14822210D01*
X44171949Y-14814500D01*
X44076020Y-14814500D01*
X44076019Y-14814500D01*
X43963982Y-14814500D01*
X43963979Y-14814500D01*
X43868049Y-14814500D01*
X43797493Y-14824779D01*
X43688649Y-14877990D01*
X43688648Y-14877990D01*
X43687322Y-14879317D01*
X43685064Y-14880549D01*
X43680289Y-14883959D01*
X43679876Y-14883381D01*
X43625997Y-14912799D01*
X43556306Y-14907810D01*
X43519549Y-14884186D01*
X43519417Y-14884372D01*
X43515619Y-14881660D01*
X43511965Y-14879312D01*
X43511054Y-14878401D01*
X43402366Y-14825266D01*
X43331895Y-14815000D01*
X43305000Y-14815000D01*
X43305000Y-15241000D01*
X43285315Y-15308039D01*
X43232511Y-15353794D01*
X43181000Y-15365000D01*
X42704095Y-15365000D01*
X42668102Y-15406616D01*
X42609359Y-15444445D01*
X42574314Y-15449500D01*
X42268382Y-15449500D01*
X42160163Y-15478497D01*
X42160160Y-15478498D01*
X42063140Y-15534513D01*
X42063134Y-15534517D01*
X40934517Y-16663134D01*
X40934513Y-16663140D01*
X40878498Y-16760160D01*
X40878497Y-16760163D01*
X40849500Y-16868382D01*
X40849500Y-19457390D01*
X40829815Y-19524429D01*
X40813181Y-19545071D01*
X40500071Y-19858181D01*
X40438748Y-19891666D01*
X40412390Y-19894500D01*
X39594177Y-19894500D01*
X39527138Y-19874815D01*
X39504524Y-19853617D01*
X39503721Y-19854421D01*
X39497152Y-19847852D01*
X39497150Y-19847851D01*
X39497150Y-19847850D01*
X39411677Y-19784768D01*
X39369428Y-19729123D01*
X39363969Y-19659467D01*
X39397036Y-19597917D01*
X39411670Y-19585236D01*
X39497150Y-19522150D01*
X39497151Y-19522148D01*
X39504627Y-19516631D01*
X39506162Y-19518711D01*
X39555193Y-19491930D01*
X39624885Y-19496904D01*
X39657052Y-19514714D01*
X39712245Y-19557066D01*
X39853459Y-19615558D01*
X40005000Y-19635509D01*
X40156541Y-19615558D01*
X40297755Y-19557066D01*
X40419017Y-19464017D01*
X40512066Y-19342755D01*
X40570558Y-19201541D01*
X40590509Y-19050000D01*
X40570558Y-18898459D01*
X40536113Y-18815301D01*
X40512067Y-18757247D01*
X40512065Y-18757244D01*
X40459975Y-18689360D01*
X40419017Y-18635983D01*
X40419015Y-18635982D01*
X40419015Y-18635981D01*
X40297756Y-18542934D01*
X40297753Y-18542933D01*
X40156544Y-18484443D01*
X40156542Y-18484442D01*
X40156541Y-18484442D01*
X40005000Y-18464491D01*
X39853459Y-18484442D01*
X39853455Y-18484443D01*
X39712247Y-18542932D01*
X39712245Y-18542934D01*
X39657055Y-18585283D01*
X39591886Y-18610477D01*
X39523441Y-18596438D01*
X39505027Y-18582823D01*
X39504626Y-18583368D01*
X39497150Y-18577851D01*
X39497150Y-18577850D01*
X39387882Y-18497207D01*
X39387880Y-18497206D01*
X39259698Y-18452352D01*
X39258037Y-18451990D01*
X39256929Y-18451384D01*
X39252577Y-18449861D01*
X39252829Y-18449140D01*
X39196743Y-18418452D01*
X39163311Y-18357100D01*
X39160500Y-18330847D01*
X39160500Y-17551508D01*
X39180185Y-17484469D01*
X39210865Y-17451739D01*
X39219999Y-17444999D01*
X39220002Y-17444993D01*
X39220004Y-17444993D01*
X39298851Y-17338158D01*
X39298852Y-17338157D01*
X39342708Y-17212826D01*
X39342708Y-17212823D01*
X39342710Y-17212819D01*
X39345500Y-17183066D01*
X39345500Y-16796934D01*
X39342710Y-16767181D01*
X39342708Y-16767177D01*
X39342708Y-16767173D01*
X39298852Y-16641844D01*
X39298852Y-16641843D01*
X39255579Y-16583211D01*
X39231609Y-16517583D01*
X39246924Y-16449413D01*
X39255581Y-16435943D01*
X39298403Y-16377922D01*
X39332668Y-16280000D01*
X38137332Y-16280000D01*
X38171596Y-16377922D01*
X38214419Y-16435945D01*
X38238390Y-16501574D01*
X38223075Y-16569744D01*
X38214419Y-16583212D01*
X38204075Y-16597227D01*
X38171147Y-16641844D01*
X38127291Y-16767173D01*
X38127289Y-16767185D01*
X38124500Y-16796929D01*
X38124500Y-17183070D01*
X38127289Y-17212814D01*
X38127291Y-17212826D01*
X38171147Y-17338157D01*
X38171148Y-17338158D01*
X38249995Y-17444993D01*
X38249998Y-17444995D01*
X38250001Y-17444999D01*
X38259132Y-17451738D01*
X38301383Y-17507381D01*
X38309500Y-17551508D01*
X38309500Y-18325500D01*
X38289815Y-18392539D01*
X38237011Y-18438294D01*
X38185500Y-18449500D01*
X37820730Y-18449500D01*
X37790300Y-18452353D01*
X37790298Y-18452353D01*
X37662119Y-18497206D01*
X37653899Y-18501551D01*
X37653219Y-18500265D01*
X37597000Y-18520798D01*
X37528830Y-18505479D01*
X37479764Y-18455737D01*
X37465000Y-18397056D01*
X37465000Y-15780000D01*
X38137332Y-15780000D01*
X38485000Y-15780000D01*
X38985000Y-15780000D01*
X39332668Y-15780000D01*
X39298403Y-15682077D01*
X39219641Y-15575358D01*
X39112919Y-15496594D01*
X38987727Y-15452787D01*
X38987725Y-15452786D01*
X38985000Y-15452530D01*
X38985000Y-15780000D01*
X38485000Y-15780000D01*
X38485000Y-15452531D01*
X38484999Y-15452530D01*
X38482274Y-15452786D01*
X38482272Y-15452787D01*
X38357080Y-15496594D01*
X38250358Y-15575358D01*
X38171596Y-15682077D01*
X38137332Y-15780000D01*
X37465000Y-15780000D01*
X37465000Y-15339427D01*
X37465316Y-15330581D01*
X37471723Y-15241000D01*
X37480734Y-15115000D01*
X42704094Y-15115000D01*
X43055000Y-15115000D01*
X43055000Y-14814999D01*
X43028103Y-14815000D01*
X42957639Y-14825265D01*
X42848944Y-14878402D01*
X42763401Y-14963945D01*
X42710266Y-15072633D01*
X42704094Y-15115000D01*
X37480734Y-15115000D01*
X37484724Y-15059207D01*
X37487240Y-15041710D01*
X37544130Y-14780192D01*
X37549107Y-14763241D01*
X37642640Y-14512470D01*
X37649985Y-14496388D01*
X37778248Y-14261491D01*
X37787798Y-14246630D01*
X37948195Y-14032366D01*
X37959767Y-14019012D01*
X38149012Y-13829767D01*
X38162366Y-13818195D01*
X38376630Y-13657798D01*
X38391491Y-13648248D01*
X38626388Y-13519985D01*
X38642470Y-13512640D01*
X38893241Y-13419107D01*
X38910192Y-13414130D01*
X39171710Y-13357240D01*
X39189207Y-13354724D01*
X39460582Y-13335316D01*
X39469428Y-13335000D01*
X60001407Y-13335000D01*
X60013561Y-13335597D01*
G37*
%TD.AperFunction*%
%TA.AperFunction,Conductor*%
G36*
X42641352Y-16320185D02*
G01*
X42668102Y-16343385D01*
X42704094Y-16385000D01*
X43181000Y-16385000D01*
X43248039Y-16404685D01*
X43293794Y-16457489D01*
X43305000Y-16509000D01*
X43305000Y-16632349D01*
X43288386Y-16694350D01*
X43286386Y-16697814D01*
X43235819Y-16746029D01*
X43167211Y-16759251D01*
X43102347Y-16733283D01*
X43061819Y-16676368D01*
X43055000Y-16635813D01*
X43055000Y-16635000D01*
X42704095Y-16635000D01*
X42710265Y-16677360D01*
X42710265Y-16677362D01*
X42763402Y-16786055D01*
X42848945Y-16871598D01*
X42957636Y-16924734D01*
X43028092Y-16934999D01*
X43081748Y-16934997D01*
X43084127Y-16933699D01*
X43102308Y-16934997D01*
X43106362Y-16934997D01*
X43106362Y-16935286D01*
X43153820Y-16938675D01*
X43209758Y-16980540D01*
X43234183Y-17046001D01*
X43234500Y-17054862D01*
X43234500Y-18030500D01*
X43214815Y-18097539D01*
X43162011Y-18143294D01*
X43110500Y-18154500D01*
X42300143Y-18154500D01*
X42300117Y-18154502D01*
X42275012Y-18157413D01*
X42275008Y-18157415D01*
X42172235Y-18202793D01*
X42092793Y-18282235D01*
X42083861Y-18302465D01*
X42038774Y-18355840D01*
X41971988Y-18376366D01*
X41954244Y-18375315D01*
X41910003Y-18369491D01*
X41909998Y-18369491D01*
X41840685Y-18378616D01*
X41771650Y-18367850D01*
X41719394Y-18321470D01*
X41700500Y-18255677D01*
X41700500Y-17152010D01*
X41720185Y-17084971D01*
X41736819Y-17064329D01*
X42464329Y-16336819D01*
X42525652Y-16303334D01*
X42552010Y-16300500D01*
X42574313Y-16300500D01*
X42641352Y-16320185D01*
G37*
%TD.AperFunction*%
%TD*%
%TA.AperFunction,Conductor*%
%TO.N,GND*%
G36*
X30389418Y-13335316D02*
G01*
X30660790Y-13354724D01*
X30678291Y-13357241D01*
X30939803Y-13414129D01*
X30956762Y-13419108D01*
X31134960Y-13485573D01*
X31207524Y-13512638D01*
X31223616Y-13519987D01*
X31458501Y-13648244D01*
X31473375Y-13657802D01*
X31610279Y-13760288D01*
X31687624Y-13818188D01*
X31700994Y-13829774D01*
X31890225Y-14019005D01*
X31901811Y-14032375D01*
X32062193Y-14246619D01*
X32071758Y-14261503D01*
X32200011Y-14496382D01*
X32207361Y-14512475D01*
X32300888Y-14763229D01*
X32305872Y-14780205D01*
X32362757Y-15041702D01*
X32365275Y-15059214D01*
X32384684Y-15330581D01*
X32385000Y-15339427D01*
X32385000Y-18397056D01*
X32365315Y-18464095D01*
X32312511Y-18509850D01*
X32243353Y-18519794D01*
X32196596Y-18500613D01*
X32196101Y-18501551D01*
X32187880Y-18497206D01*
X32059700Y-18452353D01*
X32029270Y-18449500D01*
X32029266Y-18449500D01*
X31664500Y-18449500D01*
X31597461Y-18429815D01*
X31551706Y-18377011D01*
X31540500Y-18325500D01*
X31540500Y-17551508D01*
X31560185Y-17484469D01*
X31590865Y-17451739D01*
X31599999Y-17444999D01*
X31600002Y-17444993D01*
X31600004Y-17444993D01*
X31678851Y-17338158D01*
X31678852Y-17338157D01*
X31722708Y-17212826D01*
X31722708Y-17212823D01*
X31722710Y-17212819D01*
X31725500Y-17183066D01*
X31725500Y-16796934D01*
X31725393Y-16795796D01*
X31722710Y-16767185D01*
X31722710Y-16767181D01*
X31722708Y-16767177D01*
X31722708Y-16767173D01*
X31678852Y-16641844D01*
X31678852Y-16641843D01*
X31635579Y-16583211D01*
X31611609Y-16517583D01*
X31626924Y-16449413D01*
X31635581Y-16435943D01*
X31678403Y-16377922D01*
X31712668Y-16280000D01*
X30517332Y-16280000D01*
X30551596Y-16377922D01*
X30594419Y-16435945D01*
X30618390Y-16501574D01*
X30603075Y-16569744D01*
X30594419Y-16583213D01*
X30551147Y-16641844D01*
X30507291Y-16767173D01*
X30507289Y-16767185D01*
X30504500Y-16796929D01*
X30504500Y-17183070D01*
X30507289Y-17212814D01*
X30507291Y-17212826D01*
X30551147Y-17338157D01*
X30551148Y-17338158D01*
X30629995Y-17444993D01*
X30629998Y-17444995D01*
X30630001Y-17444999D01*
X30639132Y-17451738D01*
X30681383Y-17507381D01*
X30689500Y-17551508D01*
X30689500Y-18330847D01*
X30669815Y-18397886D01*
X30617011Y-18443641D01*
X30591963Y-18451990D01*
X30590301Y-18452352D01*
X30462119Y-18497206D01*
X30462117Y-18497207D01*
X30420564Y-18527875D01*
X30352850Y-18577850D01*
X30352849Y-18577850D01*
X30345374Y-18583368D01*
X30343841Y-18581291D01*
X30294770Y-18608077D01*
X30225079Y-18603082D01*
X30192943Y-18585282D01*
X30137755Y-18542934D01*
X30137753Y-18542933D01*
X29996544Y-18484443D01*
X29996542Y-18484442D01*
X29996541Y-18484442D01*
X29845000Y-18464491D01*
X29844998Y-18464491D01*
X29750684Y-18476907D01*
X29681649Y-18466141D01*
X29629394Y-18419761D01*
X29610500Y-18353968D01*
X29610500Y-17092275D01*
X29610500Y-17092273D01*
X29583207Y-16990413D01*
X29583207Y-16990412D01*
X29530480Y-16899087D01*
X28420913Y-15789520D01*
X28404424Y-15780000D01*
X30517332Y-15780000D01*
X30865000Y-15780000D01*
X31365000Y-15780000D01*
X31712668Y-15780000D01*
X31678403Y-15682077D01*
X31599641Y-15575358D01*
X31492919Y-15496594D01*
X31367727Y-15452787D01*
X31367725Y-15452786D01*
X31365000Y-15452530D01*
X31365000Y-15780000D01*
X30865000Y-15780000D01*
X30865000Y-15452531D01*
X30864999Y-15452530D01*
X30862274Y-15452786D01*
X30862272Y-15452787D01*
X30737080Y-15496594D01*
X30630358Y-15575358D01*
X30551596Y-15682077D01*
X30517332Y-15780000D01*
X28404424Y-15780000D01*
X28375250Y-15763156D01*
X28329589Y-15736793D01*
X28278657Y-15723146D01*
X28227727Y-15709500D01*
X27357727Y-15709500D01*
X25181588Y-15709500D01*
X25079728Y-15736793D01*
X25079725Y-15736794D01*
X24988400Y-15789521D01*
X23944522Y-16833399D01*
X23944518Y-16833405D01*
X23891792Y-16924727D01*
X23891792Y-16924728D01*
X23890331Y-16930185D01*
X23874948Y-16987594D01*
X23838582Y-17047254D01*
X23775735Y-17077783D01*
X23755174Y-17079500D01*
X23668049Y-17079500D01*
X23597492Y-17089779D01*
X23597491Y-17089779D01*
X23569457Y-17103484D01*
X23500584Y-17115241D01*
X23460543Y-17103484D01*
X23432511Y-17089781D01*
X23432509Y-17089780D01*
X23432502Y-17089779D01*
X23361949Y-17079500D01*
X23361943Y-17079500D01*
X23168049Y-17079500D01*
X23097493Y-17089779D01*
X22988650Y-17142989D01*
X22902988Y-17228651D01*
X22849780Y-17337488D01*
X22846172Y-17362254D01*
X22839500Y-17408051D01*
X22839500Y-17408055D01*
X22839500Y-17408056D01*
X22839500Y-18151951D01*
X22841542Y-18165963D01*
X22831726Y-18235140D01*
X22786069Y-18288028D01*
X22719066Y-18307837D01*
X22700968Y-18306542D01*
X22686949Y-18304500D01*
X22686944Y-18304500D01*
X21943049Y-18304500D01*
X21872493Y-18314779D01*
X21763650Y-18367989D01*
X21677988Y-18453651D01*
X21624780Y-18562488D01*
X21620925Y-18588951D01*
X21614500Y-18633051D01*
X21614500Y-18633054D01*
X21614500Y-18633056D01*
X21614500Y-18826950D01*
X21624779Y-18897507D01*
X21624779Y-18897508D01*
X21638484Y-18925543D01*
X21650241Y-18994416D01*
X21638484Y-19034457D01*
X21624781Y-19062488D01*
X21624780Y-19062490D01*
X21624487Y-19064500D01*
X21614500Y-19133051D01*
X21614500Y-19133055D01*
X21614500Y-19133056D01*
X21614500Y-19326950D01*
X21624779Y-19397506D01*
X21624780Y-19397511D01*
X21638761Y-19426108D01*
X21650521Y-19494981D01*
X21638762Y-19535028D01*
X21625267Y-19562632D01*
X21625267Y-19562633D01*
X21619094Y-19605000D01*
X21635859Y-19624384D01*
X21664825Y-19687967D01*
X21654817Y-19757116D01*
X21609013Y-19809878D01*
X21542071Y-19829500D01*
X21082254Y-19829500D01*
X21015215Y-19809815D01*
X20994573Y-19793181D01*
X20651892Y-19450500D01*
X20301437Y-19100044D01*
X20295406Y-19093567D01*
X20269967Y-19064209D01*
X20263265Y-19058402D01*
X20265031Y-19056363D01*
X20229930Y-19016676D01*
X20207368Y-18969819D01*
X20207367Y-18969818D01*
X20207367Y-18969817D01*
X20134105Y-18877938D01*
X20042235Y-18804665D01*
X19936363Y-18753671D01*
X19936361Y-18753670D01*
X19821796Y-18727512D01*
X19821763Y-18727509D01*
X19815737Y-18727509D01*
X19763043Y-18727509D01*
X19696861Y-18727504D01*
X19696789Y-18727509D01*
X19456366Y-18727509D01*
X19456352Y-18727505D01*
X19405000Y-18727505D01*
X19346240Y-18727505D01*
X19346238Y-18727505D01*
X19231668Y-18753656D01*
X19125784Y-18804648D01*
X19033908Y-18877919D01*
X19033905Y-18877922D01*
X18998110Y-18922811D01*
X18940922Y-18962952D01*
X18901161Y-18969500D01*
X18597628Y-18969500D01*
X18530589Y-18949815D01*
X18497858Y-18919134D01*
X18482150Y-18897850D01*
X18372882Y-18817207D01*
X18372880Y-18817206D01*
X18244700Y-18772353D01*
X18214270Y-18769500D01*
X18214266Y-18769500D01*
X17080734Y-18769500D01*
X17080730Y-18769500D01*
X17050300Y-18772353D01*
X17050298Y-18772353D01*
X16922119Y-18817206D01*
X16922117Y-18817207D01*
X16812850Y-18897850D01*
X16732207Y-19007117D01*
X16732206Y-19007119D01*
X16687353Y-19135298D01*
X16687353Y-19135300D01*
X16684500Y-19165730D01*
X16684500Y-19574269D01*
X16687353Y-19604699D01*
X16687353Y-19604701D01*
X16732206Y-19732880D01*
X16732207Y-19732882D01*
X16760921Y-19771788D01*
X16784891Y-19837417D01*
X16769575Y-19905587D01*
X16760920Y-19919054D01*
X16732655Y-19957351D01*
X16732653Y-19957354D01*
X16693238Y-20070000D01*
X18601761Y-20070000D01*
X18562345Y-19957353D01*
X18559750Y-19952442D01*
X18545828Y-19883974D01*
X18571132Y-19818847D01*
X18627630Y-19777740D01*
X18669380Y-19770500D01*
X18752273Y-19770500D01*
X19096789Y-19770500D01*
X19096861Y-19770504D01*
X19105457Y-19770503D01*
X19105460Y-19770504D01*
X19111666Y-19770503D01*
X19111681Y-19770507D01*
X19163043Y-19770504D01*
X19163043Y-19770505D01*
X19221798Y-19770501D01*
X19336360Y-19744345D01*
X19442230Y-19693354D01*
X19506689Y-19641947D01*
X19571373Y-19615537D01*
X19640068Y-19628291D01*
X19661310Y-19641941D01*
X19725796Y-19693365D01*
X19773385Y-19716282D01*
X19776595Y-19717828D01*
X19810474Y-19741867D01*
X20103064Y-20034457D01*
X20300926Y-20232318D01*
X20334411Y-20293641D01*
X20329427Y-20363332D01*
X20300926Y-20407680D01*
X19822731Y-20885874D01*
X19788849Y-20909915D01*
X19705123Y-20950232D01*
X19694723Y-20955240D01*
X19603280Y-21028152D01*
X19538593Y-21054555D01*
X19469899Y-21041794D01*
X19448684Y-21028163D01*
X19357107Y-20955164D01*
X19357103Y-20955162D01*
X19239412Y-20898518D01*
X19239407Y-20898516D01*
X19112057Y-20869484D01*
X19112050Y-20869483D01*
X19046761Y-20869499D01*
X19046745Y-20869500D01*
X18669380Y-20869500D01*
X18602341Y-20849815D01*
X18556586Y-20797011D01*
X18546642Y-20727853D01*
X18559750Y-20687558D01*
X18562345Y-20682646D01*
X18601762Y-20570000D01*
X16693238Y-20570000D01*
X16732653Y-20682644D01*
X16760920Y-20720944D01*
X16784891Y-20786572D01*
X16769576Y-20854743D01*
X16760921Y-20868210D01*
X16732209Y-20907114D01*
X16732206Y-20907119D01*
X16687353Y-21035298D01*
X16687353Y-21035300D01*
X16684500Y-21065730D01*
X16684500Y-21474269D01*
X16687353Y-21504699D01*
X16687353Y-21504701D01*
X16727396Y-21619134D01*
X16732207Y-21632882D01*
X16812850Y-21742150D01*
X16922118Y-21822793D01*
X16947236Y-21831582D01*
X17050299Y-21867646D01*
X17080730Y-21870500D01*
X17080734Y-21870500D01*
X18214270Y-21870500D01*
X18244699Y-21867646D01*
X18244701Y-21867646D01*
X18320955Y-21840963D01*
X18372882Y-21822793D01*
X18482150Y-21742150D01*
X18497858Y-21720865D01*
X18553506Y-21678615D01*
X18597628Y-21670500D01*
X18752273Y-21670500D01*
X18790451Y-21670500D01*
X18857490Y-21690185D01*
X18902176Y-21740708D01*
X18911150Y-21759347D01*
X18990660Y-21859065D01*
X18992575Y-21861467D01*
X19036210Y-21896269D01*
X19094685Y-21942908D01*
X19174902Y-21981542D01*
X19212359Y-21999582D01*
X19339695Y-22028648D01*
X19344661Y-22028648D01*
X19344677Y-22028649D01*
X19352273Y-22028649D01*
X19708544Y-22028649D01*
X19708645Y-22028640D01*
X19712058Y-22028642D01*
X19839417Y-21999601D01*
X19839422Y-21999598D01*
X19839424Y-21999598D01*
X19957113Y-21942944D01*
X19957120Y-21942940D01*
X20025988Y-21888029D01*
X20059253Y-21861506D01*
X20140702Y-21759380D01*
X20194320Y-21648033D01*
X20241139Y-21596175D01*
X20243963Y-21594491D01*
X20250913Y-21590480D01*
X20250920Y-21590472D01*
X20257363Y-21585530D01*
X20257485Y-21585689D01*
X20268978Y-21576425D01*
X20269968Y-21575790D01*
X20295413Y-21546423D01*
X20301418Y-21539973D01*
X20674574Y-21166819D01*
X20735897Y-21133334D01*
X20762255Y-21130500D01*
X20813349Y-21130500D01*
X20880388Y-21150185D01*
X20926143Y-21202989D01*
X20936087Y-21272147D01*
X20927910Y-21301952D01*
X20877032Y-21424782D01*
X20877031Y-21424786D01*
X20857080Y-21576327D01*
X20875538Y-21716531D01*
X20877031Y-21727867D01*
X20877032Y-21727871D01*
X20935522Y-21869080D01*
X20935523Y-21869083D01*
X21033519Y-21996792D01*
X21031746Y-21998152D01*
X21059662Y-22049258D01*
X21062500Y-22075634D01*
X21062500Y-23782255D01*
X21042815Y-23849294D01*
X20990011Y-23895049D01*
X20920853Y-23904993D01*
X20857297Y-23875968D01*
X20831114Y-23844257D01*
X20827065Y-23837244D01*
X20734015Y-23715981D01*
X20612756Y-23622934D01*
X20612753Y-23622933D01*
X20471544Y-23564443D01*
X20471542Y-23564442D01*
X20471541Y-23564442D01*
X20320000Y-23544491D01*
X20168459Y-23564442D01*
X20168455Y-23564443D01*
X20154893Y-23570061D01*
X20107441Y-23579500D01*
X19626380Y-23579500D01*
X19559341Y-23559815D01*
X19513586Y-23507011D01*
X19511026Y-23500990D01*
X19464362Y-23382660D01*
X19464361Y-23382658D01*
X19372922Y-23262077D01*
X19252343Y-23170639D01*
X19141142Y-23126787D01*
X19111564Y-23115123D01*
X19111563Y-23115122D01*
X19111561Y-23115122D01*
X19065926Y-23109642D01*
X19023102Y-23104500D01*
X18436898Y-23104500D01*
X18397853Y-23109188D01*
X18348438Y-23115122D01*
X18207656Y-23170639D01*
X18087077Y-23262077D01*
X17995639Y-23382656D01*
X17940122Y-23523438D01*
X17937556Y-23544810D01*
X17929500Y-23611898D01*
X17929500Y-24648102D01*
X17934524Y-24689939D01*
X17940122Y-24736561D01*
X17995639Y-24877343D01*
X18087077Y-24997922D01*
X18154446Y-25049009D01*
X18195969Y-25105201D01*
X18200521Y-25174923D01*
X18166656Y-25236037D01*
X18154448Y-25246616D01*
X18087435Y-25297434D01*
X17996079Y-25417904D01*
X17940613Y-25558556D01*
X17930000Y-25646946D01*
X17930000Y-25915000D01*
X19530000Y-25915000D01*
X19530000Y-25646946D01*
X19519386Y-25558556D01*
X19463920Y-25417904D01*
X19372563Y-25297432D01*
X19305552Y-25246616D01*
X19264029Y-25190424D01*
X19259478Y-25120702D01*
X19293343Y-25059589D01*
X19305554Y-25049009D01*
X19372921Y-24997923D01*
X19373193Y-24997564D01*
X19464361Y-24877342D01*
X19476291Y-24847090D01*
X19511026Y-24759010D01*
X19553931Y-24703866D01*
X19619839Y-24680673D01*
X19626380Y-24680500D01*
X20107442Y-24680500D01*
X20154892Y-24689938D01*
X20168459Y-24695558D01*
X20320000Y-24715509D01*
X20471541Y-24695558D01*
X20612755Y-24637066D01*
X20734017Y-24544017D01*
X20827066Y-24422755D01*
X20885558Y-24281541D01*
X20905509Y-24130000D01*
X20900140Y-24089220D01*
X20910905Y-24020186D01*
X20957285Y-23967930D01*
X21024554Y-23949044D01*
X21091354Y-23969524D01*
X21130465Y-24011034D01*
X21142520Y-24031913D01*
X21471087Y-24360480D01*
X21562412Y-24413207D01*
X21664273Y-24440500D01*
X21664274Y-24440500D01*
X21672123Y-24442603D01*
X21671490Y-24444962D01*
X21724081Y-24468225D01*
X21743774Y-24489267D01*
X21778574Y-24536420D01*
X21778575Y-24536421D01*
X21778577Y-24536423D01*
X21884206Y-24614381D01*
X21899907Y-24619875D01*
X22008119Y-24657741D01*
X22015796Y-24658460D01*
X22037543Y-24660500D01*
X22412456Y-24660499D01*
X22441879Y-24657741D01*
X22565794Y-24614381D01*
X22661367Y-24543844D01*
X22726995Y-24519874D01*
X22795165Y-24535189D01*
X22808629Y-24543842D01*
X22904206Y-24614381D01*
X22919907Y-24619875D01*
X23028119Y-24657741D01*
X23035796Y-24658460D01*
X23057543Y-24660500D01*
X23432456Y-24660499D01*
X23461879Y-24657741D01*
X23585794Y-24614381D01*
X23691423Y-24536423D01*
X23769381Y-24430794D01*
X23793985Y-24360480D01*
X23812741Y-24306881D01*
X23812741Y-24306879D01*
X23813669Y-24296983D01*
X23815500Y-24277457D01*
X23815499Y-23802544D01*
X23812741Y-23773121D01*
X23807506Y-23758163D01*
X23803942Y-23688387D01*
X23836864Y-23629527D01*
X24052348Y-23414043D01*
X24113670Y-23380560D01*
X24157900Y-23379021D01*
X24168051Y-23380500D01*
X24361948Y-23380499D01*
X24361950Y-23380499D01*
X24390172Y-23376387D01*
X24432509Y-23370220D01*
X24460539Y-23356516D01*
X24529409Y-23344756D01*
X24569459Y-23356515D01*
X24597491Y-23370220D01*
X24668051Y-23380500D01*
X24861948Y-23380499D01*
X24861950Y-23380499D01*
X24890172Y-23376387D01*
X24932509Y-23370220D01*
X24960539Y-23356516D01*
X25029409Y-23344756D01*
X25069459Y-23356515D01*
X25097491Y-23370220D01*
X25168051Y-23380500D01*
X25361948Y-23380499D01*
X25361950Y-23380499D01*
X25390172Y-23376387D01*
X25432509Y-23370220D01*
X25460539Y-23356516D01*
X25529409Y-23344756D01*
X25569459Y-23356515D01*
X25597491Y-23370220D01*
X25668051Y-23380500D01*
X25861948Y-23380499D01*
X25861950Y-23380499D01*
X25890172Y-23376387D01*
X25932509Y-23370220D01*
X25960539Y-23356516D01*
X26029409Y-23344756D01*
X26069459Y-23356515D01*
X26097491Y-23370220D01*
X26168051Y-23380500D01*
X26361948Y-23380499D01*
X26361950Y-23380499D01*
X26390172Y-23376387D01*
X26432509Y-23370220D01*
X26541347Y-23317012D01*
X26627012Y-23231347D01*
X26680220Y-23122509D01*
X26682042Y-23110000D01*
X30233238Y-23110000D01*
X30272653Y-23222645D01*
X30353207Y-23331792D01*
X30462354Y-23412346D01*
X30590397Y-23457149D01*
X30620792Y-23459999D01*
X31074999Y-23459999D01*
X31075000Y-23459998D01*
X31075000Y-23110000D01*
X30233238Y-23110000D01*
X26682042Y-23110000D01*
X26690500Y-23051949D01*
X26690499Y-22308052D01*
X26690499Y-22308048D01*
X26688458Y-22294042D01*
X26698270Y-22224864D01*
X26743925Y-22171974D01*
X26810927Y-22152162D01*
X26829026Y-22153456D01*
X26843051Y-22155500D01*
X27586948Y-22155499D01*
X27586950Y-22155499D01*
X27618168Y-22150951D01*
X27657509Y-22145220D01*
X27766347Y-22092012D01*
X27852012Y-22006347D01*
X27905220Y-21897509D01*
X27915500Y-21826949D01*
X27915499Y-21633052D01*
X27915474Y-21632882D01*
X27907249Y-21576419D01*
X27905220Y-21562491D01*
X27891516Y-21534460D01*
X27879756Y-21465591D01*
X27891515Y-21425540D01*
X27905220Y-21397509D01*
X27915500Y-21326949D01*
X27915499Y-21133052D01*
X27915127Y-21130500D01*
X27905220Y-21062493D01*
X27905220Y-21062491D01*
X27891516Y-21034460D01*
X27879756Y-20965591D01*
X27891515Y-20925540D01*
X27905220Y-20897509D01*
X27915500Y-20826949D01*
X27915499Y-20779389D01*
X27935182Y-20712353D01*
X27987985Y-20666597D01*
X28057144Y-20656652D01*
X28120700Y-20685675D01*
X28137874Y-20703902D01*
X28160984Y-20734018D01*
X28282243Y-20827065D01*
X28282244Y-20827065D01*
X28282245Y-20827066D01*
X28423459Y-20885558D01*
X28575000Y-20905509D01*
X28669339Y-20893088D01*
X28738370Y-20903853D01*
X28790627Y-20950232D01*
X28808460Y-20999834D01*
X28809498Y-21007721D01*
X28836793Y-21109589D01*
X28860232Y-21150185D01*
X28889520Y-21200913D01*
X28889521Y-21200914D01*
X28889522Y-21200915D01*
X29520179Y-21831571D01*
X29520189Y-21831582D01*
X29524519Y-21835912D01*
X29524520Y-21835913D01*
X29599087Y-21910480D01*
X29672530Y-21952882D01*
X29672531Y-21952883D01*
X29681471Y-21958044D01*
X29690411Y-21963206D01*
X29690412Y-21963206D01*
X29690413Y-21963207D01*
X29792273Y-21990501D01*
X29792275Y-21990501D01*
X29905323Y-21990501D01*
X29905339Y-21990500D01*
X30237372Y-21990500D01*
X30304411Y-22010185D01*
X30337141Y-22040865D01*
X30352850Y-22062150D01*
X30352851Y-22062151D01*
X30438741Y-22125540D01*
X30480992Y-22181187D01*
X30486451Y-22250843D01*
X30453384Y-22312393D01*
X30438742Y-22325080D01*
X30353207Y-22388207D01*
X30272653Y-22497354D01*
X30233238Y-22610000D01*
X31451000Y-22610000D01*
X31518039Y-22629685D01*
X31563794Y-22682489D01*
X31575000Y-22734000D01*
X31575000Y-23459999D01*
X32029196Y-23459999D01*
X32059606Y-23457148D01*
X32187645Y-23412346D01*
X32195859Y-23408005D01*
X32196499Y-23409216D01*
X32252991Y-23388581D01*
X32321162Y-23403894D01*
X32370232Y-23453633D01*
X32385000Y-23512322D01*
X32385000Y-26570572D01*
X32384684Y-26579418D01*
X32365275Y-26850785D01*
X32362757Y-26868297D01*
X32305872Y-27129794D01*
X32300888Y-27146770D01*
X32207361Y-27397524D01*
X32200011Y-27413617D01*
X32071758Y-27648496D01*
X32062193Y-27663380D01*
X31901811Y-27877624D01*
X31890225Y-27890994D01*
X31700994Y-28080225D01*
X31687624Y-28091811D01*
X31473380Y-28252193D01*
X31458496Y-28261758D01*
X31223617Y-28390011D01*
X31207524Y-28397361D01*
X30956770Y-28490888D01*
X30939794Y-28495872D01*
X30678297Y-28552757D01*
X30660785Y-28555275D01*
X30389418Y-28574684D01*
X30380572Y-28575000D01*
X2639428Y-28575000D01*
X2630582Y-28574684D01*
X2359214Y-28555275D01*
X2341702Y-28552757D01*
X2080205Y-28495872D01*
X2063229Y-28490888D01*
X1812475Y-28397361D01*
X1796382Y-28390011D01*
X1561503Y-28261758D01*
X1546619Y-28252193D01*
X1332375Y-28091811D01*
X1319005Y-28080225D01*
X1129774Y-27890994D01*
X1118188Y-27877624D01*
X957802Y-27663375D01*
X948244Y-27648501D01*
X819987Y-27413616D01*
X812638Y-27397524D01*
X735422Y-27190500D01*
X719108Y-27146762D01*
X714129Y-27129803D01*
X657241Y-26868291D01*
X654724Y-26850785D01*
X635316Y-26579418D01*
X635000Y-26570572D01*
X635000Y-26141604D01*
X654685Y-26074565D01*
X707489Y-26028810D01*
X776647Y-26018866D01*
X806453Y-26027043D01*
X956648Y-26089256D01*
X956656Y-26089258D01*
X1111202Y-26119999D01*
X1111206Y-26120000D01*
X1240000Y-26120000D01*
X1240000Y-25620000D01*
X1740000Y-25620000D01*
X1740000Y-26120000D01*
X1868794Y-26120000D01*
X1868797Y-26119999D01*
X2023343Y-26089258D01*
X2023351Y-26089256D01*
X2168939Y-26028952D01*
X2168948Y-26028947D01*
X2299969Y-25941401D01*
X2299973Y-25941398D01*
X2411398Y-25829973D01*
X2411401Y-25829969D01*
X2498947Y-25698948D01*
X2498952Y-25698938D01*
X2552361Y-25570000D01*
X1956988Y-25570000D01*
X1974205Y-25560060D01*
X2030060Y-25504205D01*
X2069556Y-25435796D01*
X2090000Y-25359496D01*
X2090000Y-25280504D01*
X2069556Y-25204204D01*
X2030060Y-25135795D01*
X1974205Y-25079940D01*
X1956988Y-25070000D01*
X2552361Y-25070000D01*
X2552360Y-25069999D01*
X2498952Y-24941061D01*
X2498947Y-24941051D01*
X2411401Y-24810030D01*
X2411398Y-24810026D01*
X2299973Y-24698601D01*
X2299969Y-24698598D01*
X2168948Y-24611052D01*
X2168939Y-24611047D01*
X2023351Y-24550743D01*
X2023343Y-24550741D01*
X1868797Y-24520000D01*
X1740000Y-24520000D01*
X1740000Y-25020000D01*
X1240000Y-25020000D01*
X1240000Y-24520000D01*
X1111202Y-24520000D01*
X956656Y-24550741D01*
X956644Y-24550744D01*
X806452Y-24612956D01*
X736983Y-24620425D01*
X674504Y-24589150D01*
X638852Y-24529061D01*
X635000Y-24498395D01*
X635000Y-20320000D01*
X3859491Y-20320000D01*
X3871034Y-20407680D01*
X3879442Y-20471540D01*
X3879443Y-20471544D01*
X3937933Y-20612753D01*
X3937934Y-20612756D01*
X4030982Y-20734017D01*
X4152243Y-20827065D01*
X4152246Y-20827067D01*
X4184530Y-20840439D01*
X4238934Y-20884280D01*
X4260999Y-20950574D01*
X4243720Y-21018273D01*
X4192583Y-21065884D01*
X4184531Y-21069561D01*
X4152245Y-21082934D01*
X4152244Y-21082934D01*
X4030983Y-21175982D01*
X4030982Y-21175983D01*
X3937934Y-21297244D01*
X3937932Y-21297247D01*
X3879443Y-21438455D01*
X3879442Y-21438459D01*
X3859491Y-21590000D01*
X3879442Y-21741540D01*
X3879443Y-21741544D01*
X3937933Y-21882753D01*
X3937934Y-21882756D01*
X4030982Y-22004017D01*
X4152243Y-22097065D01*
X4152244Y-22097065D01*
X4152245Y-22097066D01*
X4293459Y-22155558D01*
X4394399Y-22168847D01*
X4458295Y-22197114D01*
X4496766Y-22255438D01*
X4501152Y-22275599D01*
X4514442Y-22376540D01*
X4514443Y-22376544D01*
X4572933Y-22517753D01*
X4572934Y-22517756D01*
X4665982Y-22639017D01*
X4787243Y-22732065D01*
X4787244Y-22732065D01*
X4787245Y-22732066D01*
X4928459Y-22790558D01*
X5080000Y-22810509D01*
X5231541Y-22790558D01*
X5372755Y-22732066D01*
X5372763Y-22732059D01*
X5373491Y-22731640D01*
X5374198Y-22731468D01*
X5380264Y-22728956D01*
X5380655Y-22729901D01*
X5441389Y-22715162D01*
X5507418Y-22738008D01*
X5550614Y-22792926D01*
X5559500Y-22839021D01*
X5559500Y-22944855D01*
X5559502Y-22944880D01*
X5562414Y-22969989D01*
X5562415Y-22969995D01*
X5564590Y-22974920D01*
X5573658Y-23044199D01*
X5564592Y-23075076D01*
X5562416Y-23080003D01*
X5562415Y-23080009D01*
X5559500Y-23105131D01*
X5559500Y-23252893D01*
X5539815Y-23319932D01*
X5487011Y-23365687D01*
X5417853Y-23375631D01*
X5373500Y-23360280D01*
X5362138Y-23353720D01*
X5362135Y-23353719D01*
X5215766Y-23314500D01*
X5064234Y-23314500D01*
X4917863Y-23353719D01*
X4786635Y-23429485D01*
X4786632Y-23429487D01*
X4679487Y-23536632D01*
X4679485Y-23536635D01*
X4603719Y-23667863D01*
X4575516Y-23773121D01*
X4564500Y-23814234D01*
X4564500Y-23965766D01*
X4574264Y-24002206D01*
X4603719Y-24112136D01*
X4614033Y-24130000D01*
X4679485Y-24243365D01*
X4786635Y-24350515D01*
X4812587Y-24365499D01*
X4860802Y-24416065D01*
X4874024Y-24484673D01*
X4848056Y-24549537D01*
X4798040Y-24587446D01*
X4741057Y-24611049D01*
X4741051Y-24611052D01*
X4610030Y-24698598D01*
X4610026Y-24698601D01*
X4498601Y-24810026D01*
X4498598Y-24810030D01*
X4411052Y-24941051D01*
X4411047Y-24941061D01*
X4357639Y-25069999D01*
X4357639Y-25070000D01*
X4953012Y-25070000D01*
X4935795Y-25079940D01*
X4879940Y-25135795D01*
X4840444Y-25204204D01*
X4820000Y-25280504D01*
X4820000Y-25359496D01*
X4840444Y-25435796D01*
X4879940Y-25504205D01*
X4935795Y-25560060D01*
X4953012Y-25570000D01*
X4357639Y-25570000D01*
X4411047Y-25698938D01*
X4411052Y-25698948D01*
X4498598Y-25829969D01*
X4498601Y-25829973D01*
X4610026Y-25941398D01*
X4610030Y-25941401D01*
X4741051Y-26028947D01*
X4741060Y-26028952D01*
X4886648Y-26089256D01*
X4886656Y-26089258D01*
X5041202Y-26119999D01*
X5041206Y-26120000D01*
X5420000Y-26120000D01*
X5420000Y-25620000D01*
X5920000Y-25620000D01*
X5920000Y-26120000D01*
X6298794Y-26120000D01*
X6298797Y-26119999D01*
X6453343Y-26089258D01*
X6453351Y-26089256D01*
X6598939Y-26028952D01*
X6598948Y-26028947D01*
X6729969Y-25941401D01*
X6729973Y-25941398D01*
X6841398Y-25829973D01*
X6841401Y-25829969D01*
X6928947Y-25698948D01*
X6928952Y-25698938D01*
X6982361Y-25570000D01*
X6386988Y-25570000D01*
X6404205Y-25560060D01*
X6460060Y-25504205D01*
X6499556Y-25435796D01*
X6520000Y-25359496D01*
X6520000Y-25280504D01*
X6499556Y-25204204D01*
X6460060Y-25135795D01*
X6404205Y-25079940D01*
X6386988Y-25070000D01*
X6982361Y-25070000D01*
X6982361Y-25069999D01*
X6962252Y-25021452D01*
X6954783Y-24951982D01*
X6986058Y-24889503D01*
X7046147Y-24853851D01*
X7076813Y-24849999D01*
X7354786Y-24849999D01*
X7354808Y-24849997D01*
X7379869Y-24847091D01*
X7379873Y-24847090D01*
X7482474Y-24801788D01*
X7482479Y-24801785D01*
X7561785Y-24722479D01*
X7561788Y-24722474D01*
X7607089Y-24619877D01*
X7607089Y-24619875D01*
X7609999Y-24594794D01*
X7610000Y-24594791D01*
X7610000Y-24500000D01*
X6459000Y-24500000D01*
X6391961Y-24480315D01*
X6346206Y-24427511D01*
X6335000Y-24376000D01*
X6335000Y-24174499D01*
X6354685Y-24107460D01*
X6407489Y-24061705D01*
X6458997Y-24050499D01*
X7354864Y-24050499D01*
X7354879Y-24050497D01*
X7354882Y-24050497D01*
X7379987Y-24047586D01*
X7379991Y-24047585D01*
X7462699Y-24011066D01*
X7512785Y-24000500D01*
X9200613Y-24000500D01*
X9267652Y-24020185D01*
X9288294Y-24036819D01*
X9715149Y-24463673D01*
X9715170Y-24463696D01*
X10078181Y-24826706D01*
X10111666Y-24888029D01*
X10114500Y-24914387D01*
X10114500Y-24933055D01*
X10094815Y-25000094D01*
X10042011Y-25045849D01*
X10035999Y-25048405D01*
X10031038Y-25050362D01*
X10017656Y-25055639D01*
X9897077Y-25147077D01*
X9805639Y-25267656D01*
X9750122Y-25408438D01*
X9746837Y-25435796D01*
X9739500Y-25496898D01*
X9739500Y-26833102D01*
X9745126Y-26879954D01*
X9750122Y-26921561D01*
X9805639Y-27062343D01*
X9897077Y-27182922D01*
X10017656Y-27274360D01*
X10017657Y-27274360D01*
X10017658Y-27274361D01*
X10158436Y-27329877D01*
X10246898Y-27340500D01*
X10246903Y-27340500D01*
X11083097Y-27340500D01*
X11083102Y-27340500D01*
X11171564Y-27329877D01*
X11312342Y-27274361D01*
X11432922Y-27182922D01*
X11524361Y-27062342D01*
X11579877Y-26921564D01*
X11590500Y-26833102D01*
X11590500Y-25496898D01*
X12539500Y-25496898D01*
X12539500Y-26833102D01*
X12545126Y-26879954D01*
X12550122Y-26921561D01*
X12605639Y-27062343D01*
X12697077Y-27182922D01*
X12817656Y-27274360D01*
X12817657Y-27274360D01*
X12817658Y-27274361D01*
X12958436Y-27329877D01*
X13046898Y-27340500D01*
X13046903Y-27340500D01*
X13883097Y-27340500D01*
X13883102Y-27340500D01*
X13971564Y-27329877D01*
X14112342Y-27274361D01*
X14232922Y-27182922D01*
X14324361Y-27062342D01*
X14331590Y-27044009D01*
X14374496Y-26988866D01*
X14440404Y-26965673D01*
X14446945Y-26965500D01*
X15161158Y-26965500D01*
X16074360Y-26965500D01*
X16141399Y-26985185D01*
X16173163Y-27014573D01*
X16187078Y-27032922D01*
X16307656Y-27124360D01*
X16307657Y-27124360D01*
X16307658Y-27124361D01*
X16448436Y-27179877D01*
X16536898Y-27190500D01*
X16536903Y-27190500D01*
X17123097Y-27190500D01*
X17123102Y-27190500D01*
X17211564Y-27179877D01*
X17352342Y-27124361D01*
X17472922Y-27032922D01*
X17564361Y-26912342D01*
X17619877Y-26771564D01*
X17630500Y-26683102D01*
X17630500Y-26683053D01*
X17930000Y-26683053D01*
X17940613Y-26771443D01*
X17996079Y-26912095D01*
X18087435Y-27032564D01*
X18207904Y-27123920D01*
X18348556Y-27179386D01*
X18436946Y-27190000D01*
X18480000Y-27190000D01*
X18980000Y-27190000D01*
X19023054Y-27190000D01*
X19111443Y-27179386D01*
X19252095Y-27123920D01*
X19372564Y-27032564D01*
X19463920Y-26912095D01*
X19519386Y-26771443D01*
X19530000Y-26683053D01*
X19530000Y-26415000D01*
X18980000Y-26415000D01*
X18980000Y-27190000D01*
X18480000Y-27190000D01*
X18480000Y-26415000D01*
X17930000Y-26415000D01*
X17930000Y-26683053D01*
X17630500Y-26683053D01*
X17630500Y-25646898D01*
X17619877Y-25558436D01*
X17564361Y-25417658D01*
X17564360Y-25417657D01*
X17564360Y-25417656D01*
X17472922Y-25297077D01*
X17405553Y-25245990D01*
X17364029Y-25189797D01*
X17359478Y-25120076D01*
X17393343Y-25058962D01*
X17405553Y-25048382D01*
X17472563Y-24997566D01*
X17563920Y-24877095D01*
X17619386Y-24736443D01*
X17630000Y-24648053D01*
X17630000Y-24380000D01*
X16030000Y-24380000D01*
X16030000Y-24648053D01*
X16040613Y-24736443D01*
X16096079Y-24877095D01*
X16187435Y-24997564D01*
X16254447Y-25048382D01*
X16295970Y-25104575D01*
X16300521Y-25174296D01*
X16266656Y-25235410D01*
X16254447Y-25245989D01*
X16187079Y-25297076D01*
X16173163Y-25315427D01*
X16116970Y-25356949D01*
X16074360Y-25364500D01*
X14446945Y-25364500D01*
X14379906Y-25344815D01*
X14334151Y-25292011D01*
X14331590Y-25285990D01*
X14324360Y-25267656D01*
X14232922Y-25147077D01*
X14112343Y-25055639D01*
X13971561Y-25000122D01*
X13925926Y-24994642D01*
X13883102Y-24989500D01*
X13046898Y-24989500D01*
X13007853Y-24994188D01*
X12958438Y-25000122D01*
X12817656Y-25055639D01*
X12697077Y-25147077D01*
X12605639Y-25267656D01*
X12550122Y-25408438D01*
X12546837Y-25435796D01*
X12539500Y-25496898D01*
X11590500Y-25496898D01*
X11579877Y-25408436D01*
X11524361Y-25267658D01*
X11524360Y-25267657D01*
X11524360Y-25267656D01*
X11432922Y-25147077D01*
X11312343Y-25055639D01*
X11301807Y-25051484D01*
X11294009Y-25048409D01*
X11238866Y-25005504D01*
X11215673Y-24939596D01*
X11215500Y-24933055D01*
X11215500Y-24562527D01*
X11215500Y-24562525D01*
X11177984Y-24422515D01*
X11131779Y-24342485D01*
X11105510Y-24296985D01*
X10809025Y-24000500D01*
X10493696Y-23685170D01*
X10493673Y-23685149D01*
X10481698Y-23673174D01*
X10448265Y-23611946D01*
X16030000Y-23611946D01*
X16030000Y-23880000D01*
X16580000Y-23880000D01*
X17080000Y-23880000D01*
X17630000Y-23880000D01*
X17630000Y-23611946D01*
X17619386Y-23523556D01*
X17563920Y-23382904D01*
X17472564Y-23262435D01*
X17352095Y-23171079D01*
X17211443Y-23115613D01*
X17123054Y-23105000D01*
X17080000Y-23105000D01*
X17080000Y-23880000D01*
X16580000Y-23880000D01*
X16580000Y-23105000D01*
X16536946Y-23105000D01*
X16448556Y-23115613D01*
X16307904Y-23171079D01*
X16187435Y-23262435D01*
X16096079Y-23382904D01*
X16040613Y-23523556D01*
X16030000Y-23611946D01*
X10448265Y-23611946D01*
X10448213Y-23611851D01*
X10453197Y-23542159D01*
X10495069Y-23486226D01*
X10528419Y-23468454D01*
X10625794Y-23434381D01*
X10721788Y-23363533D01*
X10787416Y-23339563D01*
X10855586Y-23354878D01*
X10869055Y-23363534D01*
X10964443Y-23433934D01*
X10964442Y-23433934D01*
X11054999Y-23465620D01*
X11055000Y-23465620D01*
X11555000Y-23465620D01*
X11645557Y-23433934D01*
X11751065Y-23356065D01*
X11828933Y-23250559D01*
X11828934Y-23250557D01*
X11872244Y-23126787D01*
X11872244Y-23126785D01*
X11873818Y-23110000D01*
X11555000Y-23110000D01*
X11555000Y-23465620D01*
X11055000Y-23465620D01*
X11055000Y-22610000D01*
X11555000Y-22610000D01*
X11873818Y-22610000D01*
X11873818Y-22609999D01*
X11872244Y-22593214D01*
X11872244Y-22593212D01*
X11828934Y-22469442D01*
X11828933Y-22469440D01*
X11751065Y-22363934D01*
X11645559Y-22286066D01*
X11645557Y-22286065D01*
X11555000Y-22254378D01*
X11555000Y-22610000D01*
X11055000Y-22610000D01*
X11055000Y-22254378D01*
X11054999Y-22254378D01*
X10964442Y-22286065D01*
X10964440Y-22286066D01*
X10869055Y-22356465D01*
X10803426Y-22380436D01*
X10735256Y-22365121D01*
X10721788Y-22356465D01*
X10625794Y-22285619D01*
X10501880Y-22242258D01*
X10472461Y-22239500D01*
X10097546Y-22239500D01*
X10068125Y-22242258D01*
X10068115Y-22242260D01*
X9944207Y-22285618D01*
X9890481Y-22325270D01*
X9824852Y-22349241D01*
X9816847Y-22349500D01*
X9769456Y-22349500D01*
X9702417Y-22329815D01*
X9656662Y-22277011D01*
X9646718Y-22207853D01*
X9675743Y-22144297D01*
X9715658Y-22113778D01*
X9773190Y-22086074D01*
X9838377Y-22054684D01*
X9953020Y-21963268D01*
X10044448Y-21848635D01*
X10102616Y-21727871D01*
X10106075Y-21720690D01*
X10152902Y-21668834D01*
X10217791Y-21650500D01*
X14407612Y-21650500D01*
X14474651Y-21670185D01*
X14507380Y-21700864D01*
X14537850Y-21742150D01*
X14647118Y-21822793D01*
X14672236Y-21831582D01*
X14775299Y-21867646D01*
X14805730Y-21870500D01*
X14805734Y-21870500D01*
X15939270Y-21870500D01*
X15969699Y-21867646D01*
X15969701Y-21867646D01*
X16045955Y-21840963D01*
X16097882Y-21822793D01*
X16207150Y-21742150D01*
X16287793Y-21632882D01*
X16320308Y-21539959D01*
X16332646Y-21504701D01*
X16332646Y-21504699D01*
X16335500Y-21474269D01*
X16335500Y-21065730D01*
X16332646Y-21035300D01*
X16332646Y-21035298D01*
X16294238Y-20925537D01*
X16287793Y-20907118D01*
X16259389Y-20868632D01*
X16235419Y-20803005D01*
X16250734Y-20734835D01*
X16259385Y-20721373D01*
X16287793Y-20682882D01*
X16312332Y-20612753D01*
X16332646Y-20554701D01*
X16332646Y-20554699D01*
X16335500Y-20524269D01*
X16335500Y-20115730D01*
X16332646Y-20085300D01*
X16332646Y-20085298D01*
X16295800Y-19980000D01*
X16287793Y-19957118D01*
X16259389Y-19918632D01*
X16235419Y-19853005D01*
X16250734Y-19784835D01*
X16259385Y-19771373D01*
X16287793Y-19732882D01*
X16314870Y-19655500D01*
X16332646Y-19604701D01*
X16332646Y-19604699D01*
X16335500Y-19574269D01*
X16335500Y-19165730D01*
X16332646Y-19135300D01*
X16332646Y-19135298D01*
X16287793Y-19007119D01*
X16287792Y-19007117D01*
X16207150Y-18897850D01*
X16097882Y-18817207D01*
X16097880Y-18817206D01*
X15969700Y-18772353D01*
X15939270Y-18769500D01*
X15939266Y-18769500D01*
X14805734Y-18769500D01*
X14805730Y-18769500D01*
X14775300Y-18772353D01*
X14775298Y-18772353D01*
X14647119Y-18817206D01*
X14647117Y-18817207D01*
X14537850Y-18897850D01*
X14522142Y-18919134D01*
X14466494Y-18961385D01*
X14422372Y-18969500D01*
X13710339Y-18969500D01*
X13710323Y-18969499D01*
X13702727Y-18969499D01*
X13597273Y-18969499D01*
X13518865Y-18990509D01*
X13518864Y-18990508D01*
X13495415Y-18996792D01*
X13495410Y-18996794D01*
X13404085Y-19049521D01*
X12140426Y-20313181D01*
X12079103Y-20346666D01*
X12052745Y-20349500D01*
X11872386Y-20349500D01*
X11805347Y-20329815D01*
X11759592Y-20277011D01*
X11749648Y-20207853D01*
X11772616Y-20151866D01*
X11828933Y-20075559D01*
X11828934Y-20075557D01*
X11872244Y-19951787D01*
X11872244Y-19951785D01*
X11873818Y-19935000D01*
X11179000Y-19935000D01*
X11111961Y-19915315D01*
X11066206Y-19862511D01*
X11055000Y-19811000D01*
X11055000Y-19435000D01*
X11555000Y-19435000D01*
X11873818Y-19435000D01*
X11873818Y-19434999D01*
X11872244Y-19418214D01*
X11872244Y-19418212D01*
X11828934Y-19294442D01*
X11828933Y-19294440D01*
X11751065Y-19188934D01*
X11645559Y-19111066D01*
X11645557Y-19111065D01*
X11555000Y-19079378D01*
X11555000Y-19435000D01*
X11055000Y-19435000D01*
X11055000Y-19079378D01*
X11054999Y-19079378D01*
X10964442Y-19111065D01*
X10964440Y-19111066D01*
X10869055Y-19181465D01*
X10803426Y-19205436D01*
X10735256Y-19190121D01*
X10721788Y-19181465D01*
X10625794Y-19110619D01*
X10501880Y-19067258D01*
X10472461Y-19064500D01*
X10472457Y-19064500D01*
X10221163Y-19064500D01*
X10154124Y-19044815D01*
X10108369Y-18992011D01*
X10098224Y-18956686D01*
X10097200Y-18948910D01*
X10090558Y-18898459D01*
X10056113Y-18815301D01*
X10032067Y-18757247D01*
X10032065Y-18757244D01*
X9982314Y-18692409D01*
X9939017Y-18635983D01*
X9939015Y-18635982D01*
X9939015Y-18635981D01*
X9817757Y-18542935D01*
X9817755Y-18542934D01*
X9804182Y-18537311D01*
X9763959Y-18510434D01*
X9363016Y-18109491D01*
X9363015Y-18109490D01*
X9237485Y-18037016D01*
X9237486Y-18037016D01*
X9202482Y-18027637D01*
X9097475Y-17999500D01*
X9097472Y-17999500D01*
X7512785Y-17999500D01*
X7462699Y-17988934D01*
X7422577Y-17971218D01*
X7379992Y-17952415D01*
X7354868Y-17949500D01*
X6459000Y-17949500D01*
X6391961Y-17929815D01*
X6346206Y-17877011D01*
X6335000Y-17825500D01*
X6335000Y-17624000D01*
X6354685Y-17556961D01*
X6407489Y-17511206D01*
X6459000Y-17500000D01*
X7609999Y-17500000D01*
X7609999Y-17405214D01*
X7609997Y-17405191D01*
X7607091Y-17380130D01*
X7607090Y-17380126D01*
X7561788Y-17277525D01*
X7561785Y-17277520D01*
X7482479Y-17198214D01*
X7482474Y-17198211D01*
X7379876Y-17152910D01*
X7354794Y-17150000D01*
X7076813Y-17150000D01*
X7009774Y-17130315D01*
X6964019Y-17077511D01*
X6954075Y-17008353D01*
X6962252Y-16978547D01*
X6982361Y-16930000D01*
X6386988Y-16930000D01*
X6404205Y-16920060D01*
X6460060Y-16864205D01*
X6499556Y-16795796D01*
X6520000Y-16719496D01*
X6520000Y-16640504D01*
X6499556Y-16564204D01*
X6460060Y-16495795D01*
X6404205Y-16439940D01*
X6386988Y-16430000D01*
X6982361Y-16430000D01*
X6982360Y-16429999D01*
X6928952Y-16301061D01*
X6928947Y-16301051D01*
X6841401Y-16170030D01*
X6841398Y-16170026D01*
X6729973Y-16058601D01*
X6729969Y-16058598D01*
X6598948Y-15971052D01*
X6598939Y-15971047D01*
X6453351Y-15910743D01*
X6453343Y-15910741D01*
X6298797Y-15880000D01*
X5920000Y-15880000D01*
X5920000Y-16380000D01*
X5420000Y-16380000D01*
X5420000Y-15880000D01*
X5041202Y-15880000D01*
X4886656Y-15910741D01*
X4886648Y-15910743D01*
X4741060Y-15971047D01*
X4741051Y-15971052D01*
X4610030Y-16058598D01*
X4610026Y-16058601D01*
X4498601Y-16170026D01*
X4498598Y-16170030D01*
X4411052Y-16301051D01*
X4411047Y-16301061D01*
X4357639Y-16429999D01*
X4357639Y-16430000D01*
X4953012Y-16430000D01*
X4935795Y-16439940D01*
X4879940Y-16495795D01*
X4840444Y-16564204D01*
X4820000Y-16640504D01*
X4820000Y-16719496D01*
X4840444Y-16795796D01*
X4879940Y-16864205D01*
X4935795Y-16920060D01*
X4953012Y-16930000D01*
X4357639Y-16930000D01*
X4411047Y-17058938D01*
X4411052Y-17058948D01*
X4498598Y-17189969D01*
X4498601Y-17189973D01*
X4610026Y-17301398D01*
X4610030Y-17301401D01*
X4741051Y-17388947D01*
X4741064Y-17388954D01*
X4798038Y-17412553D01*
X4852442Y-17456393D01*
X4874507Y-17522687D01*
X4857228Y-17590387D01*
X4812589Y-17634499D01*
X4786641Y-17649481D01*
X4786632Y-17649487D01*
X4679487Y-17756632D01*
X4679485Y-17756635D01*
X4603719Y-17887863D01*
X4564500Y-18034234D01*
X4564500Y-18185765D01*
X4603719Y-18332136D01*
X4616324Y-18353968D01*
X4679485Y-18463365D01*
X4786635Y-18570515D01*
X4894947Y-18633049D01*
X4917544Y-18646096D01*
X4917865Y-18646281D01*
X5064234Y-18685500D01*
X5064236Y-18685500D01*
X5215764Y-18685500D01*
X5215766Y-18685500D01*
X5362135Y-18646281D01*
X5373498Y-18639720D01*
X5441395Y-18623246D01*
X5507423Y-18646096D01*
X5550616Y-18701015D01*
X5559500Y-18747105D01*
X5559500Y-18894855D01*
X5559502Y-18894880D01*
X5562414Y-18919989D01*
X5562415Y-18919995D01*
X5564590Y-18924920D01*
X5573658Y-18994199D01*
X5564592Y-19025076D01*
X5562416Y-19030003D01*
X5562415Y-19030009D01*
X5559500Y-19055131D01*
X5559500Y-19070977D01*
X5539815Y-19138016D01*
X5487011Y-19183771D01*
X5417853Y-19193715D01*
X5380386Y-19180748D01*
X5380264Y-19181044D01*
X5375296Y-19178986D01*
X5373501Y-19178365D01*
X5372756Y-19177935D01*
X5372755Y-19177934D01*
X5372753Y-19177933D01*
X5372751Y-19177932D01*
X5231544Y-19119443D01*
X5231542Y-19119442D01*
X5231541Y-19119442D01*
X5080000Y-19099491D01*
X4928459Y-19119442D01*
X4928455Y-19119443D01*
X4787247Y-19177932D01*
X4787244Y-19177934D01*
X4665983Y-19270982D01*
X4665982Y-19270983D01*
X4572934Y-19392244D01*
X4572932Y-19392247D01*
X4514443Y-19533455D01*
X4514442Y-19533459D01*
X4501152Y-19634400D01*
X4472885Y-19698296D01*
X4414560Y-19736766D01*
X4394400Y-19741152D01*
X4293459Y-19754442D01*
X4293455Y-19754443D01*
X4152247Y-19812932D01*
X4152244Y-19812934D01*
X4030983Y-19905982D01*
X4030982Y-19905983D01*
X3937934Y-20027244D01*
X3937932Y-20027247D01*
X3879443Y-20168455D01*
X3879442Y-20168459D01*
X3859491Y-20320000D01*
X635000Y-20320000D01*
X635000Y-17501604D01*
X654685Y-17434565D01*
X707489Y-17388810D01*
X776647Y-17378866D01*
X806453Y-17387043D01*
X956648Y-17449256D01*
X956656Y-17449258D01*
X1111202Y-17479999D01*
X1111206Y-17480000D01*
X1240000Y-17480000D01*
X1240000Y-16980000D01*
X1740000Y-16980000D01*
X1740000Y-17480000D01*
X1868794Y-17480000D01*
X1868797Y-17479999D01*
X2023343Y-17449258D01*
X2023351Y-17449256D01*
X2168939Y-17388952D01*
X2168948Y-17388947D01*
X2299969Y-17301401D01*
X2299973Y-17301398D01*
X2411398Y-17189973D01*
X2411401Y-17189969D01*
X2498947Y-17058948D01*
X2498952Y-17058938D01*
X2552361Y-16930000D01*
X1956988Y-16930000D01*
X1974205Y-16920060D01*
X2030060Y-16864205D01*
X2069556Y-16795796D01*
X2090000Y-16719496D01*
X2090000Y-16640504D01*
X2069556Y-16564204D01*
X2030060Y-16495795D01*
X1974205Y-16439940D01*
X1956988Y-16430000D01*
X2552361Y-16430000D01*
X2563443Y-16413412D01*
X2562269Y-16402486D01*
X2593542Y-16340006D01*
X2653630Y-16304353D01*
X2684299Y-16300500D01*
X2733855Y-16300500D01*
X2800894Y-16320185D01*
X2809342Y-16326125D01*
X2882243Y-16382065D01*
X2882244Y-16382065D01*
X2882245Y-16382066D01*
X3023459Y-16440558D01*
X3175000Y-16460509D01*
X3326541Y-16440558D01*
X3467755Y-16382066D01*
X3589017Y-16289017D01*
X3682066Y-16167755D01*
X3740558Y-16026541D01*
X3760509Y-15875000D01*
X3740558Y-15723459D01*
X3720773Y-15675693D01*
X3706830Y-15642031D01*
X3699361Y-15572562D01*
X3730636Y-15510083D01*
X3746467Y-15495775D01*
X3807210Y-15449712D01*
X3890841Y-15339427D01*
X3897611Y-15330500D01*
X3952497Y-15191321D01*
X3952497Y-15191319D01*
X3952498Y-15191317D01*
X3958695Y-15139716D01*
X3986232Y-15075501D01*
X4044114Y-15036369D01*
X4081810Y-15030500D01*
X6548635Y-15030500D01*
X6615674Y-15050185D01*
X6648405Y-15080866D01*
X6663574Y-15101420D01*
X6663575Y-15101421D01*
X6663577Y-15101423D01*
X6769206Y-15179381D01*
X6810511Y-15193834D01*
X6893119Y-15222741D01*
X6900796Y-15223460D01*
X6922543Y-15225500D01*
X7297456Y-15225499D01*
X7326879Y-15222741D01*
X7450794Y-15179381D01*
X7546788Y-15108533D01*
X7612416Y-15084563D01*
X7680586Y-15099878D01*
X7694055Y-15108534D01*
X7789443Y-15178934D01*
X7789442Y-15178934D01*
X7879999Y-15210620D01*
X7880000Y-15210620D01*
X8380000Y-15210620D01*
X8470557Y-15178934D01*
X8576065Y-15101065D01*
X8653933Y-14995559D01*
X8653934Y-14995557D01*
X8697244Y-14871787D01*
X8697244Y-14871785D01*
X8698818Y-14855000D01*
X8380000Y-14855000D01*
X8380000Y-15210620D01*
X7880000Y-15210620D01*
X7880000Y-14355000D01*
X8380000Y-14355000D01*
X8698818Y-14355000D01*
X8698818Y-14354999D01*
X8697244Y-14338214D01*
X8697244Y-14338212D01*
X8653934Y-14214442D01*
X8653933Y-14214440D01*
X8576065Y-14108934D01*
X8470559Y-14031066D01*
X8470557Y-14031065D01*
X8380000Y-13999378D01*
X8380000Y-14355000D01*
X7880000Y-14355000D01*
X7880000Y-13999378D01*
X7879999Y-13999378D01*
X7789442Y-14031065D01*
X7789440Y-14031066D01*
X7694055Y-14101465D01*
X7628426Y-14125436D01*
X7560256Y-14110121D01*
X7546788Y-14101465D01*
X7450794Y-14030619D01*
X7326880Y-13987258D01*
X7297461Y-13984500D01*
X6922546Y-13984500D01*
X6893125Y-13987258D01*
X6893115Y-13987260D01*
X6769207Y-14030618D01*
X6663577Y-14108577D01*
X6663574Y-14108579D01*
X6648405Y-14129134D01*
X6592758Y-14171384D01*
X6548635Y-14179500D01*
X4081810Y-14179500D01*
X4014771Y-14159815D01*
X3969016Y-14107011D01*
X3958695Y-14070284D01*
X3952498Y-14018682D01*
X3952497Y-14018679D01*
X3897612Y-13879502D01*
X3897611Y-13879500D01*
X3807211Y-13760288D01*
X3687999Y-13669888D01*
X3687997Y-13669887D01*
X3548822Y-13615003D01*
X3536326Y-13613502D01*
X3461360Y-13604500D01*
X2888640Y-13604500D01*
X2823044Y-13612377D01*
X2801177Y-13615003D01*
X2662002Y-13669887D01*
X2662000Y-13669888D01*
X2542788Y-13760288D01*
X2452388Y-13879500D01*
X2452387Y-13879502D01*
X2397503Y-14018677D01*
X2396015Y-14031066D01*
X2387000Y-14106140D01*
X2387000Y-14106146D01*
X2387000Y-14790890D01*
X2367315Y-14857929D01*
X2314511Y-14903684D01*
X2245353Y-14913628D01*
X2181797Y-14884603D01*
X2175319Y-14878571D01*
X2124319Y-14827571D01*
X2090834Y-14766248D01*
X2088000Y-14739890D01*
X2088000Y-14106146D01*
X2088000Y-14106140D01*
X2077497Y-14018679D01*
X2022611Y-13879500D01*
X1976117Y-13818188D01*
X1932211Y-13760288D01*
X1853446Y-13700559D01*
X1811922Y-13644366D01*
X1807371Y-13574645D01*
X1841236Y-13513531D01*
X1885035Y-13485574D01*
X2063237Y-13419108D01*
X2080192Y-13414130D01*
X2341710Y-13357240D01*
X2359207Y-13354724D01*
X2630582Y-13335316D01*
X2639428Y-13335000D01*
X30380572Y-13335000D01*
X30389418Y-13335316D01*
G37*
%TD.AperFunction*%
%TA.AperFunction,Conductor*%
G36*
X26069459Y-18456515D02*
G01*
X26097491Y-18470220D01*
X26168051Y-18480500D01*
X26361948Y-18480499D01*
X26361949Y-18480499D01*
X26365835Y-18479932D01*
X26375957Y-18478458D01*
X26445134Y-18488270D01*
X26498025Y-18533924D01*
X26517837Y-18600926D01*
X26516542Y-18619033D01*
X26514501Y-18633049D01*
X26514500Y-18633054D01*
X26514500Y-18826950D01*
X26524779Y-18897507D01*
X26524779Y-18897508D01*
X26538484Y-18925543D01*
X26550241Y-18994416D01*
X26538484Y-19034457D01*
X26524781Y-19062488D01*
X26524780Y-19062490D01*
X26524487Y-19064500D01*
X26514500Y-19133051D01*
X26514500Y-19133055D01*
X26514500Y-19133056D01*
X26514500Y-19326950D01*
X26524779Y-19397507D01*
X26524779Y-19397508D01*
X26538484Y-19425543D01*
X26550241Y-19494416D01*
X26538484Y-19534457D01*
X26524781Y-19562488D01*
X26524780Y-19562490D01*
X26523066Y-19574251D01*
X26514500Y-19633051D01*
X26514500Y-19633055D01*
X26514500Y-19633056D01*
X26514500Y-19826950D01*
X26524779Y-19897507D01*
X26524779Y-19897508D01*
X26538484Y-19925543D01*
X26550241Y-19994416D01*
X26538484Y-20034457D01*
X26524781Y-20062488D01*
X26524780Y-20062491D01*
X26514500Y-20133051D01*
X26514500Y-20133055D01*
X26514500Y-20133056D01*
X26514500Y-20326950D01*
X26524779Y-20397507D01*
X26524779Y-20397508D01*
X26538484Y-20425543D01*
X26550241Y-20494416D01*
X26538484Y-20534457D01*
X26528589Y-20554699D01*
X26524780Y-20562491D01*
X26514500Y-20633051D01*
X26514500Y-20633055D01*
X26514500Y-20633056D01*
X26514500Y-20826950D01*
X26524779Y-20897507D01*
X26524779Y-20897508D01*
X26538484Y-20925543D01*
X26550241Y-20994416D01*
X26538484Y-21034457D01*
X26524781Y-21062488D01*
X26524780Y-21062490D01*
X26524286Y-21065884D01*
X26514500Y-21133051D01*
X26514500Y-21133055D01*
X26514500Y-21133056D01*
X26514500Y-21326950D01*
X26524779Y-21397507D01*
X26524779Y-21397508D01*
X26538484Y-21425543D01*
X26550241Y-21494416D01*
X26538484Y-21534457D01*
X26524781Y-21562488D01*
X26524780Y-21562491D01*
X26514500Y-21633051D01*
X26514500Y-21633055D01*
X26514500Y-21633056D01*
X26514500Y-21826951D01*
X26516542Y-21840963D01*
X26506726Y-21910140D01*
X26461069Y-21963028D01*
X26394066Y-21982837D01*
X26375968Y-21981542D01*
X26361949Y-21979500D01*
X26361944Y-21979500D01*
X26168049Y-21979500D01*
X26097492Y-21989779D01*
X26097491Y-21989779D01*
X26069457Y-22003484D01*
X26000584Y-22015241D01*
X25960543Y-22003484D01*
X25932511Y-21989781D01*
X25932509Y-21989780D01*
X25932502Y-21989779D01*
X25861949Y-21979500D01*
X25861943Y-21979500D01*
X25668049Y-21979500D01*
X25597492Y-21989779D01*
X25597491Y-21989779D01*
X25569457Y-22003484D01*
X25500584Y-22015241D01*
X25460543Y-22003484D01*
X25432511Y-21989781D01*
X25432509Y-21989780D01*
X25432502Y-21989779D01*
X25361949Y-21979500D01*
X25361943Y-21979500D01*
X25168049Y-21979500D01*
X25097492Y-21989779D01*
X25097491Y-21989779D01*
X25069457Y-22003484D01*
X25000584Y-22015241D01*
X24960543Y-22003484D01*
X24932511Y-21989781D01*
X24932509Y-21989780D01*
X24932502Y-21989779D01*
X24861949Y-21979500D01*
X24861943Y-21979500D01*
X24668049Y-21979500D01*
X24597492Y-21989779D01*
X24597491Y-21989779D01*
X24569457Y-22003484D01*
X24500584Y-22015241D01*
X24460543Y-22003484D01*
X24432511Y-21989781D01*
X24432509Y-21989780D01*
X24432502Y-21989779D01*
X24361949Y-21979500D01*
X24361943Y-21979500D01*
X24168049Y-21979500D01*
X24097492Y-21989779D01*
X24097491Y-21989779D01*
X24069457Y-22003484D01*
X24000584Y-22015241D01*
X23960543Y-22003484D01*
X23932511Y-21989781D01*
X23932509Y-21989780D01*
X23932502Y-21989779D01*
X23861949Y-21979500D01*
X23861943Y-21979500D01*
X23668049Y-21979500D01*
X23597492Y-21989779D01*
X23597491Y-21989779D01*
X23569457Y-22003484D01*
X23500584Y-22015241D01*
X23460543Y-22003484D01*
X23432511Y-21989781D01*
X23432509Y-21989780D01*
X23432502Y-21989779D01*
X23361949Y-21979500D01*
X23361943Y-21979500D01*
X23168047Y-21979500D01*
X23154035Y-21981542D01*
X23084858Y-21971726D01*
X23031970Y-21926069D01*
X23012162Y-21859065D01*
X23013456Y-21840975D01*
X23015500Y-21826949D01*
X23015499Y-21633052D01*
X23015474Y-21632882D01*
X23007249Y-21576419D01*
X23005220Y-21562491D01*
X22991516Y-21534460D01*
X22979756Y-21465591D01*
X22991515Y-21425540D01*
X23005220Y-21397509D01*
X23015500Y-21326949D01*
X23015499Y-21133052D01*
X23015127Y-21130500D01*
X23005220Y-21062493D01*
X23005220Y-21062491D01*
X22991516Y-21034460D01*
X22979756Y-20965591D01*
X22991515Y-20925540D01*
X23005220Y-20897509D01*
X23015500Y-20826949D01*
X23015499Y-20633052D01*
X23012542Y-20612756D01*
X23005220Y-20562493D01*
X23005220Y-20562491D01*
X22991516Y-20534460D01*
X22979756Y-20465591D01*
X22991515Y-20425540D01*
X23005220Y-20397509D01*
X23015500Y-20326949D01*
X23015499Y-20133052D01*
X23005220Y-20062491D01*
X22991237Y-20033889D01*
X22979478Y-19965019D01*
X22991239Y-19924966D01*
X23004733Y-19897365D01*
X23010906Y-19855000D01*
X22868468Y-19855000D01*
X22813995Y-19842394D01*
X22811948Y-19841393D01*
X22760371Y-19794260D01*
X22742464Y-19726724D01*
X22763913Y-19660228D01*
X22812011Y-19618575D01*
X22814061Y-19617572D01*
X22868467Y-19605000D01*
X23010905Y-19605000D01*
X23010905Y-19604999D01*
X23004734Y-19562638D01*
X23004734Y-19562637D01*
X22991238Y-19535031D01*
X22979478Y-19466158D01*
X22991237Y-19426111D01*
X23005220Y-19397509D01*
X23015500Y-19326949D01*
X23015499Y-19133052D01*
X23014193Y-19124089D01*
X23006456Y-19070977D01*
X23005220Y-19062491D01*
X22991516Y-19034460D01*
X22979756Y-18965591D01*
X22991515Y-18925540D01*
X23005220Y-18897509D01*
X23015500Y-18826949D01*
X23015499Y-18633052D01*
X23013458Y-18619041D01*
X23023270Y-18549864D01*
X23068925Y-18496974D01*
X23135927Y-18477162D01*
X23154026Y-18478456D01*
X23168051Y-18480500D01*
X23361948Y-18480499D01*
X23361950Y-18480499D01*
X23390172Y-18476387D01*
X23432509Y-18470220D01*
X23460539Y-18456516D01*
X23529409Y-18444756D01*
X23569459Y-18456515D01*
X23597491Y-18470220D01*
X23668051Y-18480500D01*
X23861948Y-18480499D01*
X23861950Y-18480499D01*
X23890172Y-18476387D01*
X23932509Y-18470220D01*
X23960539Y-18456516D01*
X24029409Y-18444756D01*
X24069459Y-18456515D01*
X24097491Y-18470220D01*
X24168051Y-18480500D01*
X24361948Y-18480499D01*
X24361950Y-18480499D01*
X24390172Y-18476387D01*
X24432509Y-18470220D01*
X24460539Y-18456516D01*
X24529409Y-18444756D01*
X24569459Y-18456515D01*
X24597491Y-18470220D01*
X24668051Y-18480500D01*
X24861948Y-18480499D01*
X24861950Y-18480499D01*
X24890172Y-18476387D01*
X24932509Y-18470220D01*
X24960539Y-18456516D01*
X25029409Y-18444756D01*
X25069459Y-18456515D01*
X25097491Y-18470220D01*
X25168051Y-18480500D01*
X25361948Y-18480499D01*
X25361950Y-18480499D01*
X25390172Y-18476387D01*
X25432509Y-18470220D01*
X25460539Y-18456516D01*
X25529409Y-18444756D01*
X25569459Y-18456515D01*
X25597491Y-18470220D01*
X25668051Y-18480500D01*
X25861948Y-18480499D01*
X25861950Y-18480499D01*
X25890172Y-18476387D01*
X25932509Y-18470220D01*
X25960539Y-18456516D01*
X26029409Y-18444756D01*
X26069459Y-18456515D01*
G37*
%TD.AperFunction*%
%TA.AperFunction,Conductor*%
G36*
X27789784Y-16930185D02*
G01*
X27810426Y-16946819D01*
X28138181Y-17274573D01*
X28171666Y-17335896D01*
X28174500Y-17362254D01*
X28174500Y-19846275D01*
X28154815Y-19913314D01*
X28148873Y-19921765D01*
X28133434Y-19941884D01*
X28077005Y-19983085D01*
X28007259Y-19987237D01*
X27946339Y-19953022D01*
X27913589Y-19891304D01*
X27912357Y-19848520D01*
X27915500Y-19826949D01*
X27915499Y-19633052D01*
X27914805Y-19628291D01*
X27905241Y-19562637D01*
X27905220Y-19562491D01*
X27891516Y-19534460D01*
X27879756Y-19465591D01*
X27891515Y-19425540D01*
X27905220Y-19397509D01*
X27915500Y-19326949D01*
X27915499Y-19133052D01*
X27914193Y-19124089D01*
X27906456Y-19070977D01*
X27905220Y-19062491D01*
X27891516Y-19034460D01*
X27879756Y-18965591D01*
X27891515Y-18925540D01*
X27905220Y-18897509D01*
X27915500Y-18826949D01*
X27915499Y-18633052D01*
X27913457Y-18619037D01*
X27905220Y-18562493D01*
X27905220Y-18562491D01*
X27852012Y-18453653D01*
X27852010Y-18453651D01*
X27852010Y-18453650D01*
X27766348Y-18367988D01*
X27657511Y-18314780D01*
X27639869Y-18312210D01*
X27586949Y-18304500D01*
X27586943Y-18304500D01*
X26843047Y-18304500D01*
X26829035Y-18306542D01*
X26759858Y-18296726D01*
X26706970Y-18251069D01*
X26687162Y-18184065D01*
X26688456Y-18165975D01*
X26690500Y-18151949D01*
X26690499Y-17408052D01*
X26690082Y-17405191D01*
X26680220Y-17337493D01*
X26680220Y-17337491D01*
X26627012Y-17228653D01*
X26627010Y-17228651D01*
X26627010Y-17228650D01*
X26541348Y-17142988D01*
X26532986Y-17137018D01*
X26534801Y-17134475D01*
X26495724Y-17098774D01*
X26477808Y-17031241D01*
X26499248Y-16964742D01*
X26553236Y-16920391D01*
X26601765Y-16910500D01*
X27722745Y-16910500D01*
X27789784Y-16930185D01*
G37*
%TD.AperFunction*%
%TA.AperFunction,Conductor*%
G36*
X804490Y-15547009D02*
G01*
X893845Y-15582246D01*
X926179Y-15594997D01*
X1013640Y-15605500D01*
X1013646Y-15605500D01*
X1586358Y-15605500D01*
X1586360Y-15605500D01*
X1626858Y-15600636D01*
X1695762Y-15612185D01*
X1729322Y-15636070D01*
X1768945Y-15675693D01*
X1802430Y-15737016D01*
X1797446Y-15806708D01*
X1768945Y-15851055D01*
X1740000Y-15880000D01*
X1740000Y-16380000D01*
X1240000Y-16380000D01*
X1240000Y-15880000D01*
X1111202Y-15880000D01*
X956656Y-15910741D01*
X956644Y-15910744D01*
X806452Y-15972956D01*
X736983Y-15980425D01*
X674504Y-15949150D01*
X638852Y-15889061D01*
X635000Y-15858395D01*
X635000Y-15662363D01*
X654685Y-15595324D01*
X707489Y-15549569D01*
X776647Y-15539625D01*
X804490Y-15547009D01*
G37*
%TD.AperFunction*%
%TD*%
M02*
