%TF.GenerationSoftware,KiCad,Pcbnew,8.0.4+dfsg-1*%
%TF.CreationDate,2024-10-16T21:23:15+02:00*%
%TF.ProjectId,usb-serial,7573622d-7365-4726-9961-6c2e6b696361,rev?*%
%TF.SameCoordinates,Original*%
%TF.FileFunction,Copper,L1,Top*%
%TF.FilePolarity,Positive*%
%FSLAX46Y46*%
G04 Gerber Fmt 4.6, Leading zero omitted, Abs format (unit mm)*
G04 Created by KiCad (PCBNEW 8.0.4+dfsg-1) date 2024-10-16 21:23:15*
%MOMM*%
%LPD*%
G01*
G04 APERTURE LIST*
G04 Aperture macros list*
%AMRoundRect*
0 Rectangle with rounded corners*
0 $1 Rounding radius*
0 $2 $3 $4 $5 $6 $7 $8 $9 X,Y pos of 4 corners*
0 Add a 4 corners polygon primitive as box body*
4,1,4,$2,$3,$4,$5,$6,$7,$8,$9,$2,$3,0*
0 Add four circle primitives for the rounded corners*
1,1,$1+$1,$2,$3*
1,1,$1+$1,$4,$5*
1,1,$1+$1,$6,$7*
1,1,$1+$1,$8,$9*
0 Add four rect primitives between the rounded corners*
20,1,$1+$1,$2,$3,$4,$5,0*
20,1,$1+$1,$4,$5,$6,$7,0*
20,1,$1+$1,$6,$7,$8,$9,0*
20,1,$1+$1,$8,$9,$2,$3,0*%
G04 Aperture macros list end*
%TA.AperFunction,SMDPad,CuDef*%
%ADD10RoundRect,0.135000X-0.135000X-0.185000X0.135000X-0.185000X0.135000X0.185000X-0.135000X0.185000X0*%
%TD*%
%TA.AperFunction,SMDPad,CuDef*%
%ADD11RoundRect,0.243750X0.456250X-0.243750X0.456250X0.243750X-0.456250X0.243750X-0.456250X-0.243750X0*%
%TD*%
%TA.AperFunction,SMDPad,CuDef*%
%ADD12RoundRect,0.062500X0.117500X0.062500X-0.117500X0.062500X-0.117500X-0.062500X0.117500X-0.062500X0*%
%TD*%
%TA.AperFunction,SMDPad,CuDef*%
%ADD13RoundRect,0.135000X0.135000X0.185000X-0.135000X0.185000X-0.135000X-0.185000X0.135000X-0.185000X0*%
%TD*%
%TA.AperFunction,SMDPad,CuDef*%
%ADD14RoundRect,0.140000X-0.140000X-0.170000X0.140000X-0.170000X0.140000X0.170000X-0.140000X0.170000X0*%
%TD*%
%TA.AperFunction,SMDPad,CuDef*%
%ADD15RoundRect,0.140000X0.140000X0.170000X-0.140000X0.170000X-0.140000X-0.170000X0.140000X-0.170000X0*%
%TD*%
%TA.AperFunction,SMDPad,CuDef*%
%ADD16RoundRect,0.062500X-0.337500X-0.062500X0.337500X-0.062500X0.337500X0.062500X-0.337500X0.062500X0*%
%TD*%
%TA.AperFunction,SMDPad,CuDef*%
%ADD17RoundRect,0.062500X-0.062500X-0.337500X0.062500X-0.337500X0.062500X0.337500X-0.062500X0.337500X0*%
%TD*%
%TA.AperFunction,HeatsinkPad*%
%ADD18R,3.350000X3.350000*%
%TD*%
%TA.AperFunction,SMDPad,CuDef*%
%ADD19RoundRect,0.250000X0.250000X0.475000X-0.250000X0.475000X-0.250000X-0.475000X0.250000X-0.475000X0*%
%TD*%
%TA.AperFunction,SMDPad,CuDef*%
%ADD20R,2.000000X0.640000*%
%TD*%
%TA.AperFunction,SMDPad,CuDef*%
%ADD21R,2.580000X1.000000*%
%TD*%
%TA.AperFunction,SMDPad,CuDef*%
%ADD22RoundRect,0.250000X-0.250000X-0.475000X0.250000X-0.475000X0.250000X0.475000X-0.250000X0.475000X0*%
%TD*%
%TA.AperFunction,SMDPad,CuDef*%
%ADD23R,1.450000X0.600000*%
%TD*%
%TA.AperFunction,SMDPad,CuDef*%
%ADD24R,1.450000X0.300000*%
%TD*%
%TA.AperFunction,ComponentPad*%
%ADD25O,2.100000X1.000000*%
%TD*%
%TA.AperFunction,ComponentPad*%
%ADD26O,1.600000X1.000000*%
%TD*%
%TA.AperFunction,SMDPad,CuDef*%
%ADD27RoundRect,0.150000X0.512500X0.150000X-0.512500X0.150000X-0.512500X-0.150000X0.512500X-0.150000X0*%
%TD*%
%TA.AperFunction,SMDPad,CuDef*%
%ADD28RoundRect,0.150000X-0.825000X-0.150000X0.825000X-0.150000X0.825000X0.150000X-0.825000X0.150000X0*%
%TD*%
%TA.AperFunction,SMDPad,CuDef*%
%ADD29RoundRect,0.250000X0.375000X0.625000X-0.375000X0.625000X-0.375000X-0.625000X0.375000X-0.625000X0*%
%TD*%
%TA.AperFunction,ViaPad*%
%ADD30C,0.560000*%
%TD*%
%TA.AperFunction,Conductor*%
%ADD31C,0.200000*%
%TD*%
%TA.AperFunction,Conductor*%
%ADD32C,0.250000*%
%TD*%
%TA.AperFunction,Conductor*%
%ADD33C,1.000000*%
%TD*%
%TA.AperFunction,Conductor*%
%ADD34C,0.500000*%
%TD*%
%TA.AperFunction,Conductor*%
%ADD35C,0.300000*%
%TD*%
G04 APERTURE END LIST*
D10*
%TO.P,R2,1*%
%TO.N,~{RXD}*%
X30480000Y-23495000D03*
%TO.P,R2,2*%
%TO.N,VDD*%
X31500000Y-23495000D03*
%TD*%
D11*
%TO.P,D2,1,K*%
%TO.N,Net-(D2-K)*%
X66675000Y-14272500D03*
%TO.P,D2,2,A*%
%TO.N,+3V3*%
X66675000Y-12397500D03*
%TD*%
D12*
%TO.P,D3,1,A1*%
%TO.N,GND1*%
X59690000Y-16510000D03*
%TO.P,D3,2,A2*%
%TO.N,+3V3*%
X60530000Y-16510000D03*
%TD*%
%TO.P,D4,1,A1*%
%TO.N,GND1*%
X59690000Y-25400000D03*
%TO.P,D4,2,A2*%
%TO.N,OUT_TxD*%
X60530000Y-25400000D03*
%TD*%
D13*
%TO.P,R3,1*%
%TO.N,GND*%
X11305000Y-19685000D03*
%TO.P,R3,2*%
%TO.N,Net-(USB1-CC1)*%
X10285000Y-19685000D03*
%TD*%
D10*
%TO.P,R7,1*%
%TO.N,GND1*%
X62990000Y-14272500D03*
%TO.P,R7,2*%
%TO.N,Net-(D2-K)*%
X64010000Y-14272500D03*
%TD*%
D13*
%TO.P,R12,1*%
%TO.N,GND*%
X6225000Y-14272500D03*
%TO.P,R12,2*%
%TO.N,Net-(D1-K)*%
X5205000Y-14272500D03*
%TD*%
D14*
%TO.P,C3,1*%
%TO.N,VDD*%
X30605000Y-18415000D03*
%TO.P,C3,2*%
%TO.N,GND*%
X31565000Y-18415000D03*
%TD*%
D11*
%TO.P,D1,1,K*%
%TO.N,Net-(D1-K)*%
X1905000Y-14272500D03*
%TO.P,D1,2,A*%
%TO.N,VBUS*%
X1905000Y-12397500D03*
%TD*%
D15*
%TO.P,C4,1*%
%TO.N,+3V3*%
X52987500Y-14605000D03*
%TO.P,C4,2*%
%TO.N,GND1*%
X52027500Y-14605000D03*
%TD*%
D16*
%TO.P,U6,1,~{DCD}*%
%TO.N,unconnected-(U6-~{DCD}-Pad1)*%
X22315000Y-18730000D03*
%TO.P,U6,2,~{RI}/CLK*%
%TO.N,unconnected-(U6-~{RI}{slash}CLK-Pad2)*%
X22315000Y-19230000D03*
%TO.P,U6,3,GND*%
%TO.N,GND*%
X22315000Y-19730000D03*
%TO.P,U6,4,D+*%
%TO.N,Net-(U6-D+)*%
X22315000Y-20230000D03*
%TO.P,U6,5,D-*%
%TO.N,Net-(U6-D-)*%
X22315000Y-20730000D03*
%TO.P,U6,6,VDD*%
%TO.N,VDD*%
X22315000Y-21230000D03*
%TO.P,U6,7,REGIN*%
%TO.N,VBUS*%
X22315000Y-21730000D03*
D17*
%TO.P,U6,8,VBUS*%
X23265000Y-22680000D03*
%TO.P,U6,9,~{RSTb}*%
%TO.N,Net-(U6-~{RSTb})*%
X23765000Y-22680000D03*
%TO.P,U6,10,NC*%
%TO.N,unconnected-(U6-NC-Pad10)*%
X24265000Y-22680000D03*
%TO.P,U6,11,~{SUSPENDb}*%
%TO.N,unconnected-(U6-~{SUSPENDb}-Pad11)*%
X24765000Y-22680000D03*
%TO.P,U6,12,SUSPEND*%
%TO.N,unconnected-(U6-SUSPEND-Pad12)*%
X25265000Y-22680000D03*
%TO.P,U6,13,CHREN*%
%TO.N,unconnected-(U6-CHREN-Pad13)*%
X25765000Y-22680000D03*
%TO.P,U6,14,CHR1*%
%TO.N,unconnected-(U6-CHR1-Pad14)*%
X26265000Y-22680000D03*
D16*
%TO.P,U6,15,CHR0*%
%TO.N,unconnected-(U6-CHR0-Pad15)*%
X27215000Y-21730000D03*
%TO.P,U6,16,~{WAKEUP}/GPIO.3*%
%TO.N,unconnected-(U6-~{WAKEUP}{slash}GPIO.3-Pad16)*%
X27215000Y-21230000D03*
%TO.P,U6,17,RS485/GPIO.2*%
%TO.N,unconnected-(U6-RS485{slash}GPIO.2-Pad17)*%
X27215000Y-20730000D03*
%TO.P,U6,18,~{RXT}/GPIO.1*%
%TO.N,unconnected-(U6-~{RXT}{slash}GPIO.1-Pad18)*%
X27215000Y-20230000D03*
%TO.P,U6,19,~{TXT}/GPIO.0*%
%TO.N,unconnected-(U6-~{TXT}{slash}GPIO.0-Pad19)*%
X27215000Y-19730000D03*
%TO.P,U6,20,GPIO.6*%
%TO.N,unconnected-(U6-GPIO.6-Pad20)*%
X27215000Y-19230000D03*
%TO.P,U6,21,GPIO.5*%
%TO.N,unconnected-(U6-GPIO.5-Pad21)*%
X27215000Y-18730000D03*
D17*
%TO.P,U6,22,GPIO.4*%
%TO.N,unconnected-(U6-GPIO.4-Pad22)*%
X26265000Y-17780000D03*
%TO.P,U6,23,~{CTS}*%
%TO.N,unconnected-(U6-~{CTS}-Pad23)*%
X25765000Y-17780000D03*
%TO.P,U6,24,~{RTS}*%
%TO.N,unconnected-(U6-~{RTS}-Pad24)*%
X25265000Y-17780000D03*
%TO.P,U6,25,RXD*%
%TO.N,~{RXD}*%
X24765000Y-17780000D03*
%TO.P,U6,26,TXD*%
%TO.N,~{TXD}*%
X24265000Y-17780000D03*
%TO.P,U6,27,~{DSR}*%
%TO.N,unconnected-(U6-~{DSR}-Pad27)*%
X23765000Y-17780000D03*
%TO.P,U6,28,~{DTR}*%
%TO.N,unconnected-(U6-~{DTR}-Pad28)*%
X23265000Y-17780000D03*
D18*
%TO.P,U6,29,GND*%
%TO.N,GND*%
X24765000Y-20230000D03*
%TD*%
D12*
%TO.P,D5,1,A1*%
%TO.N,GND1*%
X59690000Y-26670000D03*
%TO.P,D5,2,A2*%
%TO.N,IN_RxD*%
X60530000Y-26670000D03*
%TD*%
D19*
%TO.P,C2,1*%
%TO.N,GND*%
X18730000Y-27305000D03*
%TO.P,C2,2*%
%TO.N,VBUS*%
X16830000Y-27305000D03*
%TD*%
D15*
%TO.P,C12,1*%
%TO.N,VDD*%
X31470000Y-24765000D03*
%TO.P,C12,2*%
%TO.N,GND*%
X30510000Y-24765000D03*
%TD*%
D10*
%TO.P,R1,1*%
%TO.N,VDD*%
X30605000Y-17145000D03*
%TO.P,R1,2*%
%TO.N,Net-(U1-A1)*%
X31625000Y-17145000D03*
%TD*%
D13*
%TO.P,R5,1*%
%TO.N,~{ISO_TXD}*%
X44960000Y-18415000D03*
%TO.P,R5,2*%
%TO.N,+3V3*%
X43940000Y-18415000D03*
%TD*%
%TO.P,R9,1*%
%TO.N,Net-(U6-~{RSTb})*%
X23245000Y-24040000D03*
%TO.P,R9,2*%
%TO.N,VDD*%
X22225000Y-24040000D03*
%TD*%
%TO.P,R4,1*%
%TO.N,GND*%
X11305000Y-22860000D03*
%TO.P,R4,2*%
%TO.N,Net-(USB1-CC2)*%
X10285000Y-22860000D03*
%TD*%
D20*
%TO.P,U1,1,A1*%
%TO.N,Net-(U1-A1)*%
X34950000Y-17145000D03*
%TO.P,U1,3,C1*%
%TO.N,~{TXD}*%
X34950000Y-19685000D03*
%TO.P,U1,4,GND*%
%TO.N,GND1*%
X41250000Y-19685000D03*
%TO.P,U1,5,VO1*%
%TO.N,~{ISO_TXD}*%
X41250000Y-18415000D03*
%TO.P,U1,6,VCC*%
%TO.N,+3V3*%
X41250000Y-17145000D03*
%TD*%
D21*
%TO.P,J1,1,Pin_1*%
%TO.N,+3V3*%
X60145000Y-18955000D03*
%TO.P,J1,2,Pin_2*%
%TO.N,unconnected-(J1-Pin_2-Pad2)*%
X64315000Y-18955000D03*
%TO.P,J1,3,Pin_3*%
%TO.N,GND1*%
X60145000Y-20955000D03*
%TO.P,J1,4,Pin_4*%
%TO.N,IN_RxD*%
X64315000Y-20955000D03*
%TO.P,J1,5,Pin_5*%
%TO.N,unconnected-(J1-Pin_5-Pad5)*%
X60145000Y-22955000D03*
%TO.P,J1,6,Pin_6*%
%TO.N,OUT_TxD*%
X64315000Y-22955000D03*
%TD*%
D20*
%TO.P,U2,1,A1*%
%TO.N,Net-(U2-A1)*%
X41250000Y-24765000D03*
%TO.P,U2,3,C1*%
%TO.N,~{ISO_RXD}*%
X41250000Y-22225000D03*
%TO.P,U2,4,GND*%
%TO.N,GND*%
X34950000Y-22225000D03*
%TO.P,U2,5,VO1*%
%TO.N,~{RXD}*%
X34950000Y-23495000D03*
%TO.P,U2,6,VCC*%
%TO.N,VDD*%
X34950000Y-24765000D03*
%TD*%
D10*
%TO.P,R6,1*%
%TO.N,Net-(U2-A1)*%
X43940000Y-24765000D03*
%TO.P,R6,2*%
%TO.N,+3V3*%
X44960000Y-24765000D03*
%TD*%
D22*
%TO.P,C1,1*%
%TO.N,GND*%
X16830000Y-24130000D03*
%TO.P,C1,2*%
%TO.N,VBUS*%
X18730000Y-24130000D03*
%TD*%
D23*
%TO.P,USB1,A1,GND*%
%TO.N,GND*%
X6585000Y-17750000D03*
%TO.P,USB1,A4,VBUS*%
%TO.N,Net-(U3-VBUS)*%
X6585000Y-18550000D03*
D24*
%TO.P,USB1,A5,CC1*%
%TO.N,Net-(USB1-CC1)*%
X6585000Y-19750000D03*
%TO.P,USB1,A6,DP1*%
%TO.N,Net-(USB1-DP1)*%
X6585000Y-20750000D03*
%TO.P,USB1,A7,DN2*%
%TO.N,Net-(USB1-DN1)*%
X6585000Y-21250000D03*
%TO.P,USB1,A8,SBU1*%
%TO.N,unconnected-(USB1-SBU1-PadA8)*%
X6585000Y-22250000D03*
D23*
%TO.P,USB1,A9,VBUS*%
%TO.N,Net-(U3-VBUS)*%
X6585000Y-23450000D03*
%TO.P,USB1,A12,GND*%
%TO.N,GND*%
X6585000Y-24250000D03*
D24*
%TO.P,USB1,B5,CC2*%
%TO.N,Net-(USB1-CC2)*%
X6585000Y-22750000D03*
%TO.P,USB1,B6,DP2*%
%TO.N,Net-(USB1-DP1)*%
X6585000Y-21750000D03*
%TO.P,USB1,B7,DN1*%
%TO.N,Net-(USB1-DN1)*%
X6585000Y-20250000D03*
%TO.P,USB1,B8,SBU2*%
%TO.N,unconnected-(USB1-SBU2-PadB8)*%
X6585000Y-19250000D03*
D25*
%TO.P,USB1,S1,SHIELD*%
%TO.N,GND*%
X5670000Y-16680000D03*
D26*
X1490000Y-16680000D03*
D25*
X5670000Y-25320000D03*
D26*
X1490000Y-25320000D03*
%TD*%
D27*
%TO.P,U3,1,I/O1*%
%TO.N,Net-(U6-D-)*%
X17647500Y-21270000D03*
%TO.P,U3,2,GND*%
%TO.N,GND*%
X17647500Y-20320000D03*
%TO.P,U3,3,I/O2*%
%TO.N,Net-(U6-D+)*%
X17647500Y-19370000D03*
%TO.P,U3,4,I/O2*%
%TO.N,Net-(USB1-DP1)*%
X15372500Y-19370000D03*
%TO.P,U3,5,VBUS*%
%TO.N,Net-(U3-VBUS)*%
X15372500Y-20320000D03*
%TO.P,U3,6,I/O1*%
%TO.N,Net-(USB1-DN1)*%
X15372500Y-21270000D03*
%TD*%
D14*
%TO.P,C7,1*%
%TO.N,+3V3*%
X43950000Y-17145000D03*
%TO.P,C7,2*%
%TO.N,GND1*%
X44910000Y-17145000D03*
%TD*%
D28*
%TO.P,U4,1*%
%TO.N,~{ISO_TXD}*%
X48037500Y-17145000D03*
%TO.P,U4,2*%
X48037500Y-18415000D03*
%TO.P,U4,3*%
%TO.N,Net-(U4-Pad12)*%
X48037500Y-19685000D03*
%TO.P,U4,4*%
%TO.N,Net-(U4-Pad4)*%
X48037500Y-20955000D03*
%TO.P,U4,5*%
X48037500Y-22225000D03*
%TO.P,U4,6*%
%TO.N,~{ISO_RXD}*%
X48037500Y-23495000D03*
%TO.P,U4,7,GND*%
%TO.N,GND1*%
X48037500Y-24765000D03*
%TO.P,U4,8*%
%TO.N,Net-(U4-Pad4)*%
X52987500Y-24765000D03*
%TO.P,U4,9*%
%TO.N,IN_RxD*%
X52987500Y-23495000D03*
%TO.P,U4,10*%
X52987500Y-22225000D03*
%TO.P,U4,11*%
%TO.N,OUT_TxD*%
X52987500Y-20955000D03*
%TO.P,U4,12*%
%TO.N,Net-(U4-Pad12)*%
X52987500Y-19685000D03*
%TO.P,U4,13*%
X52987500Y-18415000D03*
%TO.P,U4,14,VCC*%
%TO.N,+3V3*%
X52987500Y-17145000D03*
%TD*%
D29*
%TO.P,F1,1*%
%TO.N,VBUS*%
X13465000Y-27305000D03*
%TO.P,F1,2*%
%TO.N,Net-(U3-VBUS)*%
X10665000Y-27305000D03*
%TD*%
D30*
%TO.N,VBUS*%
X15240000Y-27305000D03*
X22479000Y-22516000D03*
X20320000Y-24130000D03*
X3175000Y-12397500D03*
%TO.N,GND*%
X6985000Y-14272500D03*
X26670000Y-30480000D03*
X20320000Y-22225000D03*
X27305000Y-17690000D03*
X27305000Y-11684000D03*
X33020000Y-30480000D03*
X33655000Y-11684000D03*
X20955000Y-11684000D03*
X20955000Y-18960000D03*
X19050000Y-20320000D03*
X8255000Y-24765000D03*
X34925000Y-14605000D03*
X29210000Y-24765000D03*
X33020000Y-20955000D03*
X20320000Y-30480000D03*
X1270000Y-29845000D03*
X7620000Y-30480000D03*
X13970000Y-30480000D03*
X8890000Y-17145000D03*
X34925000Y-27305000D03*
X22225000Y-17690000D03*
X8255000Y-11684000D03*
X27305000Y-22770000D03*
X1270000Y-27305000D03*
X20254000Y-27305000D03*
X12538946Y-22860000D03*
X15875000Y-24130000D03*
X34925000Y-18415000D03*
X14605000Y-11684000D03*
%TO.N,Net-(USB1-DP1)*%
X5080000Y-22225000D03*
X4445000Y-20320000D03*
%TO.N,Net-(USB1-DN1)*%
X5080000Y-19685000D03*
X4445000Y-21590000D03*
%TO.N,VDD*%
X29845000Y-17145000D03*
X21442589Y-21576327D03*
X33020000Y-24765000D03*
%TO.N,GND1*%
X41275000Y-23495000D03*
X41275000Y-27305000D03*
X67310000Y-17145000D03*
X58420000Y-20955000D03*
X41275000Y-20955000D03*
X67310000Y-26035000D03*
X48260000Y-11684000D03*
X41910000Y-30480000D03*
X48260000Y-30480000D03*
X45720000Y-17145000D03*
X50800000Y-14605000D03*
X41275000Y-14605000D03*
X60960000Y-11684000D03*
X54610000Y-11684000D03*
X67310000Y-29845000D03*
X59055000Y-16510000D03*
X54610000Y-30480000D03*
X59055000Y-25400000D03*
X59055000Y-26670000D03*
X60960000Y-30480000D03*
X41910000Y-11684000D03*
%TO.N,Net-(U3-VBUS)*%
X9525000Y-23495000D03*
X9525000Y-19050000D03*
X13970000Y-20320000D03*
%TO.N,+3V3*%
X44450000Y-15875000D03*
X53975000Y-14605000D03*
X65405000Y-12397500D03*
X45720000Y-24765000D03*
X58420000Y-18955000D03*
%TD*%
D31*
%TO.N,VBUS*%
X22315000Y-22225000D02*
X22479000Y-22389000D01*
D32*
X1905000Y-12397500D02*
X3175000Y-12397500D01*
D33*
X13465000Y-27305000D02*
X15240000Y-27305000D01*
D31*
X22479000Y-22516000D02*
X22606000Y-22516000D01*
X22606000Y-22516000D02*
X22770000Y-22680000D01*
X22315000Y-21730000D02*
X22315000Y-22225000D01*
D33*
X16830000Y-27305000D02*
X15240000Y-27305000D01*
D34*
X20320000Y-24130000D02*
X18730000Y-24130000D01*
D31*
X23265000Y-22680000D02*
X22770000Y-22680000D01*
X22479000Y-22389000D02*
X22479000Y-22516000D01*
%TO.N,GND*%
X24765000Y-20230000D02*
X22225000Y-17690000D01*
D34*
X6585000Y-24250000D02*
X7740000Y-24250000D01*
D31*
X17647500Y-20320000D02*
X19050000Y-20320000D01*
X24765000Y-20230000D02*
X27305000Y-17690000D01*
X24265000Y-19730000D02*
X22315000Y-19730000D01*
X31565000Y-18415000D02*
X34925000Y-18415000D01*
X22315000Y-19730000D02*
X21725000Y-19730000D01*
X30510000Y-24765000D02*
X29210000Y-24765000D01*
D35*
X6225000Y-14272500D02*
X6985000Y-14272500D01*
D34*
X8285000Y-17750000D02*
X6585000Y-17750000D01*
D31*
X24765000Y-20230000D02*
X27305000Y-22770000D01*
X24765000Y-20230000D02*
X24265000Y-19730000D01*
X21725000Y-19730000D02*
X20955000Y-18960000D01*
D34*
X8890000Y-17145000D02*
X8285000Y-17750000D01*
X7740000Y-24250000D02*
X8255000Y-24765000D01*
D35*
X15875000Y-24130000D02*
X16830000Y-24130000D01*
X16830000Y-24130000D02*
X16830000Y-24690603D01*
D31*
%TO.N,Net-(USB1-CC1)*%
X10220000Y-19750000D02*
X10285000Y-19685000D01*
X6585000Y-19750000D02*
X10220000Y-19750000D01*
%TO.N,Net-(USB1-CC2)*%
X6585000Y-22750000D02*
X10175000Y-22750000D01*
X10175000Y-22750000D02*
X10285000Y-22860000D01*
%TO.N,Net-(USB1-DP1)*%
X6585000Y-21750000D02*
X5555000Y-21750000D01*
X5555000Y-21750000D02*
X5080000Y-22225000D01*
X4875000Y-20750000D02*
X6585000Y-20750000D01*
X13650000Y-19370000D02*
X12270000Y-20750000D01*
X4445000Y-20320000D02*
X4875000Y-20750000D01*
X15372500Y-19370000D02*
X13650000Y-19370000D01*
X12270000Y-20750000D02*
X6585000Y-20750000D01*
%TO.N,Net-(USB1-DN1)*%
X5645000Y-20250000D02*
X5080000Y-19685000D01*
X15352500Y-21250000D02*
X15372500Y-21270000D01*
X10090000Y-21250000D02*
X15352500Y-21250000D01*
X9140225Y-21500225D02*
X9140225Y-21500226D01*
X6585000Y-21250000D02*
X8890000Y-21250000D01*
X6585000Y-21250000D02*
X4785000Y-21250000D01*
X9990450Y-21250000D02*
X10090000Y-21250000D01*
X6585000Y-20250000D02*
X5645000Y-20250000D01*
X9740225Y-21500226D02*
X9740225Y-21500225D01*
X4785000Y-21250000D02*
X4445000Y-21590000D01*
X9390450Y-21750451D02*
X9490000Y-21750451D01*
X8890000Y-21250000D02*
G75*
G02*
X9140200Y-21500225I0J-250200D01*
G01*
X9490000Y-21750451D02*
G75*
G03*
X9740251Y-21500226I0J250251D01*
G01*
X9740225Y-21500225D02*
G75*
G02*
X9990450Y-21250025I250175J25D01*
G01*
X9140225Y-21500226D02*
G75*
G03*
X9390450Y-21750375I250175J26D01*
G01*
D35*
%TO.N,Net-(U1-A1)*%
X31625000Y-17145000D02*
X34950000Y-17145000D01*
%TO.N,Net-(U2-A1)*%
X41250000Y-24765000D02*
X43940000Y-24765000D01*
D31*
%TO.N,Net-(U6-D-)*%
X20545000Y-20730000D02*
X20005000Y-21270000D01*
X19225926Y-21449075D02*
X19225926Y-21449074D01*
X18805000Y-21270000D02*
X17647500Y-21270000D01*
X22315000Y-20730000D02*
X20545000Y-20730000D01*
X19646852Y-21628149D02*
X19405000Y-21628149D01*
X19825926Y-21449074D02*
X19825926Y-21449075D01*
X19046852Y-21270000D02*
X18805000Y-21270000D01*
X20005000Y-21270000D02*
G75*
G03*
X19825900Y-21449074I0J-179100D01*
G01*
X19225926Y-21449074D02*
G75*
G03*
X19046852Y-21270074I-179026J-26D01*
G01*
X19825926Y-21449075D02*
G75*
G02*
X19646852Y-21628126I-179026J-25D01*
G01*
X19405000Y-21628149D02*
G75*
G02*
X19225951Y-21449075I0J179049D01*
G01*
%TO.N,Net-(U6-D+)*%
X19884005Y-19249005D02*
X19884005Y-19249004D01*
X19163010Y-19370000D02*
X18805000Y-19370000D01*
X22315000Y-20230000D02*
X20865000Y-20230000D01*
X19284005Y-19249004D02*
X19284005Y-19249005D01*
X19763010Y-19128009D02*
X19405000Y-19128009D01*
X18805000Y-19370000D02*
X17647500Y-19370000D01*
X20865000Y-20230000D02*
X20005000Y-19370000D01*
X19884005Y-19249004D02*
G75*
G03*
X19763010Y-19127995I-121005J4D01*
G01*
X19284005Y-19249005D02*
G75*
G02*
X19163010Y-19370005I-121005J5D01*
G01*
X19405000Y-19128009D02*
G75*
G03*
X19284009Y-19249004I0J-120991D01*
G01*
X20005000Y-19370000D02*
G75*
G02*
X19884000Y-19249005I0J121000D01*
G01*
%TO.N,VDD*%
X21626500Y-21336500D02*
X21463000Y-21500000D01*
D35*
X31470000Y-24765000D02*
X33530000Y-24765000D01*
D31*
X30605000Y-17145000D02*
X29845000Y-17145000D01*
D35*
X31500000Y-23495000D02*
X31500000Y-24735000D01*
D31*
X21463000Y-21500000D02*
X21463000Y-23786000D01*
X21442589Y-21520411D02*
X21626500Y-21336500D01*
X22225000Y-24040000D02*
X21717000Y-24040000D01*
X21733000Y-21230000D02*
X21626500Y-21336500D01*
D32*
X30605000Y-18415000D02*
X30605000Y-17145000D01*
D31*
X21717000Y-24040000D02*
X21463000Y-23786000D01*
X21442589Y-21576327D02*
X21442589Y-21520411D01*
D35*
X33020000Y-24765000D02*
X34950000Y-24765000D01*
X31500000Y-24735000D02*
X31470000Y-24765000D01*
D31*
X22315000Y-21230000D02*
X21733000Y-21230000D01*
%TO.N,Net-(U6-~{RSTb})*%
X23765000Y-23135000D02*
X23765000Y-22680000D01*
X23245000Y-23655000D02*
X23765000Y-23135000D01*
X23245000Y-24040000D02*
X23245000Y-23655000D01*
%TO.N,GND1*%
X59055000Y-26670000D02*
X59690000Y-26670000D01*
X59055000Y-25400000D02*
X59690000Y-25400000D01*
D32*
X58420000Y-20955000D02*
X60145000Y-20955000D01*
D35*
X44910000Y-17145000D02*
X45720000Y-17145000D01*
D31*
X59690000Y-16510000D02*
X59055000Y-16510000D01*
D35*
X41250000Y-19685000D02*
X41250000Y-20930000D01*
X41250000Y-20930000D02*
X41275000Y-20955000D01*
X52027500Y-14605000D02*
X50800000Y-14605000D01*
D34*
%TO.N,Net-(U3-VBUS)*%
X10665000Y-27305000D02*
X10665000Y-24635000D01*
X9025000Y-18550000D02*
X6585000Y-18550000D01*
D31*
X15372500Y-20320000D02*
X13970000Y-20320000D01*
D34*
X9525000Y-19050000D02*
X9025000Y-18550000D01*
X10160000Y-24130000D02*
X9525000Y-23495000D01*
X10665000Y-27305000D02*
X10795000Y-27175000D01*
X9480000Y-23450000D02*
X6585000Y-23450000D01*
X9525000Y-23495000D02*
X9480000Y-23450000D01*
X10665000Y-24635000D02*
X10160000Y-24130000D01*
D31*
%TO.N,~{RXD}*%
X30480000Y-22225000D02*
X31750000Y-22225000D01*
X30480000Y-23495000D02*
X30480000Y-22225000D01*
X31750000Y-22225000D02*
X33020000Y-23495000D01*
X25400000Y-16510000D02*
X27940000Y-16510000D01*
X27940000Y-16510000D02*
X28575000Y-17145000D01*
X28575000Y-20320000D02*
X30480000Y-22225000D01*
X28575000Y-17145000D02*
X28575000Y-20320000D01*
X24765000Y-17145000D02*
X25400000Y-16510000D01*
X33020000Y-23495000D02*
X34950000Y-23495000D01*
X24765000Y-17780000D02*
X24765000Y-17145000D01*
D35*
%TO.N,~{ISO_TXD}*%
X48037500Y-18415000D02*
X44960000Y-18415000D01*
X42545000Y-18415000D02*
X41250000Y-18415000D01*
X43815000Y-19685000D02*
X42545000Y-18415000D01*
X44960000Y-19175000D02*
X44450000Y-19685000D01*
X48037500Y-17145000D02*
X48037500Y-18415000D01*
X44450000Y-19685000D02*
X43815000Y-19685000D01*
X44960000Y-18415000D02*
X44960000Y-19175000D01*
D31*
%TO.N,~{TXD}*%
X24265000Y-17079315D02*
X25234315Y-16110000D01*
X24265000Y-17780000D02*
X24265000Y-17079315D01*
X28105686Y-16110000D02*
X29210000Y-17214314D01*
X25234315Y-16110000D02*
X28105686Y-16110000D01*
X29210000Y-17214314D02*
X29210000Y-18415000D01*
X29210000Y-18415000D02*
X30480000Y-19685000D01*
X30480000Y-19685000D02*
X34950000Y-19685000D01*
D35*
%TO.N,~{ISO_RXD}*%
X45085000Y-22225000D02*
X41250000Y-22225000D01*
X48320000Y-23495000D02*
X46355000Y-23495000D01*
X46355000Y-23495000D02*
X45085000Y-22225000D01*
%TO.N,Net-(U4-Pad12)*%
X52987500Y-19685000D02*
X52987500Y-18415000D01*
X47050000Y-19685000D02*
X52987500Y-19685000D01*
%TO.N,Net-(U4-Pad4)*%
X49530000Y-22225000D02*
X50165000Y-22860000D01*
X50165000Y-24130000D02*
X50800000Y-24765000D01*
X50800000Y-24765000D02*
X52987500Y-24765000D01*
X50165000Y-22860000D02*
X50165000Y-24130000D01*
X48037500Y-22225000D02*
X49530000Y-22225000D01*
X48037500Y-20955000D02*
X48037500Y-22225000D01*
%TO.N,Net-(D1-K)*%
X1905000Y-14272500D02*
X5205000Y-14272500D01*
%TO.N,+3V3*%
X43950000Y-16375000D02*
X43950000Y-17145000D01*
D31*
X60145000Y-16895000D02*
X60530000Y-16510000D01*
D35*
X45720000Y-24765000D02*
X44960000Y-24765000D01*
D32*
X65405000Y-12397500D02*
X66675000Y-12397500D01*
D35*
X41250000Y-17145000D02*
X43950000Y-17145000D01*
D31*
X60145000Y-18955000D02*
X60145000Y-16895000D01*
D35*
X43950000Y-18405000D02*
X43940000Y-18415000D01*
X43950000Y-17145000D02*
X43950000Y-18405000D01*
D32*
X58420000Y-18955000D02*
X60145000Y-18955000D01*
D35*
X53975000Y-14605000D02*
X52987500Y-14605000D01*
X43950000Y-16375000D02*
X44450000Y-15875000D01*
X52987500Y-14605000D02*
X52987500Y-17145000D01*
D32*
%TO.N,OUT_TxD*%
X64315000Y-23950000D02*
X64315000Y-22955000D01*
X54610000Y-20955000D02*
X52987500Y-20955000D01*
D31*
X60530000Y-25400000D02*
X60960000Y-25400000D01*
D32*
X63500000Y-24765000D02*
X60960000Y-24765000D01*
X63500000Y-24765000D02*
X64315000Y-23950000D01*
X58420000Y-24765000D02*
X54610000Y-20955000D01*
X60960000Y-24765000D02*
X58420000Y-24765000D01*
D31*
X60960000Y-25400000D02*
X60960000Y-24765000D01*
D35*
%TO.N,IN_RxD*%
X65405000Y-26035000D02*
X60960000Y-26035000D01*
X66675000Y-21590000D02*
X66675000Y-24765000D01*
X65135000Y-20955000D02*
X66040000Y-20955000D01*
X60960000Y-26035000D02*
X58420000Y-26035000D01*
X54610000Y-22225000D02*
X52987500Y-22225000D01*
D31*
X60960000Y-26670000D02*
X60960000Y-26035000D01*
D35*
X66040000Y-20955000D02*
X66675000Y-21590000D01*
D31*
X60530000Y-26670000D02*
X60960000Y-26670000D01*
D35*
X52987500Y-22225000D02*
X52987500Y-23495000D01*
X58420000Y-26035000D02*
X54610000Y-22225000D01*
X66675000Y-24765000D02*
X65405000Y-26035000D01*
%TO.N,Net-(D2-K)*%
X66675000Y-14272500D02*
X64010000Y-14272500D01*
%TD*%
%TA.AperFunction,Conductor*%
%TO.N,GND1*%
G36*
X68122539Y-11215185D02*
G01*
X68168294Y-11267989D01*
X68179500Y-11319500D01*
X68179500Y-30265894D01*
X68159815Y-30332933D01*
X68154767Y-30340205D01*
X68096813Y-30417622D01*
X68085227Y-30430992D01*
X67895994Y-30620225D01*
X67882624Y-30631811D01*
X67684980Y-30779767D01*
X67619516Y-30804184D01*
X67610669Y-30804500D01*
X41609331Y-30804500D01*
X41542292Y-30784815D01*
X41535020Y-30779767D01*
X41337375Y-30631811D01*
X41324005Y-30620225D01*
X41134774Y-30430994D01*
X41123188Y-30417624D01*
X41009604Y-30265894D01*
X40962802Y-30203375D01*
X40953244Y-30188501D01*
X40824987Y-29953616D01*
X40817638Y-29937524D01*
X40724108Y-29686762D01*
X40719129Y-29669803D01*
X40662241Y-29408291D01*
X40659724Y-29390785D01*
X40640316Y-29119418D01*
X40640000Y-29110572D01*
X40640000Y-25609499D01*
X40659685Y-25542460D01*
X40712489Y-25496705D01*
X40763996Y-25485499D01*
X42281518Y-25485499D01*
X42375304Y-25470646D01*
X42488342Y-25413050D01*
X42549574Y-25351817D01*
X42610895Y-25318334D01*
X42637254Y-25315500D01*
X43359041Y-25315500D01*
X43426080Y-25335185D01*
X43433966Y-25340696D01*
X43537021Y-25418845D01*
X43540078Y-25421163D01*
X43677021Y-25475166D01*
X43763073Y-25485500D01*
X44116926Y-25485499D01*
X44202979Y-25475166D01*
X44339922Y-25421163D01*
X44375075Y-25394504D01*
X44440385Y-25369682D01*
X44508749Y-25384109D01*
X44524917Y-25394499D01*
X44560078Y-25421163D01*
X44697021Y-25475166D01*
X44783073Y-25485500D01*
X45136926Y-25485499D01*
X45222979Y-25475166D01*
X45359922Y-25421163D01*
X45359924Y-25421160D01*
X45367313Y-25417007D01*
X45368346Y-25418845D01*
X45422881Y-25398106D01*
X45469480Y-25404786D01*
X45469636Y-25404157D01*
X45475951Y-25405713D01*
X45476498Y-25405792D01*
X45476913Y-25405949D01*
X45476919Y-25405952D01*
X45637372Y-25445500D01*
X45802628Y-25445500D01*
X45963077Y-25405953D01*
X45963077Y-25405952D01*
X45963081Y-25405952D01*
X46109407Y-25329154D01*
X46233103Y-25219569D01*
X46326978Y-25083567D01*
X46352982Y-25015000D01*
X46770738Y-25015000D01*
X46810153Y-25127645D01*
X46890707Y-25236792D01*
X46999854Y-25317346D01*
X47127897Y-25362149D01*
X47158292Y-25364999D01*
X47787499Y-25364999D01*
X48287500Y-25364999D01*
X48916696Y-25364999D01*
X48947106Y-25362148D01*
X49075145Y-25317346D01*
X49184292Y-25236792D01*
X49264846Y-25127645D01*
X49304262Y-25015000D01*
X48287500Y-25015000D01*
X48287500Y-25364999D01*
X47787499Y-25364999D01*
X47787500Y-25364998D01*
X47787500Y-25015000D01*
X46770738Y-25015000D01*
X46352982Y-25015000D01*
X46385579Y-24929050D01*
X46405498Y-24765000D01*
X46385579Y-24600950D01*
X46326978Y-24446433D01*
X46233103Y-24310431D01*
X46212660Y-24292320D01*
X46176455Y-24260245D01*
X46139329Y-24201055D01*
X46140097Y-24131190D01*
X46178515Y-24072830D01*
X46242386Y-24044506D01*
X46274877Y-24044492D01*
X46282520Y-24045498D01*
X46282525Y-24045500D01*
X46787872Y-24045500D01*
X46854911Y-24065185D01*
X46862794Y-24070694D01*
X46883856Y-24086666D01*
X46893197Y-24093749D01*
X46934721Y-24149941D01*
X46939272Y-24219663D01*
X46905407Y-24280777D01*
X46891910Y-24292320D01*
X46890708Y-24293206D01*
X46810153Y-24402354D01*
X46770738Y-24515000D01*
X49304261Y-24515000D01*
X49264846Y-24402354D01*
X49184291Y-24293206D01*
X49183090Y-24292320D01*
X49182096Y-24291011D01*
X49177722Y-24286637D01*
X49178320Y-24286038D01*
X49140842Y-24236671D01*
X49135386Y-24167014D01*
X49168456Y-24105466D01*
X49181803Y-24093749D01*
X49191144Y-24086666D01*
X49255422Y-24037922D01*
X49346861Y-23917342D01*
X49375145Y-23845616D01*
X49418051Y-23790474D01*
X49483959Y-23767281D01*
X49551943Y-23783401D01*
X49600420Y-23833718D01*
X49614500Y-23891108D01*
X49614500Y-24202475D01*
X49652016Y-24342485D01*
X49724490Y-24468015D01*
X50461986Y-25205510D01*
X50461987Y-25205511D01*
X50461989Y-25205512D01*
X50486337Y-25219569D01*
X50547165Y-25254688D01*
X50587515Y-25277984D01*
X50727525Y-25315500D01*
X50727526Y-25315500D01*
X50872474Y-25315500D01*
X51737872Y-25315500D01*
X51804911Y-25335185D01*
X51812782Y-25340685D01*
X51890158Y-25399361D01*
X52030936Y-25454877D01*
X52119398Y-25465500D01*
X52119403Y-25465500D01*
X53855597Y-25465500D01*
X53855602Y-25465500D01*
X53944064Y-25454877D01*
X54084842Y-25399361D01*
X54205422Y-25307922D01*
X54296861Y-25187342D01*
X54352377Y-25046564D01*
X54363000Y-24958102D01*
X54363000Y-24571898D01*
X54352377Y-24483436D01*
X54296861Y-24342658D01*
X54296860Y-24342657D01*
X54296860Y-24342656D01*
X54205420Y-24222075D01*
X54201026Y-24217681D01*
X54167541Y-24156358D01*
X54172525Y-24086666D01*
X54201026Y-24042319D01*
X54205420Y-24037924D01*
X54219136Y-24019838D01*
X54296861Y-23917342D01*
X54352377Y-23776564D01*
X54363000Y-23688102D01*
X54363000Y-23301898D01*
X54352377Y-23213436D01*
X54296861Y-23072658D01*
X54296860Y-23072657D01*
X54296860Y-23072656D01*
X54222369Y-22974425D01*
X54197546Y-22909114D01*
X54211974Y-22840750D01*
X54261072Y-22791039D01*
X54321173Y-22775500D01*
X54330613Y-22775500D01*
X54397652Y-22795185D01*
X54418294Y-22811819D01*
X58081986Y-26475510D01*
X58207515Y-26547984D01*
X58347525Y-26585500D01*
X58347526Y-26585500D01*
X58492474Y-26585500D01*
X59124099Y-26585500D01*
X59191138Y-26605185D01*
X59236893Y-26657989D01*
X59246837Y-26727147D01*
X59217886Y-26790617D01*
X59214094Y-26795000D01*
X59220265Y-26837360D01*
X59220265Y-26837362D01*
X59273402Y-26946055D01*
X59358945Y-27031598D01*
X59467636Y-27084734D01*
X59538092Y-27094999D01*
X59565000Y-27094998D01*
X59565000Y-26793186D01*
X59533696Y-26735858D01*
X59538680Y-26666166D01*
X59580552Y-26610233D01*
X59646016Y-26585816D01*
X59654862Y-26585500D01*
X59691000Y-26585500D01*
X59758039Y-26605185D01*
X59803794Y-26657989D01*
X59815000Y-26709500D01*
X59815000Y-27094999D01*
X59841902Y-27094999D01*
X59912360Y-27084734D01*
X59963710Y-27059631D01*
X60032583Y-27047871D01*
X60091804Y-27071259D01*
X60193711Y-27146469D01*
X60193714Y-27146470D01*
X60325449Y-27192567D01*
X60356724Y-27195500D01*
X60356728Y-27195500D01*
X60703276Y-27195500D01*
X60728293Y-27193153D01*
X60734549Y-27192567D01*
X60757703Y-27184464D01*
X60777729Y-27177458D01*
X60818683Y-27170500D01*
X61025890Y-27170500D01*
X61025892Y-27170500D01*
X61153186Y-27136392D01*
X61267314Y-27070500D01*
X61360500Y-26977314D01*
X61426392Y-26863186D01*
X61460500Y-26735892D01*
X61460500Y-26709500D01*
X61480185Y-26642461D01*
X61532989Y-26596706D01*
X61584500Y-26585500D01*
X65477472Y-26585500D01*
X65477474Y-26585500D01*
X65477475Y-26585500D01*
X65617485Y-26547984D01*
X65743015Y-26475510D01*
X67115510Y-25103015D01*
X67187984Y-24977485D01*
X67193179Y-24958096D01*
X67202442Y-24923530D01*
X67210881Y-24892031D01*
X67225500Y-24837475D01*
X67225500Y-21517525D01*
X67187984Y-21377515D01*
X67139198Y-21293015D01*
X67115510Y-21251986D01*
X66378015Y-20514490D01*
X66252485Y-20442016D01*
X66252480Y-20442014D01*
X66205772Y-20429498D01*
X66205772Y-20429499D01*
X66140756Y-20412078D01*
X66112475Y-20404500D01*
X66112474Y-20404500D01*
X66104747Y-20404500D01*
X66037708Y-20384815D01*
X65994262Y-20336795D01*
X65990646Y-20329698D01*
X65990646Y-20329696D01*
X65933050Y-20216658D01*
X65933048Y-20216656D01*
X65933045Y-20216652D01*
X65843347Y-20126954D01*
X65843343Y-20126951D01*
X65843342Y-20126950D01*
X65839782Y-20125136D01*
X65722708Y-20065483D01*
X65671913Y-20017509D01*
X65655118Y-19949688D01*
X65677656Y-19883553D01*
X65722710Y-19844514D01*
X65730300Y-19840646D01*
X65730304Y-19840646D01*
X65843342Y-19783050D01*
X65933050Y-19693342D01*
X65990646Y-19580304D01*
X65990646Y-19580302D01*
X65990647Y-19580301D01*
X66005499Y-19486524D01*
X66005500Y-19486519D01*
X66005499Y-18423482D01*
X65990646Y-18329696D01*
X65933050Y-18216658D01*
X65933046Y-18216654D01*
X65933045Y-18216652D01*
X65843347Y-18126954D01*
X65843344Y-18126952D01*
X65843342Y-18126950D01*
X65766517Y-18087805D01*
X65730301Y-18069352D01*
X65636524Y-18054500D01*
X62993482Y-18054500D01*
X62912519Y-18067323D01*
X62899696Y-18069354D01*
X62786658Y-18126950D01*
X62786657Y-18126951D01*
X62786652Y-18126954D01*
X62696954Y-18216652D01*
X62696951Y-18216657D01*
X62639352Y-18329698D01*
X62624500Y-18423475D01*
X62624500Y-19486517D01*
X62635292Y-19554657D01*
X62639354Y-19580304D01*
X62696950Y-19693342D01*
X62696952Y-19693344D01*
X62696954Y-19693347D01*
X62786652Y-19783045D01*
X62786654Y-19783046D01*
X62786658Y-19783050D01*
X62899696Y-19840646D01*
X62899697Y-19840646D01*
X62907290Y-19844515D01*
X62958086Y-19892490D01*
X62974881Y-19960311D01*
X62952343Y-20026446D01*
X62907290Y-20065485D01*
X62899697Y-20069353D01*
X62899696Y-20069354D01*
X62786658Y-20126950D01*
X62786657Y-20126951D01*
X62786652Y-20126954D01*
X62696954Y-20216652D01*
X62696952Y-20216656D01*
X62696950Y-20216658D01*
X62679432Y-20251039D01*
X62639352Y-20329698D01*
X62624500Y-20423475D01*
X62624500Y-21486517D01*
X62630576Y-21524877D01*
X62639354Y-21580304D01*
X62696950Y-21693342D01*
X62696952Y-21693344D01*
X62696954Y-21693347D01*
X62786652Y-21783045D01*
X62786654Y-21783046D01*
X62786658Y-21783050D01*
X62899696Y-21840646D01*
X62899697Y-21840646D01*
X62907290Y-21844515D01*
X62958086Y-21892490D01*
X62974881Y-21960311D01*
X62952343Y-22026446D01*
X62907290Y-22065485D01*
X62899697Y-22069353D01*
X62899696Y-22069354D01*
X62786658Y-22126950D01*
X62786657Y-22126951D01*
X62786652Y-22126954D01*
X62696954Y-22216652D01*
X62696951Y-22216657D01*
X62696950Y-22216658D01*
X62677751Y-22254337D01*
X62639352Y-22329698D01*
X62624500Y-22423475D01*
X62624500Y-23486517D01*
X62635292Y-23554657D01*
X62639354Y-23580304D01*
X62696950Y-23693342D01*
X62696952Y-23693344D01*
X62696954Y-23693347D01*
X62786652Y-23783045D01*
X62786654Y-23783046D01*
X62786658Y-23783050D01*
X62886099Y-23833718D01*
X62899698Y-23840647D01*
X62993475Y-23855499D01*
X62993481Y-23855500D01*
X63366970Y-23855499D01*
X63434008Y-23875183D01*
X63479763Y-23927987D01*
X63489707Y-23997146D01*
X63460682Y-24060701D01*
X63454657Y-24067173D01*
X63318648Y-24203182D01*
X63257328Y-24236666D01*
X63230969Y-24239500D01*
X58689032Y-24239500D01*
X58621993Y-24219815D01*
X58601351Y-24203181D01*
X56821645Y-22423475D01*
X58454500Y-22423475D01*
X58454500Y-23486517D01*
X58465292Y-23554657D01*
X58469354Y-23580304D01*
X58526950Y-23693342D01*
X58526952Y-23693344D01*
X58526954Y-23693347D01*
X58616652Y-23783045D01*
X58616654Y-23783046D01*
X58616658Y-23783050D01*
X58716099Y-23833718D01*
X58729698Y-23840647D01*
X58823475Y-23855499D01*
X58823481Y-23855500D01*
X61466518Y-23855499D01*
X61560304Y-23840646D01*
X61673342Y-23783050D01*
X61763050Y-23693342D01*
X61820646Y-23580304D01*
X61820646Y-23580302D01*
X61820647Y-23580301D01*
X61835499Y-23486524D01*
X61835500Y-23486519D01*
X61835499Y-22423482D01*
X61820646Y-22329696D01*
X61763050Y-22216658D01*
X61763046Y-22216654D01*
X61763045Y-22216652D01*
X61673347Y-22126954D01*
X61673344Y-22126952D01*
X61673342Y-22126950D01*
X61596517Y-22087805D01*
X61560301Y-22069352D01*
X61466524Y-22054500D01*
X58823482Y-22054500D01*
X58742519Y-22067323D01*
X58729696Y-22069354D01*
X58616658Y-22126950D01*
X58616657Y-22126951D01*
X58616652Y-22126954D01*
X58526954Y-22216652D01*
X58526951Y-22216657D01*
X58526950Y-22216658D01*
X58507751Y-22254337D01*
X58469352Y-22329698D01*
X58454500Y-22423475D01*
X56821645Y-22423475D01*
X55897954Y-21499785D01*
X58555001Y-21499785D01*
X58555002Y-21499808D01*
X58557908Y-21524869D01*
X58557909Y-21524873D01*
X58603211Y-21627474D01*
X58603214Y-21627479D01*
X58682520Y-21706785D01*
X58682525Y-21706788D01*
X58785123Y-21752089D01*
X58810206Y-21754999D01*
X59894999Y-21754999D01*
X60395000Y-21754999D01*
X61479786Y-21754999D01*
X61479808Y-21754997D01*
X61504869Y-21752091D01*
X61504873Y-21752090D01*
X61607474Y-21706788D01*
X61607479Y-21706785D01*
X61686785Y-21627479D01*
X61686788Y-21627474D01*
X61732089Y-21524877D01*
X61732089Y-21524875D01*
X61734999Y-21499794D01*
X61735000Y-21499791D01*
X61735000Y-21205000D01*
X60395000Y-21205000D01*
X60395000Y-21754999D01*
X59894999Y-21754999D01*
X59895000Y-21754998D01*
X59895000Y-21205000D01*
X58555001Y-21205000D01*
X58555001Y-21499785D01*
X55897954Y-21499785D01*
X55037575Y-20639406D01*
X55037573Y-20639403D01*
X54932666Y-20534496D01*
X54932661Y-20534492D01*
X54812840Y-20465313D01*
X54784592Y-20457743D01*
X54784591Y-20457743D01*
X54679183Y-20429499D01*
X54540817Y-20429499D01*
X54533221Y-20429499D01*
X54533205Y-20429500D01*
X54302215Y-20429500D01*
X54236504Y-20410205D01*
X58555000Y-20410205D01*
X58555000Y-20705000D01*
X59895000Y-20705000D01*
X60395000Y-20705000D01*
X61734999Y-20705000D01*
X61734999Y-20410214D01*
X61734997Y-20410191D01*
X61732091Y-20385130D01*
X61732090Y-20385126D01*
X61686788Y-20282525D01*
X61686785Y-20282520D01*
X61607479Y-20203214D01*
X61607474Y-20203211D01*
X61504876Y-20157910D01*
X61479794Y-20155000D01*
X60395000Y-20155000D01*
X60395000Y-20705000D01*
X59895000Y-20705000D01*
X59895000Y-20155000D01*
X58810214Y-20155000D01*
X58810191Y-20155002D01*
X58785130Y-20157908D01*
X58785126Y-20157909D01*
X58682525Y-20203211D01*
X58682520Y-20203214D01*
X58603214Y-20282520D01*
X58603211Y-20282525D01*
X58557910Y-20385122D01*
X58557910Y-20385124D01*
X58555000Y-20410205D01*
X54236504Y-20410205D01*
X54235176Y-20409815D01*
X54189421Y-20357011D01*
X54179477Y-20287853D01*
X54203411Y-20230575D01*
X54296860Y-20107343D01*
X54296859Y-20107343D01*
X54296861Y-20107342D01*
X54352377Y-19966564D01*
X54363000Y-19878102D01*
X54363000Y-19491898D01*
X54352377Y-19403436D01*
X54296861Y-19262658D01*
X54296860Y-19262657D01*
X54296860Y-19262656D01*
X54205420Y-19142075D01*
X54201026Y-19137681D01*
X54167541Y-19076358D01*
X54172525Y-19006666D01*
X54201026Y-18962319D01*
X54205420Y-18957924D01*
X54207638Y-18955000D01*
X54207639Y-18954999D01*
X57734502Y-18954999D01*
X57734502Y-18955000D01*
X57754420Y-19119049D01*
X57813023Y-19273569D01*
X57863699Y-19346986D01*
X57906897Y-19409569D01*
X57906899Y-19409571D01*
X57906901Y-19409573D01*
X58030590Y-19519152D01*
X58030591Y-19519152D01*
X58030593Y-19519154D01*
X58176919Y-19595952D01*
X58176921Y-19595952D01*
X58176922Y-19595953D01*
X58337372Y-19635500D01*
X58421745Y-19635500D01*
X58488784Y-19655185D01*
X58522067Y-19686620D01*
X58526953Y-19693346D01*
X58616652Y-19783045D01*
X58616654Y-19783046D01*
X58616658Y-19783050D01*
X58729694Y-19840645D01*
X58729698Y-19840647D01*
X58823475Y-19855499D01*
X58823481Y-19855500D01*
X61466518Y-19855499D01*
X61560304Y-19840646D01*
X61673342Y-19783050D01*
X61763050Y-19693342D01*
X61820646Y-19580304D01*
X61820646Y-19580302D01*
X61820647Y-19580301D01*
X61835499Y-19486524D01*
X61835500Y-19486519D01*
X61835499Y-18423482D01*
X61820646Y-18329696D01*
X61763050Y-18216658D01*
X61763046Y-18216654D01*
X61763045Y-18216652D01*
X61673347Y-18126954D01*
X61673344Y-18126952D01*
X61673342Y-18126950D01*
X61596517Y-18087805D01*
X61560301Y-18069352D01*
X61466524Y-18054500D01*
X61466519Y-18054500D01*
X60769500Y-18054500D01*
X60702461Y-18034815D01*
X60656706Y-17982011D01*
X60645500Y-17930500D01*
X60645500Y-17153675D01*
X60665185Y-17086636D01*
X60681799Y-17066013D01*
X60684832Y-17062980D01*
X60731568Y-17033609D01*
X60734544Y-17032567D01*
X60734549Y-17032567D01*
X60866289Y-16986469D01*
X60978589Y-16903589D01*
X61061469Y-16791289D01*
X61085485Y-16722656D01*
X61107567Y-16659551D01*
X61107567Y-16659549D01*
X61110500Y-16628276D01*
X61110500Y-16391723D01*
X61107567Y-16360450D01*
X61107567Y-16360448D01*
X61061470Y-16228714D01*
X61061469Y-16228711D01*
X61035533Y-16193569D01*
X60978588Y-16116410D01*
X60866294Y-16033534D01*
X60866285Y-16033529D01*
X60734550Y-15987432D01*
X60703276Y-15984500D01*
X60703272Y-15984500D01*
X60356728Y-15984500D01*
X60356724Y-15984500D01*
X60325450Y-15987432D01*
X60325448Y-15987432D01*
X60193714Y-16033529D01*
X60193705Y-16033534D01*
X60091804Y-16108739D01*
X60026175Y-16132709D01*
X59963711Y-16120368D01*
X59912366Y-16095266D01*
X59841895Y-16085000D01*
X59815000Y-16085000D01*
X59815000Y-16465824D01*
X59795315Y-16532863D01*
X59778681Y-16553505D01*
X59738753Y-16593433D01*
X59737552Y-16592232D01*
X59688992Y-16627690D01*
X59647045Y-16635000D01*
X59214095Y-16635000D01*
X59220265Y-16677360D01*
X59220265Y-16677362D01*
X59273402Y-16786055D01*
X59358945Y-16871598D01*
X59467633Y-16924733D01*
X59538376Y-16935039D01*
X59601877Y-16964183D01*
X59639542Y-17023031D01*
X59644500Y-17057744D01*
X59644500Y-17930500D01*
X59624815Y-17997539D01*
X59572011Y-18043294D01*
X59520500Y-18054500D01*
X58823482Y-18054500D01*
X58742519Y-18067323D01*
X58729696Y-18069354D01*
X58616658Y-18126950D01*
X58616657Y-18126951D01*
X58616652Y-18126954D01*
X58526953Y-18216653D01*
X58522067Y-18223380D01*
X58466740Y-18266049D01*
X58421745Y-18274500D01*
X58337372Y-18274500D01*
X58176922Y-18314046D01*
X58030590Y-18390847D01*
X57906901Y-18500426D01*
X57906895Y-18500433D01*
X57813023Y-18636430D01*
X57754420Y-18790950D01*
X57734502Y-18954999D01*
X54207639Y-18954999D01*
X54296861Y-18837342D01*
X54352377Y-18696564D01*
X54363000Y-18608102D01*
X54363000Y-18221898D01*
X54352377Y-18133436D01*
X54296861Y-17992658D01*
X54296860Y-17992657D01*
X54296860Y-17992656D01*
X54205420Y-17872075D01*
X54201026Y-17867681D01*
X54167541Y-17806358D01*
X54172525Y-17736666D01*
X54201026Y-17692319D01*
X54205420Y-17687924D01*
X54296860Y-17567343D01*
X54296859Y-17567343D01*
X54296861Y-17567342D01*
X54352377Y-17426564D01*
X54363000Y-17338102D01*
X54363000Y-16951898D01*
X54352377Y-16863436D01*
X54296861Y-16722658D01*
X54296860Y-16722657D01*
X54296860Y-16722656D01*
X54205422Y-16602077D01*
X54084843Y-16510639D01*
X53971200Y-16465824D01*
X53944064Y-16455123D01*
X53944063Y-16455122D01*
X53944061Y-16455122D01*
X53898426Y-16449642D01*
X53855602Y-16444500D01*
X53855597Y-16444500D01*
X53662000Y-16444500D01*
X53594961Y-16424815D01*
X53560461Y-16385000D01*
X59214094Y-16385000D01*
X59565000Y-16385000D01*
X59565000Y-16084999D01*
X59538103Y-16085000D01*
X59467639Y-16095265D01*
X59358944Y-16148402D01*
X59273401Y-16233945D01*
X59220266Y-16342633D01*
X59214094Y-16385000D01*
X53560461Y-16385000D01*
X53549206Y-16372011D01*
X53538000Y-16320500D01*
X53538000Y-15349296D01*
X53557685Y-15282257D01*
X53610489Y-15236502D01*
X53679647Y-15226558D01*
X53719626Y-15239500D01*
X53731919Y-15245952D01*
X53731918Y-15245952D01*
X53892372Y-15285500D01*
X54057628Y-15285500D01*
X54218077Y-15245953D01*
X54218077Y-15245952D01*
X54218081Y-15245952D01*
X54364407Y-15169154D01*
X54488103Y-15059569D01*
X54581978Y-14923567D01*
X54640579Y-14769050D01*
X54660498Y-14605000D01*
X54657621Y-14581309D01*
X54650481Y-14522500D01*
X62421182Y-14522500D01*
X62422755Y-14539285D01*
X62422755Y-14539287D01*
X62466065Y-14663057D01*
X62466066Y-14663059D01*
X62543934Y-14768565D01*
X62649443Y-14846434D01*
X62649442Y-14846434D01*
X62739999Y-14878120D01*
X62740000Y-14878120D01*
X62740000Y-14522500D01*
X62421182Y-14522500D01*
X54650481Y-14522500D01*
X54640579Y-14440950D01*
X54607982Y-14355000D01*
X54581978Y-14286433D01*
X54488103Y-14150431D01*
X54488100Y-14150428D01*
X54488098Y-14150426D01*
X54364409Y-14040847D01*
X54329450Y-14022499D01*
X62421181Y-14022499D01*
X62421182Y-14022500D01*
X62740000Y-14022500D01*
X62740000Y-13666878D01*
X63240000Y-13666878D01*
X63240000Y-14878120D01*
X63330555Y-14846434D01*
X63342615Y-14837534D01*
X63408243Y-14813561D01*
X63476414Y-14828874D01*
X63491177Y-14838498D01*
X63610075Y-14928661D01*
X63610078Y-14928663D01*
X63747021Y-14982666D01*
X63833073Y-14993000D01*
X64186926Y-14992999D01*
X64272979Y-14982666D01*
X64409922Y-14928663D01*
X64476573Y-14878120D01*
X64516034Y-14848196D01*
X64581345Y-14823373D01*
X64590959Y-14823000D01*
X65580952Y-14823000D01*
X65647991Y-14842685D01*
X65687684Y-14883880D01*
X65705642Y-14914247D01*
X65705651Y-14914258D01*
X65820741Y-15029348D01*
X65820744Y-15029350D01*
X65820747Y-15029353D01*
X65960854Y-15112212D01*
X66002075Y-15124188D01*
X66117161Y-15157624D01*
X66117164Y-15157624D01*
X66117166Y-15157625D01*
X66153696Y-15160500D01*
X66153704Y-15160500D01*
X67196296Y-15160500D01*
X67196304Y-15160500D01*
X67232834Y-15157625D01*
X67232836Y-15157624D01*
X67232838Y-15157624D01*
X67274055Y-15145648D01*
X67389146Y-15112212D01*
X67529253Y-15029353D01*
X67644353Y-14914253D01*
X67727212Y-14774146D01*
X67772625Y-14617834D01*
X67775500Y-14581304D01*
X67775500Y-13963696D01*
X67772625Y-13927166D01*
X67771850Y-13924500D01*
X67727213Y-13770858D01*
X67727212Y-13770855D01*
X67727212Y-13770854D01*
X67644353Y-13630747D01*
X67644350Y-13630744D01*
X67644348Y-13630741D01*
X67529258Y-13515651D01*
X67529250Y-13515645D01*
X67404269Y-13441732D01*
X67356586Y-13390663D01*
X67344082Y-13321921D01*
X67370727Y-13257332D01*
X67404269Y-13228268D01*
X67529253Y-13154353D01*
X67644353Y-13039253D01*
X67727212Y-12899146D01*
X67772625Y-12742834D01*
X67775500Y-12706304D01*
X67775500Y-12088696D01*
X67772625Y-12052166D01*
X67727212Y-11895854D01*
X67644353Y-11755747D01*
X67644350Y-11755744D01*
X67644348Y-11755741D01*
X67529258Y-11640651D01*
X67529254Y-11640648D01*
X67529253Y-11640647D01*
X67389146Y-11557788D01*
X67389145Y-11557787D01*
X67389144Y-11557787D01*
X67389141Y-11557786D01*
X67232838Y-11512375D01*
X67232832Y-11512374D01*
X67196309Y-11509500D01*
X67196304Y-11509500D01*
X66153696Y-11509500D01*
X66153690Y-11509500D01*
X66117167Y-11512374D01*
X66117161Y-11512375D01*
X65960858Y-11557786D01*
X65960855Y-11557787D01*
X65820750Y-11640645D01*
X65820745Y-11640648D01*
X65743073Y-11718320D01*
X65681749Y-11751804D01*
X65625718Y-11751035D01*
X65487629Y-11717000D01*
X65487628Y-11717000D01*
X65322372Y-11717000D01*
X65161922Y-11756546D01*
X65015590Y-11833347D01*
X64891901Y-11942926D01*
X64891895Y-11942933D01*
X64798023Y-12078930D01*
X64739420Y-12233450D01*
X64719502Y-12397499D01*
X64719502Y-12397500D01*
X64739420Y-12561549D01*
X64781609Y-12672791D01*
X64794319Y-12706304D01*
X64798023Y-12716069D01*
X64877178Y-12830745D01*
X64891897Y-12852069D01*
X64891899Y-12852071D01*
X64891901Y-12852073D01*
X65015590Y-12961652D01*
X65015591Y-12961652D01*
X65015593Y-12961654D01*
X65161919Y-13038452D01*
X65161921Y-13038452D01*
X65161922Y-13038453D01*
X65322372Y-13078000D01*
X65487628Y-13078000D01*
X65625717Y-13043964D01*
X65695519Y-13047033D01*
X65743073Y-13076680D01*
X65820741Y-13154348D01*
X65820750Y-13154355D01*
X65945730Y-13228268D01*
X65993414Y-13279337D01*
X66005917Y-13348079D01*
X65979272Y-13412668D01*
X65945730Y-13441732D01*
X65820750Y-13515644D01*
X65820741Y-13515651D01*
X65705651Y-13630741D01*
X65705642Y-13630752D01*
X65687684Y-13661120D01*
X65636616Y-13708804D01*
X65580952Y-13722000D01*
X64590959Y-13722000D01*
X64523920Y-13702315D01*
X64516034Y-13696804D01*
X64409924Y-13616338D01*
X64409922Y-13616337D01*
X64272979Y-13562334D01*
X64272978Y-13562333D01*
X64186927Y-13552000D01*
X63833080Y-13552000D01*
X63747022Y-13562333D01*
X63610077Y-13616337D01*
X63610075Y-13616338D01*
X63491178Y-13706501D01*
X63425867Y-13731324D01*
X63357503Y-13716896D01*
X63342619Y-13707467D01*
X63330559Y-13698566D01*
X63330557Y-13698565D01*
X63240000Y-13666878D01*
X62740000Y-13666878D01*
X62739999Y-13666878D01*
X62649442Y-13698565D01*
X62649440Y-13698566D01*
X62543934Y-13776434D01*
X62466066Y-13881940D01*
X62466065Y-13881942D01*
X62422755Y-14005712D01*
X62422755Y-14005714D01*
X62421181Y-14022499D01*
X54329450Y-14022499D01*
X54218077Y-13964046D01*
X54057628Y-13924500D01*
X53892372Y-13924500D01*
X53731920Y-13964047D01*
X53606105Y-14030080D01*
X53537597Y-14043804D01*
X53473555Y-14019087D01*
X53394894Y-13959437D01*
X53394892Y-13959436D01*
X53256675Y-13904930D01*
X53244266Y-13903440D01*
X53169820Y-13894500D01*
X52805180Y-13894500D01*
X52740039Y-13902322D01*
X52718324Y-13904930D01*
X52580107Y-13959436D01*
X52580105Y-13959437D01*
X52494388Y-14024438D01*
X52429076Y-14049261D01*
X52378508Y-14042675D01*
X52277500Y-14007330D01*
X52277500Y-15202668D01*
X52279642Y-15204189D01*
X52341823Y-15201014D01*
X52402450Y-15235742D01*
X52434678Y-15297735D01*
X52437000Y-15321618D01*
X52437000Y-16320500D01*
X52417315Y-16387539D01*
X52364511Y-16433294D01*
X52313000Y-16444500D01*
X52119398Y-16444500D01*
X52080353Y-16449188D01*
X52030938Y-16455122D01*
X51890156Y-16510639D01*
X51769577Y-16602077D01*
X51678139Y-16722656D01*
X51622622Y-16863438D01*
X51617801Y-16903588D01*
X51612000Y-16951898D01*
X51612000Y-17338102D01*
X51614308Y-17357320D01*
X51622622Y-17426561D01*
X51678139Y-17567343D01*
X51769579Y-17687924D01*
X51773974Y-17692319D01*
X51807459Y-17753642D01*
X51802475Y-17823334D01*
X51773974Y-17867681D01*
X51769579Y-17872075D01*
X51678139Y-17992656D01*
X51622622Y-18133438D01*
X51619123Y-18162583D01*
X51612000Y-18221898D01*
X51612000Y-18608102D01*
X51615402Y-18636430D01*
X51622622Y-18696561D01*
X51678139Y-18837343D01*
X51752631Y-18935575D01*
X51777454Y-19000886D01*
X51763026Y-19069250D01*
X51713928Y-19118961D01*
X51653827Y-19134500D01*
X49371173Y-19134500D01*
X49304134Y-19114815D01*
X49258379Y-19062011D01*
X49248435Y-18992853D01*
X49272369Y-18935575D01*
X49346860Y-18837343D01*
X49346859Y-18837343D01*
X49346861Y-18837342D01*
X49402377Y-18696564D01*
X49413000Y-18608102D01*
X49413000Y-18221898D01*
X49402377Y-18133436D01*
X49346861Y-17992658D01*
X49346860Y-17992657D01*
X49346860Y-17992656D01*
X49255420Y-17872075D01*
X49251026Y-17867681D01*
X49217541Y-17806358D01*
X49222525Y-17736666D01*
X49251026Y-17692319D01*
X49255420Y-17687924D01*
X49346860Y-17567343D01*
X49346859Y-17567343D01*
X49346861Y-17567342D01*
X49402377Y-17426564D01*
X49413000Y-17338102D01*
X49413000Y-16951898D01*
X49402377Y-16863436D01*
X49346861Y-16722658D01*
X49346860Y-16722657D01*
X49346860Y-16722656D01*
X49255422Y-16602077D01*
X49134843Y-16510639D01*
X49021200Y-16465824D01*
X48994064Y-16455123D01*
X48994063Y-16455122D01*
X48994061Y-16455122D01*
X48948426Y-16449642D01*
X48905602Y-16444500D01*
X47169398Y-16444500D01*
X47130353Y-16449188D01*
X47080938Y-16455122D01*
X46940156Y-16510639D01*
X46819577Y-16602077D01*
X46728139Y-16722656D01*
X46672622Y-16863438D01*
X46667801Y-16903588D01*
X46662000Y-16951898D01*
X46662000Y-17338102D01*
X46664308Y-17357320D01*
X46672622Y-17426561D01*
X46728139Y-17567343D01*
X46802631Y-17665575D01*
X46827454Y-17730886D01*
X46813026Y-17799250D01*
X46763928Y-17848961D01*
X46703827Y-17864500D01*
X45540959Y-17864500D01*
X45473920Y-17844815D01*
X45466034Y-17839304D01*
X45399339Y-17788728D01*
X45357816Y-17732536D01*
X45353264Y-17662815D01*
X45374494Y-17616289D01*
X45443406Y-17522917D01*
X45487212Y-17397727D01*
X45487213Y-17397725D01*
X45487469Y-17395000D01*
X44784000Y-17395000D01*
X44716961Y-17375315D01*
X44671206Y-17322511D01*
X44660000Y-17271000D01*
X44660000Y-17019000D01*
X44679685Y-16951961D01*
X44732489Y-16906206D01*
X44784000Y-16895000D01*
X45487467Y-16895000D01*
X45487212Y-16892270D01*
X45443405Y-16767080D01*
X45364641Y-16660358D01*
X45257919Y-16581594D01*
X45132732Y-16537788D01*
X45132720Y-16537786D01*
X45103007Y-16535000D01*
X45056623Y-16535000D01*
X44989584Y-16515315D01*
X44943829Y-16462511D01*
X44933885Y-16393353D01*
X44959870Y-16336452D01*
X44958842Y-16335742D01*
X44962840Y-16329949D01*
X44962910Y-16329797D01*
X44963076Y-16329606D01*
X44963099Y-16329572D01*
X44963103Y-16329569D01*
X45056978Y-16193567D01*
X45115579Y-16039050D01*
X45135498Y-15875000D01*
X45115579Y-15710950D01*
X45056978Y-15556433D01*
X44963103Y-15420431D01*
X44963100Y-15420428D01*
X44963098Y-15420426D01*
X44839409Y-15310847D01*
X44697757Y-15236502D01*
X44693081Y-15234048D01*
X44693080Y-15234047D01*
X44693077Y-15234046D01*
X44532628Y-15194500D01*
X44367372Y-15194500D01*
X44206922Y-15234046D01*
X44060590Y-15310847D01*
X43936901Y-15420426D01*
X43936895Y-15420433D01*
X43843023Y-15556430D01*
X43784421Y-15710949D01*
X43784419Y-15710958D01*
X43782514Y-15726643D01*
X43754890Y-15790820D01*
X43747101Y-15799373D01*
X43509488Y-16036986D01*
X43481769Y-16084999D01*
X43468064Y-16108739D01*
X43463635Y-16116410D01*
X43463634Y-16116411D01*
X43437017Y-16162512D01*
X43437016Y-16162513D01*
X43428695Y-16193569D01*
X43399500Y-16302525D01*
X43399500Y-16302527D01*
X43399500Y-16470500D01*
X43379815Y-16537539D01*
X43327011Y-16583294D01*
X43275500Y-16594500D01*
X42637254Y-16594500D01*
X42570215Y-16574815D01*
X42549577Y-16558185D01*
X42488342Y-16496950D01*
X42420752Y-16462511D01*
X42375301Y-16439352D01*
X42281524Y-16424500D01*
X40764000Y-16424500D01*
X40696961Y-16404815D01*
X40651206Y-16352011D01*
X40640000Y-16300500D01*
X40640000Y-14855000D01*
X51450032Y-14855000D01*
X51450287Y-14857729D01*
X51494094Y-14982919D01*
X51572858Y-15089641D01*
X51679577Y-15168403D01*
X51777500Y-15202668D01*
X51777500Y-14855000D01*
X51450032Y-14855000D01*
X40640000Y-14855000D01*
X40640000Y-14354999D01*
X51450030Y-14354999D01*
X51450031Y-14355000D01*
X51777500Y-14355000D01*
X51777500Y-14007330D01*
X51777499Y-14007330D01*
X51679579Y-14041594D01*
X51572858Y-14120358D01*
X51494094Y-14227080D01*
X51450287Y-14352272D01*
X51450286Y-14352274D01*
X51450030Y-14354999D01*
X40640000Y-14354999D01*
X40640000Y-13053427D01*
X40640316Y-13044581D01*
X40659724Y-12773214D01*
X40662240Y-12755710D01*
X40719130Y-12494192D01*
X40724107Y-12477241D01*
X40817640Y-12226470D01*
X40824985Y-12210388D01*
X40953248Y-11975491D01*
X40962798Y-11960630D01*
X41123195Y-11746366D01*
X41134767Y-11733012D01*
X41324012Y-11543767D01*
X41337366Y-11532195D01*
X41551630Y-11371798D01*
X41566491Y-11362248D01*
X41801394Y-11233981D01*
X41817474Y-11226638D01*
X41848183Y-11215185D01*
X41880001Y-11203318D01*
X41923333Y-11195500D01*
X68055500Y-11195500D01*
X68122539Y-11215185D01*
G37*
%TD.AperFunction*%
%TA.AperFunction,Conductor*%
G36*
X44872652Y-22795185D02*
G01*
X44893294Y-22811819D01*
X45970298Y-23888823D01*
X46003783Y-23950146D01*
X45998799Y-24019838D01*
X45956927Y-24075771D01*
X45891463Y-24100188D01*
X45852943Y-24096901D01*
X45802629Y-24084500D01*
X45802628Y-24084500D01*
X45637372Y-24084500D01*
X45476915Y-24124048D01*
X45476485Y-24124212D01*
X45476147Y-24124237D01*
X45469636Y-24125843D01*
X45469369Y-24124759D01*
X45406821Y-24129576D01*
X45367979Y-24111817D01*
X45367317Y-24112995D01*
X45359924Y-24108838D01*
X45359922Y-24108837D01*
X45222979Y-24054834D01*
X45222978Y-24054833D01*
X45136927Y-24044500D01*
X44783080Y-24044500D01*
X44697022Y-24054833D01*
X44560077Y-24108837D01*
X44560076Y-24108838D01*
X44524924Y-24135494D01*
X44459612Y-24160316D01*
X44391248Y-24145887D01*
X44375076Y-24135494D01*
X44339923Y-24108838D01*
X44339924Y-24108838D01*
X44339922Y-24108837D01*
X44202979Y-24054834D01*
X44202978Y-24054833D01*
X44116927Y-24044500D01*
X43763080Y-24044500D01*
X43677022Y-24054833D01*
X43540077Y-24108837D01*
X43540075Y-24108838D01*
X43433966Y-24189304D01*
X43368655Y-24214127D01*
X43359041Y-24214500D01*
X42637254Y-24214500D01*
X42570215Y-24194815D01*
X42549577Y-24178185D01*
X42488342Y-24116950D01*
X42407524Y-24075771D01*
X42375301Y-24059352D01*
X42281524Y-24044500D01*
X40764000Y-24044500D01*
X40696961Y-24024815D01*
X40651206Y-23972011D01*
X40640000Y-23920500D01*
X40640000Y-23069499D01*
X40659685Y-23002460D01*
X40712489Y-22956705D01*
X40763996Y-22945499D01*
X42281518Y-22945499D01*
X42375304Y-22930646D01*
X42488342Y-22873050D01*
X42549574Y-22811817D01*
X42610895Y-22778334D01*
X42637254Y-22775500D01*
X44805613Y-22775500D01*
X44872652Y-22795185D01*
G37*
%TD.AperFunction*%
%TA.AperFunction,Conductor*%
G36*
X46770867Y-18985185D02*
G01*
X46816622Y-19037989D01*
X46826566Y-19107147D01*
X46802629Y-19164427D01*
X46792904Y-19177252D01*
X46780347Y-19193810D01*
X46743549Y-19226267D01*
X46711983Y-19244492D01*
X46609490Y-19346986D01*
X46609488Y-19346988D01*
X46537017Y-19472511D01*
X46537016Y-19472515D01*
X46499500Y-19612525D01*
X46499500Y-19757475D01*
X46533283Y-19883553D01*
X46537017Y-19897488D01*
X46609488Y-20023011D01*
X46609490Y-20023013D01*
X46609491Y-20023015D01*
X46711985Y-20125509D01*
X46711986Y-20125510D01*
X46711988Y-20125511D01*
X46743546Y-20143731D01*
X46780350Y-20176193D01*
X46819578Y-20227923D01*
X46823974Y-20232319D01*
X46857459Y-20293642D01*
X46852475Y-20363334D01*
X46823974Y-20407681D01*
X46819579Y-20412075D01*
X46728139Y-20532656D01*
X46672622Y-20673438D01*
X46666688Y-20722853D01*
X46662000Y-20761898D01*
X46662000Y-21148102D01*
X46667626Y-21194954D01*
X46672622Y-21236561D01*
X46728139Y-21377343D01*
X46819579Y-21497924D01*
X46823974Y-21502319D01*
X46857459Y-21563642D01*
X46852475Y-21633334D01*
X46823974Y-21677681D01*
X46819579Y-21682075D01*
X46728139Y-21802656D01*
X46672622Y-21943438D01*
X46666688Y-21992853D01*
X46662000Y-22031898D01*
X46662000Y-22418102D01*
X46667626Y-22464954D01*
X46672622Y-22506561D01*
X46728139Y-22647343D01*
X46802631Y-22745575D01*
X46827454Y-22810886D01*
X46813026Y-22879250D01*
X46763928Y-22928961D01*
X46703827Y-22944500D01*
X46634387Y-22944500D01*
X46567348Y-22924815D01*
X46546706Y-22908181D01*
X45423016Y-21784491D01*
X45423015Y-21784490D01*
X45297485Y-21712016D01*
X45227793Y-21693342D01*
X45227792Y-21693341D01*
X45157475Y-21674500D01*
X42637254Y-21674500D01*
X42570215Y-21654815D01*
X42549577Y-21638185D01*
X42488342Y-21576950D01*
X42430702Y-21547580D01*
X42375301Y-21519352D01*
X42281524Y-21504500D01*
X40764000Y-21504500D01*
X40696961Y-21484815D01*
X40651206Y-21432011D01*
X40640000Y-21380500D01*
X40640000Y-20428999D01*
X40659685Y-20361960D01*
X40712489Y-20316205D01*
X40764000Y-20304999D01*
X41000000Y-20304999D01*
X41500000Y-20304999D01*
X42294786Y-20304999D01*
X42294808Y-20304997D01*
X42319869Y-20302091D01*
X42319873Y-20302090D01*
X42422474Y-20256788D01*
X42422479Y-20256785D01*
X42501785Y-20177479D01*
X42501788Y-20177474D01*
X42547089Y-20074877D01*
X42547089Y-20074875D01*
X42549999Y-20049794D01*
X42550000Y-20049791D01*
X42550000Y-19935000D01*
X41500000Y-19935000D01*
X41500000Y-20304999D01*
X41000000Y-20304999D01*
X41000000Y-19559000D01*
X41019685Y-19491961D01*
X41072489Y-19446206D01*
X41124000Y-19435000D01*
X42549999Y-19435000D01*
X42580556Y-19404443D01*
X42641879Y-19370958D01*
X42711571Y-19375942D01*
X42755918Y-19404443D01*
X43476985Y-20125510D01*
X43602515Y-20197984D01*
X43742525Y-20235500D01*
X43742528Y-20235500D01*
X44522472Y-20235500D01*
X44522474Y-20235500D01*
X44522475Y-20235500D01*
X44662485Y-20197984D01*
X44788015Y-20125510D01*
X45400510Y-19513015D01*
X45472984Y-19387485D01*
X45476425Y-19374643D01*
X45483837Y-19346984D01*
X45493595Y-19310561D01*
X45510500Y-19247475D01*
X45510500Y-19089500D01*
X45530185Y-19022461D01*
X45582989Y-18976706D01*
X45634500Y-18965500D01*
X46703828Y-18965500D01*
X46770867Y-18985185D01*
G37*
%TD.AperFunction*%
%TD*%
%TA.AperFunction,Conductor*%
%TO.N,GND*%
G36*
X34320000Y-11203318D02*
G01*
X34348222Y-11213844D01*
X34382525Y-11226638D01*
X34398610Y-11233984D01*
X34633501Y-11362244D01*
X34648375Y-11371802D01*
X34836157Y-11512375D01*
X34862624Y-11532188D01*
X34875994Y-11543774D01*
X35065225Y-11733005D01*
X35076811Y-11746375D01*
X35237193Y-11960619D01*
X35246758Y-11975503D01*
X35375011Y-12210382D01*
X35382361Y-12226475D01*
X35475888Y-12477229D01*
X35480872Y-12494205D01*
X35537757Y-12755702D01*
X35540275Y-12773214D01*
X35559684Y-13044581D01*
X35560000Y-13053427D01*
X35560000Y-16300500D01*
X35540315Y-16367539D01*
X35487511Y-16413294D01*
X35436000Y-16424500D01*
X33918482Y-16424500D01*
X33837519Y-16437323D01*
X33824696Y-16439354D01*
X33711658Y-16496950D01*
X33711657Y-16496951D01*
X33711656Y-16496951D01*
X33693114Y-16515494D01*
X33650425Y-16558182D01*
X33589105Y-16591666D01*
X33562746Y-16594500D01*
X32205959Y-16594500D01*
X32138920Y-16574815D01*
X32131034Y-16569304D01*
X32024924Y-16488838D01*
X32024922Y-16488837D01*
X31887979Y-16434834D01*
X31887978Y-16434833D01*
X31801927Y-16424500D01*
X31448080Y-16424500D01*
X31362022Y-16434833D01*
X31225077Y-16488837D01*
X31225076Y-16488838D01*
X31189924Y-16515494D01*
X31124612Y-16540316D01*
X31056248Y-16525887D01*
X31040076Y-16515494D01*
X31012566Y-16494633D01*
X31004923Y-16488838D01*
X31004924Y-16488838D01*
X31004922Y-16488837D01*
X30867979Y-16434834D01*
X30867978Y-16434833D01*
X30781927Y-16424500D01*
X30428080Y-16424500D01*
X30342022Y-16434833D01*
X30205077Y-16488837D01*
X30197687Y-16492993D01*
X30196656Y-16491160D01*
X30142078Y-16511896D01*
X30095518Y-16505215D01*
X30095364Y-16505843D01*
X30089058Y-16504288D01*
X30088509Y-16504210D01*
X30088082Y-16504048D01*
X29927628Y-16464500D01*
X29762372Y-16464500D01*
X29601922Y-16504046D01*
X29455590Y-16580847D01*
X29452155Y-16583891D01*
X29388920Y-16613609D01*
X29319657Y-16604421D01*
X29282252Y-16578752D01*
X28413002Y-15709502D01*
X28413000Y-15709500D01*
X28355936Y-15676554D01*
X28298873Y-15643608D01*
X28235225Y-15626554D01*
X28171578Y-15609500D01*
X25300207Y-15609500D01*
X25168422Y-15609500D01*
X25041127Y-15643608D01*
X24927001Y-15709500D01*
X24926998Y-15709502D01*
X23864502Y-16771998D01*
X23864498Y-16772004D01*
X23798609Y-16886126D01*
X23798608Y-16886128D01*
X23798215Y-16887597D01*
X23797545Y-16888695D01*
X23795500Y-16893634D01*
X23794729Y-16893314D01*
X23761848Y-16947257D01*
X23699000Y-16977784D01*
X23678441Y-16979500D01*
X23646724Y-16979500D01*
X23615455Y-16982432D01*
X23615448Y-16982433D01*
X23555953Y-17003251D01*
X23486174Y-17006812D01*
X23474047Y-17003251D01*
X23414551Y-16982433D01*
X23414544Y-16982432D01*
X23383276Y-16979500D01*
X23383272Y-16979500D01*
X23146728Y-16979500D01*
X23146724Y-16979500D01*
X23115450Y-16982432D01*
X23115448Y-16982432D01*
X22983714Y-17028529D01*
X22983705Y-17028534D01*
X22871411Y-17111410D01*
X22871410Y-17111411D01*
X22788534Y-17223705D01*
X22788529Y-17223714D01*
X22742432Y-17355448D01*
X22742432Y-17355450D01*
X22739500Y-17386723D01*
X22739500Y-18080500D01*
X22719815Y-18147539D01*
X22667011Y-18193294D01*
X22615500Y-18204500D01*
X21921724Y-18204500D01*
X21890450Y-18207432D01*
X21890448Y-18207432D01*
X21758714Y-18253529D01*
X21758705Y-18253534D01*
X21646411Y-18336410D01*
X21646410Y-18336411D01*
X21563534Y-18448705D01*
X21563529Y-18448714D01*
X21517432Y-18580448D01*
X21517432Y-18580450D01*
X21514500Y-18611723D01*
X21514500Y-18848276D01*
X21517432Y-18879544D01*
X21517433Y-18879551D01*
X21538251Y-18939047D01*
X21541812Y-19008826D01*
X21538251Y-19020953D01*
X21517433Y-19080448D01*
X21517432Y-19080455D01*
X21514500Y-19111723D01*
X21514500Y-19348276D01*
X21517432Y-19379549D01*
X21517432Y-19379551D01*
X21563529Y-19511285D01*
X21563530Y-19511287D01*
X21563531Y-19511289D01*
X21563534Y-19511293D01*
X21578718Y-19531868D01*
X21602688Y-19597497D01*
X21587372Y-19665667D01*
X21537631Y-19714734D01*
X21478947Y-19729500D01*
X21123676Y-19729500D01*
X21056637Y-19709815D01*
X21035995Y-19693181D01*
X20338574Y-18995760D01*
X20314533Y-18961876D01*
X20292579Y-18916281D01*
X20292578Y-18916280D01*
X20292578Y-18916279D01*
X20205269Y-18806786D01*
X20205264Y-18806782D01*
X20095780Y-18719460D01*
X20095739Y-18719440D01*
X19969605Y-18658687D01*
X19833079Y-18627515D01*
X19833077Y-18627514D01*
X19833074Y-18627514D01*
X19833069Y-18627513D01*
X19833025Y-18627509D01*
X19828902Y-18627509D01*
X19763051Y-18627509D01*
X19763023Y-18627508D01*
X19688953Y-18627502D01*
X19688849Y-18627509D01*
X19456366Y-18627509D01*
X19456352Y-18627505D01*
X19405000Y-18627505D01*
X19334973Y-18627505D01*
X19334969Y-18627505D01*
X19198426Y-18658671D01*
X19072249Y-18719436D01*
X19072243Y-18719440D01*
X18962752Y-18806759D01*
X18962748Y-18806763D01*
X18949950Y-18822812D01*
X18892762Y-18862953D01*
X18853002Y-18869500D01*
X18646680Y-18869500D01*
X18579641Y-18849815D01*
X18560200Y-18831786D01*
X18558915Y-18833072D01*
X18552925Y-18827082D01*
X18552922Y-18827078D01*
X18552917Y-18827074D01*
X18432343Y-18735639D01*
X18305199Y-18685500D01*
X18291564Y-18680123D01*
X18291563Y-18680122D01*
X18291561Y-18680122D01*
X18245926Y-18674642D01*
X18203102Y-18669500D01*
X17091898Y-18669500D01*
X17052853Y-18674188D01*
X17003438Y-18680122D01*
X16862656Y-18735639D01*
X16742077Y-18827077D01*
X16650638Y-18947658D01*
X16650637Y-18947660D01*
X16625354Y-19011774D01*
X16582449Y-19066918D01*
X16516541Y-19090111D01*
X16448556Y-19073990D01*
X16400080Y-19023673D01*
X16394646Y-19011774D01*
X16369362Y-18947660D01*
X16369361Y-18947658D01*
X16277922Y-18827077D01*
X16157343Y-18735639D01*
X16030199Y-18685500D01*
X16016564Y-18680123D01*
X16016563Y-18680122D01*
X16016561Y-18680122D01*
X15970926Y-18674642D01*
X15928102Y-18669500D01*
X14816898Y-18669500D01*
X14777853Y-18674188D01*
X14728438Y-18680122D01*
X14587656Y-18735639D01*
X14467082Y-18827074D01*
X14461085Y-18833072D01*
X14458473Y-18830460D01*
X14416198Y-18861851D01*
X14373320Y-18869500D01*
X13584108Y-18869500D01*
X13456812Y-18903608D01*
X13342686Y-18969500D01*
X13342683Y-18969502D01*
X12099005Y-20213181D01*
X12037682Y-20246666D01*
X12011324Y-20249500D01*
X11942792Y-20249500D01*
X11875753Y-20229815D01*
X11829998Y-20177011D01*
X11820054Y-20107853D01*
X11827511Y-20084905D01*
X11825865Y-20084329D01*
X11872244Y-19951787D01*
X11872244Y-19951785D01*
X11873818Y-19935000D01*
X11179000Y-19935000D01*
X11111961Y-19915315D01*
X11066206Y-19862511D01*
X11055000Y-19811000D01*
X11055000Y-19435000D01*
X11555000Y-19435000D01*
X11873818Y-19435000D01*
X11873818Y-19434999D01*
X11872244Y-19418214D01*
X11872244Y-19418212D01*
X11828934Y-19294442D01*
X11828933Y-19294440D01*
X11751065Y-19188934D01*
X11645559Y-19111066D01*
X11645557Y-19111065D01*
X11555000Y-19079378D01*
X11555000Y-19435000D01*
X11055000Y-19435000D01*
X11055000Y-19079378D01*
X11054999Y-19079378D01*
X10964442Y-19111065D01*
X10964438Y-19111067D01*
X10952377Y-19119969D01*
X10886748Y-19143939D01*
X10818578Y-19128621D01*
X10803821Y-19119001D01*
X10735139Y-19066918D01*
X10684923Y-19028838D01*
X10684924Y-19028838D01*
X10684922Y-19028837D01*
X10547979Y-18974834D01*
X10547978Y-18974833D01*
X10461928Y-18964500D01*
X10461927Y-18964500D01*
X10305960Y-18964500D01*
X10238921Y-18944815D01*
X10193166Y-18892011D01*
X10190018Y-18884471D01*
X10188151Y-18879547D01*
X10131978Y-18731433D01*
X10038103Y-18595431D01*
X10038100Y-18595428D01*
X10038098Y-18595426D01*
X9914408Y-18485846D01*
X9871571Y-18463364D01*
X9860371Y-18457485D01*
X9830317Y-18435371D01*
X9439674Y-18044727D01*
X9439673Y-18044726D01*
X9428230Y-18037080D01*
X9333127Y-17973535D01*
X9214744Y-17924499D01*
X9214738Y-17924497D01*
X9089071Y-17899500D01*
X9089069Y-17899500D01*
X7534052Y-17899500D01*
X7477758Y-17885985D01*
X7435301Y-17864352D01*
X7341524Y-17849500D01*
X6459000Y-17849500D01*
X6391961Y-17829815D01*
X6346206Y-17777011D01*
X6335000Y-17725500D01*
X6335000Y-17624000D01*
X6354685Y-17556961D01*
X6407489Y-17511206D01*
X6459000Y-17500000D01*
X7609999Y-17500000D01*
X7609999Y-17405214D01*
X7609997Y-17405191D01*
X7607091Y-17380130D01*
X7607090Y-17380126D01*
X7561788Y-17277525D01*
X7561785Y-17277520D01*
X7482479Y-17198214D01*
X7482474Y-17198211D01*
X7379876Y-17152910D01*
X7354794Y-17150000D01*
X7076813Y-17150000D01*
X7009774Y-17130315D01*
X6964019Y-17077511D01*
X6954075Y-17008353D01*
X6962252Y-16978547D01*
X6982361Y-16930000D01*
X6386988Y-16930000D01*
X6404205Y-16920060D01*
X6460060Y-16864205D01*
X6499556Y-16795796D01*
X6520000Y-16719496D01*
X6520000Y-16640504D01*
X6499556Y-16564204D01*
X6460060Y-16495795D01*
X6404205Y-16439940D01*
X6386988Y-16430000D01*
X6982361Y-16430000D01*
X6982360Y-16429999D01*
X6928952Y-16301061D01*
X6928947Y-16301051D01*
X6841401Y-16170030D01*
X6841398Y-16170026D01*
X6729973Y-16058601D01*
X6729969Y-16058598D01*
X6598948Y-15971052D01*
X6598939Y-15971047D01*
X6453351Y-15910743D01*
X6453343Y-15910741D01*
X6298797Y-15880000D01*
X5920000Y-15880000D01*
X5920000Y-16380000D01*
X5420000Y-16380000D01*
X5420000Y-15880000D01*
X5041202Y-15880000D01*
X4886656Y-15910741D01*
X4886648Y-15910743D01*
X4741060Y-15971047D01*
X4741051Y-15971052D01*
X4610030Y-16058598D01*
X4610026Y-16058601D01*
X4498601Y-16170026D01*
X4498598Y-16170030D01*
X4411052Y-16301051D01*
X4411047Y-16301061D01*
X4357639Y-16429999D01*
X4357639Y-16430000D01*
X4953012Y-16430000D01*
X4935795Y-16439940D01*
X4879940Y-16495795D01*
X4840444Y-16564204D01*
X4820000Y-16640504D01*
X4820000Y-16719496D01*
X4840444Y-16795796D01*
X4879940Y-16864205D01*
X4935795Y-16920060D01*
X4953012Y-16930000D01*
X4357639Y-16930000D01*
X4411047Y-17058938D01*
X4411052Y-17058948D01*
X4498598Y-17189969D01*
X4498601Y-17189973D01*
X4610026Y-17301398D01*
X4610030Y-17301401D01*
X4741051Y-17388947D01*
X4741064Y-17388954D01*
X4798038Y-17412553D01*
X4852442Y-17456393D01*
X4874507Y-17522687D01*
X4857228Y-17590387D01*
X4812589Y-17634499D01*
X4786641Y-17649481D01*
X4786632Y-17649487D01*
X4679487Y-17756632D01*
X4679485Y-17756635D01*
X4603719Y-17887863D01*
X4564500Y-18034234D01*
X4564500Y-18185766D01*
X4574198Y-18221961D01*
X4603719Y-18332136D01*
X4641602Y-18397750D01*
X4679485Y-18463365D01*
X4786635Y-18570515D01*
X4917865Y-18646281D01*
X5064234Y-18685500D01*
X5064236Y-18685500D01*
X5215763Y-18685500D01*
X5215766Y-18685500D01*
X5303410Y-18662016D01*
X5373256Y-18663679D01*
X5431119Y-18702841D01*
X5458623Y-18767070D01*
X5459500Y-18781790D01*
X5459500Y-18881518D01*
X5462609Y-18901145D01*
X5453652Y-18970438D01*
X5408655Y-19023889D01*
X5341903Y-19044527D01*
X5310460Y-19040937D01*
X5162628Y-19004500D01*
X4997372Y-19004500D01*
X4836922Y-19044046D01*
X4690590Y-19120847D01*
X4566901Y-19230426D01*
X4566895Y-19230433D01*
X4473023Y-19366430D01*
X4414420Y-19520950D01*
X4411505Y-19544965D01*
X4383883Y-19609143D01*
X4325949Y-19648199D01*
X4318085Y-19650415D01*
X4201922Y-19679047D01*
X4201921Y-19679047D01*
X4201919Y-19679048D01*
X4143298Y-19709815D01*
X4055590Y-19755847D01*
X3931901Y-19865426D01*
X3931895Y-19865433D01*
X3838023Y-20001430D01*
X3779420Y-20155950D01*
X3759502Y-20319999D01*
X3759502Y-20320000D01*
X3779420Y-20484049D01*
X3838023Y-20638569D01*
X3909652Y-20742342D01*
X3931897Y-20774569D01*
X3931899Y-20774571D01*
X3931901Y-20774573D01*
X4030794Y-20862185D01*
X4067921Y-20921374D01*
X4067153Y-20991240D01*
X4030794Y-21047815D01*
X3931901Y-21135426D01*
X3931895Y-21135433D01*
X3838023Y-21271430D01*
X3779420Y-21425950D01*
X3759502Y-21589999D01*
X3759502Y-21590000D01*
X3779420Y-21754049D01*
X3818029Y-21855850D01*
X3837356Y-21906812D01*
X3838023Y-21908569D01*
X3880771Y-21970500D01*
X3931897Y-22044569D01*
X3931899Y-22044571D01*
X3931901Y-22044573D01*
X4055590Y-22154152D01*
X4055591Y-22154152D01*
X4055593Y-22154154D01*
X4201919Y-22230952D01*
X4201921Y-22230952D01*
X4201922Y-22230953D01*
X4318084Y-22259584D01*
X4378465Y-22294740D01*
X4410253Y-22356960D01*
X4411505Y-22365035D01*
X4414420Y-22389049D01*
X4473023Y-22543569D01*
X4518877Y-22610000D01*
X4566897Y-22679569D01*
X4566899Y-22679571D01*
X4566901Y-22679573D01*
X4690590Y-22789152D01*
X4690591Y-22789152D01*
X4690593Y-22789154D01*
X4836919Y-22865952D01*
X4836921Y-22865952D01*
X4836922Y-22865953D01*
X4997372Y-22905500D01*
X5162628Y-22905500D01*
X5313343Y-22868352D01*
X5383145Y-22871421D01*
X5440207Y-22911741D01*
X5465491Y-22969352D01*
X5471232Y-23005600D01*
X5471233Y-23044393D01*
X5459500Y-23118480D01*
X5459500Y-23218208D01*
X5439815Y-23285247D01*
X5387011Y-23331002D01*
X5317853Y-23340946D01*
X5303407Y-23337983D01*
X5272994Y-23329834D01*
X5215766Y-23314500D01*
X5064234Y-23314500D01*
X4917863Y-23353719D01*
X4786635Y-23429485D01*
X4786632Y-23429487D01*
X4679487Y-23536632D01*
X4679485Y-23536635D01*
X4603719Y-23667863D01*
X4589233Y-23721927D01*
X4564500Y-23814234D01*
X4564500Y-23965766D01*
X4568096Y-23979186D01*
X4603719Y-24112136D01*
X4625869Y-24150500D01*
X4679485Y-24243365D01*
X4786635Y-24350515D01*
X4812587Y-24365499D01*
X4860802Y-24416065D01*
X4874024Y-24484673D01*
X4848056Y-24549537D01*
X4798040Y-24587446D01*
X4741057Y-24611049D01*
X4741051Y-24611052D01*
X4610030Y-24698598D01*
X4610026Y-24698601D01*
X4498601Y-24810026D01*
X4498598Y-24810030D01*
X4411052Y-24941051D01*
X4411047Y-24941061D01*
X4357639Y-25069999D01*
X4357639Y-25070000D01*
X4953012Y-25070000D01*
X4935795Y-25079940D01*
X4879940Y-25135795D01*
X4840444Y-25204204D01*
X4820000Y-25280504D01*
X4820000Y-25359496D01*
X4840444Y-25435796D01*
X4879940Y-25504205D01*
X4935795Y-25560060D01*
X4953012Y-25570000D01*
X4357639Y-25570000D01*
X4411047Y-25698938D01*
X4411052Y-25698948D01*
X4498598Y-25829969D01*
X4498601Y-25829973D01*
X4610026Y-25941398D01*
X4610030Y-25941401D01*
X4741051Y-26028947D01*
X4741060Y-26028952D01*
X4886648Y-26089256D01*
X4886656Y-26089258D01*
X5041202Y-26119999D01*
X5041206Y-26120000D01*
X5420000Y-26120000D01*
X5420000Y-25620000D01*
X5920000Y-25620000D01*
X5920000Y-26120000D01*
X6298794Y-26120000D01*
X6298797Y-26119999D01*
X6453343Y-26089258D01*
X6453351Y-26089256D01*
X6598939Y-26028952D01*
X6598948Y-26028947D01*
X6729969Y-25941401D01*
X6729973Y-25941398D01*
X6841398Y-25829973D01*
X6841401Y-25829969D01*
X6928947Y-25698948D01*
X6928952Y-25698938D01*
X6982361Y-25570000D01*
X6386988Y-25570000D01*
X6404205Y-25560060D01*
X6460060Y-25504205D01*
X6499556Y-25435796D01*
X6520000Y-25359496D01*
X6520000Y-25280504D01*
X6499556Y-25204204D01*
X6460060Y-25135795D01*
X6404205Y-25079940D01*
X6386988Y-25070000D01*
X6982361Y-25070000D01*
X6982361Y-25069999D01*
X6962252Y-25021452D01*
X6954783Y-24951982D01*
X6986058Y-24889503D01*
X7046147Y-24853851D01*
X7076813Y-24849999D01*
X7354786Y-24849999D01*
X7354808Y-24849997D01*
X7379869Y-24847091D01*
X7379873Y-24847090D01*
X7482474Y-24801788D01*
X7482479Y-24801785D01*
X7561785Y-24722479D01*
X7561788Y-24722474D01*
X7607089Y-24619877D01*
X7607089Y-24619875D01*
X7609999Y-24594794D01*
X7610000Y-24594791D01*
X7610000Y-24500000D01*
X6459000Y-24500000D01*
X6391961Y-24480315D01*
X6346206Y-24427511D01*
X6335000Y-24376000D01*
X6335000Y-24274499D01*
X6354685Y-24207460D01*
X6407489Y-24161705D01*
X6458997Y-24150499D01*
X7341518Y-24150499D01*
X7435304Y-24135646D01*
X7477757Y-24114014D01*
X7534052Y-24100500D01*
X9159192Y-24100500D01*
X9226231Y-24120185D01*
X9246873Y-24136819D01*
X9978181Y-24868127D01*
X10011666Y-24929450D01*
X10014500Y-24955808D01*
X10014500Y-26016458D01*
X9994815Y-26083497D01*
X9953622Y-26123190D01*
X9888135Y-26161919D01*
X9888129Y-26161923D01*
X9771923Y-26278129D01*
X9771917Y-26278137D01*
X9688255Y-26419603D01*
X9688254Y-26419606D01*
X9642402Y-26577426D01*
X9642401Y-26577432D01*
X9639500Y-26614298D01*
X9639500Y-27995701D01*
X9642401Y-28032567D01*
X9642402Y-28032573D01*
X9688254Y-28190393D01*
X9688255Y-28190396D01*
X9771917Y-28331862D01*
X9771923Y-28331870D01*
X9888129Y-28448076D01*
X9888133Y-28448079D01*
X9888135Y-28448081D01*
X10029602Y-28531744D01*
X10071224Y-28543836D01*
X10187426Y-28577597D01*
X10187429Y-28577597D01*
X10187431Y-28577598D01*
X10224306Y-28580500D01*
X10224314Y-28580500D01*
X11105686Y-28580500D01*
X11105694Y-28580500D01*
X11142569Y-28577598D01*
X11142571Y-28577597D01*
X11142573Y-28577597D01*
X11184191Y-28565505D01*
X11300398Y-28531744D01*
X11441865Y-28448081D01*
X11558081Y-28331865D01*
X11641744Y-28190398D01*
X11681925Y-28052095D01*
X11687597Y-28032573D01*
X11687598Y-28032567D01*
X11690499Y-27995701D01*
X11690500Y-27995694D01*
X11690500Y-26614306D01*
X11690499Y-26614298D01*
X12439500Y-26614298D01*
X12439500Y-27995701D01*
X12442401Y-28032567D01*
X12442402Y-28032573D01*
X12488254Y-28190393D01*
X12488255Y-28190396D01*
X12571917Y-28331862D01*
X12571923Y-28331870D01*
X12688129Y-28448076D01*
X12688133Y-28448079D01*
X12688135Y-28448081D01*
X12829602Y-28531744D01*
X12871224Y-28543836D01*
X12987426Y-28577597D01*
X12987429Y-28577597D01*
X12987431Y-28577598D01*
X13024306Y-28580500D01*
X13024314Y-28580500D01*
X13905686Y-28580500D01*
X13905694Y-28580500D01*
X13942569Y-28577598D01*
X13942571Y-28577597D01*
X13942573Y-28577597D01*
X13984191Y-28565505D01*
X14100398Y-28531744D01*
X14241865Y-28448081D01*
X14358081Y-28331865D01*
X14396809Y-28266378D01*
X14447878Y-28218696D01*
X14503541Y-28205500D01*
X15151309Y-28205500D01*
X16034192Y-28205500D01*
X16101231Y-28225185D01*
X16121868Y-28241814D01*
X16178135Y-28298081D01*
X16319602Y-28381744D01*
X16361224Y-28393836D01*
X16477426Y-28427597D01*
X16477429Y-28427597D01*
X16477431Y-28427598D01*
X16514306Y-28430500D01*
X16514314Y-28430500D01*
X17145686Y-28430500D01*
X17145694Y-28430500D01*
X17182569Y-28427598D01*
X17182571Y-28427597D01*
X17182573Y-28427597D01*
X17224191Y-28415505D01*
X17340398Y-28381744D01*
X17481865Y-28298081D01*
X17598081Y-28181865D01*
X17681744Y-28040398D01*
X17711861Y-27936737D01*
X17749467Y-27877851D01*
X17812940Y-27848645D01*
X17882126Y-27858391D01*
X17935061Y-27903995D01*
X17946292Y-27925842D01*
X17996079Y-28052095D01*
X18087435Y-28172564D01*
X18207904Y-28263920D01*
X18348556Y-28319386D01*
X18436946Y-28330000D01*
X18480000Y-28330000D01*
X18980000Y-28330000D01*
X19023054Y-28330000D01*
X19111443Y-28319386D01*
X19252095Y-28263920D01*
X19372564Y-28172564D01*
X19463920Y-28052095D01*
X19519386Y-27911443D01*
X19530000Y-27823053D01*
X19530000Y-27555000D01*
X18980000Y-27555000D01*
X18980000Y-28330000D01*
X18480000Y-28330000D01*
X18480000Y-27055000D01*
X18980000Y-27055000D01*
X19530000Y-27055000D01*
X19530000Y-26786946D01*
X19519386Y-26698556D01*
X19463920Y-26557904D01*
X19372564Y-26437435D01*
X19252095Y-26346079D01*
X19111443Y-26290613D01*
X19023054Y-26280000D01*
X18980000Y-26280000D01*
X18980000Y-27055000D01*
X18480000Y-27055000D01*
X18480000Y-26280000D01*
X18436946Y-26280000D01*
X18348556Y-26290613D01*
X18207904Y-26346079D01*
X18087435Y-26437435D01*
X17996078Y-26557906D01*
X17996077Y-26557908D01*
X17946291Y-26684157D01*
X17903386Y-26739301D01*
X17837478Y-26762494D01*
X17769493Y-26746373D01*
X17721017Y-26696056D01*
X17711861Y-26673262D01*
X17681746Y-26569606D01*
X17681744Y-26569603D01*
X17681744Y-26569602D01*
X17598081Y-26428135D01*
X17598079Y-26428133D01*
X17598076Y-26428129D01*
X17481870Y-26311923D01*
X17481862Y-26311917D01*
X17340396Y-26228255D01*
X17340393Y-26228254D01*
X17182573Y-26182402D01*
X17182567Y-26182401D01*
X17145701Y-26179500D01*
X17145694Y-26179500D01*
X16514306Y-26179500D01*
X16514298Y-26179500D01*
X16477432Y-26182401D01*
X16477426Y-26182402D01*
X16319606Y-26228254D01*
X16319603Y-26228255D01*
X16178137Y-26311917D01*
X16178133Y-26311920D01*
X16150003Y-26340050D01*
X16121871Y-26368182D01*
X16060551Y-26401666D01*
X16034192Y-26404500D01*
X14503541Y-26404500D01*
X14436502Y-26384815D01*
X14396809Y-26343621D01*
X14378059Y-26311917D01*
X14358081Y-26278135D01*
X14358079Y-26278133D01*
X14358076Y-26278129D01*
X14241870Y-26161923D01*
X14241862Y-26161917D01*
X14118998Y-26089256D01*
X14100398Y-26078256D01*
X14100397Y-26078255D01*
X14100396Y-26078255D01*
X14100393Y-26078254D01*
X13942573Y-26032402D01*
X13942567Y-26032401D01*
X13905701Y-26029500D01*
X13905694Y-26029500D01*
X13024306Y-26029500D01*
X13024298Y-26029500D01*
X12987432Y-26032401D01*
X12987426Y-26032402D01*
X12829606Y-26078254D01*
X12829603Y-26078255D01*
X12688137Y-26161917D01*
X12688129Y-26161923D01*
X12571923Y-26278129D01*
X12571917Y-26278137D01*
X12488255Y-26419603D01*
X12488254Y-26419606D01*
X12442402Y-26577426D01*
X12442401Y-26577432D01*
X12439500Y-26614298D01*
X11690499Y-26614298D01*
X11687598Y-26577431D01*
X11685323Y-26569602D01*
X11641745Y-26419606D01*
X11641744Y-26419603D01*
X11641744Y-26419602D01*
X11558081Y-26278135D01*
X11558079Y-26278133D01*
X11558076Y-26278129D01*
X11441870Y-26161923D01*
X11441867Y-26161921D01*
X11441865Y-26161919D01*
X11376378Y-26123190D01*
X11328695Y-26072120D01*
X11315500Y-26016458D01*
X11315500Y-24648053D01*
X16030000Y-24648053D01*
X16040613Y-24736443D01*
X16096079Y-24877095D01*
X16187435Y-24997564D01*
X16307904Y-25088920D01*
X16448556Y-25144386D01*
X16536946Y-25155000D01*
X16580000Y-25155000D01*
X16580000Y-24380000D01*
X16030000Y-24380000D01*
X16030000Y-24648053D01*
X11315500Y-24648053D01*
X11315500Y-24570928D01*
X11290502Y-24445261D01*
X11290501Y-24445260D01*
X11290501Y-24445256D01*
X11241465Y-24326873D01*
X11236702Y-24319744D01*
X11170277Y-24220331D01*
X11170275Y-24220328D01*
X11170272Y-24220325D01*
X10660486Y-23710540D01*
X10627001Y-23649217D01*
X10629666Y-23611946D01*
X16030000Y-23611946D01*
X16030000Y-23880000D01*
X16580000Y-23880000D01*
X16580000Y-23105000D01*
X16536946Y-23105000D01*
X16448556Y-23115613D01*
X16307904Y-23171079D01*
X16187435Y-23262435D01*
X16096079Y-23382904D01*
X16040613Y-23523556D01*
X16030000Y-23611946D01*
X10629666Y-23611946D01*
X10631985Y-23579526D01*
X10673856Y-23523592D01*
X10682854Y-23517730D01*
X10684918Y-23516164D01*
X10684922Y-23516163D01*
X10802216Y-23427216D01*
X10802217Y-23427213D01*
X10803821Y-23425998D01*
X10869133Y-23401175D01*
X10937497Y-23415603D01*
X10952382Y-23425033D01*
X10964442Y-23433934D01*
X11054999Y-23465620D01*
X11055000Y-23465620D01*
X11555000Y-23465620D01*
X11645557Y-23433934D01*
X11751065Y-23356065D01*
X11828933Y-23250559D01*
X11828934Y-23250557D01*
X11872244Y-23126787D01*
X11872244Y-23126785D01*
X11873818Y-23110000D01*
X11555000Y-23110000D01*
X11555000Y-23465620D01*
X11055000Y-23465620D01*
X11055000Y-22610000D01*
X11555000Y-22610000D01*
X11873818Y-22610000D01*
X11873818Y-22609999D01*
X11872244Y-22593214D01*
X11872244Y-22593212D01*
X11828934Y-22469442D01*
X11828933Y-22469440D01*
X11751065Y-22363934D01*
X11645559Y-22286066D01*
X11645557Y-22286065D01*
X11555000Y-22254378D01*
X11555000Y-22610000D01*
X11055000Y-22610000D01*
X11055000Y-22254378D01*
X11054999Y-22254378D01*
X10964442Y-22286065D01*
X10964438Y-22286067D01*
X10952377Y-22294969D01*
X10886748Y-22318939D01*
X10818578Y-22303621D01*
X10803821Y-22294001D01*
X10745138Y-22249500D01*
X10684923Y-22203838D01*
X10684924Y-22203838D01*
X10684922Y-22203837D01*
X10547979Y-22149834D01*
X10547978Y-22149833D01*
X10461928Y-22139500D01*
X10197706Y-22139500D01*
X10130667Y-22119815D01*
X10084912Y-22067011D01*
X10074968Y-21997853D01*
X10094607Y-21946606D01*
X10155258Y-21855849D01*
X10161364Y-21841108D01*
X10167195Y-21827038D01*
X10211040Y-21772638D01*
X10277336Y-21750579D01*
X10281752Y-21750500D01*
X14358152Y-21750500D01*
X14425191Y-21770185D01*
X14456956Y-21799574D01*
X14467079Y-21812923D01*
X14587656Y-21904360D01*
X14587657Y-21904360D01*
X14587658Y-21904361D01*
X14728436Y-21959877D01*
X14816898Y-21970500D01*
X14816903Y-21970500D01*
X15928097Y-21970500D01*
X15928102Y-21970500D01*
X16016564Y-21959877D01*
X16157342Y-21904361D01*
X16277922Y-21812922D01*
X16369361Y-21692342D01*
X16394646Y-21628223D01*
X16437551Y-21573081D01*
X16503459Y-21549888D01*
X16571443Y-21566008D01*
X16619920Y-21616325D01*
X16625350Y-21628214D01*
X16635208Y-21653211D01*
X16650639Y-21692343D01*
X16742077Y-21812922D01*
X16862656Y-21904360D01*
X16862657Y-21904360D01*
X16862658Y-21904361D01*
X17003436Y-21959877D01*
X17091898Y-21970500D01*
X17091903Y-21970500D01*
X18203097Y-21970500D01*
X18203102Y-21970500D01*
X18291564Y-21959877D01*
X18432342Y-21904361D01*
X18552922Y-21812922D01*
X18552928Y-21812913D01*
X18558915Y-21806928D01*
X18561526Y-21809539D01*
X18603802Y-21778149D01*
X18646680Y-21770500D01*
X18732425Y-21770500D01*
X18799464Y-21790185D01*
X18829378Y-21817195D01*
X18891331Y-21894894D01*
X18921412Y-21932621D01*
X19041142Y-22028113D01*
X19041143Y-22028113D01*
X19041144Y-22028114D01*
X19179117Y-22094566D01*
X19179118Y-22094566D01*
X19179120Y-22094567D01*
X19328426Y-22128648D01*
X19331496Y-22128648D01*
X19331512Y-22128649D01*
X19339108Y-22128649D01*
X19721556Y-22128649D01*
X19721622Y-22128644D01*
X19723302Y-22128645D01*
X19872637Y-22094593D01*
X19872638Y-22094592D01*
X19872640Y-22094592D01*
X19872642Y-22094591D01*
X19944201Y-22060143D01*
X20010646Y-22028157D01*
X20130407Y-21932669D01*
X20225910Y-21812921D01*
X20271238Y-21718789D01*
X20307483Y-21674205D01*
X20312303Y-21670505D01*
X20312314Y-21670500D01*
X20405500Y-21577314D01*
X20405500Y-21577313D01*
X20551457Y-21431355D01*
X20612778Y-21397872D01*
X20682470Y-21402856D01*
X20738403Y-21444728D01*
X20762820Y-21510192D01*
X20762232Y-21533984D01*
X20757091Y-21576326D01*
X20757091Y-21576327D01*
X20777009Y-21740376D01*
X20809874Y-21827032D01*
X20829791Y-21879549D01*
X20835612Y-21894896D01*
X20929487Y-22030898D01*
X20931315Y-22032961D01*
X20932176Y-22034793D01*
X20933747Y-22037069D01*
X20933368Y-22037330D01*
X20961037Y-22096194D01*
X20962500Y-22115188D01*
X20962500Y-23514550D01*
X20942815Y-23581589D01*
X20890011Y-23627344D01*
X20820853Y-23637288D01*
X20757297Y-23608263D01*
X20756273Y-23607366D01*
X20709407Y-23565846D01*
X20563081Y-23489048D01*
X20563080Y-23489047D01*
X20563077Y-23489046D01*
X20402628Y-23449500D01*
X20237372Y-23449500D01*
X20130275Y-23475897D01*
X20100600Y-23479500D01*
X19699511Y-23479500D01*
X19632472Y-23459815D01*
X19586717Y-23407011D01*
X19584315Y-23400544D01*
X19581743Y-23394600D01*
X19498082Y-23253137D01*
X19498081Y-23253135D01*
X19498079Y-23253133D01*
X19498076Y-23253129D01*
X19381870Y-23136923D01*
X19381862Y-23136917D01*
X19240396Y-23053255D01*
X19240393Y-23053254D01*
X19082573Y-23007402D01*
X19082567Y-23007401D01*
X19045701Y-23004500D01*
X19045694Y-23004500D01*
X18414306Y-23004500D01*
X18414298Y-23004500D01*
X18377432Y-23007401D01*
X18377426Y-23007402D01*
X18219606Y-23053254D01*
X18219603Y-23053255D01*
X18078137Y-23136917D01*
X18078129Y-23136923D01*
X17961923Y-23253129D01*
X17961917Y-23253137D01*
X17878255Y-23394603D01*
X17878254Y-23394605D01*
X17848138Y-23498263D01*
X17810531Y-23557149D01*
X17747058Y-23586354D01*
X17677872Y-23576607D01*
X17624938Y-23531003D01*
X17613707Y-23509156D01*
X17563921Y-23382905D01*
X17472564Y-23262435D01*
X17352095Y-23171079D01*
X17211443Y-23115613D01*
X17123054Y-23105000D01*
X17080000Y-23105000D01*
X17080000Y-25155000D01*
X17123054Y-25155000D01*
X17211443Y-25144386D01*
X17352095Y-25088920D01*
X17472564Y-24997564D01*
X17563921Y-24877094D01*
X17613707Y-24750843D01*
X17656613Y-24695699D01*
X17722520Y-24672505D01*
X17790505Y-24688625D01*
X17838982Y-24738942D01*
X17848138Y-24761736D01*
X17878254Y-24865395D01*
X17878255Y-24865396D01*
X17961917Y-25006862D01*
X17961923Y-25006870D01*
X18078129Y-25123076D01*
X18078133Y-25123079D01*
X18078135Y-25123081D01*
X18219602Y-25206744D01*
X18261224Y-25218836D01*
X18377426Y-25252597D01*
X18377429Y-25252597D01*
X18377431Y-25252598D01*
X18414306Y-25255500D01*
X18414314Y-25255500D01*
X19045686Y-25255500D01*
X19045694Y-25255500D01*
X19082569Y-25252598D01*
X19082571Y-25252597D01*
X19082573Y-25252597D01*
X19124191Y-25240505D01*
X19240398Y-25206744D01*
X19381865Y-25123081D01*
X19489946Y-25015000D01*
X29932532Y-25015000D01*
X29932787Y-25017729D01*
X29976594Y-25142919D01*
X30055358Y-25249641D01*
X30162077Y-25328403D01*
X30260000Y-25362668D01*
X30260000Y-25015000D01*
X29932532Y-25015000D01*
X19489946Y-25015000D01*
X19498081Y-25006865D01*
X19581744Y-24865398D01*
X19581745Y-24865394D01*
X19584843Y-24858236D01*
X19587227Y-24859267D01*
X19618043Y-24811018D01*
X19681516Y-24781813D01*
X19699511Y-24780500D01*
X20100600Y-24780500D01*
X20130274Y-24784102D01*
X20237372Y-24810500D01*
X20402628Y-24810500D01*
X20563077Y-24770953D01*
X20563077Y-24770952D01*
X20563081Y-24770952D01*
X20709407Y-24694154D01*
X20833103Y-24584569D01*
X20926978Y-24448567D01*
X20985579Y-24294050D01*
X20985579Y-24294044D01*
X20987374Y-24286768D01*
X20990045Y-24287426D01*
X21012557Y-24235104D01*
X21070486Y-24196040D01*
X21140339Y-24194496D01*
X21195722Y-24226535D01*
X21309429Y-24340242D01*
X21309432Y-24340246D01*
X21316500Y-24347314D01*
X21409686Y-24440500D01*
X21523814Y-24506392D01*
X21617706Y-24531550D01*
X21677365Y-24567914D01*
X21684413Y-24576397D01*
X21707784Y-24607216D01*
X21707788Y-24607219D01*
X21822428Y-24694154D01*
X21825078Y-24696163D01*
X21962021Y-24750166D01*
X22048073Y-24760500D01*
X22401926Y-24760499D01*
X22487979Y-24750166D01*
X22624922Y-24696163D01*
X22660075Y-24669504D01*
X22725385Y-24644682D01*
X22793749Y-24659109D01*
X22809917Y-24669499D01*
X22845078Y-24696163D01*
X22982021Y-24750166D01*
X23068073Y-24760500D01*
X23421926Y-24760499D01*
X23507979Y-24750166D01*
X23644922Y-24696163D01*
X23762216Y-24607216D01*
X23851163Y-24489922D01*
X23905166Y-24352979D01*
X23915500Y-24266927D01*
X23915499Y-23813074D01*
X23909738Y-23765100D01*
X23921290Y-23696195D01*
X23945168Y-23662644D01*
X24090996Y-23516816D01*
X24152317Y-23483334D01*
X24178675Y-23480500D01*
X24383276Y-23480500D01*
X24414539Y-23477568D01*
X24414539Y-23477567D01*
X24414549Y-23477567D01*
X24474048Y-23456746D01*
X24543822Y-23453184D01*
X24555925Y-23456737D01*
X24615451Y-23477567D01*
X24615459Y-23477567D01*
X24615460Y-23477568D01*
X24646724Y-23480500D01*
X24646728Y-23480500D01*
X24883276Y-23480500D01*
X24914539Y-23477568D01*
X24914539Y-23477567D01*
X24914549Y-23477567D01*
X24974048Y-23456746D01*
X25043822Y-23453184D01*
X25055925Y-23456737D01*
X25115451Y-23477567D01*
X25115459Y-23477567D01*
X25115460Y-23477568D01*
X25146724Y-23480500D01*
X25146728Y-23480500D01*
X25383276Y-23480500D01*
X25414539Y-23477568D01*
X25414539Y-23477567D01*
X25414549Y-23477567D01*
X25474048Y-23456746D01*
X25543822Y-23453184D01*
X25555925Y-23456737D01*
X25615451Y-23477567D01*
X25615459Y-23477567D01*
X25615460Y-23477568D01*
X25646724Y-23480500D01*
X25646728Y-23480500D01*
X25883276Y-23480500D01*
X25914539Y-23477568D01*
X25914539Y-23477567D01*
X25914549Y-23477567D01*
X25974048Y-23456746D01*
X26043822Y-23453184D01*
X26055925Y-23456737D01*
X26115451Y-23477567D01*
X26115459Y-23477567D01*
X26115460Y-23477568D01*
X26146724Y-23480500D01*
X26146728Y-23480500D01*
X26383276Y-23480500D01*
X26414549Y-23477567D01*
X26414551Y-23477567D01*
X26498399Y-23448226D01*
X26546289Y-23431469D01*
X26658589Y-23348589D01*
X26741469Y-23236289D01*
X26760458Y-23182021D01*
X26787567Y-23104551D01*
X26787567Y-23104549D01*
X26790500Y-23073276D01*
X26790500Y-22379500D01*
X26810185Y-22312461D01*
X26862989Y-22266706D01*
X26914500Y-22255500D01*
X27608276Y-22255500D01*
X27639549Y-22252567D01*
X27639551Y-22252567D01*
X27726678Y-22222079D01*
X27771289Y-22206469D01*
X27883589Y-22123589D01*
X27966469Y-22011289D01*
X27993979Y-21932671D01*
X28012567Y-21879551D01*
X28012567Y-21879549D01*
X28015500Y-21848276D01*
X28015500Y-21611723D01*
X28012568Y-21580460D01*
X28012567Y-21580455D01*
X28012567Y-21580451D01*
X27991746Y-21520951D01*
X27988184Y-21451178D01*
X27991737Y-21439074D01*
X28012567Y-21379549D01*
X28015500Y-21348272D01*
X28015500Y-21111728D01*
X28012567Y-21080451D01*
X27991746Y-21020951D01*
X27988184Y-20951178D01*
X27991737Y-20939074D01*
X28012567Y-20879549D01*
X28013468Y-20869944D01*
X28015500Y-20848276D01*
X28015500Y-20767676D01*
X28035185Y-20700637D01*
X28087989Y-20654882D01*
X28157147Y-20644938D01*
X28220703Y-20673963D01*
X28227181Y-20679995D01*
X29943181Y-22395995D01*
X29976666Y-22457318D01*
X29979500Y-22483676D01*
X29979500Y-22864041D01*
X29959815Y-22931080D01*
X29954304Y-22938966D01*
X29873838Y-23045075D01*
X29819833Y-23182022D01*
X29809500Y-23268072D01*
X29809500Y-23721919D01*
X29819833Y-23807977D01*
X29873837Y-23944922D01*
X29873838Y-23944924D01*
X29962783Y-24062216D01*
X30000082Y-24090500D01*
X30021356Y-24106633D01*
X30027837Y-24111547D01*
X30069360Y-24167739D01*
X30073912Y-24237460D01*
X30052682Y-24283985D01*
X29976594Y-24387080D01*
X29932787Y-24512272D01*
X29932786Y-24512274D01*
X29932530Y-24514999D01*
X29932531Y-24515000D01*
X30636000Y-24515000D01*
X30703039Y-24534685D01*
X30748794Y-24587489D01*
X30760000Y-24639000D01*
X30760000Y-25362667D01*
X30861008Y-25327324D01*
X30930787Y-25323762D01*
X30976886Y-25345560D01*
X30999447Y-25362668D01*
X31062605Y-25410562D01*
X31062607Y-25410563D01*
X31068914Y-25413050D01*
X31200826Y-25465070D01*
X31287680Y-25475500D01*
X31287686Y-25475500D01*
X31652314Y-25475500D01*
X31652320Y-25475500D01*
X31739174Y-25465070D01*
X31877395Y-25410562D01*
X31926584Y-25373260D01*
X31969529Y-25340696D01*
X32034841Y-25315873D01*
X32044454Y-25315500D01*
X32574014Y-25315500D01*
X32631638Y-25329702D01*
X32776919Y-25405952D01*
X32776921Y-25405952D01*
X32776922Y-25405953D01*
X32937372Y-25445500D01*
X33102628Y-25445500D01*
X33263077Y-25405953D01*
X33263077Y-25405952D01*
X33263081Y-25405952D01*
X33408361Y-25329702D01*
X33465986Y-25315500D01*
X33562746Y-25315500D01*
X33629785Y-25335185D01*
X33650422Y-25351814D01*
X33711658Y-25413050D01*
X33813751Y-25465069D01*
X33824698Y-25470647D01*
X33918475Y-25485499D01*
X33918481Y-25485500D01*
X35436000Y-25485499D01*
X35503039Y-25505184D01*
X35548794Y-25557987D01*
X35560000Y-25609499D01*
X35560000Y-29110572D01*
X35559684Y-29119418D01*
X35540275Y-29390785D01*
X35537757Y-29408297D01*
X35480872Y-29669794D01*
X35475888Y-29686770D01*
X35382361Y-29937524D01*
X35375011Y-29953617D01*
X35246758Y-30188496D01*
X35237193Y-30203380D01*
X35076811Y-30417624D01*
X35065225Y-30430994D01*
X34875994Y-30620225D01*
X34862624Y-30631811D01*
X34664980Y-30779767D01*
X34599516Y-30804184D01*
X34590669Y-30804500D01*
X1059331Y-30804500D01*
X992292Y-30784815D01*
X985020Y-30779767D01*
X787375Y-30631811D01*
X774005Y-30620225D01*
X584772Y-30430992D01*
X573188Y-30417624D01*
X515231Y-30340203D01*
X490816Y-30274739D01*
X490500Y-30265894D01*
X490500Y-26046749D01*
X510185Y-25979710D01*
X562989Y-25933955D01*
X632147Y-25924011D01*
X683391Y-25943647D01*
X811051Y-26028947D01*
X811060Y-26028952D01*
X956648Y-26089256D01*
X956656Y-26089258D01*
X1111202Y-26119999D01*
X1111206Y-26120000D01*
X1240000Y-26120000D01*
X1240000Y-25620000D01*
X1740000Y-25620000D01*
X1740000Y-26120000D01*
X1868794Y-26120000D01*
X1868797Y-26119999D01*
X2023343Y-26089258D01*
X2023351Y-26089256D01*
X2168939Y-26028952D01*
X2168948Y-26028947D01*
X2299969Y-25941401D01*
X2299973Y-25941398D01*
X2411398Y-25829973D01*
X2411401Y-25829969D01*
X2498947Y-25698948D01*
X2498952Y-25698938D01*
X2552361Y-25570000D01*
X1956988Y-25570000D01*
X1974205Y-25560060D01*
X2030060Y-25504205D01*
X2069556Y-25435796D01*
X2090000Y-25359496D01*
X2090000Y-25280504D01*
X2069556Y-25204204D01*
X2030060Y-25135795D01*
X1974205Y-25079940D01*
X1956988Y-25070000D01*
X2552361Y-25070000D01*
X2552360Y-25069999D01*
X2498952Y-24941061D01*
X2498947Y-24941051D01*
X2411401Y-24810030D01*
X2411398Y-24810026D01*
X2299973Y-24698601D01*
X2299969Y-24698598D01*
X2168948Y-24611052D01*
X2168939Y-24611047D01*
X2023351Y-24550743D01*
X2023343Y-24550741D01*
X1868797Y-24520000D01*
X1740000Y-24520000D01*
X1740000Y-25020000D01*
X1240000Y-25020000D01*
X1240000Y-24520000D01*
X1111202Y-24520000D01*
X956656Y-24550741D01*
X956648Y-24550743D01*
X811060Y-24611047D01*
X811046Y-24611055D01*
X683390Y-24696352D01*
X616713Y-24717230D01*
X549333Y-24698745D01*
X502643Y-24646766D01*
X490500Y-24593250D01*
X490500Y-17406749D01*
X510185Y-17339710D01*
X562989Y-17293955D01*
X632147Y-17284011D01*
X683391Y-17303647D01*
X811051Y-17388947D01*
X811060Y-17388952D01*
X956648Y-17449256D01*
X956656Y-17449258D01*
X1111202Y-17479999D01*
X1111206Y-17480000D01*
X1240000Y-17480000D01*
X1240000Y-16980000D01*
X1740000Y-16980000D01*
X1740000Y-17480000D01*
X1868794Y-17480000D01*
X1868797Y-17479999D01*
X2023343Y-17449258D01*
X2023351Y-17449256D01*
X2168939Y-17388952D01*
X2168948Y-17388947D01*
X2299969Y-17301401D01*
X2299973Y-17301398D01*
X2411398Y-17189973D01*
X2411401Y-17189969D01*
X2498947Y-17058948D01*
X2498952Y-17058938D01*
X2552361Y-16930000D01*
X1956988Y-16930000D01*
X1974205Y-16920060D01*
X2030060Y-16864205D01*
X2069556Y-16795796D01*
X2090000Y-16719496D01*
X2090000Y-16640504D01*
X2069556Y-16564204D01*
X2030060Y-16495795D01*
X1974205Y-16439940D01*
X1956988Y-16430000D01*
X2552361Y-16430000D01*
X2552360Y-16429999D01*
X2498952Y-16301061D01*
X2498947Y-16301051D01*
X2411401Y-16170030D01*
X2411398Y-16170026D01*
X2299973Y-16058601D01*
X2299969Y-16058598D01*
X2168948Y-15971052D01*
X2168939Y-15971047D01*
X2023351Y-15910743D01*
X2023343Y-15910741D01*
X1868797Y-15880000D01*
X1740000Y-15880000D01*
X1740000Y-16380000D01*
X1240000Y-16380000D01*
X1240000Y-15880000D01*
X1111202Y-15880000D01*
X956656Y-15910741D01*
X956648Y-15910743D01*
X811060Y-15971047D01*
X811046Y-15971055D01*
X683390Y-16056352D01*
X616713Y-16077230D01*
X549333Y-16058745D01*
X502643Y-16006766D01*
X490500Y-15953250D01*
X490500Y-12088690D01*
X804500Y-12088690D01*
X804500Y-12706309D01*
X807374Y-12742832D01*
X807375Y-12742838D01*
X852786Y-12899141D01*
X852787Y-12899144D01*
X852788Y-12899146D01*
X935647Y-13039253D01*
X935649Y-13039255D01*
X935651Y-13039258D01*
X1050741Y-13154348D01*
X1050750Y-13154355D01*
X1175730Y-13228268D01*
X1223414Y-13279337D01*
X1235917Y-13348079D01*
X1209272Y-13412668D01*
X1175730Y-13441732D01*
X1050750Y-13515644D01*
X1050741Y-13515651D01*
X935651Y-13630741D01*
X935645Y-13630750D01*
X852787Y-13770855D01*
X852786Y-13770858D01*
X807375Y-13927161D01*
X807374Y-13927167D01*
X804500Y-13963690D01*
X804500Y-14581309D01*
X807374Y-14617832D01*
X807375Y-14617838D01*
X852786Y-14774141D01*
X852787Y-14774144D01*
X852788Y-14774146D01*
X935647Y-14914253D01*
X935649Y-14914255D01*
X935651Y-14914258D01*
X1050741Y-15029348D01*
X1050744Y-15029350D01*
X1050747Y-15029353D01*
X1190854Y-15112212D01*
X1232075Y-15124188D01*
X1347161Y-15157624D01*
X1347164Y-15157624D01*
X1347166Y-15157625D01*
X1383696Y-15160500D01*
X1383704Y-15160500D01*
X2426296Y-15160500D01*
X2426304Y-15160500D01*
X2462834Y-15157625D01*
X2462836Y-15157624D01*
X2462838Y-15157624D01*
X2504055Y-15145648D01*
X2619146Y-15112212D01*
X2759253Y-15029353D01*
X2874353Y-14914253D01*
X2892316Y-14883880D01*
X2943384Y-14836196D01*
X2999048Y-14823000D01*
X4624041Y-14823000D01*
X4691080Y-14842685D01*
X4698966Y-14848196D01*
X4786082Y-14914258D01*
X4805078Y-14928663D01*
X4942021Y-14982666D01*
X5028073Y-14993000D01*
X5381926Y-14992999D01*
X5467979Y-14982666D01*
X5604922Y-14928663D01*
X5722216Y-14839716D01*
X5722217Y-14839713D01*
X5723821Y-14838498D01*
X5789133Y-14813675D01*
X5857497Y-14828103D01*
X5872382Y-14837533D01*
X5884442Y-14846434D01*
X5974999Y-14878120D01*
X5975000Y-14878120D01*
X6475000Y-14878120D01*
X6565557Y-14846434D01*
X6671065Y-14768565D01*
X6748933Y-14663059D01*
X6748934Y-14663057D01*
X6792244Y-14539287D01*
X6792244Y-14539285D01*
X6793818Y-14522500D01*
X6475000Y-14522500D01*
X6475000Y-14878120D01*
X5975000Y-14878120D01*
X5975000Y-14022500D01*
X6475000Y-14022500D01*
X6793818Y-14022500D01*
X6793818Y-14022499D01*
X6792244Y-14005714D01*
X6792244Y-14005712D01*
X6748934Y-13881942D01*
X6748933Y-13881940D01*
X6671065Y-13776434D01*
X6565559Y-13698566D01*
X6565557Y-13698565D01*
X6475000Y-13666878D01*
X6475000Y-14022500D01*
X5975000Y-14022500D01*
X5975000Y-13666878D01*
X5974999Y-13666878D01*
X5884442Y-13698565D01*
X5884438Y-13698567D01*
X5872377Y-13707469D01*
X5806748Y-13731439D01*
X5738578Y-13716121D01*
X5723821Y-13706501D01*
X5604923Y-13616338D01*
X5604924Y-13616338D01*
X5604922Y-13616337D01*
X5467979Y-13562334D01*
X5467978Y-13562333D01*
X5381927Y-13552000D01*
X5028080Y-13552000D01*
X4942022Y-13562333D01*
X4805077Y-13616337D01*
X4805075Y-13616338D01*
X4698966Y-13696804D01*
X4633655Y-13721627D01*
X4624041Y-13722000D01*
X2999048Y-13722000D01*
X2932009Y-13702315D01*
X2892316Y-13661120D01*
X2874357Y-13630752D01*
X2874348Y-13630741D01*
X2759258Y-13515651D01*
X2759250Y-13515645D01*
X2634269Y-13441732D01*
X2586586Y-13390663D01*
X2574082Y-13321921D01*
X2600727Y-13257332D01*
X2634269Y-13228268D01*
X2759253Y-13154353D01*
X2836927Y-13076678D01*
X2898248Y-13043195D01*
X2954282Y-13043964D01*
X3092372Y-13078000D01*
X3257628Y-13078000D01*
X3418077Y-13038453D01*
X3418077Y-13038452D01*
X3418081Y-13038452D01*
X3564407Y-12961654D01*
X3688103Y-12852069D01*
X3781978Y-12716067D01*
X3840579Y-12561550D01*
X3860498Y-12397500D01*
X3840579Y-12233450D01*
X3781978Y-12078933D01*
X3688103Y-11942931D01*
X3688100Y-11942928D01*
X3688098Y-11942926D01*
X3564409Y-11833347D01*
X3418077Y-11756546D01*
X3257628Y-11717000D01*
X3092372Y-11717000D01*
X2954282Y-11751036D01*
X2884480Y-11747967D01*
X2836927Y-11718321D01*
X2759253Y-11640647D01*
X2619146Y-11557788D01*
X2619145Y-11557787D01*
X2619144Y-11557787D01*
X2619141Y-11557786D01*
X2462838Y-11512375D01*
X2462832Y-11512374D01*
X2426309Y-11509500D01*
X2426304Y-11509500D01*
X1383696Y-11509500D01*
X1383690Y-11509500D01*
X1347167Y-11512374D01*
X1347161Y-11512375D01*
X1190858Y-11557786D01*
X1190857Y-11557786D01*
X1071505Y-11628370D01*
X1053763Y-11632871D01*
X1051996Y-11637611D01*
X1040411Y-11650982D01*
X935648Y-11755745D01*
X935645Y-11755750D01*
X852787Y-11895855D01*
X852786Y-11895858D01*
X807375Y-12052161D01*
X807374Y-12052167D01*
X804500Y-12088690D01*
X490500Y-12088690D01*
X490500Y-11898105D01*
X510185Y-11831066D01*
X515233Y-11823795D01*
X566171Y-11755750D01*
X573189Y-11746374D01*
X584767Y-11733012D01*
X774012Y-11543767D01*
X787376Y-11532188D01*
X813845Y-11512374D01*
X878419Y-11464033D01*
X910115Y-11452211D01*
X917752Y-11437011D01*
X934067Y-11422376D01*
X1001630Y-11371798D01*
X1016491Y-11362248D01*
X1251394Y-11233981D01*
X1267474Y-11226638D01*
X1287171Y-11219291D01*
X1330001Y-11203318D01*
X1373333Y-11195500D01*
X34276667Y-11195500D01*
X34320000Y-11203318D01*
G37*
%TD.AperFunction*%
%TA.AperFunction,Conductor*%
G36*
X29280703Y-19193962D02*
G01*
X29287181Y-19199994D01*
X30075159Y-19987972D01*
X30075169Y-19987983D01*
X30079499Y-19992313D01*
X30079500Y-19992314D01*
X30172686Y-20085500D01*
X30264211Y-20138342D01*
X30264212Y-20138343D01*
X30278043Y-20146328D01*
X30286814Y-20151392D01*
X30414107Y-20185500D01*
X30414108Y-20185500D01*
X33516745Y-20185500D01*
X33583784Y-20205185D01*
X33617067Y-20236620D01*
X33621953Y-20243346D01*
X33711652Y-20333045D01*
X33711654Y-20333046D01*
X33711658Y-20333050D01*
X33815366Y-20385892D01*
X33824698Y-20390647D01*
X33918475Y-20405499D01*
X33918481Y-20405500D01*
X35436000Y-20405499D01*
X35503039Y-20425184D01*
X35548794Y-20477987D01*
X35560000Y-20529499D01*
X35560000Y-21481000D01*
X35540315Y-21548039D01*
X35487511Y-21593794D01*
X35436000Y-21605000D01*
X35200000Y-21605000D01*
X35200000Y-22351000D01*
X35180315Y-22418039D01*
X35127511Y-22463794D01*
X35076000Y-22475000D01*
X33650001Y-22475000D01*
X33650001Y-22589785D01*
X33650002Y-22589808D01*
X33652908Y-22614869D01*
X33652909Y-22614873D01*
X33702854Y-22727990D01*
X33701749Y-22728477D01*
X33719768Y-22783776D01*
X33702064Y-22851365D01*
X33683504Y-22875103D01*
X33621951Y-22936656D01*
X33617067Y-22943380D01*
X33561740Y-22986049D01*
X33516745Y-22994500D01*
X33278675Y-22994500D01*
X33211636Y-22974815D01*
X33190994Y-22958181D01*
X32628808Y-22395995D01*
X32093019Y-21860205D01*
X33650000Y-21860205D01*
X33650000Y-21975000D01*
X34700000Y-21975000D01*
X34700000Y-21605000D01*
X33905214Y-21605000D01*
X33905191Y-21605002D01*
X33880130Y-21607908D01*
X33880126Y-21607909D01*
X33777525Y-21653211D01*
X33777520Y-21653214D01*
X33698214Y-21732520D01*
X33698211Y-21732525D01*
X33652910Y-21835122D01*
X33652910Y-21835124D01*
X33650000Y-21860205D01*
X32093019Y-21860205D01*
X32057314Y-21824500D01*
X31967487Y-21772638D01*
X31943187Y-21758608D01*
X31875143Y-21740376D01*
X31815892Y-21724500D01*
X31815891Y-21724500D01*
X30738676Y-21724500D01*
X30671637Y-21704815D01*
X30650995Y-21688181D01*
X29111819Y-20149005D01*
X29078334Y-20087682D01*
X29075500Y-20061324D01*
X29075500Y-19287675D01*
X29095185Y-19220636D01*
X29147989Y-19174881D01*
X29217147Y-19164937D01*
X29280703Y-19193962D01*
G37*
%TD.AperFunction*%
%TA.AperFunction,Conductor*%
G36*
X26055925Y-18556737D02*
G01*
X26115451Y-18577567D01*
X26115459Y-18577567D01*
X26115460Y-18577568D01*
X26146724Y-18580500D01*
X26290500Y-18580500D01*
X26357539Y-18600185D01*
X26403294Y-18652989D01*
X26414500Y-18704500D01*
X26414500Y-18848276D01*
X26417432Y-18879544D01*
X26417433Y-18879551D01*
X26438251Y-18939047D01*
X26441812Y-19008826D01*
X26438251Y-19020953D01*
X26417433Y-19080448D01*
X26417432Y-19080455D01*
X26414500Y-19111723D01*
X26414500Y-19348276D01*
X26417432Y-19379544D01*
X26417433Y-19379551D01*
X26438251Y-19439047D01*
X26441812Y-19508826D01*
X26438251Y-19520953D01*
X26417433Y-19580448D01*
X26417432Y-19580455D01*
X26414500Y-19611723D01*
X26414500Y-19848276D01*
X26417432Y-19879544D01*
X26417433Y-19879551D01*
X26438251Y-19939047D01*
X26441812Y-20008826D01*
X26438251Y-20020953D01*
X26417433Y-20080448D01*
X26417432Y-20080455D01*
X26414500Y-20111723D01*
X26414500Y-20348276D01*
X26417432Y-20379544D01*
X26417433Y-20379551D01*
X26438251Y-20439047D01*
X26441812Y-20508826D01*
X26438251Y-20520953D01*
X26417433Y-20580448D01*
X26417432Y-20580455D01*
X26414500Y-20611723D01*
X26414500Y-20848276D01*
X26417432Y-20879544D01*
X26417433Y-20879551D01*
X26438251Y-20939047D01*
X26441812Y-21008826D01*
X26438251Y-21020953D01*
X26417433Y-21080448D01*
X26417432Y-21080455D01*
X26414500Y-21111723D01*
X26414500Y-21348276D01*
X26417432Y-21379544D01*
X26417433Y-21379551D01*
X26438251Y-21439047D01*
X26441812Y-21508826D01*
X26438251Y-21520953D01*
X26417433Y-21580448D01*
X26417432Y-21580455D01*
X26414500Y-21611723D01*
X26414500Y-21755500D01*
X26394815Y-21822539D01*
X26342011Y-21868294D01*
X26290500Y-21879500D01*
X26146724Y-21879500D01*
X26115455Y-21882432D01*
X26115448Y-21882433D01*
X26055953Y-21903251D01*
X25986174Y-21906812D01*
X25974047Y-21903251D01*
X25914551Y-21882433D01*
X25914544Y-21882432D01*
X25883276Y-21879500D01*
X25883272Y-21879500D01*
X25646728Y-21879500D01*
X25646724Y-21879500D01*
X25615455Y-21882432D01*
X25615448Y-21882433D01*
X25555953Y-21903251D01*
X25486174Y-21906812D01*
X25474047Y-21903251D01*
X25414551Y-21882433D01*
X25414544Y-21882432D01*
X25383276Y-21879500D01*
X25383272Y-21879500D01*
X25146728Y-21879500D01*
X25146724Y-21879500D01*
X25115455Y-21882432D01*
X25115448Y-21882433D01*
X25055953Y-21903251D01*
X24986174Y-21906812D01*
X24974047Y-21903251D01*
X24914551Y-21882433D01*
X24914544Y-21882432D01*
X24883276Y-21879500D01*
X24883272Y-21879500D01*
X24646728Y-21879500D01*
X24646724Y-21879500D01*
X24615455Y-21882432D01*
X24615448Y-21882433D01*
X24555953Y-21903251D01*
X24486174Y-21906812D01*
X24474047Y-21903251D01*
X24414551Y-21882433D01*
X24414544Y-21882432D01*
X24383276Y-21879500D01*
X24383272Y-21879500D01*
X24146728Y-21879500D01*
X24146724Y-21879500D01*
X24115455Y-21882432D01*
X24115448Y-21882433D01*
X24055953Y-21903251D01*
X23986174Y-21906812D01*
X23974047Y-21903251D01*
X23914551Y-21882433D01*
X23914544Y-21882432D01*
X23883276Y-21879500D01*
X23883272Y-21879500D01*
X23646728Y-21879500D01*
X23646724Y-21879500D01*
X23615455Y-21882432D01*
X23615448Y-21882433D01*
X23555953Y-21903251D01*
X23486174Y-21906812D01*
X23474047Y-21903251D01*
X23414551Y-21882433D01*
X23414544Y-21882432D01*
X23383276Y-21879500D01*
X23383272Y-21879500D01*
X23239500Y-21879500D01*
X23172461Y-21859815D01*
X23126706Y-21807011D01*
X23115500Y-21755500D01*
X23115500Y-21611723D01*
X23112568Y-21580460D01*
X23112567Y-21580455D01*
X23112567Y-21580451D01*
X23091746Y-21520951D01*
X23088184Y-21451178D01*
X23091737Y-21439074D01*
X23112567Y-21379549D01*
X23115500Y-21348272D01*
X23115500Y-21111728D01*
X23112567Y-21080451D01*
X23091746Y-21020951D01*
X23088184Y-20951178D01*
X23091737Y-20939074D01*
X23112567Y-20879549D01*
X23113468Y-20869944D01*
X23115500Y-20848276D01*
X23115500Y-20611723D01*
X23112568Y-20580460D01*
X23112567Y-20580455D01*
X23112567Y-20580451D01*
X23091746Y-20520951D01*
X23088184Y-20451178D01*
X23091737Y-20439074D01*
X23112567Y-20379549D01*
X23115500Y-20348272D01*
X23115500Y-20111728D01*
X23114940Y-20105760D01*
X23112567Y-20080450D01*
X23112567Y-20080448D01*
X23067545Y-19951787D01*
X23066469Y-19948711D01*
X23038951Y-19911425D01*
X23023778Y-19869883D01*
X22997741Y-19839778D01*
X22982540Y-19835315D01*
X22975947Y-19830771D01*
X22974592Y-19829771D01*
X22932340Y-19774125D01*
X22926881Y-19704468D01*
X22959947Y-19642919D01*
X22974592Y-19630229D01*
X22975947Y-19629229D01*
X22996416Y-19621752D01*
X23022972Y-19591046D01*
X23025827Y-19570914D01*
X23038946Y-19548580D01*
X23066469Y-19511289D01*
X23093164Y-19434999D01*
X23112567Y-19379551D01*
X23112567Y-19379549D01*
X23115500Y-19348276D01*
X23115500Y-19111723D01*
X23112568Y-19080460D01*
X23112567Y-19080455D01*
X23112567Y-19080451D01*
X23091746Y-19020951D01*
X23088184Y-18951178D01*
X23091737Y-18939074D01*
X23112567Y-18879549D01*
X23112568Y-18879539D01*
X23115500Y-18848276D01*
X23115500Y-18704500D01*
X23135185Y-18637461D01*
X23187989Y-18591706D01*
X23239500Y-18580500D01*
X23383276Y-18580500D01*
X23414539Y-18577568D01*
X23414539Y-18577567D01*
X23414549Y-18577567D01*
X23474048Y-18556746D01*
X23543822Y-18553184D01*
X23555925Y-18556737D01*
X23615451Y-18577567D01*
X23615459Y-18577567D01*
X23615460Y-18577568D01*
X23646724Y-18580500D01*
X23646728Y-18580500D01*
X23883276Y-18580500D01*
X23914539Y-18577568D01*
X23914539Y-18577567D01*
X23914549Y-18577567D01*
X23974048Y-18556746D01*
X24043822Y-18553184D01*
X24055925Y-18556737D01*
X24115451Y-18577567D01*
X24115459Y-18577567D01*
X24115460Y-18577568D01*
X24146724Y-18580500D01*
X24146728Y-18580500D01*
X24383276Y-18580500D01*
X24414539Y-18577568D01*
X24414539Y-18577567D01*
X24414549Y-18577567D01*
X24474048Y-18556746D01*
X24543822Y-18553184D01*
X24555925Y-18556737D01*
X24615451Y-18577567D01*
X24615459Y-18577567D01*
X24615460Y-18577568D01*
X24646724Y-18580500D01*
X24646728Y-18580500D01*
X24883276Y-18580500D01*
X24914539Y-18577568D01*
X24914539Y-18577567D01*
X24914549Y-18577567D01*
X24974048Y-18556746D01*
X25043822Y-18553184D01*
X25055925Y-18556737D01*
X25115451Y-18577567D01*
X25115459Y-18577567D01*
X25115460Y-18577568D01*
X25146724Y-18580500D01*
X25146728Y-18580500D01*
X25383276Y-18580500D01*
X25414539Y-18577568D01*
X25414539Y-18577567D01*
X25414549Y-18577567D01*
X25474048Y-18556746D01*
X25543822Y-18553184D01*
X25555925Y-18556737D01*
X25615451Y-18577567D01*
X25615459Y-18577567D01*
X25615460Y-18577568D01*
X25646724Y-18580500D01*
X25646728Y-18580500D01*
X25883276Y-18580500D01*
X25914539Y-18577568D01*
X25914539Y-18577567D01*
X25914549Y-18577567D01*
X25974048Y-18556746D01*
X26043822Y-18553184D01*
X26055925Y-18556737D01*
G37*
%TD.AperFunction*%
%TA.AperFunction,Conductor*%
G36*
X16571443Y-19666008D02*
G01*
X16619920Y-19716325D01*
X16625350Y-19728214D01*
X16631356Y-19743443D01*
X16650638Y-19792341D01*
X16650639Y-19792342D01*
X16706043Y-19865403D01*
X16730866Y-19930714D01*
X16724281Y-19981282D01*
X16693237Y-20069999D01*
X16693238Y-20070000D01*
X17080319Y-20070000D01*
X17088194Y-20070470D01*
X17088206Y-20070279D01*
X17091897Y-20070500D01*
X17091898Y-20070500D01*
X18203103Y-20070500D01*
X18206794Y-20070279D01*
X18206805Y-20070470D01*
X18214681Y-20070000D01*
X18601762Y-20070000D01*
X18601761Y-20069999D01*
X18589674Y-20035454D01*
X18586113Y-19965675D01*
X18620842Y-19905048D01*
X18682836Y-19872821D01*
X18706716Y-19870500D01*
X18739108Y-19870500D01*
X19088849Y-19870500D01*
X19088953Y-19870506D01*
X19097156Y-19870505D01*
X19097159Y-19870506D01*
X19111676Y-19870504D01*
X19111691Y-19870508D01*
X19163051Y-19870504D01*
X19163051Y-19870505D01*
X19233073Y-19870500D01*
X19369602Y-19839329D01*
X19495773Y-19778561D01*
X19506690Y-19769853D01*
X19571373Y-19743443D01*
X19640069Y-19756195D01*
X19661310Y-19769844D01*
X19672257Y-19778574D01*
X19672260Y-19778575D01*
X19672262Y-19778577D01*
X19717896Y-19800552D01*
X19751778Y-19824592D01*
X20159505Y-20232319D01*
X20192990Y-20293642D01*
X20188006Y-20363334D01*
X20159505Y-20407681D01*
X20144498Y-20422688D01*
X19764037Y-20803147D01*
X19730153Y-20827188D01*
X19641188Y-20870026D01*
X19603270Y-20900261D01*
X19538582Y-20926664D01*
X19469887Y-20913903D01*
X19448675Y-20900273D01*
X19410627Y-20869944D01*
X19272622Y-20803524D01*
X19272620Y-20803523D01*
X19272619Y-20803523D01*
X19123296Y-20769480D01*
X19123294Y-20769479D01*
X19046738Y-20769499D01*
X19046718Y-20769500D01*
X18706716Y-20769500D01*
X18639677Y-20749815D01*
X18593922Y-20697011D01*
X18583978Y-20627853D01*
X18589674Y-20604546D01*
X18601762Y-20570000D01*
X18214681Y-20570000D01*
X18206805Y-20569529D01*
X18206794Y-20569721D01*
X18203103Y-20569500D01*
X18203102Y-20569500D01*
X17091898Y-20569500D01*
X17091897Y-20569500D01*
X17088206Y-20569721D01*
X17088194Y-20569529D01*
X17080319Y-20570000D01*
X16693238Y-20570000D01*
X16724281Y-20658717D01*
X16727842Y-20728495D01*
X16706043Y-20774596D01*
X16650638Y-20847658D01*
X16650637Y-20847660D01*
X16625354Y-20911774D01*
X16582449Y-20966918D01*
X16516541Y-20990111D01*
X16448556Y-20973990D01*
X16400080Y-20923673D01*
X16394646Y-20911774D01*
X16366535Y-20840490D01*
X16360253Y-20770904D01*
X16366534Y-20749510D01*
X16369361Y-20742342D01*
X16424877Y-20601564D01*
X16432565Y-20537537D01*
X16433086Y-20536322D01*
X16432961Y-20534243D01*
X16435500Y-20513102D01*
X16435500Y-20126898D01*
X16432961Y-20105757D01*
X16433195Y-20104363D01*
X16432565Y-20102463D01*
X16424877Y-20038436D01*
X16369361Y-19897658D01*
X16369360Y-19897657D01*
X16366534Y-19890490D01*
X16360253Y-19820903D01*
X16366534Y-19799510D01*
X16374790Y-19778574D01*
X16394646Y-19728223D01*
X16437551Y-19673081D01*
X16503459Y-19649888D01*
X16571443Y-19666008D01*
G37*
%TD.AperFunction*%
%TA.AperFunction,Conductor*%
G36*
X33629785Y-17715185D02*
G01*
X33650422Y-17731814D01*
X33711658Y-17793050D01*
X33822447Y-17849500D01*
X33824698Y-17850647D01*
X33918475Y-17865499D01*
X33918481Y-17865500D01*
X35436000Y-17865499D01*
X35503039Y-17885184D01*
X35548794Y-17937987D01*
X35560000Y-17989499D01*
X35560000Y-18840500D01*
X35540315Y-18907539D01*
X35487511Y-18953294D01*
X35436000Y-18964500D01*
X33918482Y-18964500D01*
X33837519Y-18977323D01*
X33824696Y-18979354D01*
X33711658Y-19036950D01*
X33711657Y-19036951D01*
X33711652Y-19036954D01*
X33621953Y-19126653D01*
X33617067Y-19133380D01*
X33561740Y-19176049D01*
X33516745Y-19184500D01*
X32010503Y-19184500D01*
X31943464Y-19164815D01*
X31897709Y-19112011D01*
X31887765Y-19042853D01*
X31916790Y-18979297D01*
X31936869Y-18960730D01*
X32019641Y-18899641D01*
X32098405Y-18792919D01*
X32142212Y-18667727D01*
X32142213Y-18667725D01*
X32142469Y-18665000D01*
X31439000Y-18665000D01*
X31371961Y-18645315D01*
X31326206Y-18592511D01*
X31315000Y-18541000D01*
X31315000Y-18289000D01*
X31334685Y-18221961D01*
X31387489Y-18176206D01*
X31439000Y-18165000D01*
X32142467Y-18165000D01*
X32142212Y-18162270D01*
X32098405Y-18037080D01*
X32033083Y-17948571D01*
X32009112Y-17882942D01*
X32024427Y-17814771D01*
X32057926Y-17776134D01*
X32120272Y-17728856D01*
X32131035Y-17720695D01*
X32196346Y-17695873D01*
X32205959Y-17695500D01*
X33562746Y-17695500D01*
X33629785Y-17715185D01*
G37*
%TD.AperFunction*%
%TA.AperFunction,Conductor*%
G36*
X27748363Y-17030185D02*
G01*
X27769005Y-17046819D01*
X28038181Y-17315995D01*
X28071666Y-17377318D01*
X28074500Y-17403676D01*
X28074500Y-18231679D01*
X28054815Y-18298718D01*
X28002011Y-18344473D01*
X27932853Y-18354417D01*
X27876867Y-18331450D01*
X27771290Y-18253532D01*
X27771289Y-18253531D01*
X27771287Y-18253530D01*
X27771285Y-18253529D01*
X27639550Y-18207432D01*
X27608276Y-18204500D01*
X27608272Y-18204500D01*
X26914500Y-18204500D01*
X26847461Y-18184815D01*
X26801706Y-18132011D01*
X26790500Y-18080500D01*
X26790500Y-17386723D01*
X26787567Y-17355450D01*
X26787567Y-17355448D01*
X26741470Y-17223714D01*
X26741469Y-17223711D01*
X26729971Y-17208132D01*
X26706002Y-17142504D01*
X26721318Y-17074333D01*
X26771059Y-17025266D01*
X26829743Y-17010500D01*
X27681324Y-17010500D01*
X27748363Y-17030185D01*
G37*
%TD.AperFunction*%
%TD*%
M02*
