%TF.GenerationSoftware,KiCad,Pcbnew,8.0.4+dfsg-1*%
%TF.CreationDate,2024-12-02T22:27:05+01:00*%
%TF.ProjectId,usb-serial,7573622d-7365-4726-9961-6c2e6b696361,rev?*%
%TF.SameCoordinates,Original*%
%TF.FileFunction,Copper,L2,Inr*%
%TF.FilePolarity,Positive*%
%FSLAX46Y46*%
G04 Gerber Fmt 4.6, Leading zero omitted, Abs format (unit mm)*
G04 Created by KiCad (PCBNEW 8.0.4+dfsg-1) date 2024-12-02 22:27:05*
%MOMM*%
%LPD*%
G01*
G04 APERTURE LIST*
%ADD10C,0.300000*%
%TA.AperFunction,NonConductor*%
%ADD11C,0.300000*%
%TD*%
%TA.AperFunction,ComponentPad*%
%ADD12O,2.100000X1.000000*%
%TD*%
%TA.AperFunction,ComponentPad*%
%ADD13O,1.600000X1.000000*%
%TD*%
%TA.AperFunction,ViaPad*%
%ADD14C,0.560000*%
%TD*%
%TA.AperFunction,Conductor*%
%ADD15C,0.200000*%
%TD*%
G04 APERTURE END LIST*
D10*
D11*
X23978082Y-26042257D02*
X24692368Y-26042257D01*
X23835225Y-26470828D02*
X24335225Y-24970828D01*
X24335225Y-24970828D02*
X24835225Y-26470828D01*
X26192367Y-26470828D02*
X25692367Y-25756542D01*
X25335224Y-26470828D02*
X25335224Y-24970828D01*
X25335224Y-24970828D02*
X25906653Y-24970828D01*
X25906653Y-24970828D02*
X26049510Y-25042257D01*
X26049510Y-25042257D02*
X26120939Y-25113685D01*
X26120939Y-25113685D02*
X26192367Y-25256542D01*
X26192367Y-25256542D02*
X26192367Y-25470828D01*
X26192367Y-25470828D02*
X26120939Y-25613685D01*
X26120939Y-25613685D02*
X26049510Y-25685114D01*
X26049510Y-25685114D02*
X25906653Y-25756542D01*
X25906653Y-25756542D02*
X25335224Y-25756542D01*
X27549510Y-26470828D02*
X26835224Y-26470828D01*
X26835224Y-26470828D02*
X26835224Y-24970828D01*
X28049510Y-25899400D02*
X29192368Y-25899400D01*
X29835225Y-25113685D02*
X29906653Y-25042257D01*
X29906653Y-25042257D02*
X30049511Y-24970828D01*
X30049511Y-24970828D02*
X30406653Y-24970828D01*
X30406653Y-24970828D02*
X30549511Y-25042257D01*
X30549511Y-25042257D02*
X30620939Y-25113685D01*
X30620939Y-25113685D02*
X30692368Y-25256542D01*
X30692368Y-25256542D02*
X30692368Y-25399400D01*
X30692368Y-25399400D02*
X30620939Y-25613685D01*
X30620939Y-25613685D02*
X29763796Y-26470828D01*
X29763796Y-26470828D02*
X30692368Y-26470828D01*
X31978082Y-25470828D02*
X31978082Y-26470828D01*
X31620939Y-24899400D02*
X31263796Y-25970828D01*
X31263796Y-25970828D02*
X32192367Y-25970828D01*
D12*
%TO.N,GND*%
%TO.C,USB1*%
X5670000Y-16680000D03*
D13*
X1490000Y-16680000D03*
D12*
X5670000Y-25320000D03*
D13*
X1490000Y-25320000D03*
%TD*%
D14*
%TO.N,VBUS*%
X3175000Y-15875000D03*
X15240000Y-26165000D03*
X22479000Y-22516000D03*
X20320000Y-24130000D03*
%TO.N,GND*%
X8890000Y-14605000D03*
X25400000Y-27940000D03*
X20320000Y-22225000D03*
X27305000Y-17690000D03*
X20955000Y-18960000D03*
X6350000Y-13970000D03*
X19050000Y-20320000D03*
X25400000Y-13970000D03*
X8255000Y-24765000D03*
X31750000Y-14605000D03*
X31115000Y-15240000D03*
X19050000Y-27940000D03*
X6350000Y-27940000D03*
X12700000Y-27940000D03*
X8890000Y-17145000D03*
X19050000Y-13970000D03*
X31750000Y-27305000D03*
X22225000Y-17690000D03*
X27305000Y-22770000D03*
X1270000Y-27305000D03*
X20254000Y-26165000D03*
X12538946Y-22860000D03*
X15875000Y-24130000D03*
X29845000Y-22860000D03*
X12700000Y-13970000D03*
%TO.N,Net-(USB1-DP1)*%
X5080000Y-22225000D03*
X4445000Y-20320000D03*
%TO.N,Net-(USB1-DN1)*%
X5080000Y-19685000D03*
X4445000Y-21590000D03*
%TO.N,VDD*%
X40005000Y-19050000D03*
X51435000Y-23955000D03*
X41910000Y-18955000D03*
%TO.N,GND1*%
X38100000Y-23495000D03*
X38100000Y-27305000D03*
X50165000Y-13970000D03*
X41910000Y-20955000D03*
X59055000Y-18415000D03*
X43815000Y-27940000D03*
X38735000Y-15240000D03*
X38100000Y-14605000D03*
X59055000Y-23495000D03*
X42545000Y-16510000D03*
X50165000Y-27940000D03*
X42545000Y-25400000D03*
X56515000Y-13970000D03*
X42545000Y-15240000D03*
X56515000Y-27940000D03*
X43815000Y-13970000D03*
%TO.N,Net-(U3-VBUS)*%
X9525000Y-23495000D03*
X9525000Y-19050000D03*
X13970000Y-20320000D03*
%TO.N,+3V3*%
X29845000Y-19050000D03*
X21442589Y-21576327D03*
%TO.N,Net-(U1-OUT1)*%
X28575000Y-20320000D03*
X29845000Y-20320000D03*
%TD*%
D15*
%TO.N,Net-(USB1-DP1)*%
X5080000Y-22225000D02*
X5080000Y-20955000D01*
X5080000Y-20955000D02*
X4445000Y-20320000D01*
%TD*%
%TA.AperFunction,Conductor*%
%TO.N,VBUS*%
G36*
X5925721Y-13354685D02*
G01*
X5971476Y-13407489D01*
X5981420Y-13476647D01*
X5952395Y-13540203D01*
X5941465Y-13550500D01*
X5935982Y-13555983D01*
X5842934Y-13677244D01*
X5842932Y-13677247D01*
X5784443Y-13818455D01*
X5784442Y-13818459D01*
X5764491Y-13970000D01*
X5773633Y-14039443D01*
X5784442Y-14121540D01*
X5784443Y-14121544D01*
X5842933Y-14262753D01*
X5842934Y-14262756D01*
X5935982Y-14384017D01*
X6057243Y-14477065D01*
X6057244Y-14477065D01*
X6057245Y-14477066D01*
X6198459Y-14535558D01*
X6350000Y-14555509D01*
X6501541Y-14535558D01*
X6642755Y-14477066D01*
X6764017Y-14384017D01*
X6857066Y-14262755D01*
X6915558Y-14121541D01*
X6935509Y-13970000D01*
X6915558Y-13818459D01*
X6882966Y-13739774D01*
X6857067Y-13677247D01*
X6857065Y-13677244D01*
X6764015Y-13555980D01*
X6758267Y-13550232D01*
X6759625Y-13548874D01*
X6724630Y-13500948D01*
X6720475Y-13431202D01*
X6754687Y-13370282D01*
X6816404Y-13337529D01*
X6841319Y-13335000D01*
X12208682Y-13335000D01*
X12275721Y-13354685D01*
X12321476Y-13407489D01*
X12331420Y-13476647D01*
X12302395Y-13540203D01*
X12291465Y-13550500D01*
X12285982Y-13555983D01*
X12192934Y-13677244D01*
X12192932Y-13677247D01*
X12134443Y-13818455D01*
X12134442Y-13818459D01*
X12114491Y-13970000D01*
X12123633Y-14039443D01*
X12134442Y-14121540D01*
X12134443Y-14121544D01*
X12192933Y-14262753D01*
X12192934Y-14262756D01*
X12285982Y-14384017D01*
X12407243Y-14477065D01*
X12407244Y-14477065D01*
X12407245Y-14477066D01*
X12548459Y-14535558D01*
X12700000Y-14555509D01*
X12851541Y-14535558D01*
X12992755Y-14477066D01*
X13114017Y-14384017D01*
X13207066Y-14262755D01*
X13265558Y-14121541D01*
X13285509Y-13970000D01*
X13265558Y-13818459D01*
X13232966Y-13739774D01*
X13207067Y-13677247D01*
X13207065Y-13677244D01*
X13114015Y-13555980D01*
X13108267Y-13550232D01*
X13109625Y-13548874D01*
X13074630Y-13500948D01*
X13070475Y-13431202D01*
X13104687Y-13370282D01*
X13166404Y-13337529D01*
X13191319Y-13335000D01*
X18558682Y-13335000D01*
X18625721Y-13354685D01*
X18671476Y-13407489D01*
X18681420Y-13476647D01*
X18652395Y-13540203D01*
X18641465Y-13550500D01*
X18635982Y-13555983D01*
X18542934Y-13677244D01*
X18542932Y-13677247D01*
X18484443Y-13818455D01*
X18484442Y-13818459D01*
X18464491Y-13970000D01*
X18473633Y-14039443D01*
X18484442Y-14121540D01*
X18484443Y-14121544D01*
X18542933Y-14262753D01*
X18542934Y-14262756D01*
X18635982Y-14384017D01*
X18757243Y-14477065D01*
X18757244Y-14477065D01*
X18757245Y-14477066D01*
X18898459Y-14535558D01*
X19050000Y-14555509D01*
X19201541Y-14535558D01*
X19342755Y-14477066D01*
X19464017Y-14384017D01*
X19557066Y-14262755D01*
X19615558Y-14121541D01*
X19635509Y-13970000D01*
X19615558Y-13818459D01*
X19582966Y-13739774D01*
X19557067Y-13677247D01*
X19557065Y-13677244D01*
X19464015Y-13555980D01*
X19458267Y-13550232D01*
X19459625Y-13548874D01*
X19424630Y-13500948D01*
X19420475Y-13431202D01*
X19454687Y-13370282D01*
X19516404Y-13337529D01*
X19541319Y-13335000D01*
X24908682Y-13335000D01*
X24975721Y-13354685D01*
X25021476Y-13407489D01*
X25031420Y-13476647D01*
X25002395Y-13540203D01*
X24991465Y-13550500D01*
X24985982Y-13555983D01*
X24892934Y-13677244D01*
X24892932Y-13677247D01*
X24834443Y-13818455D01*
X24834442Y-13818459D01*
X24814491Y-13970000D01*
X24823633Y-14039443D01*
X24834442Y-14121540D01*
X24834443Y-14121544D01*
X24892933Y-14262753D01*
X24892934Y-14262756D01*
X24985982Y-14384017D01*
X25107243Y-14477065D01*
X25107244Y-14477065D01*
X25107245Y-14477066D01*
X25248459Y-14535558D01*
X25400000Y-14555509D01*
X25551541Y-14535558D01*
X25692755Y-14477066D01*
X25814017Y-14384017D01*
X25907066Y-14262755D01*
X25965558Y-14121541D01*
X25985509Y-13970000D01*
X25965558Y-13818459D01*
X25932966Y-13739774D01*
X25907067Y-13677247D01*
X25907065Y-13677244D01*
X25814015Y-13555980D01*
X25808267Y-13550232D01*
X25809625Y-13548874D01*
X25774630Y-13500948D01*
X25770475Y-13431202D01*
X25804687Y-13370282D01*
X25866404Y-13337529D01*
X25891319Y-13335000D01*
X30380572Y-13335000D01*
X30389418Y-13335316D01*
X30660790Y-13354724D01*
X30678291Y-13357241D01*
X30939803Y-13414129D01*
X30956762Y-13419108D01*
X31176182Y-13500948D01*
X31207524Y-13512638D01*
X31223616Y-13519987D01*
X31458501Y-13648244D01*
X31473375Y-13657802D01*
X31582876Y-13739774D01*
X31681899Y-13813903D01*
X31723770Y-13869837D01*
X31728754Y-13939529D01*
X31695269Y-14000852D01*
X31633945Y-14034336D01*
X31623775Y-14036109D01*
X31598459Y-14039442D01*
X31598455Y-14039443D01*
X31457247Y-14097932D01*
X31457244Y-14097934D01*
X31335983Y-14190982D01*
X31335982Y-14190983D01*
X31242934Y-14312244D01*
X31242932Y-14312247D01*
X31184443Y-14453455D01*
X31184442Y-14453459D01*
X31171152Y-14554400D01*
X31142885Y-14618296D01*
X31084560Y-14656766D01*
X31064400Y-14661152D01*
X30963459Y-14674442D01*
X30963455Y-14674443D01*
X30822247Y-14732932D01*
X30822244Y-14732934D01*
X30700983Y-14825982D01*
X30700982Y-14825983D01*
X30607934Y-14947244D01*
X30607932Y-14947247D01*
X30549443Y-15088455D01*
X30549442Y-15088459D01*
X30529491Y-15240000D01*
X30549442Y-15391540D01*
X30549443Y-15391544D01*
X30607933Y-15532753D01*
X30607934Y-15532756D01*
X30700982Y-15654017D01*
X30822243Y-15747065D01*
X30822244Y-15747065D01*
X30822245Y-15747066D01*
X30963459Y-15805558D01*
X31115000Y-15825509D01*
X31266541Y-15805558D01*
X31407755Y-15747066D01*
X31529017Y-15654017D01*
X31622066Y-15532755D01*
X31680558Y-15391541D01*
X31693847Y-15290600D01*
X31722114Y-15226704D01*
X31780438Y-15188233D01*
X31800599Y-15183847D01*
X31901541Y-15170558D01*
X32042755Y-15112066D01*
X32164017Y-15019017D01*
X32164017Y-15019015D01*
X32169340Y-15014932D01*
X32234508Y-14989737D01*
X32302953Y-15003775D01*
X32352944Y-15052588D01*
X32368511Y-15104461D01*
X32384684Y-15330581D01*
X32385000Y-15339427D01*
X32385000Y-24318176D01*
X32365315Y-24385215D01*
X32312511Y-24430970D01*
X32261000Y-24442176D01*
X23378000Y-24442176D01*
X23378000Y-26929155D01*
X31091773Y-26929155D01*
X31158812Y-26948840D01*
X31204567Y-27001644D01*
X31214511Y-27070802D01*
X31206335Y-27100604D01*
X31194084Y-27130179D01*
X31184444Y-27153455D01*
X31184442Y-27153459D01*
X31164491Y-27305000D01*
X31173633Y-27374443D01*
X31184442Y-27456540D01*
X31184443Y-27456544D01*
X31242933Y-27597753D01*
X31242934Y-27597756D01*
X31335982Y-27719017D01*
X31457243Y-27812065D01*
X31457244Y-27812065D01*
X31457245Y-27812066D01*
X31598459Y-27870558D01*
X31623772Y-27873890D01*
X31687668Y-27902155D01*
X31726140Y-27960479D01*
X31726973Y-28030344D01*
X31689902Y-28089568D01*
X31681899Y-28096096D01*
X31473380Y-28252193D01*
X31458496Y-28261758D01*
X31223617Y-28390011D01*
X31207524Y-28397361D01*
X30956770Y-28490888D01*
X30939794Y-28495872D01*
X30678297Y-28552757D01*
X30660785Y-28555275D01*
X30389418Y-28574684D01*
X30380572Y-28575000D01*
X25891319Y-28575000D01*
X25824280Y-28555315D01*
X25778525Y-28502511D01*
X25768581Y-28433353D01*
X25797606Y-28369797D01*
X25808535Y-28359499D01*
X25814017Y-28354017D01*
X25907065Y-28232756D01*
X25907064Y-28232756D01*
X25907066Y-28232755D01*
X25965558Y-28091541D01*
X25985509Y-27940000D01*
X25965558Y-27788459D01*
X25936794Y-27719017D01*
X25907067Y-27647247D01*
X25907065Y-27647244D01*
X25857314Y-27582409D01*
X25814017Y-27525983D01*
X25814015Y-27525982D01*
X25814015Y-27525981D01*
X25692756Y-27432934D01*
X25692753Y-27432933D01*
X25551544Y-27374443D01*
X25551542Y-27374442D01*
X25551541Y-27374442D01*
X25400000Y-27354491D01*
X25248459Y-27374442D01*
X25248455Y-27374443D01*
X25107247Y-27432932D01*
X25107244Y-27432934D01*
X24985983Y-27525982D01*
X24985982Y-27525983D01*
X24892934Y-27647244D01*
X24892932Y-27647247D01*
X24834443Y-27788455D01*
X24834442Y-27788459D01*
X24814491Y-27940000D01*
X24834442Y-28091540D01*
X24834443Y-28091544D01*
X24892933Y-28232753D01*
X24892934Y-28232756D01*
X24985982Y-28354017D01*
X24991729Y-28359764D01*
X24990371Y-28361121D01*
X25025370Y-28409052D01*
X25029525Y-28478798D01*
X24995313Y-28539718D01*
X24933596Y-28572471D01*
X24908681Y-28575000D01*
X19541319Y-28575000D01*
X19474280Y-28555315D01*
X19428525Y-28502511D01*
X19418581Y-28433353D01*
X19447606Y-28369797D01*
X19458535Y-28359499D01*
X19464017Y-28354017D01*
X19557065Y-28232756D01*
X19557064Y-28232756D01*
X19557066Y-28232755D01*
X19615558Y-28091541D01*
X19635509Y-27940000D01*
X19615558Y-27788459D01*
X19586794Y-27719017D01*
X19557067Y-27647247D01*
X19557065Y-27647244D01*
X19507314Y-27582409D01*
X19464017Y-27525983D01*
X19464015Y-27525982D01*
X19464015Y-27525981D01*
X19342756Y-27432934D01*
X19342753Y-27432933D01*
X19201544Y-27374443D01*
X19201542Y-27374442D01*
X19201541Y-27374442D01*
X19050000Y-27354491D01*
X18898459Y-27374442D01*
X18898455Y-27374443D01*
X18757247Y-27432932D01*
X18757244Y-27432934D01*
X18635983Y-27525982D01*
X18635982Y-27525983D01*
X18542934Y-27647244D01*
X18542932Y-27647247D01*
X18484443Y-27788455D01*
X18484442Y-27788459D01*
X18464491Y-27940000D01*
X18484442Y-28091540D01*
X18484443Y-28091544D01*
X18542933Y-28232753D01*
X18542934Y-28232756D01*
X18635982Y-28354017D01*
X18641729Y-28359764D01*
X18640371Y-28361121D01*
X18675370Y-28409052D01*
X18679525Y-28478798D01*
X18645313Y-28539718D01*
X18583596Y-28572471D01*
X18558681Y-28575000D01*
X13191319Y-28575000D01*
X13124280Y-28555315D01*
X13078525Y-28502511D01*
X13068581Y-28433353D01*
X13097606Y-28369797D01*
X13108535Y-28359499D01*
X13114017Y-28354017D01*
X13207065Y-28232756D01*
X13207064Y-28232756D01*
X13207066Y-28232755D01*
X13265558Y-28091541D01*
X13285509Y-27940000D01*
X13265558Y-27788459D01*
X13236794Y-27719017D01*
X13207067Y-27647247D01*
X13207065Y-27647244D01*
X13157314Y-27582409D01*
X13114017Y-27525983D01*
X13114015Y-27525982D01*
X13114015Y-27525981D01*
X12992756Y-27432934D01*
X12992753Y-27432933D01*
X12851544Y-27374443D01*
X12851542Y-27374442D01*
X12851541Y-27374442D01*
X12700000Y-27354491D01*
X12548459Y-27374442D01*
X12548455Y-27374443D01*
X12407247Y-27432932D01*
X12407244Y-27432934D01*
X12285983Y-27525982D01*
X12285982Y-27525983D01*
X12192934Y-27647244D01*
X12192932Y-27647247D01*
X12134443Y-27788455D01*
X12134442Y-27788459D01*
X12114491Y-27940000D01*
X12134442Y-28091540D01*
X12134443Y-28091544D01*
X12192933Y-28232753D01*
X12192934Y-28232756D01*
X12285982Y-28354017D01*
X12291729Y-28359764D01*
X12290371Y-28361121D01*
X12325370Y-28409052D01*
X12329525Y-28478798D01*
X12295313Y-28539718D01*
X12233596Y-28572471D01*
X12208681Y-28575000D01*
X6841319Y-28575000D01*
X6774280Y-28555315D01*
X6728525Y-28502511D01*
X6718581Y-28433353D01*
X6747606Y-28369797D01*
X6758535Y-28359499D01*
X6764017Y-28354017D01*
X6857065Y-28232756D01*
X6857064Y-28232756D01*
X6857066Y-28232755D01*
X6915558Y-28091541D01*
X6935509Y-27940000D01*
X6915558Y-27788459D01*
X6886794Y-27719017D01*
X6857067Y-27647247D01*
X6857065Y-27647244D01*
X6807314Y-27582409D01*
X6764017Y-27525983D01*
X6764015Y-27525982D01*
X6764015Y-27525981D01*
X6642756Y-27432934D01*
X6642753Y-27432933D01*
X6501544Y-27374443D01*
X6501542Y-27374442D01*
X6501541Y-27374442D01*
X6350000Y-27354491D01*
X6198459Y-27374442D01*
X6198455Y-27374443D01*
X6057247Y-27432932D01*
X6057244Y-27432934D01*
X5935983Y-27525982D01*
X5935982Y-27525983D01*
X5842934Y-27647244D01*
X5842932Y-27647247D01*
X5784443Y-27788455D01*
X5784442Y-27788459D01*
X5764491Y-27940000D01*
X5784442Y-28091540D01*
X5784443Y-28091544D01*
X5842933Y-28232753D01*
X5842934Y-28232756D01*
X5935982Y-28354017D01*
X5941729Y-28359764D01*
X5940371Y-28361121D01*
X5975370Y-28409052D01*
X5979525Y-28478798D01*
X5945313Y-28539718D01*
X5883596Y-28572471D01*
X5858681Y-28575000D01*
X2639428Y-28575000D01*
X2630582Y-28574684D01*
X2359214Y-28555275D01*
X2341702Y-28552757D01*
X2080205Y-28495872D01*
X2063229Y-28490888D01*
X1812475Y-28397361D01*
X1796382Y-28390011D01*
X1561503Y-28261758D01*
X1546619Y-28252193D01*
X1520654Y-28232756D01*
X1490245Y-28209991D01*
X1338100Y-28096096D01*
X1296229Y-28040162D01*
X1291245Y-27970470D01*
X1324730Y-27909147D01*
X1386054Y-27875663D01*
X1396214Y-27873892D01*
X1421541Y-27870558D01*
X1562755Y-27812066D01*
X1684017Y-27719017D01*
X1777066Y-27597755D01*
X1835558Y-27456541D01*
X1855509Y-27305000D01*
X1835558Y-27153459D01*
X1801321Y-27070802D01*
X1777067Y-27012247D01*
X1777065Y-27012244D01*
X1727314Y-26947409D01*
X1684017Y-26890983D01*
X1684015Y-26890982D01*
X1684015Y-26890981D01*
X1562756Y-26797934D01*
X1562753Y-26797933D01*
X1421544Y-26739443D01*
X1421542Y-26739442D01*
X1421541Y-26739442D01*
X1270000Y-26719491D01*
X1118459Y-26739442D01*
X1118455Y-26739443D01*
X977248Y-26797932D01*
X967335Y-26805539D01*
X855983Y-26890983D01*
X855981Y-26890984D01*
X850659Y-26895069D01*
X785490Y-26920263D01*
X717045Y-26906225D01*
X667055Y-26857411D01*
X651488Y-26805539D01*
X646125Y-26730557D01*
X635316Y-26579418D01*
X635000Y-26570572D01*
X635000Y-26165000D01*
X19668491Y-26165000D01*
X19688442Y-26316540D01*
X19688443Y-26316544D01*
X19746933Y-26457753D01*
X19746934Y-26457756D01*
X19839982Y-26579017D01*
X19961243Y-26672065D01*
X19961244Y-26672065D01*
X19961245Y-26672066D01*
X20102459Y-26730558D01*
X20254000Y-26750509D01*
X20405541Y-26730558D01*
X20546755Y-26672066D01*
X20668017Y-26579017D01*
X20761066Y-26457755D01*
X20819558Y-26316541D01*
X20839509Y-26165000D01*
X20819558Y-26013459D01*
X20797949Y-25961292D01*
X20761067Y-25872247D01*
X20761065Y-25872244D01*
X20668015Y-25750981D01*
X20546756Y-25657934D01*
X20546753Y-25657933D01*
X20405544Y-25599443D01*
X20405542Y-25599442D01*
X20405541Y-25599442D01*
X20254000Y-25579491D01*
X20102459Y-25599442D01*
X20102455Y-25599443D01*
X19961247Y-25657932D01*
X19961244Y-25657934D01*
X19839983Y-25750982D01*
X19839982Y-25750983D01*
X19746934Y-25872244D01*
X19746932Y-25872247D01*
X19688443Y-26013455D01*
X19688442Y-26013459D01*
X19668491Y-26165000D01*
X635000Y-26165000D01*
X635000Y-26142145D01*
X654685Y-26075106D01*
X707489Y-26029351D01*
X776647Y-26019407D01*
X806453Y-26027584D01*
X810818Y-26029392D01*
X810821Y-26029394D01*
X956503Y-26089737D01*
X1111153Y-26120499D01*
X1111156Y-26120500D01*
X1111158Y-26120500D01*
X1868844Y-26120500D01*
X1868845Y-26120499D01*
X2023497Y-26089737D01*
X2169179Y-26029394D01*
X2300289Y-25941789D01*
X2411789Y-25830289D01*
X2499394Y-25699179D01*
X2559737Y-25553497D01*
X2590500Y-25398842D01*
X2590500Y-25241158D01*
X2590500Y-25241155D01*
X2590499Y-25241153D01*
X4319500Y-25241153D01*
X4319500Y-25398846D01*
X4350261Y-25553489D01*
X4350264Y-25553501D01*
X4410602Y-25699172D01*
X4410609Y-25699185D01*
X4498210Y-25830288D01*
X4498213Y-25830292D01*
X4609707Y-25941786D01*
X4609711Y-25941789D01*
X4740814Y-26029390D01*
X4740827Y-26029397D01*
X4851180Y-26075106D01*
X4886503Y-26089737D01*
X5041153Y-26120499D01*
X5041156Y-26120500D01*
X5041158Y-26120500D01*
X6298844Y-26120500D01*
X6298845Y-26120499D01*
X6453497Y-26089737D01*
X6599179Y-26029394D01*
X6730289Y-25941789D01*
X6841789Y-25830289D01*
X6929394Y-25699179D01*
X6989737Y-25553497D01*
X7020500Y-25398842D01*
X7020500Y-25241158D01*
X7020500Y-25241155D01*
X7020499Y-25241153D01*
X6989738Y-25086510D01*
X6989737Y-25086503D01*
X6977829Y-25057755D01*
X6929397Y-24940827D01*
X6929390Y-24940814D01*
X6841789Y-24809711D01*
X6841786Y-24809707D01*
X6797079Y-24765000D01*
X7669491Y-24765000D01*
X7689442Y-24916540D01*
X7689443Y-24916544D01*
X7747933Y-25057753D01*
X7747934Y-25057756D01*
X7840982Y-25179017D01*
X7962243Y-25272065D01*
X7962244Y-25272065D01*
X7962245Y-25272066D01*
X8103459Y-25330558D01*
X8255000Y-25350509D01*
X8406541Y-25330558D01*
X8547755Y-25272066D01*
X8669017Y-25179017D01*
X8762066Y-25057755D01*
X8820558Y-24916541D01*
X8840509Y-24765000D01*
X8820558Y-24613459D01*
X8781639Y-24519500D01*
X8762067Y-24472247D01*
X8762065Y-24472244D01*
X8669015Y-24350981D01*
X8547756Y-24257934D01*
X8547753Y-24257933D01*
X8406544Y-24199443D01*
X8406542Y-24199442D01*
X8406541Y-24199442D01*
X8255000Y-24179491D01*
X8103459Y-24199442D01*
X8103455Y-24199443D01*
X7962247Y-24257932D01*
X7962244Y-24257934D01*
X7840983Y-24350982D01*
X7840982Y-24350983D01*
X7747934Y-24472244D01*
X7747932Y-24472247D01*
X7689443Y-24613455D01*
X7689442Y-24613459D01*
X7669491Y-24765000D01*
X6797079Y-24765000D01*
X6730292Y-24698213D01*
X6730288Y-24698210D01*
X6599185Y-24610609D01*
X6599172Y-24610602D01*
X6453501Y-24550264D01*
X6453489Y-24550261D01*
X6298845Y-24519500D01*
X6298842Y-24519500D01*
X5623742Y-24519500D01*
X5556703Y-24499815D01*
X5510948Y-24447011D01*
X5501004Y-24377853D01*
X5530029Y-24314297D01*
X5536061Y-24307819D01*
X5562340Y-24281540D01*
X5600515Y-24243365D01*
X5665967Y-24130000D01*
X15289491Y-24130000D01*
X15298633Y-24199443D01*
X15309442Y-24281540D01*
X15309443Y-24281544D01*
X15367933Y-24422753D01*
X15367934Y-24422756D01*
X15460982Y-24544017D01*
X15582243Y-24637065D01*
X15582244Y-24637065D01*
X15582245Y-24637066D01*
X15723459Y-24695558D01*
X15875000Y-24715509D01*
X16026541Y-24695558D01*
X16167755Y-24637066D01*
X16289017Y-24544017D01*
X16382066Y-24422755D01*
X16440558Y-24281541D01*
X16460509Y-24130000D01*
X16440558Y-23978459D01*
X16411794Y-23909017D01*
X16382067Y-23837247D01*
X16382065Y-23837244D01*
X16289015Y-23715981D01*
X16167756Y-23622934D01*
X16167753Y-23622933D01*
X16026544Y-23564443D01*
X16026542Y-23564442D01*
X16026541Y-23564442D01*
X15875000Y-23544491D01*
X15723459Y-23564442D01*
X15723455Y-23564443D01*
X15582247Y-23622932D01*
X15582244Y-23622934D01*
X15460983Y-23715982D01*
X15460982Y-23715983D01*
X15367934Y-23837244D01*
X15367932Y-23837247D01*
X15309443Y-23978455D01*
X15309442Y-23978459D01*
X15289491Y-24130000D01*
X5665967Y-24130000D01*
X5676281Y-24112135D01*
X5715500Y-23965766D01*
X5715500Y-23814234D01*
X5676281Y-23667865D01*
X5600515Y-23536635D01*
X5558880Y-23495000D01*
X8939491Y-23495000D01*
X8948633Y-23564443D01*
X8959442Y-23646540D01*
X8959443Y-23646544D01*
X9017933Y-23787753D01*
X9017934Y-23787756D01*
X9110982Y-23909017D01*
X9232243Y-24002065D01*
X9232244Y-24002065D01*
X9232245Y-24002066D01*
X9373459Y-24060558D01*
X9525000Y-24080509D01*
X9676541Y-24060558D01*
X9817755Y-24002066D01*
X9939017Y-23909017D01*
X10032066Y-23787755D01*
X10090558Y-23646541D01*
X10110509Y-23495000D01*
X10090558Y-23343459D01*
X10061794Y-23274017D01*
X10032067Y-23202247D01*
X10032065Y-23202244D01*
X9939015Y-23080981D01*
X9817756Y-22987934D01*
X9817753Y-22987933D01*
X9676544Y-22929443D01*
X9676542Y-22929442D01*
X9676541Y-22929442D01*
X9525000Y-22909491D01*
X9373459Y-22929442D01*
X9373455Y-22929443D01*
X9232247Y-22987932D01*
X9232244Y-22987934D01*
X9110983Y-23080982D01*
X9110982Y-23080983D01*
X9017934Y-23202244D01*
X9017932Y-23202247D01*
X8959443Y-23343455D01*
X8959442Y-23343459D01*
X8939491Y-23495000D01*
X5558880Y-23495000D01*
X5493365Y-23429485D01*
X5385251Y-23367065D01*
X5362136Y-23353719D01*
X5288950Y-23334109D01*
X5215766Y-23314500D01*
X5064234Y-23314500D01*
X4917863Y-23353719D01*
X4786635Y-23429485D01*
X4786632Y-23429487D01*
X4679487Y-23536632D01*
X4679485Y-23536635D01*
X4603719Y-23667863D01*
X4590826Y-23715982D01*
X4564500Y-23814234D01*
X4564500Y-23965766D01*
X4584109Y-24038950D01*
X4603719Y-24112136D01*
X4614033Y-24130000D01*
X4679485Y-24243365D01*
X4786635Y-24350515D01*
X4812041Y-24365183D01*
X4860256Y-24415750D01*
X4873480Y-24484357D01*
X4847512Y-24549221D01*
X4797494Y-24587131D01*
X4740824Y-24610604D01*
X4740814Y-24610609D01*
X4609711Y-24698210D01*
X4609707Y-24698213D01*
X4498213Y-24809707D01*
X4498210Y-24809711D01*
X4410609Y-24940814D01*
X4410602Y-24940827D01*
X4350264Y-25086498D01*
X4350261Y-25086510D01*
X4319500Y-25241153D01*
X2590499Y-25241153D01*
X2559738Y-25086510D01*
X2559737Y-25086503D01*
X2547829Y-25057755D01*
X2499397Y-24940827D01*
X2499390Y-24940814D01*
X2411789Y-24809711D01*
X2411786Y-24809707D01*
X2300292Y-24698213D01*
X2300288Y-24698210D01*
X2169185Y-24610609D01*
X2169172Y-24610602D01*
X2023501Y-24550264D01*
X2023489Y-24550261D01*
X1868845Y-24519500D01*
X1868842Y-24519500D01*
X1111158Y-24519500D01*
X1111155Y-24519500D01*
X956510Y-24550261D01*
X956498Y-24550264D01*
X806452Y-24612415D01*
X736983Y-24619884D01*
X674504Y-24588608D01*
X638852Y-24528519D01*
X635000Y-24497854D01*
X635000Y-22860000D01*
X11953437Y-22860000D01*
X11962579Y-22929443D01*
X11973388Y-23011540D01*
X11973389Y-23011544D01*
X12031879Y-23152753D01*
X12031880Y-23152756D01*
X12124928Y-23274017D01*
X12246189Y-23367065D01*
X12246190Y-23367065D01*
X12246191Y-23367066D01*
X12387405Y-23425558D01*
X12538946Y-23445509D01*
X12690487Y-23425558D01*
X12831701Y-23367066D01*
X12952963Y-23274017D01*
X13046012Y-23152755D01*
X13104504Y-23011541D01*
X13124455Y-22860000D01*
X13104504Y-22708459D01*
X13067225Y-22618459D01*
X13046013Y-22567247D01*
X13046011Y-22567244D01*
X12976952Y-22477246D01*
X12952963Y-22445983D01*
X12952961Y-22445982D01*
X12952961Y-22445981D01*
X12831702Y-22352934D01*
X12831699Y-22352933D01*
X12690490Y-22294443D01*
X12690488Y-22294442D01*
X12690487Y-22294442D01*
X12538946Y-22274491D01*
X12387405Y-22294442D01*
X12387401Y-22294443D01*
X12246193Y-22352932D01*
X12246190Y-22352934D01*
X12124929Y-22445982D01*
X12124928Y-22445983D01*
X12031880Y-22567244D01*
X12031878Y-22567247D01*
X11973389Y-22708455D01*
X11973388Y-22708459D01*
X11953437Y-22860000D01*
X635000Y-22860000D01*
X635000Y-20320000D01*
X3859491Y-20320000D01*
X3879442Y-20471540D01*
X3879443Y-20471544D01*
X3937933Y-20612753D01*
X3937934Y-20612756D01*
X4030982Y-20734017D01*
X4152243Y-20827065D01*
X4152246Y-20827067D01*
X4184530Y-20840439D01*
X4238934Y-20884280D01*
X4260999Y-20950574D01*
X4243720Y-21018273D01*
X4192583Y-21065884D01*
X4184531Y-21069561D01*
X4152245Y-21082934D01*
X4152244Y-21082934D01*
X4030983Y-21175982D01*
X4030982Y-21175983D01*
X3937934Y-21297244D01*
X3937932Y-21297247D01*
X3879443Y-21438455D01*
X3879442Y-21438459D01*
X3859491Y-21590000D01*
X3868633Y-21659443D01*
X3879442Y-21741540D01*
X3879443Y-21741544D01*
X3937933Y-21882753D01*
X3937934Y-21882756D01*
X4030982Y-22004017D01*
X4152243Y-22097065D01*
X4152244Y-22097065D01*
X4152245Y-22097066D01*
X4293459Y-22155558D01*
X4394399Y-22168847D01*
X4458295Y-22197114D01*
X4496766Y-22255438D01*
X4501152Y-22275599D01*
X4514442Y-22376540D01*
X4514443Y-22376544D01*
X4572933Y-22517753D01*
X4572934Y-22517756D01*
X4665982Y-22639017D01*
X4787243Y-22732065D01*
X4787244Y-22732065D01*
X4787245Y-22732066D01*
X4928459Y-22790558D01*
X5080000Y-22810509D01*
X5231541Y-22790558D01*
X5372755Y-22732066D01*
X5494017Y-22639017D01*
X5587066Y-22517755D01*
X5645558Y-22376541D01*
X5665509Y-22225000D01*
X19734491Y-22225000D01*
X19751735Y-22355983D01*
X19754442Y-22376540D01*
X19754443Y-22376544D01*
X19812933Y-22517753D01*
X19812934Y-22517756D01*
X19905982Y-22639017D01*
X20027243Y-22732065D01*
X20027244Y-22732065D01*
X20027245Y-22732066D01*
X20168459Y-22790558D01*
X20320000Y-22810509D01*
X20471541Y-22790558D01*
X20521173Y-22770000D01*
X26719491Y-22770000D01*
X26739442Y-22921540D01*
X26739443Y-22921544D01*
X26797933Y-23062753D01*
X26797934Y-23062756D01*
X26890982Y-23184017D01*
X27012243Y-23277065D01*
X27012244Y-23277065D01*
X27012245Y-23277066D01*
X27153459Y-23335558D01*
X27305000Y-23355509D01*
X27456541Y-23335558D01*
X27597755Y-23277066D01*
X27719017Y-23184017D01*
X27812066Y-23062755D01*
X27870558Y-22921541D01*
X27878660Y-22860000D01*
X29259491Y-22860000D01*
X29268633Y-22929443D01*
X29279442Y-23011540D01*
X29279443Y-23011544D01*
X29337933Y-23152753D01*
X29337934Y-23152756D01*
X29430982Y-23274017D01*
X29552243Y-23367065D01*
X29552244Y-23367065D01*
X29552245Y-23367066D01*
X29693459Y-23425558D01*
X29845000Y-23445509D01*
X29996541Y-23425558D01*
X30137755Y-23367066D01*
X30259017Y-23274017D01*
X30352066Y-23152755D01*
X30410558Y-23011541D01*
X30430509Y-22860000D01*
X30410558Y-22708459D01*
X30373279Y-22618459D01*
X30352067Y-22567247D01*
X30352065Y-22567244D01*
X30283006Y-22477246D01*
X30259017Y-22445983D01*
X30259015Y-22445982D01*
X30259015Y-22445981D01*
X30137756Y-22352934D01*
X30137753Y-22352933D01*
X29996544Y-22294443D01*
X29996542Y-22294442D01*
X29996541Y-22294442D01*
X29845000Y-22274491D01*
X29693459Y-22294442D01*
X29693455Y-22294443D01*
X29552247Y-22352932D01*
X29552244Y-22352934D01*
X29430983Y-22445982D01*
X29430982Y-22445983D01*
X29337934Y-22567244D01*
X29337932Y-22567247D01*
X29279443Y-22708455D01*
X29279442Y-22708459D01*
X29259491Y-22860000D01*
X27878660Y-22860000D01*
X27890509Y-22770000D01*
X27870558Y-22618459D01*
X27828846Y-22517756D01*
X27812067Y-22477247D01*
X27812065Y-22477244D01*
X27719015Y-22355981D01*
X27597756Y-22262934D01*
X27597753Y-22262933D01*
X27456544Y-22204443D01*
X27456542Y-22204442D01*
X27456541Y-22204442D01*
X27305000Y-22184491D01*
X27153459Y-22204442D01*
X27153455Y-22204443D01*
X27012247Y-22262932D01*
X27012244Y-22262934D01*
X26890983Y-22355982D01*
X26890982Y-22355983D01*
X26797934Y-22477244D01*
X26797932Y-22477247D01*
X26739443Y-22618455D01*
X26739442Y-22618459D01*
X26719491Y-22770000D01*
X20521173Y-22770000D01*
X20612755Y-22732066D01*
X20734017Y-22639017D01*
X20827066Y-22517755D01*
X20885558Y-22376541D01*
X20905509Y-22225000D01*
X20896390Y-22155736D01*
X20907155Y-22086701D01*
X20953535Y-22034446D01*
X21020804Y-22015560D01*
X21087605Y-22036040D01*
X21094816Y-22041176D01*
X21149832Y-22083392D01*
X21149833Y-22083392D01*
X21149834Y-22083393D01*
X21291048Y-22141885D01*
X21442589Y-22161836D01*
X21594130Y-22141885D01*
X21735344Y-22083393D01*
X21856606Y-21990344D01*
X21949655Y-21869082D01*
X22008147Y-21727868D01*
X22028098Y-21576327D01*
X22008147Y-21424786D01*
X21955318Y-21297244D01*
X21949656Y-21283574D01*
X21949654Y-21283571D01*
X21899903Y-21218736D01*
X21856606Y-21162310D01*
X21856604Y-21162309D01*
X21856604Y-21162308D01*
X21735345Y-21069261D01*
X21735342Y-21069260D01*
X21594133Y-21010770D01*
X21594131Y-21010769D01*
X21594130Y-21010769D01*
X21442589Y-20990818D01*
X21291048Y-21010769D01*
X21291044Y-21010770D01*
X21149836Y-21069259D01*
X21149833Y-21069261D01*
X21028572Y-21162309D01*
X21028571Y-21162310D01*
X20935523Y-21283571D01*
X20935521Y-21283574D01*
X20877032Y-21424782D01*
X20877031Y-21424786D01*
X20857080Y-21576327D01*
X20857080Y-21576329D01*
X20866198Y-21645591D01*
X20855432Y-21714626D01*
X20809052Y-21766881D01*
X20741783Y-21785766D01*
X20674982Y-21765285D01*
X20667772Y-21760151D01*
X20643523Y-21741544D01*
X20612755Y-21717934D01*
X20612754Y-21717933D01*
X20612752Y-21717932D01*
X20471544Y-21659443D01*
X20471542Y-21659442D01*
X20471541Y-21659442D01*
X20320000Y-21639491D01*
X20168459Y-21659442D01*
X20168455Y-21659443D01*
X20027247Y-21717932D01*
X20027244Y-21717934D01*
X19905983Y-21810982D01*
X19905982Y-21810983D01*
X19812934Y-21932244D01*
X19812932Y-21932247D01*
X19754443Y-22073455D01*
X19754442Y-22073459D01*
X19734491Y-22225000D01*
X5665509Y-22225000D01*
X5645558Y-22073459D01*
X5587066Y-21932246D01*
X5506123Y-21826760D01*
X5480930Y-21761593D01*
X5480500Y-21751275D01*
X5480500Y-21017729D01*
X5480501Y-21017716D01*
X5480501Y-20902274D01*
X5476022Y-20885557D01*
X5453207Y-20800413D01*
X5414873Y-20734017D01*
X5400480Y-20709087D01*
X5325913Y-20634520D01*
X5325912Y-20634519D01*
X5321593Y-20630200D01*
X5321581Y-20630189D01*
X5153438Y-20462045D01*
X5119955Y-20400724D01*
X5124939Y-20331032D01*
X5133198Y-20320000D01*
X13384491Y-20320000D01*
X13404442Y-20471540D01*
X13404443Y-20471544D01*
X13462933Y-20612753D01*
X13462934Y-20612756D01*
X13555982Y-20734017D01*
X13677243Y-20827065D01*
X13677244Y-20827065D01*
X13677245Y-20827066D01*
X13818459Y-20885558D01*
X13970000Y-20905509D01*
X14121541Y-20885558D01*
X14262755Y-20827066D01*
X14384017Y-20734017D01*
X14477066Y-20612755D01*
X14535558Y-20471541D01*
X14555509Y-20320000D01*
X18464491Y-20320000D01*
X18484442Y-20471540D01*
X18484443Y-20471544D01*
X18542933Y-20612753D01*
X18542934Y-20612756D01*
X18635982Y-20734017D01*
X18757243Y-20827065D01*
X18757244Y-20827065D01*
X18757245Y-20827066D01*
X18898459Y-20885558D01*
X19050000Y-20905509D01*
X19201541Y-20885558D01*
X19342755Y-20827066D01*
X19464017Y-20734017D01*
X19557066Y-20612755D01*
X19615558Y-20471541D01*
X19635509Y-20320000D01*
X27989491Y-20320000D01*
X28009442Y-20471540D01*
X28009443Y-20471544D01*
X28067933Y-20612753D01*
X28067934Y-20612756D01*
X28160982Y-20734017D01*
X28282243Y-20827065D01*
X28282244Y-20827065D01*
X28282245Y-20827066D01*
X28423459Y-20885558D01*
X28575000Y-20905509D01*
X28726541Y-20885558D01*
X28867755Y-20827066D01*
X28989017Y-20734017D01*
X29082066Y-20612755D01*
X29095439Y-20580468D01*
X29139279Y-20526066D01*
X29205572Y-20504000D01*
X29273272Y-20521278D01*
X29320883Y-20572415D01*
X29324554Y-20580453D01*
X29337934Y-20612755D01*
X29337935Y-20612756D01*
X29430982Y-20734017D01*
X29552243Y-20827065D01*
X29552244Y-20827065D01*
X29552245Y-20827066D01*
X29693459Y-20885558D01*
X29845000Y-20905509D01*
X29996541Y-20885558D01*
X30137755Y-20827066D01*
X30259017Y-20734017D01*
X30352066Y-20612755D01*
X30410558Y-20471541D01*
X30430509Y-20320000D01*
X30410558Y-20168459D01*
X30365439Y-20059531D01*
X30352067Y-20027247D01*
X30352065Y-20027244D01*
X30259015Y-19905981D01*
X30137756Y-19812935D01*
X30137755Y-19812934D01*
X30105468Y-19799560D01*
X30051066Y-19755721D01*
X30029000Y-19689428D01*
X30046278Y-19621728D01*
X30097415Y-19574117D01*
X30105453Y-19570445D01*
X30137755Y-19557066D01*
X30259017Y-19464017D01*
X30352066Y-19342755D01*
X30410558Y-19201541D01*
X30430509Y-19050000D01*
X30410558Y-18898459D01*
X30373279Y-18808459D01*
X30352067Y-18757247D01*
X30352065Y-18757244D01*
X30283006Y-18667246D01*
X30259017Y-18635983D01*
X30259015Y-18635982D01*
X30259015Y-18635981D01*
X30137756Y-18542934D01*
X30137753Y-18542933D01*
X29996544Y-18484443D01*
X29996542Y-18484442D01*
X29996541Y-18484442D01*
X29845000Y-18464491D01*
X29693459Y-18484442D01*
X29693455Y-18484443D01*
X29552247Y-18542932D01*
X29552244Y-18542934D01*
X29430983Y-18635982D01*
X29430982Y-18635983D01*
X29337934Y-18757244D01*
X29337932Y-18757247D01*
X29279443Y-18898455D01*
X29279442Y-18898459D01*
X29259491Y-19050000D01*
X29268633Y-19119443D01*
X29279442Y-19201540D01*
X29279443Y-19201544D01*
X29337933Y-19342753D01*
X29337934Y-19342756D01*
X29430982Y-19464017D01*
X29552243Y-19557065D01*
X29552246Y-19557067D01*
X29584530Y-19570439D01*
X29638934Y-19614280D01*
X29660999Y-19680574D01*
X29643720Y-19748273D01*
X29592583Y-19795884D01*
X29584531Y-19799561D01*
X29552245Y-19812934D01*
X29552244Y-19812934D01*
X29430983Y-19905982D01*
X29430982Y-19905983D01*
X29337934Y-20027244D01*
X29337934Y-20027245D01*
X29324561Y-20059531D01*
X29280720Y-20113934D01*
X29214425Y-20135999D01*
X29146726Y-20118719D01*
X29099116Y-20067582D01*
X29095439Y-20059531D01*
X29082066Y-20027247D01*
X29082066Y-20027246D01*
X29082065Y-20027244D01*
X28989015Y-19905981D01*
X28867756Y-19812934D01*
X28867753Y-19812933D01*
X28726544Y-19754443D01*
X28726542Y-19754442D01*
X28726541Y-19754442D01*
X28575000Y-19734491D01*
X28423459Y-19754442D01*
X28423455Y-19754443D01*
X28282247Y-19812932D01*
X28282244Y-19812934D01*
X28160983Y-19905982D01*
X28160982Y-19905983D01*
X28067934Y-20027244D01*
X28067932Y-20027247D01*
X28009443Y-20168455D01*
X28009442Y-20168459D01*
X27989491Y-20320000D01*
X19635509Y-20320000D01*
X19615558Y-20168459D01*
X19570439Y-20059531D01*
X19557067Y-20027247D01*
X19557065Y-20027244D01*
X19464015Y-19905981D01*
X19342756Y-19812934D01*
X19342753Y-19812933D01*
X19201544Y-19754443D01*
X19201542Y-19754442D01*
X19201541Y-19754442D01*
X19050000Y-19734491D01*
X18898459Y-19754442D01*
X18898455Y-19754443D01*
X18757247Y-19812932D01*
X18757244Y-19812934D01*
X18635983Y-19905982D01*
X18635982Y-19905983D01*
X18542934Y-20027244D01*
X18542932Y-20027247D01*
X18484443Y-20168455D01*
X18484442Y-20168459D01*
X18464491Y-20320000D01*
X14555509Y-20320000D01*
X14535558Y-20168459D01*
X14490439Y-20059531D01*
X14477067Y-20027247D01*
X14477065Y-20027244D01*
X14384015Y-19905981D01*
X14262756Y-19812934D01*
X14262753Y-19812933D01*
X14121544Y-19754443D01*
X14121542Y-19754442D01*
X14121541Y-19754442D01*
X13970000Y-19734491D01*
X13818459Y-19754442D01*
X13818455Y-19754443D01*
X13677247Y-19812932D01*
X13677244Y-19812934D01*
X13555983Y-19905982D01*
X13555982Y-19905983D01*
X13462934Y-20027244D01*
X13462932Y-20027247D01*
X13404443Y-20168455D01*
X13404442Y-20168459D01*
X13384491Y-20320000D01*
X5133198Y-20320000D01*
X5166811Y-20275099D01*
X5224934Y-20251427D01*
X5231541Y-20250558D01*
X5372755Y-20192066D01*
X5494017Y-20099017D01*
X5587066Y-19977755D01*
X5645558Y-19836541D01*
X5665509Y-19685000D01*
X5645558Y-19533459D01*
X5616794Y-19464017D01*
X5587067Y-19392247D01*
X5587065Y-19392244D01*
X5494015Y-19270981D01*
X5372756Y-19177934D01*
X5372753Y-19177933D01*
X5231544Y-19119443D01*
X5231542Y-19119442D01*
X5231541Y-19119442D01*
X5080000Y-19099491D01*
X4928459Y-19119442D01*
X4928455Y-19119443D01*
X4787247Y-19177932D01*
X4787244Y-19177934D01*
X4665983Y-19270982D01*
X4665982Y-19270983D01*
X4572934Y-19392244D01*
X4572932Y-19392247D01*
X4514443Y-19533455D01*
X4514442Y-19533459D01*
X4501152Y-19634400D01*
X4472885Y-19698296D01*
X4414560Y-19736766D01*
X4394400Y-19741152D01*
X4293459Y-19754442D01*
X4293455Y-19754443D01*
X4152247Y-19812932D01*
X4152244Y-19812934D01*
X4030983Y-19905982D01*
X4030982Y-19905983D01*
X3937934Y-20027244D01*
X3937932Y-20027247D01*
X3879443Y-20168455D01*
X3879442Y-20168459D01*
X3859491Y-20320000D01*
X635000Y-20320000D01*
X635000Y-19050000D01*
X8939491Y-19050000D01*
X8948633Y-19119443D01*
X8959442Y-19201540D01*
X8959443Y-19201544D01*
X9017933Y-19342753D01*
X9017934Y-19342756D01*
X9110982Y-19464017D01*
X9232243Y-19557065D01*
X9232244Y-19557065D01*
X9232245Y-19557066D01*
X9373459Y-19615558D01*
X9525000Y-19635509D01*
X9676541Y-19615558D01*
X9817755Y-19557066D01*
X9939017Y-19464017D01*
X10032066Y-19342755D01*
X10090558Y-19201541D01*
X10110509Y-19050000D01*
X10098660Y-18960000D01*
X20369491Y-18960000D01*
X20389442Y-19111540D01*
X20389443Y-19111544D01*
X20447933Y-19252753D01*
X20447934Y-19252756D01*
X20540982Y-19374017D01*
X20662243Y-19467065D01*
X20662244Y-19467065D01*
X20662245Y-19467066D01*
X20803459Y-19525558D01*
X20955000Y-19545509D01*
X21106541Y-19525558D01*
X21247755Y-19467066D01*
X21369017Y-19374017D01*
X21462066Y-19252755D01*
X21520558Y-19111541D01*
X21540509Y-18960000D01*
X21520558Y-18808459D01*
X21469627Y-18685499D01*
X21462067Y-18667247D01*
X21462065Y-18667244D01*
X21369015Y-18545981D01*
X21247756Y-18452934D01*
X21247753Y-18452933D01*
X21106544Y-18394443D01*
X21106542Y-18394442D01*
X21106541Y-18394442D01*
X20955000Y-18374491D01*
X20803459Y-18394442D01*
X20803455Y-18394443D01*
X20662247Y-18452932D01*
X20662244Y-18452934D01*
X20540983Y-18545982D01*
X20540982Y-18545983D01*
X20447934Y-18667244D01*
X20447932Y-18667247D01*
X20389443Y-18808455D01*
X20389442Y-18808459D01*
X20369491Y-18960000D01*
X10098660Y-18960000D01*
X10090558Y-18898459D01*
X10053279Y-18808459D01*
X10032067Y-18757247D01*
X10032065Y-18757244D01*
X9963006Y-18667246D01*
X9939017Y-18635983D01*
X9939015Y-18635982D01*
X9939015Y-18635981D01*
X9817756Y-18542934D01*
X9817753Y-18542933D01*
X9676544Y-18484443D01*
X9676542Y-18484442D01*
X9676541Y-18484442D01*
X9525000Y-18464491D01*
X9373459Y-18484442D01*
X9373455Y-18484443D01*
X9232247Y-18542932D01*
X9232244Y-18542934D01*
X9110983Y-18635982D01*
X9110982Y-18635983D01*
X9017934Y-18757244D01*
X9017932Y-18757247D01*
X8959443Y-18898455D01*
X8959442Y-18898459D01*
X8939491Y-19050000D01*
X635000Y-19050000D01*
X635000Y-17502145D01*
X654685Y-17435106D01*
X707489Y-17389351D01*
X776647Y-17379407D01*
X806453Y-17387584D01*
X810818Y-17389392D01*
X810821Y-17389394D01*
X956503Y-17449737D01*
X1111153Y-17480499D01*
X1111156Y-17480500D01*
X1111158Y-17480500D01*
X1868844Y-17480500D01*
X1868845Y-17480499D01*
X2023497Y-17449737D01*
X2150220Y-17397247D01*
X2169172Y-17389397D01*
X2169172Y-17389396D01*
X2169179Y-17389394D01*
X2300289Y-17301789D01*
X2411789Y-17190289D01*
X2499394Y-17059179D01*
X2559737Y-16913497D01*
X2590500Y-16758842D01*
X2590500Y-16601158D01*
X2590500Y-16601155D01*
X2590499Y-16601153D01*
X4319500Y-16601153D01*
X4319500Y-16758846D01*
X4350261Y-16913489D01*
X4350264Y-16913501D01*
X4410602Y-17059172D01*
X4410609Y-17059185D01*
X4498210Y-17190288D01*
X4498213Y-17190292D01*
X4609707Y-17301786D01*
X4609711Y-17301789D01*
X4740814Y-17389390D01*
X4740821Y-17389394D01*
X4797493Y-17412868D01*
X4851896Y-17456708D01*
X4873962Y-17523002D01*
X4856684Y-17590701D01*
X4812043Y-17634815D01*
X4786638Y-17649483D01*
X4786632Y-17649487D01*
X4679487Y-17756632D01*
X4679485Y-17756635D01*
X4603719Y-17887863D01*
X4578293Y-17982756D01*
X4564500Y-18034234D01*
X4564500Y-18185766D01*
X4584109Y-18258950D01*
X4603719Y-18332136D01*
X4628173Y-18374491D01*
X4679485Y-18463365D01*
X4786635Y-18570515D01*
X4917865Y-18646281D01*
X5064234Y-18685500D01*
X5064236Y-18685500D01*
X5215764Y-18685500D01*
X5215766Y-18685500D01*
X5362135Y-18646281D01*
X5493365Y-18570515D01*
X5600515Y-18463365D01*
X5676281Y-18332135D01*
X5715500Y-18185766D01*
X5715500Y-18034234D01*
X5676281Y-17887865D01*
X5600515Y-17756635D01*
X5536061Y-17692181D01*
X5502576Y-17630858D01*
X5507560Y-17561166D01*
X5549432Y-17505233D01*
X5614896Y-17480816D01*
X5623742Y-17480500D01*
X6298844Y-17480500D01*
X6298845Y-17480499D01*
X6453497Y-17449737D01*
X6580220Y-17397247D01*
X6599172Y-17389397D01*
X6599172Y-17389396D01*
X6599179Y-17389394D01*
X6730289Y-17301789D01*
X6841789Y-17190289D01*
X6872050Y-17145000D01*
X8304491Y-17145000D01*
X8321735Y-17275983D01*
X8324442Y-17296540D01*
X8324443Y-17296544D01*
X8382933Y-17437753D01*
X8382934Y-17437756D01*
X8475982Y-17559017D01*
X8597243Y-17652065D01*
X8597244Y-17652065D01*
X8597245Y-17652066D01*
X8738459Y-17710558D01*
X8890000Y-17730509D01*
X9041541Y-17710558D01*
X9091173Y-17690000D01*
X21639491Y-17690000D01*
X21659442Y-17841540D01*
X21659443Y-17841544D01*
X21717933Y-17982753D01*
X21717934Y-17982756D01*
X21810982Y-18104017D01*
X21932243Y-18197065D01*
X21932244Y-18197065D01*
X21932245Y-18197066D01*
X22073459Y-18255558D01*
X22225000Y-18275509D01*
X22376541Y-18255558D01*
X22517755Y-18197066D01*
X22639017Y-18104017D01*
X22732066Y-17982755D01*
X22790558Y-17841541D01*
X22810509Y-17690000D01*
X26719491Y-17690000D01*
X26739442Y-17841540D01*
X26739443Y-17841544D01*
X26797933Y-17982753D01*
X26797934Y-17982756D01*
X26890982Y-18104017D01*
X27012243Y-18197065D01*
X27012244Y-18197065D01*
X27012245Y-18197066D01*
X27153459Y-18255558D01*
X27305000Y-18275509D01*
X27456541Y-18255558D01*
X27597755Y-18197066D01*
X27719017Y-18104017D01*
X27812066Y-17982755D01*
X27870558Y-17841541D01*
X27890509Y-17690000D01*
X27870558Y-17538459D01*
X27833809Y-17449738D01*
X27812067Y-17397247D01*
X27812065Y-17397244D01*
X27719015Y-17275981D01*
X27597756Y-17182934D01*
X27597753Y-17182933D01*
X27456544Y-17124443D01*
X27456542Y-17124442D01*
X27456541Y-17124442D01*
X27305000Y-17104491D01*
X27153459Y-17124442D01*
X27153455Y-17124443D01*
X27012247Y-17182932D01*
X27012244Y-17182934D01*
X26890983Y-17275982D01*
X26890982Y-17275983D01*
X26797934Y-17397244D01*
X26797932Y-17397247D01*
X26739443Y-17538455D01*
X26739442Y-17538459D01*
X26719491Y-17690000D01*
X22810509Y-17690000D01*
X22790558Y-17538459D01*
X22753809Y-17449738D01*
X22732067Y-17397247D01*
X22732065Y-17397244D01*
X22639015Y-17275981D01*
X22517756Y-17182934D01*
X22517753Y-17182933D01*
X22376544Y-17124443D01*
X22376542Y-17124442D01*
X22376541Y-17124442D01*
X22225000Y-17104491D01*
X22073459Y-17124442D01*
X22073455Y-17124443D01*
X21932247Y-17182932D01*
X21932244Y-17182934D01*
X21810983Y-17275982D01*
X21810982Y-17275983D01*
X21717934Y-17397244D01*
X21717932Y-17397247D01*
X21659443Y-17538455D01*
X21659442Y-17538459D01*
X21639491Y-17690000D01*
X9091173Y-17690000D01*
X9182755Y-17652066D01*
X9304017Y-17559017D01*
X9397066Y-17437755D01*
X9455558Y-17296541D01*
X9475509Y-17145000D01*
X9455558Y-16993459D01*
X9422434Y-16913489D01*
X9397067Y-16852247D01*
X9397065Y-16852244D01*
X9325397Y-16758846D01*
X9304017Y-16730983D01*
X9304015Y-16730982D01*
X9304015Y-16730981D01*
X9182756Y-16637934D01*
X9182753Y-16637933D01*
X9041544Y-16579443D01*
X9041542Y-16579442D01*
X9041541Y-16579442D01*
X8890000Y-16559491D01*
X8738459Y-16579442D01*
X8738455Y-16579443D01*
X8597247Y-16637932D01*
X8597244Y-16637934D01*
X8475983Y-16730982D01*
X8475982Y-16730983D01*
X8382934Y-16852244D01*
X8382932Y-16852247D01*
X8324443Y-16993455D01*
X8324442Y-16993459D01*
X8304491Y-17145000D01*
X6872050Y-17145000D01*
X6929394Y-17059179D01*
X6989737Y-16913497D01*
X7020500Y-16758842D01*
X7020500Y-16601158D01*
X7020500Y-16601155D01*
X7020499Y-16601153D01*
X6989738Y-16446510D01*
X6989737Y-16446503D01*
X6989735Y-16446498D01*
X6929397Y-16300827D01*
X6929390Y-16300814D01*
X6841789Y-16169711D01*
X6841786Y-16169707D01*
X6730292Y-16058213D01*
X6730288Y-16058210D01*
X6599185Y-15970609D01*
X6599172Y-15970602D01*
X6453501Y-15910264D01*
X6453489Y-15910261D01*
X6298845Y-15879500D01*
X6298842Y-15879500D01*
X5041158Y-15879500D01*
X5041155Y-15879500D01*
X4886510Y-15910261D01*
X4886498Y-15910264D01*
X4740827Y-15970602D01*
X4740814Y-15970609D01*
X4609711Y-16058210D01*
X4609707Y-16058213D01*
X4498213Y-16169707D01*
X4498210Y-16169711D01*
X4410609Y-16300814D01*
X4410602Y-16300827D01*
X4350264Y-16446498D01*
X4350261Y-16446510D01*
X4319500Y-16601153D01*
X2590499Y-16601153D01*
X2559738Y-16446510D01*
X2559737Y-16446503D01*
X2559735Y-16446498D01*
X2499397Y-16300827D01*
X2499390Y-16300814D01*
X2411789Y-16169711D01*
X2411786Y-16169707D01*
X2300292Y-16058213D01*
X2300288Y-16058210D01*
X2169185Y-15970609D01*
X2169172Y-15970602D01*
X2023501Y-15910264D01*
X2023489Y-15910261D01*
X1868845Y-15879500D01*
X1868842Y-15879500D01*
X1111158Y-15879500D01*
X1111155Y-15879500D01*
X956510Y-15910261D01*
X956498Y-15910264D01*
X806452Y-15972415D01*
X736983Y-15979884D01*
X674504Y-15948608D01*
X638852Y-15888519D01*
X635000Y-15857854D01*
X635000Y-15339427D01*
X635316Y-15330581D01*
X645497Y-15188233D01*
X654724Y-15059207D01*
X657240Y-15041710D01*
X714130Y-14780192D01*
X719107Y-14763241D01*
X778128Y-14605000D01*
X8304491Y-14605000D01*
X8313633Y-14674443D01*
X8324442Y-14756540D01*
X8324443Y-14756544D01*
X8382933Y-14897753D01*
X8382934Y-14897756D01*
X8475982Y-15019017D01*
X8597243Y-15112065D01*
X8597244Y-15112065D01*
X8597245Y-15112066D01*
X8738459Y-15170558D01*
X8890000Y-15190509D01*
X9041541Y-15170558D01*
X9182755Y-15112066D01*
X9304017Y-15019017D01*
X9397066Y-14897755D01*
X9455558Y-14756541D01*
X9475509Y-14605000D01*
X9455558Y-14453459D01*
X9422901Y-14374618D01*
X9397067Y-14312247D01*
X9397065Y-14312244D01*
X9304015Y-14190981D01*
X9182756Y-14097934D01*
X9182753Y-14097933D01*
X9041544Y-14039443D01*
X9041542Y-14039442D01*
X9041541Y-14039442D01*
X8890000Y-14019491D01*
X8738459Y-14039442D01*
X8738455Y-14039443D01*
X8597247Y-14097932D01*
X8597244Y-14097934D01*
X8475983Y-14190982D01*
X8475982Y-14190983D01*
X8382934Y-14312244D01*
X8382932Y-14312247D01*
X8324443Y-14453455D01*
X8324442Y-14453459D01*
X8304491Y-14605000D01*
X778128Y-14605000D01*
X812640Y-14512470D01*
X819985Y-14496388D01*
X948248Y-14261491D01*
X957798Y-14246630D01*
X1118195Y-14032366D01*
X1129767Y-14019012D01*
X1319012Y-13829767D01*
X1332366Y-13818195D01*
X1546630Y-13657798D01*
X1561491Y-13648248D01*
X1796388Y-13519985D01*
X1812470Y-13512640D01*
X2063241Y-13419107D01*
X2080192Y-13414130D01*
X2341710Y-13357240D01*
X2359207Y-13354724D01*
X2630582Y-13335316D01*
X2639428Y-13335000D01*
X5858682Y-13335000D01*
X5925721Y-13354685D01*
G37*
%TD.AperFunction*%
%TD*%
%TA.AperFunction,Conductor*%
%TO.N,VDD*%
G36*
X43390721Y-13354685D02*
G01*
X43436476Y-13407489D01*
X43446420Y-13476647D01*
X43417395Y-13540203D01*
X43406465Y-13550500D01*
X43400982Y-13555983D01*
X43307934Y-13677244D01*
X43307932Y-13677247D01*
X43249443Y-13818455D01*
X43249442Y-13818459D01*
X43229491Y-13970000D01*
X43238633Y-14039443D01*
X43249442Y-14121540D01*
X43249443Y-14121544D01*
X43307933Y-14262753D01*
X43307934Y-14262756D01*
X43400982Y-14384017D01*
X43522243Y-14477065D01*
X43522244Y-14477065D01*
X43522245Y-14477066D01*
X43663459Y-14535558D01*
X43815000Y-14555509D01*
X43966541Y-14535558D01*
X44107755Y-14477066D01*
X44229017Y-14384017D01*
X44322066Y-14262755D01*
X44380558Y-14121541D01*
X44400509Y-13970000D01*
X44380558Y-13818459D01*
X44358949Y-13766292D01*
X44322067Y-13677247D01*
X44322065Y-13677244D01*
X44229015Y-13555980D01*
X44223267Y-13550232D01*
X44224625Y-13548874D01*
X44189630Y-13500948D01*
X44185475Y-13431202D01*
X44219687Y-13370282D01*
X44281404Y-13337529D01*
X44306319Y-13335000D01*
X49673682Y-13335000D01*
X49740721Y-13354685D01*
X49786476Y-13407489D01*
X49796420Y-13476647D01*
X49767395Y-13540203D01*
X49756465Y-13550500D01*
X49750982Y-13555983D01*
X49657934Y-13677244D01*
X49657932Y-13677247D01*
X49599443Y-13818455D01*
X49599442Y-13818459D01*
X49579491Y-13970000D01*
X49588633Y-14039443D01*
X49599442Y-14121540D01*
X49599443Y-14121544D01*
X49657933Y-14262753D01*
X49657934Y-14262756D01*
X49750982Y-14384017D01*
X49872243Y-14477065D01*
X49872244Y-14477065D01*
X49872245Y-14477066D01*
X50013459Y-14535558D01*
X50165000Y-14555509D01*
X50316541Y-14535558D01*
X50457755Y-14477066D01*
X50579017Y-14384017D01*
X50672066Y-14262755D01*
X50730558Y-14121541D01*
X50750509Y-13970000D01*
X50730558Y-13818459D01*
X50708949Y-13766292D01*
X50672067Y-13677247D01*
X50672065Y-13677244D01*
X50579015Y-13555980D01*
X50573267Y-13550232D01*
X50574625Y-13548874D01*
X50539630Y-13500948D01*
X50535475Y-13431202D01*
X50569687Y-13370282D01*
X50631404Y-13337529D01*
X50656319Y-13335000D01*
X56023682Y-13335000D01*
X56090721Y-13354685D01*
X56136476Y-13407489D01*
X56146420Y-13476647D01*
X56117395Y-13540203D01*
X56106465Y-13550500D01*
X56100982Y-13555983D01*
X56007934Y-13677244D01*
X56007932Y-13677247D01*
X55949443Y-13818455D01*
X55949442Y-13818459D01*
X55929491Y-13970000D01*
X55938633Y-14039443D01*
X55949442Y-14121540D01*
X55949443Y-14121544D01*
X56007933Y-14262753D01*
X56007934Y-14262756D01*
X56100982Y-14384017D01*
X56222243Y-14477065D01*
X56222244Y-14477065D01*
X56222245Y-14477066D01*
X56363459Y-14535558D01*
X56515000Y-14555509D01*
X56666541Y-14535558D01*
X56807755Y-14477066D01*
X56929017Y-14384017D01*
X57022066Y-14262755D01*
X57080558Y-14121541D01*
X57100509Y-13970000D01*
X57080558Y-13818459D01*
X57058949Y-13766292D01*
X57022067Y-13677247D01*
X57022065Y-13677244D01*
X56929015Y-13555980D01*
X56923267Y-13550232D01*
X56924625Y-13548874D01*
X56889630Y-13500948D01*
X56885475Y-13431202D01*
X56919687Y-13370282D01*
X56981404Y-13337529D01*
X57006319Y-13335000D01*
X58955572Y-13335000D01*
X58964418Y-13335316D01*
X59235790Y-13354724D01*
X59253291Y-13357241D01*
X59514803Y-13414129D01*
X59531762Y-13419108D01*
X59751182Y-13500948D01*
X59782524Y-13512638D01*
X59798616Y-13519987D01*
X60033501Y-13648244D01*
X60048375Y-13657802D01*
X60256900Y-13813903D01*
X60262624Y-13818188D01*
X60275994Y-13829774D01*
X60465225Y-14019005D01*
X60476811Y-14032375D01*
X60595542Y-14190981D01*
X60637193Y-14246619D01*
X60646757Y-14261502D01*
X60647442Y-14262756D01*
X60775011Y-14496382D01*
X60782361Y-14512475D01*
X60875888Y-14763229D01*
X60880872Y-14780205D01*
X60937757Y-15041702D01*
X60940275Y-15059214D01*
X60959684Y-15330581D01*
X60960000Y-15339427D01*
X60960000Y-26570572D01*
X60959684Y-26579418D01*
X60940275Y-26850785D01*
X60937757Y-26868297D01*
X60880872Y-27129794D01*
X60875888Y-27146770D01*
X60782361Y-27397524D01*
X60775011Y-27413617D01*
X60646758Y-27648496D01*
X60637193Y-27663380D01*
X60476811Y-27877624D01*
X60465225Y-27890994D01*
X60275994Y-28080225D01*
X60262624Y-28091811D01*
X60048380Y-28252193D01*
X60033496Y-28261758D01*
X59798617Y-28390011D01*
X59782524Y-28397361D01*
X59531770Y-28490888D01*
X59514794Y-28495872D01*
X59253297Y-28552757D01*
X59235785Y-28555275D01*
X58964418Y-28574684D01*
X58955572Y-28575000D01*
X57006319Y-28575000D01*
X56939280Y-28555315D01*
X56893525Y-28502511D01*
X56883581Y-28433353D01*
X56912606Y-28369797D01*
X56923535Y-28359499D01*
X56929017Y-28354017D01*
X57022065Y-28232756D01*
X57022064Y-28232756D01*
X57022066Y-28232755D01*
X57080558Y-28091541D01*
X57100509Y-27940000D01*
X57080558Y-27788459D01*
X57051794Y-27719017D01*
X57022067Y-27647247D01*
X57022065Y-27647244D01*
X56972314Y-27582409D01*
X56929017Y-27525983D01*
X56929015Y-27525982D01*
X56929015Y-27525981D01*
X56807756Y-27432934D01*
X56807753Y-27432933D01*
X56666544Y-27374443D01*
X56666542Y-27374442D01*
X56666541Y-27374442D01*
X56515000Y-27354491D01*
X56363459Y-27374442D01*
X56363455Y-27374443D01*
X56222247Y-27432932D01*
X56222244Y-27432934D01*
X56100983Y-27525982D01*
X56100982Y-27525983D01*
X56007934Y-27647244D01*
X56007932Y-27647247D01*
X55949443Y-27788455D01*
X55949442Y-27788459D01*
X55929491Y-27940000D01*
X55949442Y-28091540D01*
X55949443Y-28091544D01*
X56007933Y-28232753D01*
X56007934Y-28232756D01*
X56100982Y-28354017D01*
X56106729Y-28359764D01*
X56105371Y-28361121D01*
X56140370Y-28409052D01*
X56144525Y-28478798D01*
X56110313Y-28539718D01*
X56048596Y-28572471D01*
X56023681Y-28575000D01*
X50656319Y-28575000D01*
X50589280Y-28555315D01*
X50543525Y-28502511D01*
X50533581Y-28433353D01*
X50562606Y-28369797D01*
X50573535Y-28359499D01*
X50579017Y-28354017D01*
X50672065Y-28232756D01*
X50672064Y-28232756D01*
X50672066Y-28232755D01*
X50730558Y-28091541D01*
X50750509Y-27940000D01*
X50730558Y-27788459D01*
X50701794Y-27719017D01*
X50672067Y-27647247D01*
X50672065Y-27647244D01*
X50622314Y-27582409D01*
X50579017Y-27525983D01*
X50579015Y-27525982D01*
X50579015Y-27525981D01*
X50457756Y-27432934D01*
X50457753Y-27432933D01*
X50316544Y-27374443D01*
X50316542Y-27374442D01*
X50316541Y-27374442D01*
X50165000Y-27354491D01*
X50013459Y-27374442D01*
X50013455Y-27374443D01*
X49872247Y-27432932D01*
X49872244Y-27432934D01*
X49750983Y-27525982D01*
X49750982Y-27525983D01*
X49657934Y-27647244D01*
X49657932Y-27647247D01*
X49599443Y-27788455D01*
X49599442Y-27788459D01*
X49579491Y-27940000D01*
X49599442Y-28091540D01*
X49599443Y-28091544D01*
X49657933Y-28232753D01*
X49657934Y-28232756D01*
X49750982Y-28354017D01*
X49756729Y-28359764D01*
X49755371Y-28361121D01*
X49790370Y-28409052D01*
X49794525Y-28478798D01*
X49760313Y-28539718D01*
X49698596Y-28572471D01*
X49673681Y-28575000D01*
X44306319Y-28575000D01*
X44239280Y-28555315D01*
X44193525Y-28502511D01*
X44183581Y-28433353D01*
X44212606Y-28369797D01*
X44223535Y-28359499D01*
X44229017Y-28354017D01*
X44322065Y-28232756D01*
X44322064Y-28232756D01*
X44322066Y-28232755D01*
X44380558Y-28091541D01*
X44400509Y-27940000D01*
X44380558Y-27788459D01*
X44351794Y-27719017D01*
X44322067Y-27647247D01*
X44322065Y-27647244D01*
X44272314Y-27582409D01*
X44229017Y-27525983D01*
X44229015Y-27525982D01*
X44229015Y-27525981D01*
X44107756Y-27432934D01*
X44107753Y-27432933D01*
X43966544Y-27374443D01*
X43966542Y-27374442D01*
X43966541Y-27374442D01*
X43815000Y-27354491D01*
X43663459Y-27374442D01*
X43663455Y-27374443D01*
X43522247Y-27432932D01*
X43522244Y-27432934D01*
X43400983Y-27525982D01*
X43400982Y-27525983D01*
X43307934Y-27647244D01*
X43307932Y-27647247D01*
X43249443Y-27788455D01*
X43249442Y-27788459D01*
X43229491Y-27940000D01*
X43249442Y-28091540D01*
X43249443Y-28091544D01*
X43307933Y-28232753D01*
X43307934Y-28232756D01*
X43400982Y-28354017D01*
X43406729Y-28359764D01*
X43405371Y-28361121D01*
X43440370Y-28409052D01*
X43444525Y-28478798D01*
X43410313Y-28539718D01*
X43348596Y-28572471D01*
X43323681Y-28575000D01*
X39469428Y-28575000D01*
X39460582Y-28574684D01*
X39189214Y-28555275D01*
X39171702Y-28552757D01*
X38910205Y-28495872D01*
X38893229Y-28490888D01*
X38642475Y-28397361D01*
X38626382Y-28390011D01*
X38391503Y-28261758D01*
X38376619Y-28252193D01*
X38350654Y-28232756D01*
X38320245Y-28209991D01*
X38168100Y-28096096D01*
X38126229Y-28040162D01*
X38121245Y-27970470D01*
X38154730Y-27909147D01*
X38216054Y-27875663D01*
X38226214Y-27873892D01*
X38251541Y-27870558D01*
X38392755Y-27812066D01*
X38514017Y-27719017D01*
X38607066Y-27597755D01*
X38665558Y-27456541D01*
X38685509Y-27305000D01*
X38665558Y-27153459D01*
X38643949Y-27101292D01*
X38607067Y-27012247D01*
X38607065Y-27012244D01*
X38536484Y-26920263D01*
X38514017Y-26890983D01*
X38514015Y-26890982D01*
X38514015Y-26890981D01*
X38392756Y-26797934D01*
X38392753Y-26797933D01*
X38251544Y-26739443D01*
X38251542Y-26739442D01*
X38251541Y-26739442D01*
X38100000Y-26719491D01*
X37948459Y-26739442D01*
X37948455Y-26739443D01*
X37807248Y-26797932D01*
X37797335Y-26805539D01*
X37685983Y-26890983D01*
X37685981Y-26890984D01*
X37680659Y-26895069D01*
X37615490Y-26920263D01*
X37547045Y-26906225D01*
X37497055Y-26857411D01*
X37481488Y-26805539D01*
X37465316Y-26579418D01*
X37465000Y-26570572D01*
X37465000Y-25400000D01*
X41959491Y-25400000D01*
X41979442Y-25551540D01*
X41979443Y-25551544D01*
X42037933Y-25692753D01*
X42037934Y-25692756D01*
X42130982Y-25814017D01*
X42252243Y-25907065D01*
X42252244Y-25907065D01*
X42252245Y-25907066D01*
X42393459Y-25965558D01*
X42545000Y-25985509D01*
X42696541Y-25965558D01*
X42837755Y-25907066D01*
X42959017Y-25814017D01*
X43052066Y-25692755D01*
X43110558Y-25551541D01*
X43130509Y-25400000D01*
X43110558Y-25248459D01*
X43088949Y-25196292D01*
X43052067Y-25107247D01*
X43052065Y-25107244D01*
X42959015Y-24985981D01*
X42837756Y-24892934D01*
X42837753Y-24892933D01*
X42696544Y-24834443D01*
X42696542Y-24834442D01*
X42696541Y-24834442D01*
X42545000Y-24814491D01*
X42393459Y-24834442D01*
X42393455Y-24834443D01*
X42252247Y-24892932D01*
X42252244Y-24892934D01*
X42130983Y-24985982D01*
X42130982Y-24985983D01*
X42037934Y-25107244D01*
X42037932Y-25107247D01*
X41979443Y-25248455D01*
X41979442Y-25248459D01*
X41959491Y-25400000D01*
X37465000Y-25400000D01*
X37465000Y-23986319D01*
X37484685Y-23919280D01*
X37537489Y-23873525D01*
X37606647Y-23863581D01*
X37670203Y-23892606D01*
X37680500Y-23903535D01*
X37685982Y-23909017D01*
X37807243Y-24002065D01*
X37807244Y-24002065D01*
X37807245Y-24002066D01*
X37948459Y-24060558D01*
X38100000Y-24080509D01*
X38251541Y-24060558D01*
X38392755Y-24002066D01*
X38514017Y-23909017D01*
X38607066Y-23787755D01*
X38665558Y-23646541D01*
X38685509Y-23495000D01*
X58469491Y-23495000D01*
X58489442Y-23646540D01*
X58489443Y-23646544D01*
X58547933Y-23787753D01*
X58547934Y-23787756D01*
X58640982Y-23909017D01*
X58762243Y-24002065D01*
X58762244Y-24002065D01*
X58762245Y-24002066D01*
X58903459Y-24060558D01*
X59055000Y-24080509D01*
X59206541Y-24060558D01*
X59347755Y-24002066D01*
X59469017Y-23909017D01*
X59562066Y-23787755D01*
X59620558Y-23646541D01*
X59640509Y-23495000D01*
X59620558Y-23343459D01*
X59598949Y-23291292D01*
X59562067Y-23202247D01*
X59562065Y-23202244D01*
X59476169Y-23090304D01*
X59469017Y-23080983D01*
X59469015Y-23080982D01*
X59469015Y-23080981D01*
X59347756Y-22987934D01*
X59347753Y-22987933D01*
X59206544Y-22929443D01*
X59206542Y-22929442D01*
X59206541Y-22929442D01*
X59055000Y-22909491D01*
X58903459Y-22929442D01*
X58903455Y-22929443D01*
X58762247Y-22987932D01*
X58762244Y-22987934D01*
X58640983Y-23080982D01*
X58640982Y-23080983D01*
X58547934Y-23202244D01*
X58547932Y-23202247D01*
X58489443Y-23343455D01*
X58489442Y-23343459D01*
X58469491Y-23495000D01*
X38685509Y-23495000D01*
X38665558Y-23343459D01*
X38643949Y-23291292D01*
X38607067Y-23202247D01*
X38607065Y-23202244D01*
X38521169Y-23090304D01*
X38514017Y-23080983D01*
X38514015Y-23080982D01*
X38514015Y-23080981D01*
X38392756Y-22987934D01*
X38392753Y-22987933D01*
X38251544Y-22929443D01*
X38251542Y-22929442D01*
X38251541Y-22929442D01*
X38100000Y-22909491D01*
X37948459Y-22929442D01*
X37948455Y-22929443D01*
X37807247Y-22987932D01*
X37807244Y-22987934D01*
X37685983Y-23080982D01*
X37680236Y-23086730D01*
X37678879Y-23085373D01*
X37630936Y-23120374D01*
X37561190Y-23124522D01*
X37500273Y-23090304D01*
X37467526Y-23028583D01*
X37465000Y-23003681D01*
X37465000Y-20955000D01*
X41324491Y-20955000D01*
X41344442Y-21106540D01*
X41344443Y-21106544D01*
X41402933Y-21247753D01*
X41402934Y-21247756D01*
X41495982Y-21369017D01*
X41617243Y-21462065D01*
X41617244Y-21462065D01*
X41617245Y-21462066D01*
X41758459Y-21520558D01*
X41910000Y-21540509D01*
X42061541Y-21520558D01*
X42202755Y-21462066D01*
X42324017Y-21369017D01*
X42417066Y-21247755D01*
X42475558Y-21106541D01*
X42495509Y-20955000D01*
X42475558Y-20803459D01*
X42453949Y-20751292D01*
X42417067Y-20662247D01*
X42417065Y-20662244D01*
X42324015Y-20540981D01*
X42202756Y-20447934D01*
X42202753Y-20447933D01*
X42061544Y-20389443D01*
X42061542Y-20389442D01*
X42061541Y-20389442D01*
X41910000Y-20369491D01*
X41758459Y-20389442D01*
X41758455Y-20389443D01*
X41617247Y-20447932D01*
X41617244Y-20447934D01*
X41495983Y-20540982D01*
X41495982Y-20540983D01*
X41402934Y-20662244D01*
X41402932Y-20662247D01*
X41344443Y-20803455D01*
X41344442Y-20803459D01*
X41324491Y-20955000D01*
X37465000Y-20955000D01*
X37465000Y-18415000D01*
X58469491Y-18415000D01*
X58489442Y-18566540D01*
X58489443Y-18566544D01*
X58547933Y-18707753D01*
X58547934Y-18707756D01*
X58640982Y-18829017D01*
X58762243Y-18922065D01*
X58762244Y-18922065D01*
X58762245Y-18922066D01*
X58903459Y-18980558D01*
X59055000Y-19000509D01*
X59206541Y-18980558D01*
X59347755Y-18922066D01*
X59469017Y-18829017D01*
X59562066Y-18707755D01*
X59620558Y-18566541D01*
X59640509Y-18415000D01*
X59620558Y-18263459D01*
X59598949Y-18211292D01*
X59562067Y-18122247D01*
X59562065Y-18122244D01*
X59469015Y-18000981D01*
X59347756Y-17907934D01*
X59347753Y-17907933D01*
X59206544Y-17849443D01*
X59206542Y-17849442D01*
X59206541Y-17849442D01*
X59055000Y-17829491D01*
X58903459Y-17849442D01*
X58903455Y-17849443D01*
X58762247Y-17907932D01*
X58762244Y-17907934D01*
X58640983Y-18000982D01*
X58640982Y-18000983D01*
X58547934Y-18122244D01*
X58547932Y-18122247D01*
X58489443Y-18263455D01*
X58489442Y-18263459D01*
X58469491Y-18415000D01*
X37465000Y-18415000D01*
X37465000Y-15339427D01*
X37465316Y-15330581D01*
X37481488Y-15104459D01*
X37505905Y-15038997D01*
X37561838Y-14997125D01*
X37631530Y-14992141D01*
X37680659Y-15014932D01*
X37807243Y-15112065D01*
X37807244Y-15112065D01*
X37807245Y-15112066D01*
X37948459Y-15170558D01*
X38049399Y-15183847D01*
X38113295Y-15212114D01*
X38151766Y-15270438D01*
X38156152Y-15290599D01*
X38169442Y-15391540D01*
X38169443Y-15391544D01*
X38227933Y-15532753D01*
X38227934Y-15532756D01*
X38320982Y-15654017D01*
X38442243Y-15747065D01*
X38442244Y-15747065D01*
X38442245Y-15747066D01*
X38583459Y-15805558D01*
X38735000Y-15825509D01*
X38886541Y-15805558D01*
X39027755Y-15747066D01*
X39149017Y-15654017D01*
X39242066Y-15532755D01*
X39300558Y-15391541D01*
X39320509Y-15240000D01*
X41959491Y-15240000D01*
X41979442Y-15391540D01*
X41979443Y-15391544D01*
X42037933Y-15532753D01*
X42037934Y-15532756D01*
X42130982Y-15654017D01*
X42252243Y-15747065D01*
X42252246Y-15747067D01*
X42284530Y-15760439D01*
X42338934Y-15804280D01*
X42360999Y-15870574D01*
X42343720Y-15938273D01*
X42292583Y-15985884D01*
X42284531Y-15989561D01*
X42252245Y-16002934D01*
X42252244Y-16002934D01*
X42130983Y-16095982D01*
X42130982Y-16095983D01*
X42037934Y-16217244D01*
X42037932Y-16217247D01*
X41979443Y-16358455D01*
X41979442Y-16358459D01*
X41959491Y-16510000D01*
X41979442Y-16661540D01*
X41979443Y-16661544D01*
X42037933Y-16802753D01*
X42037934Y-16802756D01*
X42130982Y-16924017D01*
X42252243Y-17017065D01*
X42252244Y-17017065D01*
X42252245Y-17017066D01*
X42393459Y-17075558D01*
X42545000Y-17095509D01*
X42696541Y-17075558D01*
X42837755Y-17017066D01*
X42959017Y-16924017D01*
X43052066Y-16802755D01*
X43110558Y-16661541D01*
X43130509Y-16510000D01*
X43110558Y-16358459D01*
X43088949Y-16306292D01*
X43052067Y-16217247D01*
X43052065Y-16217244D01*
X42959015Y-16095981D01*
X42837756Y-16002935D01*
X42837755Y-16002934D01*
X42805468Y-15989560D01*
X42751066Y-15945721D01*
X42729000Y-15879428D01*
X42746278Y-15811728D01*
X42797415Y-15764117D01*
X42805453Y-15760445D01*
X42837755Y-15747066D01*
X42959017Y-15654017D01*
X43052066Y-15532755D01*
X43110558Y-15391541D01*
X43130509Y-15240000D01*
X43110558Y-15088459D01*
X43080102Y-15014932D01*
X43052067Y-14947247D01*
X43052065Y-14947244D01*
X42959015Y-14825981D01*
X42837756Y-14732934D01*
X42837753Y-14732933D01*
X42696544Y-14674443D01*
X42696542Y-14674442D01*
X42696541Y-14674442D01*
X42545000Y-14654491D01*
X42393459Y-14674442D01*
X42393455Y-14674443D01*
X42252247Y-14732932D01*
X42252244Y-14732934D01*
X42130983Y-14825982D01*
X42130982Y-14825983D01*
X42037934Y-14947244D01*
X42037932Y-14947247D01*
X41979443Y-15088455D01*
X41979442Y-15088459D01*
X41959491Y-15240000D01*
X39320509Y-15240000D01*
X39300558Y-15088459D01*
X39270102Y-15014932D01*
X39242067Y-14947247D01*
X39242065Y-14947244D01*
X39149015Y-14825981D01*
X39027756Y-14732934D01*
X39027753Y-14732933D01*
X38886544Y-14674443D01*
X38886542Y-14674442D01*
X38886541Y-14674442D01*
X38867541Y-14671940D01*
X38785599Y-14661152D01*
X38721703Y-14632885D01*
X38683233Y-14574560D01*
X38678847Y-14554399D01*
X38665558Y-14453459D01*
X38632901Y-14374618D01*
X38607067Y-14312247D01*
X38607065Y-14312244D01*
X38514015Y-14190981D01*
X38392756Y-14097934D01*
X38392753Y-14097933D01*
X38251544Y-14039443D01*
X38251542Y-14039442D01*
X38251541Y-14039442D01*
X38226223Y-14036108D01*
X38162328Y-14007842D01*
X38123858Y-13949517D01*
X38123027Y-13879652D01*
X38160100Y-13820429D01*
X38168100Y-13813903D01*
X38376630Y-13657798D01*
X38391491Y-13648248D01*
X38626388Y-13519985D01*
X38642470Y-13512640D01*
X38893241Y-13419107D01*
X38910192Y-13414130D01*
X39171710Y-13357240D01*
X39189207Y-13354724D01*
X39460582Y-13335316D01*
X39469428Y-13335000D01*
X43323682Y-13335000D01*
X43390721Y-13354685D01*
G37*
%TD.AperFunction*%
%TD*%
M02*
