%TF.GenerationSoftware,KiCad,Pcbnew,8.0.4+dfsg-1*%
%TF.CreationDate,2024-10-16T21:23:15+02:00*%
%TF.ProjectId,usb-serial,7573622d-7365-4726-9961-6c2e6b696361,rev?*%
%TF.SameCoordinates,Original*%
%TF.FileFunction,Copper,L4,Bot*%
%TF.FilePolarity,Positive*%
%FSLAX46Y46*%
G04 Gerber Fmt 4.6, Leading zero omitted, Abs format (unit mm)*
G04 Created by KiCad (PCBNEW 8.0.4+dfsg-1) date 2024-10-16 21:23:15*
%MOMM*%
%LPD*%
G01*
G04 APERTURE LIST*
%TA.AperFunction,ComponentPad*%
%ADD10O,2.100000X1.000000*%
%TD*%
%TA.AperFunction,ComponentPad*%
%ADD11O,1.600000X1.000000*%
%TD*%
%TA.AperFunction,ViaPad*%
%ADD12C,0.560000*%
%TD*%
%TA.AperFunction,Conductor*%
%ADD13C,0.500000*%
%TD*%
%TA.AperFunction,Conductor*%
%ADD14C,0.250000*%
%TD*%
G04 APERTURE END LIST*
D10*
%TO.P,USB1,S1,SHIELD*%
%TO.N,GND*%
X5670000Y-16680000D03*
D11*
X1490000Y-16680000D03*
D10*
X5670000Y-25320000D03*
D11*
X1490000Y-25320000D03*
%TD*%
D12*
%TO.N,VBUS*%
X15240000Y-27305000D03*
X22479000Y-22516000D03*
X20320000Y-24130000D03*
X3175000Y-12397500D03*
%TO.N,GND*%
X6985000Y-14272500D03*
X26670000Y-30480000D03*
X20320000Y-22225000D03*
X27305000Y-17690000D03*
X27305000Y-11684000D03*
X33020000Y-30480000D03*
X33655000Y-11684000D03*
X20955000Y-11684000D03*
X20955000Y-18960000D03*
X19050000Y-20320000D03*
X8255000Y-24765000D03*
X34925000Y-14605000D03*
X29210000Y-24765000D03*
X33020000Y-20955000D03*
X20320000Y-30480000D03*
X1270000Y-29845000D03*
X7620000Y-30480000D03*
X13970000Y-30480000D03*
X8890000Y-17145000D03*
X34925000Y-27305000D03*
X22225000Y-17690000D03*
X8255000Y-11684000D03*
X27305000Y-22770000D03*
X1270000Y-27305000D03*
X20254000Y-27305000D03*
X12538946Y-22860000D03*
X15875000Y-24130000D03*
X34925000Y-18415000D03*
X14605000Y-11684000D03*
%TO.N,Net-(USB1-DP1)*%
X5080000Y-22225000D03*
X4445000Y-20320000D03*
%TO.N,Net-(USB1-DN1)*%
X5080000Y-19685000D03*
X4445000Y-21590000D03*
%TO.N,VDD*%
X29845000Y-17145000D03*
X21442589Y-21576327D03*
X33020000Y-24765000D03*
%TO.N,GND1*%
X41275000Y-23495000D03*
X41275000Y-27305000D03*
X67310000Y-17145000D03*
X58420000Y-20955000D03*
X41275000Y-20955000D03*
X67310000Y-26035000D03*
X48260000Y-11684000D03*
X41910000Y-30480000D03*
X48260000Y-30480000D03*
X45720000Y-17145000D03*
X50800000Y-14605000D03*
X41275000Y-14605000D03*
X60960000Y-11684000D03*
X54610000Y-11684000D03*
X67310000Y-29845000D03*
X59055000Y-16510000D03*
X54610000Y-30480000D03*
X59055000Y-25400000D03*
X59055000Y-26670000D03*
X60960000Y-30480000D03*
X41910000Y-11684000D03*
%TO.N,Net-(U3-VBUS)*%
X9525000Y-23495000D03*
X9525000Y-19050000D03*
X13970000Y-20320000D03*
%TO.N,+3V3*%
X44450000Y-15875000D03*
X53975000Y-14605000D03*
X65405000Y-12397500D03*
X45720000Y-24765000D03*
X58420000Y-18955000D03*
%TD*%
D13*
%TO.N,VBUS*%
X20955000Y-24130000D02*
X22479000Y-22606000D01*
X22479000Y-22606000D02*
X22479000Y-22516000D01*
X20320000Y-24130000D02*
X20955000Y-24130000D01*
D14*
%TO.N,VDD*%
X22063916Y-20955000D02*
X29845000Y-20955000D01*
X33020000Y-24130000D02*
X33020000Y-24765000D01*
X29845000Y-20955000D02*
X33020000Y-24130000D01*
X29845000Y-17145000D02*
X29845000Y-20955000D01*
X21442589Y-21576327D02*
X22063916Y-20955000D01*
D13*
%TO.N,Net-(U3-VBUS)*%
X13970000Y-20320000D02*
X9525000Y-20320000D01*
X9525000Y-23495000D02*
X9525000Y-19050000D01*
%TD*%
%TA.AperFunction,Conductor*%
%TO.N,GND*%
G36*
X34320000Y-11203318D02*
G01*
X34348222Y-11213844D01*
X34382525Y-11226638D01*
X34398610Y-11233984D01*
X34633501Y-11362244D01*
X34648375Y-11371802D01*
X34862624Y-11532188D01*
X34875994Y-11543774D01*
X35065225Y-11733005D01*
X35076811Y-11746375D01*
X35237193Y-11960619D01*
X35246758Y-11975503D01*
X35375011Y-12210382D01*
X35382361Y-12226475D01*
X35475888Y-12477229D01*
X35480872Y-12494205D01*
X35537757Y-12755702D01*
X35540275Y-12773214D01*
X35559684Y-13044581D01*
X35560000Y-13053427D01*
X35560000Y-29110572D01*
X35559684Y-29119418D01*
X35540275Y-29390785D01*
X35537757Y-29408297D01*
X35480872Y-29669794D01*
X35475888Y-29686770D01*
X35382361Y-29937524D01*
X35375011Y-29953617D01*
X35246758Y-30188496D01*
X35237193Y-30203380D01*
X35076811Y-30417624D01*
X35065225Y-30430994D01*
X34875994Y-30620225D01*
X34862624Y-30631811D01*
X34664980Y-30779767D01*
X34599516Y-30804184D01*
X34590669Y-30804500D01*
X1059331Y-30804500D01*
X992292Y-30784815D01*
X985020Y-30779767D01*
X787375Y-30631811D01*
X774005Y-30620225D01*
X584772Y-30430992D01*
X573188Y-30417624D01*
X515231Y-30340203D01*
X490816Y-30274739D01*
X490500Y-30265894D01*
X490500Y-27304997D01*
X14454561Y-27304997D01*
X14454561Y-27305002D01*
X14474252Y-27479771D01*
X14532344Y-27645790D01*
X14625919Y-27794713D01*
X14750287Y-27919081D01*
X14899211Y-28012656D01*
X15065223Y-28070746D01*
X15065226Y-28070746D01*
X15065228Y-28070747D01*
X15239997Y-28090439D01*
X15240000Y-28090439D01*
X15240003Y-28090439D01*
X15414771Y-28070747D01*
X15414772Y-28070746D01*
X15414777Y-28070746D01*
X15580789Y-28012656D01*
X15729713Y-27919081D01*
X15854081Y-27794713D01*
X15947656Y-27645789D01*
X16005746Y-27479777D01*
X16025439Y-27305000D01*
X16005746Y-27130223D01*
X15947656Y-26964211D01*
X15854081Y-26815287D01*
X15729713Y-26690919D01*
X15580790Y-26597344D01*
X15414771Y-26539252D01*
X15240003Y-26519561D01*
X15239997Y-26519561D01*
X15065228Y-26539252D01*
X14899209Y-26597344D01*
X14750286Y-26690919D01*
X14625919Y-26815286D01*
X14532344Y-26964209D01*
X14474252Y-27130228D01*
X14454561Y-27304997D01*
X490500Y-27304997D01*
X490500Y-26046749D01*
X510185Y-25979710D01*
X562989Y-25933955D01*
X632147Y-25924011D01*
X683391Y-25943647D01*
X811051Y-26028947D01*
X811060Y-26028952D01*
X956648Y-26089256D01*
X956656Y-26089258D01*
X1111202Y-26119999D01*
X1111206Y-26120000D01*
X1240000Y-26120000D01*
X1240000Y-25620000D01*
X1740000Y-25620000D01*
X1740000Y-26120000D01*
X1868794Y-26120000D01*
X1868797Y-26119999D01*
X2023343Y-26089258D01*
X2023351Y-26089256D01*
X2168939Y-26028952D01*
X2168948Y-26028947D01*
X2299969Y-25941401D01*
X2299973Y-25941398D01*
X2411398Y-25829973D01*
X2411401Y-25829969D01*
X2498947Y-25698948D01*
X2498952Y-25698938D01*
X2552361Y-25570000D01*
X1956988Y-25570000D01*
X1974205Y-25560060D01*
X2030060Y-25504205D01*
X2069556Y-25435796D01*
X2090000Y-25359496D01*
X2090000Y-25280504D01*
X2069556Y-25204204D01*
X2030060Y-25135795D01*
X1974205Y-25079940D01*
X1956988Y-25070000D01*
X2552361Y-25070000D01*
X2552360Y-25069999D01*
X4357639Y-25069999D01*
X4357639Y-25070000D01*
X4953012Y-25070000D01*
X4935795Y-25079940D01*
X4879940Y-25135795D01*
X4840444Y-25204204D01*
X4820000Y-25280504D01*
X4820000Y-25359496D01*
X4840444Y-25435796D01*
X4879940Y-25504205D01*
X4935795Y-25560060D01*
X4953012Y-25570000D01*
X4357639Y-25570000D01*
X4411047Y-25698938D01*
X4411052Y-25698948D01*
X4498598Y-25829969D01*
X4498601Y-25829973D01*
X4610026Y-25941398D01*
X4610030Y-25941401D01*
X4741051Y-26028947D01*
X4741060Y-26028952D01*
X4886648Y-26089256D01*
X4886656Y-26089258D01*
X5041202Y-26119999D01*
X5041206Y-26120000D01*
X5420000Y-26120000D01*
X5420000Y-25620000D01*
X5920000Y-25620000D01*
X5920000Y-26120000D01*
X6298794Y-26120000D01*
X6298797Y-26119999D01*
X6453343Y-26089258D01*
X6453351Y-26089256D01*
X6598939Y-26028952D01*
X6598948Y-26028947D01*
X6729969Y-25941401D01*
X6729973Y-25941398D01*
X6841398Y-25829973D01*
X6841401Y-25829969D01*
X6928947Y-25698948D01*
X6928952Y-25698938D01*
X6982361Y-25570000D01*
X6386988Y-25570000D01*
X6404205Y-25560060D01*
X6460060Y-25504205D01*
X6499556Y-25435796D01*
X6520000Y-25359496D01*
X6520000Y-25280504D01*
X6499556Y-25204204D01*
X6460060Y-25135795D01*
X6404205Y-25079940D01*
X6386988Y-25070000D01*
X6982361Y-25070000D01*
X6982360Y-25069999D01*
X6928952Y-24941061D01*
X6928947Y-24941051D01*
X6841401Y-24810030D01*
X6841398Y-24810026D01*
X6729973Y-24698601D01*
X6729969Y-24698598D01*
X6598948Y-24611052D01*
X6598939Y-24611047D01*
X6453351Y-24550743D01*
X6453343Y-24550741D01*
X6298797Y-24520000D01*
X5920000Y-24520000D01*
X5920000Y-25020000D01*
X5420000Y-25020000D01*
X5420000Y-24468638D01*
X5421883Y-24468638D01*
X5425171Y-24422657D01*
X5467043Y-24366724D01*
X5479342Y-24358611D01*
X5493365Y-24350515D01*
X5600515Y-24243365D01*
X5676281Y-24112135D01*
X5715500Y-23965766D01*
X5715500Y-23814234D01*
X5676281Y-23667865D01*
X5600515Y-23536635D01*
X5493365Y-23429485D01*
X5406789Y-23379500D01*
X5362136Y-23353719D01*
X5288950Y-23334109D01*
X5215766Y-23314500D01*
X5064234Y-23314500D01*
X4917863Y-23353719D01*
X4786635Y-23429485D01*
X4786632Y-23429487D01*
X4679487Y-23536632D01*
X4679485Y-23536635D01*
X4603719Y-23667863D01*
X4564500Y-23814234D01*
X4564500Y-23965765D01*
X4603719Y-24112136D01*
X4641602Y-24177750D01*
X4679485Y-24243365D01*
X4786635Y-24350515D01*
X4812587Y-24365499D01*
X4860802Y-24416065D01*
X4874024Y-24484673D01*
X4848056Y-24549537D01*
X4798040Y-24587446D01*
X4741057Y-24611049D01*
X4741051Y-24611052D01*
X4610030Y-24698598D01*
X4610026Y-24698601D01*
X4498601Y-24810026D01*
X4498598Y-24810030D01*
X4411052Y-24941051D01*
X4411047Y-24941061D01*
X4357639Y-25069999D01*
X2552360Y-25069999D01*
X2498952Y-24941061D01*
X2498947Y-24941051D01*
X2411401Y-24810030D01*
X2411398Y-24810026D01*
X2299973Y-24698601D01*
X2299969Y-24698598D01*
X2168948Y-24611052D01*
X2168939Y-24611047D01*
X2023351Y-24550743D01*
X2023343Y-24550741D01*
X1868797Y-24520000D01*
X1740000Y-24520000D01*
X1740000Y-25020000D01*
X1240000Y-25020000D01*
X1240000Y-24520000D01*
X1111202Y-24520000D01*
X956656Y-24550741D01*
X956648Y-24550743D01*
X811060Y-24611047D01*
X811046Y-24611055D01*
X683390Y-24696352D01*
X616713Y-24717230D01*
X549333Y-24698745D01*
X502643Y-24646766D01*
X490500Y-24593250D01*
X490500Y-20319997D01*
X3659561Y-20319997D01*
X3659561Y-20320002D01*
X3679252Y-20494771D01*
X3737344Y-20660790D01*
X3830919Y-20809713D01*
X3888525Y-20867319D01*
X3922010Y-20928642D01*
X3917026Y-20998334D01*
X3888525Y-21042681D01*
X3830919Y-21100286D01*
X3737344Y-21249209D01*
X3679252Y-21415228D01*
X3659561Y-21589997D01*
X3659561Y-21590002D01*
X3679252Y-21764771D01*
X3737344Y-21930790D01*
X3797349Y-22026287D01*
X3830919Y-22079713D01*
X3955287Y-22204081D01*
X3988583Y-22225002D01*
X4082450Y-22283983D01*
X4104211Y-22297656D01*
X4246477Y-22347437D01*
X4303252Y-22388158D01*
X4322562Y-22423521D01*
X4352696Y-22509639D01*
X4372344Y-22565790D01*
X4450876Y-22690772D01*
X4465919Y-22714713D01*
X4590287Y-22839081D01*
X4739211Y-22932656D01*
X4905223Y-22990746D01*
X4905226Y-22990746D01*
X4905228Y-22990747D01*
X5079997Y-23010439D01*
X5080000Y-23010439D01*
X5080003Y-23010439D01*
X5254771Y-22990747D01*
X5254772Y-22990746D01*
X5254777Y-22990746D01*
X5420789Y-22932656D01*
X5569713Y-22839081D01*
X5694081Y-22714713D01*
X5787656Y-22565789D01*
X5845746Y-22399777D01*
X5850776Y-22355141D01*
X5865439Y-22225002D01*
X5865439Y-22224997D01*
X5845747Y-22050228D01*
X5845746Y-22050226D01*
X5845746Y-22050223D01*
X5787656Y-21884211D01*
X5694081Y-21735287D01*
X5569713Y-21610919D01*
X5529872Y-21585885D01*
X5420790Y-21517344D01*
X5367327Y-21498637D01*
X5278522Y-21467562D01*
X5221748Y-21426842D01*
X5202437Y-21391478D01*
X5152656Y-21249211D01*
X5144063Y-21235536D01*
X5114429Y-21188372D01*
X5059081Y-21100287D01*
X5001475Y-21042681D01*
X4967990Y-20981358D01*
X4972974Y-20911666D01*
X5001475Y-20867319D01*
X5059081Y-20809713D01*
X5152656Y-20660789D01*
X5202437Y-20518522D01*
X5243158Y-20461748D01*
X5278521Y-20442437D01*
X5420789Y-20392656D01*
X5569713Y-20299081D01*
X5694081Y-20174713D01*
X5787656Y-20025789D01*
X5845746Y-19859777D01*
X5865439Y-19685000D01*
X5865439Y-19684997D01*
X5845747Y-19510228D01*
X5845746Y-19510226D01*
X5845746Y-19510223D01*
X5787656Y-19344211D01*
X5694081Y-19195287D01*
X5569713Y-19070919D01*
X5536416Y-19049997D01*
X8739561Y-19049997D01*
X8739561Y-19050002D01*
X8759252Y-19224772D01*
X8759254Y-19224777D01*
X8767541Y-19248461D01*
X8774500Y-19289414D01*
X8774500Y-23255582D01*
X8767542Y-23296535D01*
X8759254Y-23320220D01*
X8759252Y-23320227D01*
X8739561Y-23494997D01*
X8739561Y-23495002D01*
X8759252Y-23669771D01*
X8817344Y-23835790D01*
X8899013Y-23965765D01*
X8910919Y-23984713D01*
X9035287Y-24109081D01*
X9184211Y-24202656D01*
X9350223Y-24260746D01*
X9350226Y-24260746D01*
X9350228Y-24260747D01*
X9524997Y-24280439D01*
X9525000Y-24280439D01*
X9525003Y-24280439D01*
X9699771Y-24260747D01*
X9699772Y-24260746D01*
X9699777Y-24260746D01*
X9865789Y-24202656D01*
X9981425Y-24129997D01*
X19534561Y-24129997D01*
X19534561Y-24130002D01*
X19554252Y-24304771D01*
X19612344Y-24470790D01*
X19662581Y-24550741D01*
X19705919Y-24619713D01*
X19830287Y-24744081D01*
X19979211Y-24837656D01*
X20145223Y-24895746D01*
X20145226Y-24895746D01*
X20145228Y-24895747D01*
X20319997Y-24915439D01*
X20320000Y-24915439D01*
X20320003Y-24915439D01*
X20494772Y-24895747D01*
X20494773Y-24895746D01*
X20494777Y-24895746D01*
X20518463Y-24887458D01*
X20559417Y-24880500D01*
X21028920Y-24880500D01*
X21126462Y-24861096D01*
X21173913Y-24851658D01*
X21310495Y-24795084D01*
X21386827Y-24744081D01*
X21433416Y-24712952D01*
X23061951Y-23084416D01*
X23144084Y-22961495D01*
X23200658Y-22824913D01*
X23202710Y-22814592D01*
X23207280Y-22797844D01*
X23244746Y-22690777D01*
X23264439Y-22516000D01*
X23264439Y-22515997D01*
X23244747Y-22341228D01*
X23244746Y-22341226D01*
X23244746Y-22341223D01*
X23186656Y-22175211D01*
X23093081Y-22026287D01*
X22968713Y-21901919D01*
X22940528Y-21884209D01*
X22821620Y-21809494D01*
X22775329Y-21757159D01*
X22764681Y-21688105D01*
X22793056Y-21624257D01*
X22851446Y-21585885D01*
X22887592Y-21580500D01*
X29534548Y-21580500D01*
X29601587Y-21600185D01*
X29622229Y-21616819D01*
X32288250Y-24282840D01*
X32321735Y-24344163D01*
X32316751Y-24413855D01*
X32312372Y-24424128D01*
X32254252Y-24590228D01*
X32234561Y-24764997D01*
X32234561Y-24765002D01*
X32254252Y-24939771D01*
X32312344Y-25105790D01*
X32374182Y-25204204D01*
X32405919Y-25254713D01*
X32530287Y-25379081D01*
X32679211Y-25472656D01*
X32845223Y-25530746D01*
X32845226Y-25530746D01*
X32845228Y-25530747D01*
X33019997Y-25550439D01*
X33020000Y-25550439D01*
X33020003Y-25550439D01*
X33194771Y-25530747D01*
X33194772Y-25530746D01*
X33194777Y-25530746D01*
X33360789Y-25472656D01*
X33509713Y-25379081D01*
X33634081Y-25254713D01*
X33727656Y-25105789D01*
X33785746Y-24939777D01*
X33788489Y-24915439D01*
X33805439Y-24765002D01*
X33805439Y-24764997D01*
X33785747Y-24590228D01*
X33785746Y-24590226D01*
X33785746Y-24590223D01*
X33727656Y-24424211D01*
X33691535Y-24366724D01*
X33664506Y-24323707D01*
X33645500Y-24257735D01*
X33645500Y-24068396D01*
X33645500Y-24068394D01*
X33621463Y-23947548D01*
X33621461Y-23947543D01*
X33606360Y-23911085D01*
X33574314Y-23833719D01*
X33574312Y-23833714D01*
X33547936Y-23794241D01*
X33534750Y-23774506D01*
X33534749Y-23774505D01*
X33505858Y-23731267D01*
X33505856Y-23731264D01*
X33415637Y-23641045D01*
X33415606Y-23641016D01*
X30506819Y-20732229D01*
X30473334Y-20670906D01*
X30470500Y-20644548D01*
X30470500Y-17652263D01*
X30489507Y-17586291D01*
X30552655Y-17485792D01*
X30580313Y-17406749D01*
X30610746Y-17319777D01*
X30612564Y-17303647D01*
X30630439Y-17145002D01*
X30630439Y-17144997D01*
X30610747Y-16970228D01*
X30610746Y-16970226D01*
X30610746Y-16970223D01*
X30552656Y-16804211D01*
X30459081Y-16655287D01*
X30334713Y-16530919D01*
X30185790Y-16437344D01*
X30019771Y-16379252D01*
X29845003Y-16359561D01*
X29844997Y-16359561D01*
X29670228Y-16379252D01*
X29504209Y-16437344D01*
X29355286Y-16530919D01*
X29230919Y-16655286D01*
X29137344Y-16804209D01*
X29079252Y-16970228D01*
X29059561Y-17144997D01*
X29059561Y-17145002D01*
X29079252Y-17319771D01*
X29137344Y-17485792D01*
X29200493Y-17586291D01*
X29219500Y-17652263D01*
X29219500Y-20205500D01*
X29199815Y-20272539D01*
X29147011Y-20318294D01*
X29095500Y-20329500D01*
X22002304Y-20329500D01*
X21972146Y-20335499D01*
X21881470Y-20353535D01*
X21881461Y-20353537D01*
X21861459Y-20361823D01*
X21848123Y-20367347D01*
X21767635Y-20400684D01*
X21767621Y-20400692D01*
X21665188Y-20469138D01*
X21665180Y-20469144D01*
X21578055Y-20556270D01*
X21361527Y-20772797D01*
X21300204Y-20806282D01*
X21287735Y-20808336D01*
X21267812Y-20810581D01*
X21101798Y-20868671D01*
X20952875Y-20962246D01*
X20828508Y-21086613D01*
X20734933Y-21235536D01*
X20676841Y-21401555D01*
X20657150Y-21576324D01*
X20657150Y-21576329D01*
X20676841Y-21751098D01*
X20734933Y-21917117D01*
X20818573Y-22050228D01*
X20828508Y-22066040D01*
X20952876Y-22190408D01*
X21101800Y-22283983D01*
X21267812Y-22342073D01*
X21267815Y-22342073D01*
X21267817Y-22342074D01*
X21383791Y-22355141D01*
X21448205Y-22382207D01*
X21487760Y-22439802D01*
X21489898Y-22509639D01*
X21457589Y-22566042D01*
X20680451Y-23343181D01*
X20619128Y-23376666D01*
X20592770Y-23379500D01*
X20559417Y-23379500D01*
X20518463Y-23372542D01*
X20494775Y-23364253D01*
X20494772Y-23364252D01*
X20320003Y-23344561D01*
X20319997Y-23344561D01*
X20145228Y-23364252D01*
X19979209Y-23422344D01*
X19830286Y-23515919D01*
X19705919Y-23640286D01*
X19612344Y-23789209D01*
X19554252Y-23955228D01*
X19534561Y-24129997D01*
X9981425Y-24129997D01*
X10014713Y-24109081D01*
X10139081Y-23984713D01*
X10232656Y-23835789D01*
X10290746Y-23669777D01*
X10290962Y-23667865D01*
X10310439Y-23495002D01*
X10310439Y-23494997D01*
X10290747Y-23320227D01*
X10290745Y-23320220D01*
X10282458Y-23296535D01*
X10275500Y-23255582D01*
X10275500Y-21194500D01*
X10295185Y-21127461D01*
X10347989Y-21081706D01*
X10399500Y-21070500D01*
X13730583Y-21070500D01*
X13771537Y-21077458D01*
X13795223Y-21085746D01*
X13795224Y-21085746D01*
X13795227Y-21085747D01*
X13969997Y-21105439D01*
X13970000Y-21105439D01*
X13970003Y-21105439D01*
X14144771Y-21085747D01*
X14144772Y-21085746D01*
X14144777Y-21085746D01*
X14310789Y-21027656D01*
X14459713Y-20934081D01*
X14584081Y-20809713D01*
X14677656Y-20660789D01*
X14735746Y-20494777D01*
X14738635Y-20469144D01*
X14755439Y-20320002D01*
X14755439Y-20319997D01*
X14735747Y-20145228D01*
X14735746Y-20145226D01*
X14735746Y-20145223D01*
X14677656Y-19979211D01*
X14584081Y-19830287D01*
X14459713Y-19705919D01*
X14426416Y-19684997D01*
X14310790Y-19612344D01*
X14144771Y-19554252D01*
X13970003Y-19534561D01*
X13969997Y-19534561D01*
X13795227Y-19554252D01*
X13795224Y-19554253D01*
X13771537Y-19562542D01*
X13730583Y-19569500D01*
X10399500Y-19569500D01*
X10332461Y-19549815D01*
X10286706Y-19497011D01*
X10275500Y-19445500D01*
X10275500Y-19289414D01*
X10282458Y-19248461D01*
X10290746Y-19224777D01*
X10310439Y-19050000D01*
X10310439Y-19049997D01*
X10290747Y-18875228D01*
X10290746Y-18875226D01*
X10290746Y-18875223D01*
X10232656Y-18709211D01*
X10229500Y-18704189D01*
X10193114Y-18646280D01*
X10139081Y-18560287D01*
X10014713Y-18435919D01*
X9865790Y-18342344D01*
X9699771Y-18284252D01*
X9525003Y-18264561D01*
X9524997Y-18264561D01*
X9350228Y-18284252D01*
X9184209Y-18342344D01*
X9035286Y-18435919D01*
X8910919Y-18560286D01*
X8817344Y-18709209D01*
X8759252Y-18875228D01*
X8739561Y-19049997D01*
X5536416Y-19049997D01*
X5420790Y-18977344D01*
X5254774Y-18919253D01*
X5250059Y-18918177D01*
X5189084Y-18884062D01*
X5156232Y-18822398D01*
X5161933Y-18752761D01*
X5204378Y-18697261D01*
X5245564Y-18677515D01*
X5362135Y-18646281D01*
X5493365Y-18570515D01*
X5600515Y-18463365D01*
X5676281Y-18332135D01*
X5715500Y-18185766D01*
X5715500Y-18034234D01*
X5676281Y-17887865D01*
X5600515Y-17756635D01*
X5493365Y-17649485D01*
X5479351Y-17641394D01*
X5431137Y-17590827D01*
X5417915Y-17522220D01*
X5420000Y-17517011D01*
X5420000Y-16980000D01*
X5920000Y-16980000D01*
X5920000Y-17480000D01*
X6298794Y-17480000D01*
X6298797Y-17479999D01*
X6453343Y-17449258D01*
X6453351Y-17449256D01*
X6598939Y-17388952D01*
X6598948Y-17388947D01*
X6729969Y-17301401D01*
X6729973Y-17301398D01*
X6841398Y-17189973D01*
X6841401Y-17189969D01*
X6928947Y-17058948D01*
X6928952Y-17058938D01*
X6982361Y-16930000D01*
X6386988Y-16930000D01*
X6404205Y-16920060D01*
X6460060Y-16864205D01*
X6499556Y-16795796D01*
X6520000Y-16719496D01*
X6520000Y-16640504D01*
X6499556Y-16564204D01*
X6460060Y-16495795D01*
X6404205Y-16439940D01*
X6386988Y-16430000D01*
X6982361Y-16430000D01*
X6982360Y-16429999D01*
X6928952Y-16301061D01*
X6928947Y-16301051D01*
X6841401Y-16170030D01*
X6841398Y-16170026D01*
X6729973Y-16058601D01*
X6729969Y-16058598D01*
X6598948Y-15971052D01*
X6598939Y-15971047D01*
X6453351Y-15910743D01*
X6453343Y-15910741D01*
X6298797Y-15880000D01*
X5920000Y-15880000D01*
X5920000Y-16380000D01*
X5420000Y-16380000D01*
X5420000Y-15880000D01*
X5041202Y-15880000D01*
X4886656Y-15910741D01*
X4886648Y-15910743D01*
X4741060Y-15971047D01*
X4741051Y-15971052D01*
X4610030Y-16058598D01*
X4610026Y-16058601D01*
X4498601Y-16170026D01*
X4498598Y-16170030D01*
X4411052Y-16301051D01*
X4411047Y-16301061D01*
X4357639Y-16429999D01*
X4357639Y-16430000D01*
X4953012Y-16430000D01*
X4935795Y-16439940D01*
X4879940Y-16495795D01*
X4840444Y-16564204D01*
X4820000Y-16640504D01*
X4820000Y-16719496D01*
X4840444Y-16795796D01*
X4879940Y-16864205D01*
X4935795Y-16920060D01*
X4953012Y-16930000D01*
X4357639Y-16930000D01*
X4411047Y-17058938D01*
X4411052Y-17058948D01*
X4498598Y-17189969D01*
X4498601Y-17189973D01*
X4610026Y-17301398D01*
X4610030Y-17301401D01*
X4741051Y-17388947D01*
X4741064Y-17388954D01*
X4798038Y-17412553D01*
X4852442Y-17456393D01*
X4874507Y-17522687D01*
X4857228Y-17590387D01*
X4812589Y-17634499D01*
X4786641Y-17649481D01*
X4786632Y-17649487D01*
X4679487Y-17756632D01*
X4679485Y-17756635D01*
X4603719Y-17887863D01*
X4564500Y-18034234D01*
X4564500Y-18185765D01*
X4603719Y-18332136D01*
X4609613Y-18342344D01*
X4679485Y-18463365D01*
X4786635Y-18570515D01*
X4917865Y-18646281D01*
X4998274Y-18667826D01*
X5057933Y-18704189D01*
X5088463Y-18767036D01*
X5080169Y-18836412D01*
X5035684Y-18890290D01*
X4980065Y-18910820D01*
X4905228Y-18919252D01*
X4739209Y-18977344D01*
X4590286Y-19070919D01*
X4465919Y-19195286D01*
X4372343Y-19344210D01*
X4372342Y-19344214D01*
X4322562Y-19486476D01*
X4281840Y-19543252D01*
X4246476Y-19562562D01*
X4104214Y-19612342D01*
X4104210Y-19612343D01*
X3955286Y-19705919D01*
X3830919Y-19830286D01*
X3737344Y-19979209D01*
X3679252Y-20145228D01*
X3659561Y-20319997D01*
X490500Y-20319997D01*
X490500Y-17406749D01*
X510185Y-17339710D01*
X562989Y-17293955D01*
X632147Y-17284011D01*
X683391Y-17303647D01*
X811051Y-17388947D01*
X811060Y-17388952D01*
X956648Y-17449256D01*
X956656Y-17449258D01*
X1111202Y-17479999D01*
X1111206Y-17480000D01*
X1240000Y-17480000D01*
X1240000Y-16980000D01*
X1740000Y-16980000D01*
X1740000Y-17480000D01*
X1868794Y-17480000D01*
X1868797Y-17479999D01*
X2023343Y-17449258D01*
X2023351Y-17449256D01*
X2168939Y-17388952D01*
X2168948Y-17388947D01*
X2299969Y-17301401D01*
X2299973Y-17301398D01*
X2411398Y-17189973D01*
X2411401Y-17189969D01*
X2498947Y-17058948D01*
X2498952Y-17058938D01*
X2552361Y-16930000D01*
X1956988Y-16930000D01*
X1974205Y-16920060D01*
X2030060Y-16864205D01*
X2069556Y-16795796D01*
X2090000Y-16719496D01*
X2090000Y-16640504D01*
X2069556Y-16564204D01*
X2030060Y-16495795D01*
X1974205Y-16439940D01*
X1956988Y-16430000D01*
X2552361Y-16430000D01*
X2552360Y-16429999D01*
X2498952Y-16301061D01*
X2498947Y-16301051D01*
X2411401Y-16170030D01*
X2411398Y-16170026D01*
X2299973Y-16058601D01*
X2299969Y-16058598D01*
X2168948Y-15971052D01*
X2168939Y-15971047D01*
X2023351Y-15910743D01*
X2023343Y-15910741D01*
X1868797Y-15880000D01*
X1740000Y-15880000D01*
X1740000Y-16380000D01*
X1240000Y-16380000D01*
X1240000Y-15880000D01*
X1111202Y-15880000D01*
X956656Y-15910741D01*
X956648Y-15910743D01*
X811060Y-15971047D01*
X811046Y-15971055D01*
X683390Y-16056352D01*
X616713Y-16077230D01*
X549333Y-16058745D01*
X502643Y-16006766D01*
X490500Y-15953250D01*
X490500Y-12397497D01*
X2389561Y-12397497D01*
X2389561Y-12397502D01*
X2409252Y-12572271D01*
X2467344Y-12738290D01*
X2560919Y-12887213D01*
X2685287Y-13011581D01*
X2834211Y-13105156D01*
X3000223Y-13163246D01*
X3000226Y-13163246D01*
X3000228Y-13163247D01*
X3174997Y-13182939D01*
X3175000Y-13182939D01*
X3175003Y-13182939D01*
X3349771Y-13163247D01*
X3349772Y-13163246D01*
X3349777Y-13163246D01*
X3515789Y-13105156D01*
X3664713Y-13011581D01*
X3789081Y-12887213D01*
X3882656Y-12738289D01*
X3940746Y-12572277D01*
X3960439Y-12397500D01*
X3940746Y-12222723D01*
X3882656Y-12056711D01*
X3789081Y-11907787D01*
X3664713Y-11783419D01*
X3515790Y-11689844D01*
X3349771Y-11631752D01*
X3175003Y-11612061D01*
X3174997Y-11612061D01*
X3000228Y-11631752D01*
X2834209Y-11689844D01*
X2685286Y-11783419D01*
X2560919Y-11907786D01*
X2467344Y-12056709D01*
X2409252Y-12222728D01*
X2389561Y-12397497D01*
X490500Y-12397497D01*
X490500Y-11898105D01*
X510185Y-11831066D01*
X515233Y-11823795D01*
X573188Y-11746376D01*
X584767Y-11733012D01*
X774012Y-11543767D01*
X787366Y-11532195D01*
X1001630Y-11371798D01*
X1016491Y-11362248D01*
X1251394Y-11233981D01*
X1267474Y-11226638D01*
X1287171Y-11219291D01*
X1330001Y-11203318D01*
X1373333Y-11195500D01*
X34276667Y-11195500D01*
X34320000Y-11203318D01*
G37*
%TD.AperFunction*%
%TD*%
%TA.AperFunction,Conductor*%
%TO.N,GND1*%
G36*
X67340000Y-11203318D02*
G01*
X67368222Y-11213844D01*
X67402525Y-11226638D01*
X67418610Y-11233984D01*
X67653501Y-11362244D01*
X67668375Y-11371802D01*
X67882624Y-11532188D01*
X67895994Y-11543774D01*
X68085225Y-11733005D01*
X68096811Y-11746375D01*
X68154767Y-11823795D01*
X68179184Y-11889258D01*
X68179500Y-11898105D01*
X68179500Y-30265894D01*
X68159815Y-30332933D01*
X68154767Y-30340205D01*
X68096813Y-30417622D01*
X68085227Y-30430992D01*
X67895994Y-30620225D01*
X67882624Y-30631811D01*
X67684980Y-30779767D01*
X67619516Y-30804184D01*
X67610669Y-30804500D01*
X41609331Y-30804500D01*
X41542292Y-30784815D01*
X41535020Y-30779767D01*
X41337375Y-30631811D01*
X41324005Y-30620225D01*
X41134774Y-30430994D01*
X41123188Y-30417624D01*
X41009604Y-30265894D01*
X40962802Y-30203375D01*
X40953244Y-30188501D01*
X40824987Y-29953616D01*
X40817638Y-29937524D01*
X40724108Y-29686762D01*
X40719129Y-29669803D01*
X40662241Y-29408291D01*
X40659724Y-29390785D01*
X40640316Y-29119418D01*
X40640000Y-29110572D01*
X40640000Y-24764997D01*
X44934561Y-24764997D01*
X44934561Y-24765002D01*
X44954252Y-24939771D01*
X45012344Y-25105790D01*
X45105919Y-25254713D01*
X45230287Y-25379081D01*
X45379211Y-25472656D01*
X45545223Y-25530746D01*
X45545226Y-25530746D01*
X45545228Y-25530747D01*
X45719997Y-25550439D01*
X45720000Y-25550439D01*
X45720003Y-25550439D01*
X45894771Y-25530747D01*
X45894772Y-25530746D01*
X45894777Y-25530746D01*
X46060789Y-25472656D01*
X46209713Y-25379081D01*
X46334081Y-25254713D01*
X46427656Y-25105789D01*
X46485746Y-24939777D01*
X46505439Y-24765000D01*
X46485746Y-24590223D01*
X46427656Y-24424211D01*
X46334081Y-24275287D01*
X46209713Y-24150919D01*
X46060790Y-24057344D01*
X45894771Y-23999252D01*
X45720003Y-23979561D01*
X45719997Y-23979561D01*
X45545228Y-23999252D01*
X45379209Y-24057344D01*
X45230286Y-24150919D01*
X45105919Y-24275286D01*
X45012344Y-24424209D01*
X44954252Y-24590228D01*
X44934561Y-24764997D01*
X40640000Y-24764997D01*
X40640000Y-18954997D01*
X57634561Y-18954997D01*
X57634561Y-18955002D01*
X57654252Y-19129771D01*
X57712344Y-19295790D01*
X57805919Y-19444713D01*
X57930287Y-19569081D01*
X58079211Y-19662656D01*
X58245223Y-19720746D01*
X58245226Y-19720746D01*
X58245228Y-19720747D01*
X58419997Y-19740439D01*
X58420000Y-19740439D01*
X58420003Y-19740439D01*
X58594771Y-19720747D01*
X58594772Y-19720746D01*
X58594777Y-19720746D01*
X58760789Y-19662656D01*
X58909713Y-19569081D01*
X59034081Y-19444713D01*
X59127656Y-19295789D01*
X59185746Y-19129777D01*
X59205439Y-18955000D01*
X59185746Y-18780223D01*
X59127656Y-18614211D01*
X59034081Y-18465287D01*
X58909713Y-18340919D01*
X58760790Y-18247344D01*
X58594771Y-18189252D01*
X58420003Y-18169561D01*
X58419997Y-18169561D01*
X58245228Y-18189252D01*
X58079209Y-18247344D01*
X57930286Y-18340919D01*
X57805919Y-18465286D01*
X57712344Y-18614209D01*
X57654252Y-18780228D01*
X57634561Y-18954997D01*
X40640000Y-18954997D01*
X40640000Y-15874997D01*
X43664561Y-15874997D01*
X43664561Y-15875002D01*
X43684252Y-16049771D01*
X43742344Y-16215790D01*
X43835919Y-16364713D01*
X43960287Y-16489081D01*
X44109211Y-16582656D01*
X44275223Y-16640746D01*
X44275226Y-16640746D01*
X44275228Y-16640747D01*
X44449997Y-16660439D01*
X44450000Y-16660439D01*
X44450003Y-16660439D01*
X44624771Y-16640747D01*
X44624772Y-16640746D01*
X44624777Y-16640746D01*
X44790789Y-16582656D01*
X44939713Y-16489081D01*
X45064081Y-16364713D01*
X45157656Y-16215789D01*
X45215746Y-16049777D01*
X45235439Y-15875000D01*
X45215746Y-15700223D01*
X45157656Y-15534211D01*
X45064081Y-15385287D01*
X44939713Y-15260919D01*
X44790790Y-15167344D01*
X44624771Y-15109252D01*
X44450003Y-15089561D01*
X44449997Y-15089561D01*
X44275228Y-15109252D01*
X44109209Y-15167344D01*
X43960286Y-15260919D01*
X43835919Y-15385286D01*
X43742344Y-15534209D01*
X43684252Y-15700228D01*
X43664561Y-15874997D01*
X40640000Y-15874997D01*
X40640000Y-14604997D01*
X53189561Y-14604997D01*
X53189561Y-14605002D01*
X53209252Y-14779771D01*
X53267344Y-14945790D01*
X53357682Y-15089561D01*
X53360919Y-15094713D01*
X53485287Y-15219081D01*
X53634211Y-15312656D01*
X53800223Y-15370746D01*
X53800226Y-15370746D01*
X53800228Y-15370747D01*
X53974997Y-15390439D01*
X53975000Y-15390439D01*
X53975003Y-15390439D01*
X54149771Y-15370747D01*
X54149772Y-15370746D01*
X54149777Y-15370746D01*
X54315789Y-15312656D01*
X54464713Y-15219081D01*
X54589081Y-15094713D01*
X54682656Y-14945789D01*
X54740746Y-14779777D01*
X54760439Y-14605000D01*
X54740746Y-14430223D01*
X54682656Y-14264211D01*
X54589081Y-14115287D01*
X54464713Y-13990919D01*
X54315790Y-13897344D01*
X54149771Y-13839252D01*
X53975003Y-13819561D01*
X53974997Y-13819561D01*
X53800228Y-13839252D01*
X53634209Y-13897344D01*
X53485286Y-13990919D01*
X53360919Y-14115286D01*
X53267344Y-14264209D01*
X53209252Y-14430228D01*
X53189561Y-14604997D01*
X40640000Y-14604997D01*
X40640000Y-13053427D01*
X40640316Y-13044581D01*
X40659724Y-12773214D01*
X40662240Y-12755710D01*
X40719130Y-12494192D01*
X40724107Y-12477241D01*
X40753850Y-12397497D01*
X64619561Y-12397497D01*
X64619561Y-12397502D01*
X64639252Y-12572271D01*
X64697344Y-12738290D01*
X64790919Y-12887213D01*
X64915287Y-13011581D01*
X65064211Y-13105156D01*
X65230223Y-13163246D01*
X65230226Y-13163246D01*
X65230228Y-13163247D01*
X65404997Y-13182939D01*
X65405000Y-13182939D01*
X65405003Y-13182939D01*
X65579771Y-13163247D01*
X65579772Y-13163246D01*
X65579777Y-13163246D01*
X65745789Y-13105156D01*
X65894713Y-13011581D01*
X66019081Y-12887213D01*
X66112656Y-12738289D01*
X66170746Y-12572277D01*
X66179545Y-12494192D01*
X66190439Y-12397502D01*
X66190439Y-12397497D01*
X66170747Y-12222728D01*
X66170746Y-12222726D01*
X66170746Y-12222723D01*
X66112656Y-12056711D01*
X66019081Y-11907787D01*
X65894713Y-11783419D01*
X65835758Y-11746375D01*
X65745790Y-11689844D01*
X65579771Y-11631752D01*
X65405003Y-11612061D01*
X65404997Y-11612061D01*
X65230228Y-11631752D01*
X65064209Y-11689844D01*
X64915286Y-11783419D01*
X64790919Y-11907786D01*
X64697344Y-12056709D01*
X64639252Y-12222728D01*
X64619561Y-12397497D01*
X40753850Y-12397497D01*
X40817640Y-12226470D01*
X40824985Y-12210388D01*
X40953248Y-11975491D01*
X40962798Y-11960630D01*
X41123195Y-11746366D01*
X41134767Y-11733012D01*
X41324012Y-11543767D01*
X41337366Y-11532195D01*
X41551630Y-11371798D01*
X41566491Y-11362248D01*
X41801394Y-11233981D01*
X41817474Y-11226638D01*
X41837171Y-11219291D01*
X41880001Y-11203318D01*
X41923333Y-11195500D01*
X67296667Y-11195500D01*
X67340000Y-11203318D01*
G37*
%TD.AperFunction*%
%TD*%
M02*
