%TF.GenerationSoftware,KiCad,Pcbnew,8.0.4+dfsg-1*%
%TF.CreationDate,2024-12-02T22:27:05+01:00*%
%TF.ProjectId,usb-serial,7573622d-7365-4726-9961-6c2e6b696361,rev?*%
%TF.SameCoordinates,Original*%
%TF.FileFunction,Legend,Bot*%
%TF.FilePolarity,Positive*%
%FSLAX46Y46*%
G04 Gerber Fmt 4.6, Leading zero omitted, Abs format (unit mm)*
G04 Created by KiCad (PCBNEW 8.0.4+dfsg-1) date 2024-12-02 22:27:05*
%MOMM*%
%LPD*%
G01*
G04 APERTURE LIST*
%ADD10C,1.000000*%
%ADD11C,0.000000*%
%ADD12C,0.650000*%
%ADD13O,2.100000X1.000000*%
%ADD14O,1.600000X1.000000*%
G04 APERTURE END LIST*
D10*
G36*
X41992522Y-26950000D02*
G01*
X40783520Y-18227599D01*
X39595034Y-18227599D01*
X40609131Y-25540963D01*
X37560980Y-25540963D01*
X37755886Y-26950000D01*
X41992522Y-26950000D01*
G37*
G36*
X36863422Y-26950000D02*
G01*
X35654420Y-18227599D01*
X34465935Y-18227599D01*
X35674937Y-26950000D01*
X36863422Y-26950000D01*
G37*
G36*
X31071936Y-26950000D02*
G01*
X32615062Y-20232344D01*
X32648401Y-20697398D01*
X32688536Y-21163106D01*
X32736392Y-21609183D01*
X32761608Y-21804047D01*
X33475286Y-26950000D01*
X34530415Y-26950000D01*
X33321413Y-18227599D01*
X31962934Y-18227599D01*
X30390498Y-25000209D01*
X30358258Y-24543536D01*
X30314982Y-24054740D01*
X30264286Y-23592374D01*
X30226367Y-23298813D01*
X29522948Y-18227599D01*
X28466353Y-18227599D01*
X29675355Y-26950000D01*
X31071936Y-26950000D01*
G37*
G36*
X26126018Y-27090683D02*
G01*
X26476419Y-27069217D01*
X26793975Y-27004817D01*
X27078687Y-26897483D01*
X27376988Y-26712012D01*
X27627993Y-26464716D01*
X27801036Y-26211409D01*
X27985453Y-25789581D01*
X28088046Y-25370414D01*
X28139429Y-24898079D01*
X28139601Y-24372575D01*
X28100624Y-23894041D01*
X28075076Y-23692288D01*
X27317435Y-18227599D01*
X26127484Y-18227599D01*
X26866074Y-23551605D01*
X26913518Y-24039052D01*
X26908650Y-24512547D01*
X26830912Y-24945658D01*
X26763492Y-25125505D01*
X26549241Y-25430873D01*
X26278131Y-25598485D01*
X25971974Y-25659768D01*
X25895942Y-25661863D01*
X25591401Y-25626829D01*
X25280981Y-25503664D01*
X25004640Y-25291820D01*
X24839347Y-25101325D01*
X24624560Y-24746359D01*
X24470229Y-24366314D01*
X24350337Y-23925543D01*
X24273681Y-23490055D01*
X23543883Y-18227599D01*
X22353932Y-18227599D01*
X23098384Y-23597766D01*
X23184057Y-24099474D01*
X23297280Y-24564582D01*
X23438051Y-24993088D01*
X23606371Y-25384994D01*
X23802240Y-25740300D01*
X24025658Y-26059004D01*
X24122739Y-26176238D01*
X24381075Y-26439677D01*
X24659663Y-26658465D01*
X24958500Y-26832603D01*
X25277587Y-26962090D01*
X25616925Y-27046926D01*
X25976513Y-27087111D01*
X26126018Y-27090683D01*
G37*
G36*
X18776751Y-26950000D02*
G01*
X19721971Y-23476866D01*
X21629996Y-26950000D01*
X22887358Y-26950000D01*
X20284706Y-22362386D01*
X21514225Y-18227599D01*
X20256863Y-18227599D01*
X19423018Y-21309455D01*
X17731880Y-18227599D01*
X16481845Y-18227599D01*
X18781147Y-22362386D01*
X17526716Y-26950000D01*
X18776751Y-26950000D01*
G37*
D11*
%TO.C,REF\u002A\u002A*%
G36*
X52731491Y-17317278D02*
G01*
X52712123Y-17626390D01*
X52701561Y-17755395D01*
X52690270Y-18074294D01*
X52685648Y-18331042D01*
X52686527Y-18440080D01*
X52689901Y-18538347D01*
X52696043Y-18627431D01*
X52705231Y-18708920D01*
X52717740Y-18784404D01*
X52733845Y-18855470D01*
X52753822Y-18923708D01*
X52777946Y-18990706D01*
X52806494Y-19058052D01*
X52839739Y-19127337D01*
X52921429Y-19278072D01*
X52933684Y-19298485D01*
X52948232Y-19320663D01*
X52964936Y-19344506D01*
X52983656Y-19369911D01*
X53026595Y-19425007D01*
X53075946Y-19485142D01*
X53130605Y-19549505D01*
X53189468Y-19617289D01*
X53315393Y-19759878D01*
X53487013Y-19954719D01*
X53572787Y-20054307D01*
X53656276Y-20153975D01*
X53735784Y-20252701D01*
X53809614Y-20349461D01*
X53843871Y-20396784D01*
X53876072Y-20443232D01*
X53906006Y-20488677D01*
X53933460Y-20532991D01*
X53951660Y-20564300D01*
X53968899Y-20595630D01*
X53985247Y-20626994D01*
X54000772Y-20658408D01*
X54029631Y-20721440D01*
X54056029Y-20784841D01*
X54080516Y-20848726D01*
X54103645Y-20913210D01*
X54148037Y-21044430D01*
X54182682Y-21147516D01*
X54220504Y-21254551D01*
X54263542Y-21366113D01*
X54287653Y-21423772D01*
X54313832Y-21482779D01*
X54342333Y-21543205D01*
X54373411Y-21605125D01*
X54407321Y-21668608D01*
X54444317Y-21733728D01*
X54484654Y-21800556D01*
X54528586Y-21869164D01*
X54576369Y-21939626D01*
X54628256Y-22012012D01*
X54687646Y-22095354D01*
X54741154Y-22176268D01*
X54788863Y-22255135D01*
X54830857Y-22332335D01*
X54867218Y-22408251D01*
X54898030Y-22483262D01*
X54923377Y-22557750D01*
X54938395Y-22613674D01*
X54943342Y-22632096D01*
X54958007Y-22706680D01*
X54967458Y-22781884D01*
X54971775Y-22858089D01*
X54971044Y-22935676D01*
X54965348Y-23015025D01*
X54954769Y-23096519D01*
X54939391Y-23180536D01*
X54919298Y-23267460D01*
X54942272Y-23299891D01*
X54962311Y-23333097D01*
X54979613Y-23366940D01*
X54994373Y-23401285D01*
X55006790Y-23435995D01*
X55017059Y-23470931D01*
X55025378Y-23505959D01*
X55031944Y-23540940D01*
X55036953Y-23575738D01*
X55040603Y-23610217D01*
X55043090Y-23644239D01*
X55044611Y-23677667D01*
X55045543Y-23742197D01*
X55044975Y-23802712D01*
X55043878Y-23822910D01*
X55043380Y-23843118D01*
X55043479Y-23863323D01*
X55044174Y-23883513D01*
X55045466Y-23903673D01*
X55047354Y-23923790D01*
X55049836Y-23943851D01*
X55052913Y-23963843D01*
X55059194Y-23982226D01*
X55066650Y-23999735D01*
X55075240Y-24016395D01*
X55084924Y-24032227D01*
X55095660Y-24047256D01*
X55107409Y-24061503D01*
X55120129Y-24074993D01*
X55133780Y-24087747D01*
X55148321Y-24099789D01*
X55163712Y-24111143D01*
X55179912Y-24121830D01*
X55196880Y-24131875D01*
X55214576Y-24141300D01*
X55232959Y-24150127D01*
X55251989Y-24158381D01*
X55271624Y-24166084D01*
X55312548Y-24179930D01*
X55355408Y-24191848D01*
X55399878Y-24202022D01*
X55445633Y-24210638D01*
X55492347Y-24217878D01*
X55539695Y-24223927D01*
X55587353Y-24228970D01*
X55634996Y-24233189D01*
X55666047Y-24235430D01*
X55696478Y-24237422D01*
X55755381Y-24240862D01*
X55826099Y-24244953D01*
X55893841Y-24250573D01*
X55926433Y-24254465D01*
X55958085Y-24259349D01*
X55988733Y-24265430D01*
X56018311Y-24272910D01*
X56046754Y-24281992D01*
X56073997Y-24292882D01*
X56099976Y-24305781D01*
X56124624Y-24320894D01*
X56136429Y-24329344D01*
X56147876Y-24338424D01*
X56158959Y-24348159D01*
X56169669Y-24358574D01*
X56179997Y-24369695D01*
X56189936Y-24381548D01*
X56199477Y-24394157D01*
X56208612Y-24407549D01*
X56216772Y-24421083D01*
X56224054Y-24435096D01*
X56230481Y-24449587D01*
X56236077Y-24464559D01*
X56240866Y-24480011D01*
X56244871Y-24495944D01*
X56248117Y-24512359D01*
X56250627Y-24529257D01*
X56253536Y-24564506D01*
X56253786Y-24601695D01*
X56251570Y-24640832D01*
X56247076Y-24681922D01*
X56240496Y-24724972D01*
X56232019Y-24769987D01*
X56221836Y-24816974D01*
X56210138Y-24865940D01*
X56182954Y-24969830D01*
X56151991Y-25081708D01*
X56123119Y-25186053D01*
X56108571Y-25239875D01*
X56094048Y-25294962D01*
X56086132Y-25328626D01*
X56080458Y-25360277D01*
X56076898Y-25390087D01*
X56075324Y-25418225D01*
X56075609Y-25444863D01*
X56077625Y-25470170D01*
X56081245Y-25494318D01*
X56086342Y-25517477D01*
X56092787Y-25539817D01*
X56100453Y-25561509D01*
X56109213Y-25582724D01*
X56118939Y-25603632D01*
X56129504Y-25624403D01*
X56140780Y-25645208D01*
X56164956Y-25687604D01*
X56189415Y-25730258D01*
X56201650Y-25752433D01*
X56213730Y-25775338D01*
X56225534Y-25799095D01*
X56236942Y-25823828D01*
X56247834Y-25849660D01*
X56258089Y-25876714D01*
X56267588Y-25905115D01*
X56276210Y-25934984D01*
X56283836Y-25966445D01*
X56290344Y-25999622D01*
X56295615Y-26034637D01*
X56299529Y-26071614D01*
X56301965Y-26110676D01*
X56302249Y-26124658D01*
X56302804Y-26151947D01*
X56301267Y-26187466D01*
X56296712Y-26221285D01*
X56289221Y-26253462D01*
X56278875Y-26284054D01*
X56265757Y-26313120D01*
X56249950Y-26340717D01*
X56231534Y-26366904D01*
X56210593Y-26391738D01*
X56187208Y-26415277D01*
X56161461Y-26437579D01*
X56133435Y-26458702D01*
X56103212Y-26478704D01*
X56070873Y-26497642D01*
X56036501Y-26515575D01*
X56000179Y-26532561D01*
X55961988Y-26548656D01*
X55922010Y-26563921D01*
X55880327Y-26578411D01*
X55837022Y-26592185D01*
X55792176Y-26605302D01*
X55698193Y-26629792D01*
X55599033Y-26652344D01*
X55495354Y-26673422D01*
X55387813Y-26693489D01*
X55163773Y-26732442D01*
X55016454Y-26757450D01*
X54867076Y-26783871D01*
X54716358Y-26812624D01*
X54640722Y-26828161D01*
X54565021Y-26844626D01*
X54449975Y-26872092D01*
X54335529Y-26901823D01*
X54221716Y-26933810D01*
X54108570Y-26968041D01*
X53996125Y-27004506D01*
X53884413Y-27043194D01*
X53773467Y-27084096D01*
X53663322Y-27127200D01*
X53569236Y-27163130D01*
X53479159Y-27196451D01*
X53392040Y-27226493D01*
X53349261Y-27240073D01*
X53306828Y-27252581D01*
X53264609Y-27263932D01*
X53222472Y-27274042D01*
X53180286Y-27282828D01*
X53137921Y-27290205D01*
X53095243Y-27296089D01*
X53052123Y-27300396D01*
X53008428Y-27303042D01*
X52964027Y-27303943D01*
X52885010Y-27300979D01*
X52808397Y-27292348D01*
X52734046Y-27278441D01*
X52661811Y-27259650D01*
X52591550Y-27236366D01*
X52523119Y-27208981D01*
X52456374Y-27177886D01*
X52391171Y-27143473D01*
X52327367Y-27106133D01*
X52264817Y-27066257D01*
X52203378Y-27024237D01*
X52142905Y-26980465D01*
X52024287Y-26889228D01*
X51907811Y-26795678D01*
X51850925Y-26749376D01*
X51836409Y-26738620D01*
X51820341Y-26728612D01*
X51802786Y-26719327D01*
X51783810Y-26710739D01*
X51741856Y-26695558D01*
X51695007Y-26682870D01*
X51643787Y-26672479D01*
X51588722Y-26664186D01*
X51530339Y-26657792D01*
X51469164Y-26653100D01*
X51405722Y-26649913D01*
X51340540Y-26648030D01*
X51207057Y-26647391D01*
X51072923Y-26649598D01*
X50942346Y-26653067D01*
X50809326Y-26656705D01*
X50746637Y-26657904D01*
X50687023Y-26658359D01*
X50522451Y-26658359D01*
X50235689Y-26657830D01*
X50083971Y-26659661D01*
X49932133Y-26664047D01*
X49784251Y-26671857D01*
X49644403Y-26683957D01*
X49578765Y-26691888D01*
X49516665Y-26701217D01*
X49458612Y-26712053D01*
X49405116Y-26724505D01*
X49386903Y-26729993D01*
X49369421Y-26736510D01*
X49352595Y-26744018D01*
X49336349Y-26752480D01*
X49320609Y-26761859D01*
X49305299Y-26772116D01*
X49290344Y-26783214D01*
X49275668Y-26795115D01*
X49261198Y-26807783D01*
X49246857Y-26821178D01*
X49232570Y-26835265D01*
X49218262Y-26850004D01*
X49189283Y-26881291D01*
X49159318Y-26914740D01*
X49098710Y-26981342D01*
X49065962Y-27015207D01*
X49030992Y-27048942D01*
X48993353Y-27082165D01*
X48952601Y-27114495D01*
X48930918Y-27130207D01*
X48908290Y-27145553D01*
X48884661Y-27160486D01*
X48859976Y-27174958D01*
X48834178Y-27188921D01*
X48807212Y-27202328D01*
X48779022Y-27215132D01*
X48749553Y-27227284D01*
X48718749Y-27238738D01*
X48686554Y-27249445D01*
X48652913Y-27259358D01*
X48617770Y-27268430D01*
X48581070Y-27276613D01*
X48542756Y-27283859D01*
X48502773Y-27290120D01*
X48461065Y-27295350D01*
X48417577Y-27299501D01*
X48372253Y-27302524D01*
X48325038Y-27304373D01*
X48275875Y-27305000D01*
X48182474Y-27302347D01*
X48094377Y-27294577D01*
X48011163Y-27281973D01*
X47932413Y-27264821D01*
X47857705Y-27243404D01*
X47786621Y-27218006D01*
X47718740Y-27188911D01*
X47653641Y-27156404D01*
X47590905Y-27120768D01*
X47530112Y-27082288D01*
X47470840Y-27041248D01*
X47412672Y-26997931D01*
X47297960Y-26905605D01*
X47182616Y-26807584D01*
X47111129Y-26746552D01*
X47038158Y-26685343D01*
X46962811Y-26624326D01*
X46884199Y-26563870D01*
X46843391Y-26533968D01*
X46801433Y-26504344D01*
X46758213Y-26475046D01*
X46713621Y-26446118D01*
X46667546Y-26417607D01*
X46619876Y-26389560D01*
X46570499Y-26362022D01*
X46519306Y-26335039D01*
X46368162Y-26258244D01*
X46226148Y-26186608D01*
X46014249Y-26079569D01*
X45828289Y-25982411D01*
X45745259Y-25936665D01*
X45668982Y-25892341D01*
X45599546Y-25849092D01*
X45537041Y-25806566D01*
X45481555Y-25764416D01*
X45433178Y-25722292D01*
X45391999Y-25679844D01*
X45358108Y-25636724D01*
X45331592Y-25592583D01*
X45321129Y-25570020D01*
X45312543Y-25547070D01*
X45305845Y-25523691D01*
X45301047Y-25499838D01*
X45298160Y-25475468D01*
X45297288Y-25452917D01*
X45799904Y-25452917D01*
X45802638Y-25465069D01*
X45808156Y-25477731D01*
X45816303Y-25490859D01*
X45826925Y-25504408D01*
X45839866Y-25518334D01*
X45854972Y-25532592D01*
X45891057Y-25561926D01*
X45933940Y-25592054D01*
X45982381Y-25622619D01*
X46035141Y-25653264D01*
X46090979Y-25683634D01*
X46148655Y-25713371D01*
X46206931Y-25742119D01*
X46320319Y-25795222D01*
X46421224Y-25840090D01*
X46499727Y-25873869D01*
X46499726Y-25873341D01*
X46575837Y-25906953D01*
X46648420Y-25941164D01*
X46717664Y-25975895D01*
X46783756Y-26011069D01*
X46846885Y-26046606D01*
X46907236Y-26082430D01*
X46964999Y-26118463D01*
X47020360Y-26154626D01*
X47124629Y-26227032D01*
X47221543Y-26299027D01*
X47312603Y-26369985D01*
X47399310Y-26439284D01*
X47510447Y-26527647D01*
X47565853Y-26570356D01*
X47621659Y-26611793D01*
X47678246Y-26651742D01*
X47735996Y-26689986D01*
X47765426Y-26708400D01*
X47795290Y-26726307D01*
X47825635Y-26743679D01*
X47856510Y-26760490D01*
X47908091Y-26785621D01*
X47962137Y-26807743D01*
X48018220Y-26826417D01*
X48075907Y-26841208D01*
X48134770Y-26851678D01*
X48194377Y-26857390D01*
X48224326Y-26858326D01*
X48254300Y-26857909D01*
X48284245Y-26856083D01*
X48314107Y-26852796D01*
X48343832Y-26847991D01*
X48373368Y-26841615D01*
X48402659Y-26833613D01*
X48431653Y-26823930D01*
X48460295Y-26812511D01*
X48488532Y-26799303D01*
X48516310Y-26784250D01*
X48543575Y-26767298D01*
X48570273Y-26748392D01*
X48596351Y-26727478D01*
X48621755Y-26704501D01*
X48646431Y-26679406D01*
X48670325Y-26652139D01*
X48693383Y-26622646D01*
X48715552Y-26590871D01*
X48736779Y-26556760D01*
X48742348Y-26546693D01*
X48747308Y-26536337D01*
X48751677Y-26525688D01*
X48755471Y-26514746D01*
X48758706Y-26503509D01*
X48761398Y-26491974D01*
X48763564Y-26480140D01*
X48765221Y-26468005D01*
X48767072Y-26442825D01*
X48767084Y-26416420D01*
X48765386Y-26388775D01*
X48762112Y-26359877D01*
X48757393Y-26329710D01*
X48751362Y-26298262D01*
X48744148Y-26265516D01*
X48735886Y-26231459D01*
X48716739Y-26159354D01*
X48694975Y-26081833D01*
X48663768Y-25970234D01*
X48632496Y-25848652D01*
X48617691Y-25784067D01*
X48603897Y-25716925D01*
X48591455Y-25647206D01*
X48580708Y-25574891D01*
X48571998Y-25499959D01*
X48565667Y-25422390D01*
X48562058Y-25342163D01*
X48561513Y-25259260D01*
X48564374Y-25173659D01*
X48570983Y-25085340D01*
X48581682Y-24994283D01*
X48596814Y-24900468D01*
X48631938Y-24711291D01*
X48662696Y-24548308D01*
X48709618Y-24296912D01*
X48726366Y-24199314D01*
X48738433Y-24117102D01*
X48745662Y-24047764D01*
X48747415Y-24017137D01*
X48747900Y-23988788D01*
X48747098Y-23962401D01*
X48744991Y-23937662D01*
X48741557Y-23914259D01*
X48736779Y-23891876D01*
X48735050Y-23885945D01*
X48732997Y-23880302D01*
X48730633Y-23874941D01*
X48727968Y-23869854D01*
X48725016Y-23865036D01*
X48721789Y-23860479D01*
X48718299Y-23856178D01*
X48714558Y-23852126D01*
X48710580Y-23848316D01*
X48706374Y-23844742D01*
X48701956Y-23841397D01*
X48697335Y-23838274D01*
X48692525Y-23835368D01*
X48687538Y-23832671D01*
X48682387Y-23830177D01*
X48677083Y-23827879D01*
X48671638Y-23825772D01*
X48666065Y-23823848D01*
X48660377Y-23822100D01*
X48654585Y-23820523D01*
X48642740Y-23817854D01*
X48630627Y-23815787D01*
X48618346Y-23814271D01*
X48605994Y-23813253D01*
X48593668Y-23812680D01*
X48581469Y-23812501D01*
X48572741Y-23812646D01*
X48564019Y-23812930D01*
X48555304Y-23813352D01*
X48546597Y-23813912D01*
X48537899Y-23814610D01*
X48529213Y-23815445D01*
X48520541Y-23816418D01*
X48511883Y-23817528D01*
X48504952Y-23839907D01*
X48497365Y-23862034D01*
X48489130Y-23883894D01*
X48480254Y-23905475D01*
X48470747Y-23926761D01*
X48460615Y-23947741D01*
X48449867Y-23968400D01*
X48438509Y-23988726D01*
X48426551Y-24008703D01*
X48414000Y-24028319D01*
X48400863Y-24047561D01*
X48387149Y-24066414D01*
X48372865Y-24084866D01*
X48358020Y-24102902D01*
X48342621Y-24120509D01*
X48326675Y-24137674D01*
X48297708Y-24165848D01*
X48267366Y-24192229D01*
X48235660Y-24216812D01*
X48202598Y-24239596D01*
X48168188Y-24260579D01*
X48132440Y-24279758D01*
X48095363Y-24297131D01*
X48056965Y-24312695D01*
X48017256Y-24326449D01*
X47976244Y-24338390D01*
X47933939Y-24348515D01*
X47890348Y-24356823D01*
X47845482Y-24363311D01*
X47799349Y-24367976D01*
X47751957Y-24370817D01*
X47703317Y-24371831D01*
X47657326Y-24373647D01*
X47617498Y-24373109D01*
X47568255Y-24370235D01*
X47510955Y-24363997D01*
X47446951Y-24353367D01*
X47377601Y-24337315D01*
X47341344Y-24326934D01*
X47304259Y-24314813D01*
X47266515Y-24300822D01*
X47228282Y-24284832D01*
X47189729Y-24266716D01*
X47151025Y-24246344D01*
X47112340Y-24223589D01*
X47073844Y-24198321D01*
X47035706Y-24170412D01*
X46998095Y-24139733D01*
X46961181Y-24106156D01*
X46925133Y-24069552D01*
X46890121Y-24029792D01*
X46856314Y-23986749D01*
X46823882Y-23940293D01*
X46792994Y-23890296D01*
X46763820Y-23836629D01*
X46736529Y-23779164D01*
X46721255Y-23781410D01*
X46713159Y-23782921D01*
X46704874Y-23784728D01*
X46696489Y-23786862D01*
X46688090Y-23789349D01*
X46679767Y-23792220D01*
X46671607Y-23795502D01*
X46663698Y-23799224D01*
X46656128Y-23803416D01*
X46648986Y-23808105D01*
X46642358Y-23813320D01*
X46639265Y-23816134D01*
X46636334Y-23819090D01*
X46633575Y-23822192D01*
X46631000Y-23825444D01*
X46628620Y-23828849D01*
X46626446Y-23832410D01*
X46624489Y-23836132D01*
X46622759Y-23840018D01*
X46619801Y-23848123D01*
X46617266Y-23856604D01*
X46613407Y-23874617D01*
X46611060Y-23893916D01*
X46610104Y-23914357D01*
X46610418Y-23935801D01*
X46611880Y-23958104D01*
X46614369Y-23981124D01*
X46617764Y-24004721D01*
X46621944Y-24028752D01*
X46626787Y-24053074D01*
X46637976Y-24102030D01*
X46650362Y-24150451D01*
X46662975Y-24197205D01*
X46679945Y-24260532D01*
X46687434Y-24290344D01*
X46693964Y-24318848D01*
X46699316Y-24345987D01*
X46703270Y-24371706D01*
X46704654Y-24384016D01*
X46705605Y-24395950D01*
X46706097Y-24407501D01*
X46706102Y-24418661D01*
X46704534Y-24457644D01*
X46701386Y-24495254D01*
X46696690Y-24531549D01*
X46690475Y-24566587D01*
X46682772Y-24600425D01*
X46673611Y-24633119D01*
X46663022Y-24664728D01*
X46651036Y-24695308D01*
X46637682Y-24724917D01*
X46622991Y-24753612D01*
X46606993Y-24781450D01*
X46589719Y-24808489D01*
X46571198Y-24834785D01*
X46551461Y-24860397D01*
X46530537Y-24885381D01*
X46508459Y-24909794D01*
X46460955Y-24957139D01*
X46409190Y-25002889D01*
X46353408Y-25047503D01*
X46293849Y-25091439D01*
X46230755Y-25135155D01*
X46164368Y-25179108D01*
X46022684Y-25269562D01*
X45950254Y-25315401D01*
X45913221Y-25339064D01*
X45875840Y-25363224D01*
X45866747Y-25369304D01*
X45858220Y-25375336D01*
X45850263Y-25381319D01*
X45842879Y-25387247D01*
X45836070Y-25393119D01*
X45829838Y-25398929D01*
X45824187Y-25404675D01*
X45819120Y-25410353D01*
X45814638Y-25415960D01*
X45810746Y-25421492D01*
X45807444Y-25426945D01*
X45804737Y-25432317D01*
X45802627Y-25437604D01*
X45801116Y-25442802D01*
X45800208Y-25447907D01*
X45799904Y-25452917D01*
X45297288Y-25452917D01*
X45297196Y-25450536D01*
X45298131Y-25426211D01*
X45300885Y-25402396D01*
X45305378Y-25379084D01*
X45311530Y-25356272D01*
X45319262Y-25333953D01*
X45328495Y-25312122D01*
X45339149Y-25290774D01*
X45351146Y-25269904D01*
X45364405Y-25249507D01*
X45378848Y-25229576D01*
X45394394Y-25210108D01*
X45410966Y-25191096D01*
X45428482Y-25172536D01*
X45446865Y-25154421D01*
X45485910Y-25119509D01*
X45527467Y-25086318D01*
X45570900Y-25054806D01*
X45615575Y-25024930D01*
X45660858Y-24996648D01*
X45706112Y-24969917D01*
X45750703Y-24944697D01*
X45835359Y-24898615D01*
X45891351Y-24868221D01*
X45917251Y-24853929D01*
X45941191Y-24840407D01*
X45973257Y-24820534D01*
X46005061Y-24798975D01*
X46036301Y-24775815D01*
X46066679Y-24751143D01*
X46095893Y-24725044D01*
X46123646Y-24697606D01*
X46149635Y-24668915D01*
X46173562Y-24639059D01*
X46195126Y-24608123D01*
X46204928Y-24592278D01*
X46214028Y-24576195D01*
X46222386Y-24559887D01*
X46229967Y-24543362D01*
X46236731Y-24526633D01*
X46242643Y-24509711D01*
X46247664Y-24492605D01*
X46251757Y-24475327D01*
X46254884Y-24457888D01*
X46257008Y-24440299D01*
X46258091Y-24422570D01*
X46258097Y-24404712D01*
X46256986Y-24386737D01*
X46254723Y-24368655D01*
X46233228Y-24220610D01*
X46217160Y-24091503D01*
X46207107Y-23979413D01*
X46204520Y-23929148D01*
X46203658Y-23882416D01*
X46204594Y-23838977D01*
X46207403Y-23798591D01*
X46212156Y-23761017D01*
X46218930Y-23726015D01*
X46227796Y-23693344D01*
X46238828Y-23662765D01*
X46252101Y-23634036D01*
X46267688Y-23606919D01*
X46276981Y-23593032D01*
X46286800Y-23579571D01*
X46297128Y-23566548D01*
X46307950Y-23553976D01*
X46319249Y-23541868D01*
X46331011Y-23530236D01*
X46343220Y-23519092D01*
X46355859Y-23508450D01*
X46368915Y-23498322D01*
X46382370Y-23488720D01*
X46396209Y-23479658D01*
X46410417Y-23471147D01*
X46424978Y-23463201D01*
X46439877Y-23455833D01*
X46455097Y-23449054D01*
X46470623Y-23442877D01*
X46470623Y-23441289D01*
X46463800Y-23428417D01*
X46457314Y-23415177D01*
X46451152Y-23401540D01*
X46445306Y-23387472D01*
X46439763Y-23372942D01*
X46434514Y-23357918D01*
X46429546Y-23342369D01*
X46424850Y-23326262D01*
X46420415Y-23309566D01*
X46416229Y-23292249D01*
X46412281Y-23274280D01*
X46408562Y-23255626D01*
X46405059Y-23236256D01*
X46401763Y-23216138D01*
X46395746Y-23173531D01*
X46391009Y-23112322D01*
X46390941Y-23038568D01*
X46395324Y-22953365D01*
X46396615Y-22939052D01*
X47527720Y-22939052D01*
X47527785Y-22941159D01*
X47528129Y-22943086D01*
X47528752Y-22944830D01*
X47529651Y-22946388D01*
X47530823Y-22947756D01*
X47532266Y-22948932D01*
X47533979Y-22949914D01*
X47535959Y-22950697D01*
X47538203Y-22951280D01*
X47540711Y-22951659D01*
X47543479Y-22951832D01*
X47546505Y-22951795D01*
X47549788Y-22951546D01*
X47553324Y-22951081D01*
X47557113Y-22950398D01*
X47561151Y-22949494D01*
X47565436Y-22948367D01*
X47569967Y-22947012D01*
X47574741Y-22945427D01*
X47579756Y-22943610D01*
X47600091Y-22936277D01*
X47620569Y-22929411D01*
X47641180Y-22923013D01*
X47661917Y-22917083D01*
X47682771Y-22911623D01*
X47703735Y-22906636D01*
X47724801Y-22902121D01*
X47745960Y-22898081D01*
X47767204Y-22894517D01*
X47788525Y-22891431D01*
X47809916Y-22888823D01*
X47831368Y-22886696D01*
X47852874Y-22885051D01*
X47874424Y-22883888D01*
X47896012Y-22883211D01*
X47917628Y-22883020D01*
X47968372Y-22884518D01*
X48017374Y-22888866D01*
X48064575Y-22895846D01*
X48109914Y-22905236D01*
X48153331Y-22916819D01*
X48194765Y-22930375D01*
X48234156Y-22945684D01*
X48271442Y-22962527D01*
X48306565Y-22980684D01*
X48339463Y-22999937D01*
X48370076Y-23020066D01*
X48398343Y-23040852D01*
X48424205Y-23062074D01*
X48447599Y-23083515D01*
X48468467Y-23104954D01*
X48486747Y-23126172D01*
X48501757Y-23145653D01*
X48515193Y-23165008D01*
X48527146Y-23184238D01*
X48537705Y-23203347D01*
X48546958Y-23222339D01*
X48554995Y-23241216D01*
X48561904Y-23259981D01*
X48567776Y-23278638D01*
X48572699Y-23297189D01*
X48576763Y-23315638D01*
X48580056Y-23333988D01*
X48582667Y-23352242D01*
X48584687Y-23370402D01*
X48586203Y-23388473D01*
X48588082Y-23424357D01*
X48589670Y-23425680D01*
X48626159Y-23422801D01*
X48661437Y-23421616D01*
X48695547Y-23422137D01*
X48728531Y-23424377D01*
X48760431Y-23428349D01*
X48791290Y-23434065D01*
X48821150Y-23441538D01*
X48850053Y-23450782D01*
X48878041Y-23461808D01*
X48905157Y-23474630D01*
X48931443Y-23489260D01*
X48956941Y-23505711D01*
X48981693Y-23523997D01*
X49005741Y-23544129D01*
X49029129Y-23566121D01*
X49051897Y-23589986D01*
X49054013Y-23592367D01*
X49068887Y-23612288D01*
X49082479Y-23633566D01*
X49094829Y-23656142D01*
X49105975Y-23679956D01*
X49115956Y-23704950D01*
X49124812Y-23731065D01*
X49139304Y-23786422D01*
X49149765Y-23845555D01*
X49156505Y-23907994D01*
X49159839Y-23973266D01*
X49160078Y-24040902D01*
X49157537Y-24110428D01*
X49152527Y-24181375D01*
X49145361Y-24253270D01*
X49136353Y-24325643D01*
X49114058Y-24469936D01*
X49088145Y-24610483D01*
X49052344Y-24793009D01*
X49031851Y-24916088D01*
X49022476Y-24982933D01*
X49014261Y-25052305D01*
X49007639Y-25123447D01*
X49003045Y-25195603D01*
X49000913Y-25268016D01*
X49001676Y-25339928D01*
X49005770Y-25410583D01*
X49013628Y-25479223D01*
X49025684Y-25545093D01*
X49033422Y-25576752D01*
X49042372Y-25607434D01*
X49042372Y-25606905D01*
X49054687Y-25644044D01*
X49067793Y-25680897D01*
X49081686Y-25717451D01*
X49096359Y-25753693D01*
X49111808Y-25789612D01*
X49128028Y-25825195D01*
X49145013Y-25860429D01*
X49162757Y-25895301D01*
X49163084Y-25895993D01*
X49163441Y-25896661D01*
X49163826Y-25897305D01*
X49164239Y-25897924D01*
X49164679Y-25898519D01*
X49165143Y-25899088D01*
X49165633Y-25899631D01*
X49166145Y-25900148D01*
X49166679Y-25900637D01*
X49167234Y-25901100D01*
X49167808Y-25901535D01*
X49168401Y-25901941D01*
X49169011Y-25902319D01*
X49169637Y-25902667D01*
X49170278Y-25902986D01*
X49170933Y-25903274D01*
X49171601Y-25903532D01*
X49172280Y-25903758D01*
X49172970Y-25903953D01*
X49173669Y-25904116D01*
X49174376Y-25904246D01*
X49175089Y-25904344D01*
X49175809Y-25904407D01*
X49176533Y-25904437D01*
X49177261Y-25904432D01*
X49177990Y-25904392D01*
X49178721Y-25904317D01*
X49179452Y-25904206D01*
X49180182Y-25904058D01*
X49180909Y-25903873D01*
X49181633Y-25903652D01*
X49182353Y-25903392D01*
X49183058Y-25903097D01*
X49183742Y-25902772D01*
X49184403Y-25902416D01*
X49185041Y-25902032D01*
X49185655Y-25901620D01*
X49186244Y-25901182D01*
X49186809Y-25900718D01*
X49187349Y-25900230D01*
X49187863Y-25899719D01*
X49188350Y-25899186D01*
X49188811Y-25898632D01*
X49189244Y-25898058D01*
X49189649Y-25897466D01*
X49190026Y-25896857D01*
X49190373Y-25896231D01*
X49190692Y-25895590D01*
X49190980Y-25894934D01*
X49191237Y-25894266D01*
X49191463Y-25893586D01*
X49191658Y-25892896D01*
X49191821Y-25892196D01*
X49191950Y-25891487D01*
X49192047Y-25890771D01*
X49192110Y-25890049D01*
X49192138Y-25889322D01*
X49192132Y-25888592D01*
X49192090Y-25887858D01*
X49192012Y-25887123D01*
X49191898Y-25886387D01*
X49191747Y-25885652D01*
X49191559Y-25884918D01*
X49191333Y-25884188D01*
X49175587Y-25824514D01*
X49162329Y-25764319D01*
X49151567Y-25703681D01*
X49143309Y-25642677D01*
X49137566Y-25581386D01*
X49134344Y-25519884D01*
X49133655Y-25458250D01*
X49135505Y-25396562D01*
X49137976Y-25351954D01*
X49140884Y-25312006D01*
X49142716Y-25293787D01*
X49144914Y-25276741D01*
X49147564Y-25260870D01*
X49150752Y-25246179D01*
X49154563Y-25232668D01*
X49159083Y-25220342D01*
X49164397Y-25209202D01*
X49170592Y-25199252D01*
X49177752Y-25190494D01*
X49181721Y-25186563D01*
X49185964Y-25182931D01*
X49190491Y-25179598D01*
X49195313Y-25176566D01*
X49200441Y-25173833D01*
X49205885Y-25171400D01*
X49211473Y-25169325D01*
X49217038Y-25167666D01*
X49222596Y-25166423D01*
X49228164Y-25165598D01*
X49233759Y-25165193D01*
X49239396Y-25165209D01*
X49245094Y-25165647D01*
X49250868Y-25166509D01*
X49256736Y-25167796D01*
X49262714Y-25169510D01*
X49268819Y-25171652D01*
X49275067Y-25174223D01*
X49281475Y-25177225D01*
X49288061Y-25180659D01*
X49294840Y-25184527D01*
X49301830Y-25188829D01*
X49309046Y-25193568D01*
X49316507Y-25198745D01*
X49332226Y-25210418D01*
X49349122Y-25223859D01*
X49367326Y-25239080D01*
X49386975Y-25256091D01*
X49408200Y-25274904D01*
X49455916Y-25317980D01*
X49502747Y-25360379D01*
X49528544Y-25383539D01*
X49555929Y-25407938D01*
X49611192Y-25455392D01*
X49670014Y-25503526D01*
X49732683Y-25551944D01*
X49799482Y-25600249D01*
X49870698Y-25648042D01*
X49946616Y-25694925D01*
X50027523Y-25740502D01*
X50113703Y-25784374D01*
X50205443Y-25826144D01*
X50303028Y-25865414D01*
X50406743Y-25901786D01*
X50516875Y-25934864D01*
X50633708Y-25964248D01*
X50757530Y-25989542D01*
X50822150Y-26000531D01*
X50888624Y-26010348D01*
X50956988Y-26018944D01*
X51027277Y-26026269D01*
X51108922Y-26031803D01*
X51186739Y-26032902D01*
X51260677Y-26029973D01*
X51330684Y-26023425D01*
X51396707Y-26013664D01*
X51458697Y-26001098D01*
X51516601Y-25986136D01*
X51570367Y-25969185D01*
X51619945Y-25950652D01*
X51665282Y-25930946D01*
X51706327Y-25910474D01*
X51743028Y-25889644D01*
X51775335Y-25868864D01*
X51803195Y-25848541D01*
X51826556Y-25829083D01*
X51845368Y-25810898D01*
X51847374Y-25808866D01*
X51849468Y-25806946D01*
X51851648Y-25805138D01*
X51853907Y-25803446D01*
X51856242Y-25801871D01*
X51858647Y-25800415D01*
X51861118Y-25799081D01*
X51863651Y-25797870D01*
X51866239Y-25796785D01*
X51868879Y-25795828D01*
X51871566Y-25795001D01*
X51874296Y-25794306D01*
X51877062Y-25793745D01*
X51879862Y-25793321D01*
X51882689Y-25793035D01*
X51885540Y-25792889D01*
X51888395Y-25792886D01*
X51891233Y-25793025D01*
X51894051Y-25793303D01*
X51896843Y-25793719D01*
X51899605Y-25794271D01*
X51902332Y-25794957D01*
X51905018Y-25795775D01*
X51907659Y-25796724D01*
X51910251Y-25797801D01*
X51912788Y-25799005D01*
X51915266Y-25800333D01*
X51917680Y-25801784D01*
X51920024Y-25803357D01*
X51922295Y-25805048D01*
X51924487Y-25806857D01*
X51926596Y-25808781D01*
X51929402Y-25811868D01*
X51931961Y-25815114D01*
X51934270Y-25818507D01*
X51936326Y-25822031D01*
X51938126Y-25825673D01*
X51939666Y-25829417D01*
X51940943Y-25833250D01*
X51941955Y-25837158D01*
X51942697Y-25841125D01*
X51943167Y-25845138D01*
X51943362Y-25849182D01*
X51943277Y-25853243D01*
X51942911Y-25857307D01*
X51942260Y-25861359D01*
X51941321Y-25865385D01*
X51940090Y-25869370D01*
X51930500Y-25902862D01*
X51922708Y-25935471D01*
X51916625Y-25967194D01*
X51912164Y-25998029D01*
X51909235Y-26027971D01*
X51907752Y-26057020D01*
X51907626Y-26085172D01*
X51908769Y-26112424D01*
X51911094Y-26138774D01*
X51914512Y-26164219D01*
X51918935Y-26188756D01*
X51924276Y-26212383D01*
X51930447Y-26235097D01*
X51937358Y-26256894D01*
X51944923Y-26277774D01*
X51953054Y-26297732D01*
X51955406Y-26303007D01*
X51957747Y-26307918D01*
X51960073Y-26312466D01*
X51962382Y-26316651D01*
X51964669Y-26320474D01*
X51966931Y-26323935D01*
X51969165Y-26327036D01*
X51971368Y-26329775D01*
X51973536Y-26332155D01*
X51975666Y-26334175D01*
X51977754Y-26335836D01*
X51979797Y-26337139D01*
X51981791Y-26338083D01*
X51983734Y-26338671D01*
X51985621Y-26338901D01*
X51987450Y-26338775D01*
X51989217Y-26338294D01*
X51990918Y-26337457D01*
X51992551Y-26336265D01*
X51994111Y-26334719D01*
X51995596Y-26332820D01*
X51997002Y-26330567D01*
X51998325Y-26327962D01*
X51999563Y-26325004D01*
X52000711Y-26321696D01*
X52001767Y-26318036D01*
X52002323Y-26315714D01*
X52445820Y-26315714D01*
X52446584Y-26378144D01*
X52449370Y-26416420D01*
X52451264Y-26442459D01*
X52451264Y-26441930D01*
X52456414Y-26480035D01*
X52463788Y-26515722D01*
X52473256Y-26549066D01*
X52484689Y-26580146D01*
X52497955Y-26609039D01*
X52512926Y-26635822D01*
X52529470Y-26660572D01*
X52547457Y-26683366D01*
X52566757Y-26704282D01*
X52587241Y-26723396D01*
X52608777Y-26740786D01*
X52631235Y-26756529D01*
X52654485Y-26770702D01*
X52678398Y-26783383D01*
X52702842Y-26794648D01*
X52727688Y-26804574D01*
X52752805Y-26813240D01*
X52778063Y-26820721D01*
X52803332Y-26827096D01*
X52828482Y-26832441D01*
X52877902Y-26840351D01*
X52925282Y-26845068D01*
X52969580Y-26847210D01*
X53009754Y-26847395D01*
X53044763Y-26846239D01*
X53073564Y-26844361D01*
X53122848Y-26839368D01*
X53173303Y-26832607D01*
X53224835Y-26824201D01*
X53277352Y-26814273D01*
X53384959Y-26790346D01*
X53495377Y-26761811D01*
X53607852Y-26729655D01*
X53721637Y-26694863D01*
X53950129Y-26621317D01*
X54131567Y-26562613D01*
X54222782Y-26533918D01*
X54313402Y-26506489D01*
X54448620Y-26469159D01*
X54590884Y-26434270D01*
X54738008Y-26401681D01*
X54887812Y-26371253D01*
X55186725Y-26316323D01*
X55470160Y-26268363D01*
X55709608Y-26227354D01*
X55723103Y-26224833D01*
X55735998Y-26222134D01*
X55748281Y-26219259D01*
X55759941Y-26216208D01*
X55770967Y-26212984D01*
X55781348Y-26209587D01*
X55791072Y-26206020D01*
X55800129Y-26202284D01*
X55808506Y-26198381D01*
X55816193Y-26194312D01*
X55823179Y-26190078D01*
X55829452Y-26185682D01*
X55835001Y-26181124D01*
X55839815Y-26176407D01*
X55843882Y-26171531D01*
X55847191Y-26166499D01*
X55849489Y-26162256D01*
X55851429Y-26157718D01*
X55853021Y-26152891D01*
X55854276Y-26147782D01*
X55855205Y-26142397D01*
X55855818Y-26136744D01*
X55856127Y-26130828D01*
X55856142Y-26124658D01*
X55855332Y-26111579D01*
X55853475Y-26097559D01*
X55850655Y-26082654D01*
X55846960Y-26066917D01*
X55842474Y-26050401D01*
X55837282Y-26033161D01*
X55831472Y-26015251D01*
X55825128Y-25996724D01*
X55811181Y-25958035D01*
X55796127Y-25917526D01*
X55774738Y-25859778D01*
X55752615Y-25796950D01*
X55730907Y-25729175D01*
X55720569Y-25693472D01*
X55710765Y-25656581D01*
X55701641Y-25618517D01*
X55693340Y-25579299D01*
X55686005Y-25538940D01*
X55679780Y-25497459D01*
X55674810Y-25454870D01*
X55671238Y-25411191D01*
X55669207Y-25366437D01*
X55668862Y-25320626D01*
X55669308Y-25301084D01*
X55670604Y-25281268D01*
X55672690Y-25261201D01*
X55675506Y-25240908D01*
X55678989Y-25220411D01*
X55683080Y-25199736D01*
X55687717Y-25178904D01*
X55692840Y-25157940D01*
X55704299Y-25115711D01*
X55716971Y-25073237D01*
X55744004Y-24988309D01*
X55759969Y-24938638D01*
X55775088Y-24889442D01*
X55788415Y-24841616D01*
X55794111Y-24818497D01*
X55799004Y-24796056D01*
X55802976Y-24774406D01*
X55805909Y-24753659D01*
X55807685Y-24733927D01*
X55808186Y-24715321D01*
X55807293Y-24697954D01*
X55804887Y-24681938D01*
X55800852Y-24667384D01*
X55798186Y-24660691D01*
X55795068Y-24654405D01*
X55791689Y-24649025D01*
X55787668Y-24643942D01*
X55783031Y-24639148D01*
X55777800Y-24634634D01*
X55772000Y-24630393D01*
X55765656Y-24626415D01*
X55758791Y-24622694D01*
X55751428Y-24619219D01*
X55743593Y-24615984D01*
X55735310Y-24612980D01*
X55717492Y-24607631D01*
X55698167Y-24603106D01*
X55677527Y-24599338D01*
X55655765Y-24596262D01*
X55633073Y-24593812D01*
X55609643Y-24591920D01*
X55585667Y-24590520D01*
X55561338Y-24589548D01*
X55536847Y-24588935D01*
X55488152Y-24588524D01*
X55428356Y-24588524D01*
X55360482Y-24588528D01*
X55328687Y-24588203D01*
X55298511Y-24587366D01*
X55270097Y-24585798D01*
X55243586Y-24583278D01*
X55231089Y-24581592D01*
X55219121Y-24579585D01*
X55207701Y-24577231D01*
X55196845Y-24574501D01*
X55164026Y-24564508D01*
X55130346Y-24552525D01*
X55096086Y-24538607D01*
X55061527Y-24522812D01*
X55026950Y-24505196D01*
X54992634Y-24485814D01*
X54958862Y-24464722D01*
X54925912Y-24441978D01*
X54894066Y-24417637D01*
X54863605Y-24391755D01*
X54834808Y-24364389D01*
X54807957Y-24335595D01*
X54783333Y-24305428D01*
X54761215Y-24273946D01*
X54751184Y-24257729D01*
X54741885Y-24241204D01*
X54733353Y-24224379D01*
X54725622Y-24207259D01*
X54721287Y-24195690D01*
X54717196Y-24182520D01*
X54713325Y-24167762D01*
X54709652Y-24151428D01*
X54706155Y-24133530D01*
X54702810Y-24114079D01*
X54696485Y-24070569D01*
X54690495Y-24020994D01*
X54684658Y-23965451D01*
X54672706Y-23836843D01*
X54665318Y-23755339D01*
X54657658Y-23677928D01*
X54653640Y-23642439D01*
X54649452Y-23609992D01*
X54645059Y-23581260D01*
X54640427Y-23556914D01*
X54639068Y-23551291D01*
X54637379Y-23545799D01*
X54635369Y-23540450D01*
X54633048Y-23535256D01*
X54630426Y-23530229D01*
X54627514Y-23525383D01*
X54624321Y-23520727D01*
X54620857Y-23516276D01*
X54617132Y-23512040D01*
X54613157Y-23508032D01*
X54608941Y-23504264D01*
X54604494Y-23500748D01*
X54599826Y-23497496D01*
X54594948Y-23494520D01*
X54589869Y-23491833D01*
X54584600Y-23489445D01*
X54575314Y-23485559D01*
X54563745Y-23481734D01*
X54549767Y-23478261D01*
X54533254Y-23475431D01*
X54514081Y-23473534D01*
X54503457Y-23473026D01*
X54492121Y-23472860D01*
X54480058Y-23473074D01*
X54467251Y-23473702D01*
X54453685Y-23474781D01*
X54439343Y-23476348D01*
X54424211Y-23478440D01*
X54408273Y-23481091D01*
X54391513Y-23484339D01*
X54373915Y-23488221D01*
X54355463Y-23492771D01*
X54336143Y-23498027D01*
X54315937Y-23504026D01*
X54294831Y-23510802D01*
X54272809Y-23518393D01*
X54249855Y-23526836D01*
X54225953Y-23536165D01*
X54201088Y-23546419D01*
X54175244Y-23557632D01*
X54148405Y-23569841D01*
X54120556Y-23583084D01*
X54091681Y-23597395D01*
X54063910Y-23612525D01*
X54036062Y-23629835D01*
X54008143Y-23649251D01*
X53980156Y-23670701D01*
X53952106Y-23694111D01*
X53923997Y-23719406D01*
X53867620Y-23775361D01*
X53811060Y-23837975D01*
X53754353Y-23906660D01*
X53697532Y-23980827D01*
X53640632Y-24059887D01*
X53583690Y-24143250D01*
X53526739Y-24230328D01*
X53469814Y-24320531D01*
X53412950Y-24413271D01*
X53299546Y-24604002D01*
X53186806Y-24797810D01*
X53048760Y-25034612D01*
X52981349Y-25147705D01*
X52914285Y-25257127D01*
X52786293Y-25464958D01*
X52680274Y-25644815D01*
X52635201Y-25725961D01*
X52595258Y-25802163D01*
X52560323Y-25874102D01*
X52530276Y-25942463D01*
X52504993Y-26007928D01*
X52484355Y-26071180D01*
X52468240Y-26132901D01*
X52456527Y-26193776D01*
X52449094Y-26254486D01*
X52445820Y-26315714D01*
X52002323Y-26315714D01*
X52002728Y-26314026D01*
X52003588Y-26309665D01*
X52004346Y-26304956D01*
X52004999Y-26299897D01*
X52005541Y-26294490D01*
X52005971Y-26288736D01*
X52009110Y-26242033D01*
X52013722Y-26194317D01*
X52020039Y-26146061D01*
X52028295Y-26097740D01*
X52033222Y-26073703D01*
X52038720Y-26049828D01*
X52044820Y-26026174D01*
X52051549Y-26002800D01*
X52058937Y-25979766D01*
X52067013Y-25957130D01*
X52075806Y-25934953D01*
X52085345Y-25913293D01*
X52117026Y-25844087D01*
X52149780Y-25775081D01*
X52215058Y-25643020D01*
X52274283Y-25527827D01*
X52320560Y-25440217D01*
X52320560Y-25438895D01*
X52303784Y-25430924D01*
X52285745Y-25421772D01*
X52266656Y-25411407D01*
X52246729Y-25399794D01*
X52226177Y-25386901D01*
X52205214Y-25372694D01*
X52184051Y-25357140D01*
X52162901Y-25340205D01*
X52141979Y-25321857D01*
X52121495Y-25302061D01*
X52101663Y-25280784D01*
X52082696Y-25257994D01*
X52073603Y-25246021D01*
X52064806Y-25233657D01*
X52056332Y-25220897D01*
X52048206Y-25207739D01*
X52040457Y-25194177D01*
X52033110Y-25180207D01*
X52026192Y-25165825D01*
X52019729Y-25151028D01*
X52007546Y-25119211D01*
X51996308Y-25083895D01*
X51986624Y-25045239D01*
X51979103Y-25003402D01*
X51974356Y-24958544D01*
X51972992Y-24910824D01*
X51973770Y-24885940D01*
X51975621Y-24860400D01*
X51978624Y-24834225D01*
X51982853Y-24807433D01*
X51988385Y-24780046D01*
X51995296Y-24752082D01*
X52003663Y-24723562D01*
X52013562Y-24694505D01*
X52025068Y-24664932D01*
X52038258Y-24634863D01*
X52053209Y-24604317D01*
X52069996Y-24573314D01*
X52088695Y-24541875D01*
X52109384Y-24510018D01*
X52132138Y-24477765D01*
X52157033Y-24445134D01*
X52184145Y-24412147D01*
X52213551Y-24378822D01*
X52245328Y-24345180D01*
X52279550Y-24311240D01*
X52313589Y-24279699D01*
X52353102Y-24245265D01*
X52446783Y-24168700D01*
X52557058Y-24083510D01*
X52680394Y-23991657D01*
X52813254Y-23895103D01*
X52952104Y-23795812D01*
X53233637Y-23596866D01*
X53447569Y-23446343D01*
X53639971Y-23308668D01*
X53720222Y-23249471D01*
X53785640Y-23199271D01*
X53833075Y-23159998D01*
X53849064Y-23145062D01*
X53859376Y-23133580D01*
X53880850Y-23105068D01*
X53900756Y-23077729D01*
X53919144Y-23051197D01*
X53936064Y-23025109D01*
X53951568Y-22999098D01*
X53965705Y-22972799D01*
X53978526Y-22945847D01*
X53990081Y-22917878D01*
X54000420Y-22888526D01*
X54009595Y-22857426D01*
X54017654Y-22824213D01*
X54024650Y-22788522D01*
X54030632Y-22749988D01*
X54035650Y-22708245D01*
X54039755Y-22662929D01*
X54042997Y-22613674D01*
X54037970Y-22431376D01*
X54030826Y-22365494D01*
X54030716Y-22364785D01*
X54030574Y-22364087D01*
X54030401Y-22363402D01*
X54030199Y-22362731D01*
X54029967Y-22362073D01*
X54029707Y-22361430D01*
X54029420Y-22360803D01*
X54029106Y-22360192D01*
X54028766Y-22359597D01*
X54028401Y-22359020D01*
X54028012Y-22358462D01*
X54027599Y-22357922D01*
X54027163Y-22357402D01*
X54026706Y-22356902D01*
X54026227Y-22356423D01*
X54025728Y-22355966D01*
X54025209Y-22355531D01*
X54024672Y-22355119D01*
X54024116Y-22354731D01*
X54023543Y-22354367D01*
X54022954Y-22354029D01*
X54022349Y-22353716D01*
X54021729Y-22353430D01*
X54021095Y-22353171D01*
X54020448Y-22352940D01*
X54019789Y-22352737D01*
X54019117Y-22352564D01*
X54018435Y-22352421D01*
X54017743Y-22352308D01*
X54017041Y-22352226D01*
X54016331Y-22352177D01*
X54015613Y-22352161D01*
X54014895Y-22352177D01*
X54014184Y-22352226D01*
X54013483Y-22352308D01*
X54012790Y-22352421D01*
X54012108Y-22352564D01*
X54011437Y-22352737D01*
X54010777Y-22352940D01*
X54010130Y-22353171D01*
X54009496Y-22353430D01*
X54008876Y-22353716D01*
X54008272Y-22354029D01*
X54007682Y-22354367D01*
X54007110Y-22354731D01*
X54006554Y-22355119D01*
X54006016Y-22355531D01*
X54005498Y-22355966D01*
X54004999Y-22356423D01*
X54004520Y-22356902D01*
X54004062Y-22357402D01*
X54003627Y-22357922D01*
X54003214Y-22358462D01*
X54002824Y-22359020D01*
X54002459Y-22359597D01*
X54002120Y-22360192D01*
X54001806Y-22360803D01*
X54001518Y-22361430D01*
X54001259Y-22362073D01*
X54001027Y-22362731D01*
X54000825Y-22363402D01*
X54000652Y-22364087D01*
X54000510Y-22364785D01*
X54000399Y-22365494D01*
X53996008Y-22398064D01*
X53990977Y-22430531D01*
X53985310Y-22462887D01*
X53979007Y-22495122D01*
X53972071Y-22527227D01*
X53964504Y-22559193D01*
X53956307Y-22591009D01*
X53947483Y-22622667D01*
X53936487Y-22659703D01*
X53925001Y-22696301D01*
X53913131Y-22731727D01*
X53900982Y-22765247D01*
X53888659Y-22796124D01*
X53876268Y-22823625D01*
X53870080Y-22835879D01*
X53863915Y-22847014D01*
X53857785Y-22856937D01*
X53851704Y-22865557D01*
X53835522Y-22886160D01*
X53818664Y-22906072D01*
X53801186Y-22925254D01*
X53783143Y-22943667D01*
X53764593Y-22961270D01*
X53745589Y-22978025D01*
X53726189Y-22993891D01*
X53706447Y-23008829D01*
X53686421Y-23022800D01*
X53666165Y-23035764D01*
X53645735Y-23047681D01*
X53625187Y-23058513D01*
X53604578Y-23068219D01*
X53583962Y-23076759D01*
X53563396Y-23084096D01*
X53542935Y-23090188D01*
X53534526Y-23092841D01*
X53526028Y-23094966D01*
X53517464Y-23096567D01*
X53508857Y-23097646D01*
X53500230Y-23098207D01*
X53491607Y-23098253D01*
X53483010Y-23097788D01*
X53474463Y-23096815D01*
X53465988Y-23095337D01*
X53457610Y-23093357D01*
X53449350Y-23090880D01*
X53441232Y-23087908D01*
X53433279Y-23084444D01*
X53425515Y-23080492D01*
X53417962Y-23076055D01*
X53410643Y-23071137D01*
X53403622Y-23065129D01*
X53397084Y-23058663D01*
X53391013Y-23051736D01*
X53385397Y-23044346D01*
X53380219Y-23036489D01*
X53375466Y-23028164D01*
X53371122Y-23019368D01*
X53367173Y-23010097D01*
X53363605Y-23000351D01*
X53360401Y-22990126D01*
X53357549Y-22979419D01*
X53355033Y-22968228D01*
X53350950Y-22944384D01*
X53348036Y-22918573D01*
X53346174Y-22890774D01*
X53345244Y-22860967D01*
X53345131Y-22829132D01*
X53345717Y-22795248D01*
X53348515Y-22721250D01*
X53352700Y-22638809D01*
X53361311Y-22444667D01*
X53363327Y-22337083D01*
X53362258Y-22223512D01*
X53360201Y-22164721D01*
X53356934Y-22104720D01*
X53352312Y-22043605D01*
X53346188Y-21981473D01*
X53338416Y-21918417D01*
X53328850Y-21854535D01*
X53317344Y-21789922D01*
X53303751Y-21724674D01*
X53275962Y-21605948D01*
X53248310Y-21497313D01*
X53220727Y-21398014D01*
X53193147Y-21307298D01*
X53165502Y-21224409D01*
X53137724Y-21148593D01*
X53109747Y-21079095D01*
X53081501Y-21015161D01*
X53052921Y-20956035D01*
X53023939Y-20900964D01*
X52994487Y-20849193D01*
X52964498Y-20799967D01*
X52902638Y-20706133D01*
X52837820Y-20613424D01*
X52803160Y-20564277D01*
X52785507Y-20539010D01*
X52767706Y-20513147D01*
X52753270Y-20492575D01*
X52738540Y-20472099D01*
X52723518Y-20451667D01*
X52708208Y-20431225D01*
X52676735Y-20390103D01*
X52644146Y-20348312D01*
X52569393Y-20250958D01*
X52532207Y-20200294D01*
X52495739Y-20147877D01*
X52460434Y-20093384D01*
X52426735Y-20036493D01*
X52395088Y-19976882D01*
X52365936Y-19914229D01*
X52339723Y-19848212D01*
X52327858Y-19813842D01*
X52316894Y-19778509D01*
X52306887Y-19742174D01*
X52297893Y-19704798D01*
X52289966Y-19666338D01*
X52283163Y-19626756D01*
X52277539Y-19586010D01*
X52273149Y-19544061D01*
X52270050Y-19500869D01*
X52268296Y-19456392D01*
X52267943Y-19410592D01*
X52269046Y-19363427D01*
X52271662Y-19314857D01*
X52275846Y-19264843D01*
X52284721Y-19169349D01*
X52291290Y-19088068D01*
X52295826Y-19019835D01*
X52298600Y-18963483D01*
X52298731Y-18962289D01*
X52298808Y-18961101D01*
X52298831Y-18959919D01*
X52298802Y-18958745D01*
X52298721Y-18957581D01*
X52298590Y-18956427D01*
X52298409Y-18955285D01*
X52298179Y-18954157D01*
X52297900Y-18953043D01*
X52297575Y-18951946D01*
X52296787Y-18949806D01*
X52295820Y-18947748D01*
X52294683Y-18945783D01*
X52293382Y-18943923D01*
X52291925Y-18942178D01*
X52290318Y-18940560D01*
X52289461Y-18939801D01*
X52288569Y-18939079D01*
X52287643Y-18938394D01*
X52286685Y-18937748D01*
X52285694Y-18937141D01*
X52284673Y-18936576D01*
X52283621Y-18936054D01*
X52282540Y-18935577D01*
X52281430Y-18935144D01*
X52280293Y-18934759D01*
X52279140Y-18934426D01*
X52277982Y-18934146D01*
X52276822Y-18933921D01*
X52275661Y-18933748D01*
X52274500Y-18933628D01*
X52273340Y-18933560D01*
X52271033Y-18933576D01*
X52268752Y-18933792D01*
X52266509Y-18934202D01*
X52264316Y-18934801D01*
X52262185Y-18935585D01*
X52260129Y-18936547D01*
X52258160Y-18937684D01*
X52256290Y-18938990D01*
X52254532Y-18940459D01*
X52252897Y-18942087D01*
X52252130Y-18942959D01*
X52251399Y-18943869D01*
X52250704Y-18944816D01*
X52250048Y-18945799D01*
X52249432Y-18946818D01*
X52248858Y-18947872D01*
X52235893Y-18968245D01*
X52203878Y-19021162D01*
X52150860Y-19107593D01*
X52088504Y-19203766D01*
X52053943Y-19253457D01*
X52017192Y-19303126D01*
X51978299Y-19351953D01*
X51937311Y-19399119D01*
X51894276Y-19443805D01*
X51849244Y-19485190D01*
X51802261Y-19522457D01*
X51778053Y-19539290D01*
X51753376Y-19554785D01*
X51728235Y-19568841D01*
X51702636Y-19581355D01*
X51676586Y-19592225D01*
X51650091Y-19601349D01*
X51623156Y-19608623D01*
X51595788Y-19613945D01*
X51567992Y-19617214D01*
X51539774Y-19618326D01*
X51531926Y-19618228D01*
X51524084Y-19617958D01*
X51516252Y-19617519D01*
X51508432Y-19616908D01*
X51500628Y-19616128D01*
X51492841Y-19615178D01*
X51485075Y-19614058D01*
X51477332Y-19612770D01*
X51418944Y-19601325D01*
X51359924Y-19586644D01*
X51240634Y-19548512D01*
X51120754Y-19500251D01*
X51001578Y-19443738D01*
X50884399Y-19380853D01*
X50770510Y-19313472D01*
X50661204Y-19243473D01*
X50557773Y-19172735D01*
X50373710Y-19036549D01*
X50228664Y-18919938D01*
X50097001Y-18805526D01*
X50089524Y-18798075D01*
X50082561Y-18790610D01*
X50076102Y-18783137D01*
X50070134Y-18775665D01*
X50064644Y-18768200D01*
X50059622Y-18760750D01*
X50055055Y-18753323D01*
X50050931Y-18745925D01*
X50047237Y-18738563D01*
X50043963Y-18731246D01*
X50041096Y-18723980D01*
X50038623Y-18716773D01*
X50036534Y-18709633D01*
X50034815Y-18702565D01*
X50033456Y-18695578D01*
X50032443Y-18688680D01*
X50031410Y-18675175D01*
X50031620Y-18662111D01*
X50032978Y-18649545D01*
X50035386Y-18637537D01*
X50038750Y-18626143D01*
X50042972Y-18615424D01*
X50047957Y-18605437D01*
X50053609Y-18596241D01*
X50057290Y-18591218D01*
X50061161Y-18586406D01*
X50065214Y-18581805D01*
X50069440Y-18577420D01*
X50073831Y-18573251D01*
X50078378Y-18569300D01*
X50083074Y-18565572D01*
X50087909Y-18562066D01*
X50092876Y-18558786D01*
X50097967Y-18555734D01*
X50103172Y-18552912D01*
X50108484Y-18550323D01*
X50113894Y-18547967D01*
X50119393Y-18545849D01*
X50124975Y-18543970D01*
X50130629Y-18542331D01*
X50136349Y-18540936D01*
X50142125Y-18539787D01*
X50147950Y-18538886D01*
X50153814Y-18538235D01*
X50159710Y-18537835D01*
X50165629Y-18537691D01*
X50171563Y-18537803D01*
X50177503Y-18538174D01*
X50183442Y-18538807D01*
X50189371Y-18539702D01*
X50195281Y-18540864D01*
X50201165Y-18542293D01*
X50207014Y-18543992D01*
X50212819Y-18545964D01*
X50218572Y-18548210D01*
X50224266Y-18550732D01*
X50292193Y-18580146D01*
X50364859Y-18612413D01*
X50521128Y-18683024D01*
X50830521Y-18821261D01*
X50998890Y-18892788D01*
X51165091Y-18958852D01*
X51320663Y-19014151D01*
X51391820Y-19036107D01*
X51457146Y-19053383D01*
X51515584Y-19065317D01*
X51566076Y-19071245D01*
X51607565Y-19070506D01*
X51624603Y-19067429D01*
X51638993Y-19062437D01*
X51650788Y-19055747D01*
X51662422Y-19048804D01*
X51673891Y-19041611D01*
X51685191Y-19034169D01*
X51696318Y-19026484D01*
X51707269Y-19018557D01*
X51718039Y-19010391D01*
X51728624Y-19001991D01*
X51739022Y-18993359D01*
X51749227Y-18984498D01*
X51759237Y-18975412D01*
X51769046Y-18966103D01*
X51778652Y-18956575D01*
X51788051Y-18946830D01*
X51797238Y-18936873D01*
X51806209Y-18926705D01*
X51807313Y-18925900D01*
X51808363Y-18925050D01*
X51809359Y-18924156D01*
X51810301Y-18923222D01*
X51811188Y-18922248D01*
X51812020Y-18921238D01*
X51812797Y-18920194D01*
X51813518Y-18919119D01*
X51814182Y-18918014D01*
X51814790Y-18916881D01*
X51815341Y-18915724D01*
X51815834Y-18914545D01*
X51816269Y-18913345D01*
X51816645Y-18912127D01*
X51816963Y-18910894D01*
X51817222Y-18909648D01*
X51817420Y-18908390D01*
X51817559Y-18907125D01*
X51817637Y-18905852D01*
X51817654Y-18904576D01*
X51817610Y-18903299D01*
X51817504Y-18902022D01*
X51817335Y-18900748D01*
X51817104Y-18899479D01*
X51816810Y-18898218D01*
X51816452Y-18896967D01*
X51816031Y-18895728D01*
X51815545Y-18894504D01*
X51814994Y-18893297D01*
X51814378Y-18892109D01*
X51813697Y-18890942D01*
X51812949Y-18889799D01*
X51812145Y-18888696D01*
X51811294Y-18887646D01*
X51810401Y-18886650D01*
X51809467Y-18885707D01*
X51808493Y-18884820D01*
X51807484Y-18883987D01*
X51806440Y-18883210D01*
X51805364Y-18882489D01*
X51804259Y-18881825D01*
X51803127Y-18881216D01*
X51801970Y-18880666D01*
X51800791Y-18880172D01*
X51799591Y-18879737D01*
X51798374Y-18879360D01*
X51797141Y-18879042D01*
X51795894Y-18878783D01*
X51794637Y-18878584D01*
X51793371Y-18878445D01*
X51792099Y-18878367D01*
X51790823Y-18878349D01*
X51789545Y-18878393D01*
X51788268Y-18878499D01*
X51786994Y-18878667D01*
X51785726Y-18878898D01*
X51784464Y-18879192D01*
X51783213Y-18879549D01*
X51781974Y-18879970D01*
X51780750Y-18880456D01*
X51779543Y-18881007D01*
X51778354Y-18881622D01*
X51777188Y-18882303D01*
X51776045Y-18883051D01*
X51748804Y-18893456D01*
X51722484Y-18902015D01*
X51696995Y-18908823D01*
X51672247Y-18913973D01*
X51648150Y-18917560D01*
X51624614Y-18919680D01*
X51601549Y-18920426D01*
X51578866Y-18919893D01*
X51556474Y-18918175D01*
X51534284Y-18915368D01*
X51512205Y-18911565D01*
X51490148Y-18906862D01*
X51468023Y-18901352D01*
X51445740Y-18895131D01*
X51400339Y-18880933D01*
X51373881Y-18871937D01*
X51203741Y-18814704D01*
X51122952Y-18785877D01*
X51038290Y-18753999D01*
X50944710Y-18716887D01*
X50837169Y-18672358D01*
X50710621Y-18618230D01*
X50560022Y-18552320D01*
X50507841Y-18528551D01*
X50455164Y-18505955D01*
X50402011Y-18484539D01*
X50348403Y-18464311D01*
X50294359Y-18445278D01*
X50239898Y-18427448D01*
X50185042Y-18410827D01*
X50129810Y-18395422D01*
X50092058Y-18385833D01*
X50058087Y-18376401D01*
X50042475Y-18371507D01*
X50027755Y-18366368D01*
X50013911Y-18360889D01*
X50000924Y-18354974D01*
X49988778Y-18348529D01*
X49977454Y-18341459D01*
X49966936Y-18333669D01*
X49957206Y-18325064D01*
X49948246Y-18315548D01*
X49940040Y-18305028D01*
X49932569Y-18293408D01*
X49925816Y-18280593D01*
X49920140Y-18269173D01*
X49915346Y-18257484D01*
X49911432Y-18245573D01*
X49908393Y-18233488D01*
X49906227Y-18221275D01*
X49904930Y-18208982D01*
X49904499Y-18196654D01*
X49904931Y-18184341D01*
X49906222Y-18172087D01*
X49908369Y-18159941D01*
X49911369Y-18147948D01*
X49915218Y-18136157D01*
X49919914Y-18124615D01*
X49925453Y-18113367D01*
X49931831Y-18102461D01*
X49939045Y-18091945D01*
X49942918Y-18087397D01*
X49946945Y-18083032D01*
X49951122Y-18078850D01*
X49955446Y-18074852D01*
X49959915Y-18071040D01*
X49964526Y-18067414D01*
X49969275Y-18063975D01*
X49974160Y-18060724D01*
X49979178Y-18057663D01*
X49984325Y-18054791D01*
X49989598Y-18052111D01*
X49994995Y-18049622D01*
X50000513Y-18047327D01*
X50006148Y-18045225D01*
X50011897Y-18043319D01*
X50017758Y-18041608D01*
X50023728Y-18040094D01*
X50029803Y-18038779D01*
X50042258Y-18036744D01*
X50055099Y-18035513D01*
X50068302Y-18035093D01*
X50081843Y-18035491D01*
X50095698Y-18036715D01*
X50109843Y-18038774D01*
X50124253Y-18041674D01*
X50132107Y-18043649D01*
X50139701Y-18045846D01*
X50147044Y-18048253D01*
X50154146Y-18050859D01*
X50161016Y-18053655D01*
X50167664Y-18056628D01*
X50180333Y-18063064D01*
X50192228Y-18070080D01*
X50203425Y-18077588D01*
X50214002Y-18085501D01*
X50224035Y-18093731D01*
X50233599Y-18102190D01*
X50242771Y-18110792D01*
X50260245Y-18128069D01*
X50277068Y-18144863D01*
X50285427Y-18152860D01*
X50293851Y-18160472D01*
X50318397Y-18181007D01*
X50331766Y-18191554D01*
X50346350Y-18202409D01*
X50362515Y-18213660D01*
X50380623Y-18225399D01*
X50401038Y-18237714D01*
X50424125Y-18250695D01*
X50450248Y-18264434D01*
X50479770Y-18279018D01*
X50513056Y-18294539D01*
X50550468Y-18311087D01*
X50592372Y-18328750D01*
X50639131Y-18347620D01*
X50691109Y-18367785D01*
X50748670Y-18389337D01*
X50993636Y-18476993D01*
X51100233Y-18512241D01*
X51197399Y-18541853D01*
X51286006Y-18565890D01*
X51366925Y-18584413D01*
X51441027Y-18597487D01*
X51509182Y-18605171D01*
X51572261Y-18607528D01*
X51631136Y-18604621D01*
X51686676Y-18596511D01*
X51739754Y-18583260D01*
X51791239Y-18564930D01*
X51842003Y-18541584D01*
X51892917Y-18513283D01*
X51944851Y-18480089D01*
X51992257Y-18446970D01*
X52036824Y-18414085D01*
X52078521Y-18381573D01*
X52117318Y-18349575D01*
X52153185Y-18318231D01*
X52186092Y-18287682D01*
X52216008Y-18258068D01*
X52242904Y-18229528D01*
X52266749Y-18202205D01*
X52287512Y-18176237D01*
X52305164Y-18151765D01*
X52319675Y-18128929D01*
X52331013Y-18107870D01*
X52339149Y-18088728D01*
X52344053Y-18071643D01*
X52345695Y-18056755D01*
X52345278Y-18051363D01*
X52344054Y-18045761D01*
X52342059Y-18039963D01*
X52339330Y-18033984D01*
X52335904Y-18027837D01*
X52331819Y-18021537D01*
X52327110Y-18015097D01*
X52321816Y-18008531D01*
X52315973Y-18001853D01*
X52309618Y-17995077D01*
X52295521Y-17981286D01*
X52279821Y-17967269D01*
X52262814Y-17953138D01*
X52244796Y-17939004D01*
X52226064Y-17924978D01*
X52206913Y-17911172D01*
X52187639Y-17897696D01*
X52149909Y-17872180D01*
X52115242Y-17849322D01*
X52089264Y-17832306D01*
X52064376Y-17815786D01*
X52040977Y-17799762D01*
X52029960Y-17791936D01*
X52019463Y-17784235D01*
X51971696Y-17746807D01*
X51917119Y-17701064D01*
X51859641Y-17650968D01*
X51803166Y-17600481D01*
X51665451Y-17473878D01*
X51651515Y-17461123D01*
X51636538Y-17449673D01*
X51620580Y-17439493D01*
X51603702Y-17430549D01*
X51585965Y-17422807D01*
X51567428Y-17416232D01*
X51548154Y-17410790D01*
X51528202Y-17406447D01*
X51507634Y-17403167D01*
X51486510Y-17400917D01*
X51464890Y-17399661D01*
X51442837Y-17399367D01*
X51397668Y-17401521D01*
X51351490Y-17407104D01*
X51304787Y-17415841D01*
X51258047Y-17427455D01*
X51211753Y-17441671D01*
X51166393Y-17458214D01*
X51122451Y-17476808D01*
X51080413Y-17497178D01*
X51040765Y-17519047D01*
X51003993Y-17542141D01*
X51001511Y-17543897D01*
X50998954Y-17545517D01*
X50996328Y-17546997D01*
X50993638Y-17548337D01*
X50990891Y-17549536D01*
X50988092Y-17550591D01*
X50985246Y-17551503D01*
X50982359Y-17552268D01*
X50979438Y-17552887D01*
X50976487Y-17553358D01*
X50973512Y-17553678D01*
X50970520Y-17553848D01*
X50967515Y-17553865D01*
X50964504Y-17553729D01*
X50961491Y-17553437D01*
X50958484Y-17552989D01*
X50955679Y-17552373D01*
X50952921Y-17551620D01*
X50950214Y-17550731D01*
X50947564Y-17549711D01*
X50944975Y-17548563D01*
X50942450Y-17547289D01*
X50939996Y-17545892D01*
X50937615Y-17544375D01*
X50935313Y-17542742D01*
X50933094Y-17540995D01*
X50930963Y-17539137D01*
X50928923Y-17537171D01*
X50926979Y-17535101D01*
X50925137Y-17532929D01*
X50923399Y-17530658D01*
X50921772Y-17528292D01*
X50920266Y-17525846D01*
X50918892Y-17523338D01*
X50917651Y-17520774D01*
X50916543Y-17518160D01*
X50915571Y-17515499D01*
X50914734Y-17512798D01*
X50914034Y-17510062D01*
X50913471Y-17507296D01*
X50913047Y-17504506D01*
X50912762Y-17501696D01*
X50912618Y-17498872D01*
X50912615Y-17496039D01*
X50912754Y-17493203D01*
X50913036Y-17490369D01*
X50913463Y-17487541D01*
X50914035Y-17484727D01*
X50932359Y-17400440D01*
X50945874Y-17320741D01*
X50954896Y-17245517D01*
X50959745Y-17174656D01*
X50960738Y-17108043D01*
X50958194Y-17045567D01*
X50952431Y-16987115D01*
X50948033Y-16959429D01*
X51620307Y-16959429D01*
X51620767Y-16981037D01*
X51622303Y-17001641D01*
X51624890Y-17021176D01*
X51628505Y-17039577D01*
X51633123Y-17056780D01*
X51638720Y-17072720D01*
X51645271Y-17087332D01*
X51652752Y-17100551D01*
X51656125Y-17085867D01*
X51657635Y-17079622D01*
X51659226Y-17073316D01*
X51660804Y-17067431D01*
X51662277Y-17062451D01*
X51667638Y-17044919D01*
X51673786Y-17027721D01*
X51680704Y-17010882D01*
X51688372Y-16994425D01*
X51696775Y-16978372D01*
X51705895Y-16962747D01*
X51715714Y-16947574D01*
X51726215Y-16932875D01*
X51737380Y-16918675D01*
X51749192Y-16904996D01*
X51761633Y-16891861D01*
X51774686Y-16879295D01*
X51788334Y-16867319D01*
X51802558Y-16855959D01*
X51817342Y-16845236D01*
X51832668Y-16835174D01*
X51845977Y-16827058D01*
X51859623Y-16819677D01*
X51873575Y-16813036D01*
X51887805Y-16807140D01*
X51902280Y-16801993D01*
X51916973Y-16797602D01*
X51931852Y-16793970D01*
X51946888Y-16791102D01*
X51962050Y-16789004D01*
X51977309Y-16787681D01*
X51992634Y-16787137D01*
X52007996Y-16787377D01*
X52023364Y-16788406D01*
X52038708Y-16790230D01*
X52053999Y-16792853D01*
X52069206Y-16796280D01*
X52079761Y-16799301D01*
X52090282Y-16802782D01*
X52100752Y-16806757D01*
X52111154Y-16811261D01*
X52121469Y-16816329D01*
X52131682Y-16821996D01*
X52141775Y-16828296D01*
X52151731Y-16835265D01*
X52161533Y-16842936D01*
X52171163Y-16851346D01*
X52180604Y-16860528D01*
X52189840Y-16870517D01*
X52198853Y-16881349D01*
X52207626Y-16893058D01*
X52216142Y-16905678D01*
X52224384Y-16919245D01*
X52232334Y-16933794D01*
X52239976Y-16949358D01*
X52247292Y-16965973D01*
X52254264Y-16983674D01*
X52260877Y-17002496D01*
X52267113Y-17022473D01*
X52272954Y-17043639D01*
X52278384Y-17066031D01*
X52283385Y-17089682D01*
X52287940Y-17114628D01*
X52292033Y-17140903D01*
X52295645Y-17168542D01*
X52298760Y-17197579D01*
X52301361Y-17228050D01*
X52303430Y-17259990D01*
X52304950Y-17293432D01*
X52328114Y-17242400D01*
X52346607Y-17193175D01*
X52360724Y-17145742D01*
X52370761Y-17100084D01*
X52377014Y-17056185D01*
X52379778Y-17014031D01*
X52379349Y-16973604D01*
X52376024Y-16934889D01*
X52370096Y-16897870D01*
X52361864Y-16862531D01*
X52351621Y-16828856D01*
X52339664Y-16796830D01*
X52326289Y-16766436D01*
X52311790Y-16737659D01*
X52296465Y-16710482D01*
X52280608Y-16684891D01*
X52274661Y-16675727D01*
X52268293Y-16666747D01*
X52261527Y-16657957D01*
X52254383Y-16649365D01*
X52239049Y-16632805D01*
X52222462Y-16617128D01*
X52204795Y-16602396D01*
X52186219Y-16588669D01*
X52166905Y-16576007D01*
X52147027Y-16564472D01*
X52126754Y-16554125D01*
X52106260Y-16545026D01*
X52085715Y-16537236D01*
X52065291Y-16530816D01*
X52045160Y-16525828D01*
X52025494Y-16522331D01*
X52006465Y-16520386D01*
X51997242Y-16520015D01*
X51988243Y-16520055D01*
X51960746Y-16522170D01*
X51933756Y-16526283D01*
X51907360Y-16532331D01*
X51881647Y-16540251D01*
X51856704Y-16549978D01*
X51832619Y-16561451D01*
X51809480Y-16574605D01*
X51787376Y-16589376D01*
X51766393Y-16605702D01*
X51746620Y-16623519D01*
X51728144Y-16642764D01*
X51711055Y-16663372D01*
X51695438Y-16685282D01*
X51681383Y-16708429D01*
X51668977Y-16732749D01*
X51658308Y-16758180D01*
X51649278Y-16785492D01*
X51641520Y-16812317D01*
X51635009Y-16838591D01*
X51629721Y-16864249D01*
X51625631Y-16889227D01*
X51622715Y-16913459D01*
X51620949Y-16936881D01*
X51620307Y-16959429D01*
X50948033Y-16959429D01*
X50943767Y-16932574D01*
X50932520Y-16881831D01*
X50919008Y-16834774D01*
X50903550Y-16791289D01*
X50886464Y-16751264D01*
X50868068Y-16714586D01*
X50848680Y-16681143D01*
X50828618Y-16650821D01*
X50808201Y-16623508D01*
X50786452Y-16597818D01*
X50763426Y-16573528D01*
X50739192Y-16550670D01*
X50713818Y-16529277D01*
X50687375Y-16509385D01*
X50659931Y-16491025D01*
X50631557Y-16474232D01*
X50602320Y-16459039D01*
X50572291Y-16445480D01*
X50541538Y-16433589D01*
X50510131Y-16423399D01*
X50478139Y-16414944D01*
X50445632Y-16408256D01*
X50412679Y-16403371D01*
X50379348Y-16400322D01*
X50345710Y-16399141D01*
X50314238Y-16399912D01*
X50283390Y-16402206D01*
X50253189Y-16405996D01*
X50223661Y-16411255D01*
X50194829Y-16417957D01*
X50166720Y-16426073D01*
X50139357Y-16435578D01*
X50112764Y-16446444D01*
X50086968Y-16458644D01*
X50061992Y-16472150D01*
X50037861Y-16486937D01*
X50014599Y-16502977D01*
X49992232Y-16520242D01*
X49970784Y-16538707D01*
X49950280Y-16558343D01*
X49930743Y-16579124D01*
X49912200Y-16601023D01*
X49894674Y-16624012D01*
X49878191Y-16648066D01*
X49862775Y-16673155D01*
X49848450Y-16699255D01*
X49835241Y-16726337D01*
X49823174Y-16754375D01*
X49812272Y-16783341D01*
X49802560Y-16813209D01*
X49794063Y-16843951D01*
X49786806Y-16875540D01*
X49780813Y-16907950D01*
X49776108Y-16941154D01*
X49772718Y-16975123D01*
X49770665Y-17009832D01*
X49769976Y-17045253D01*
X49770831Y-17098227D01*
X49773319Y-17148084D01*
X49777325Y-17194937D01*
X49782734Y-17238900D01*
X49789429Y-17280086D01*
X49797295Y-17318609D01*
X49806217Y-17354583D01*
X49816080Y-17388120D01*
X49826767Y-17419336D01*
X49838163Y-17448343D01*
X49850153Y-17475254D01*
X49862622Y-17500184D01*
X49875453Y-17523246D01*
X49888531Y-17544553D01*
X49901741Y-17564219D01*
X49914968Y-17582358D01*
X49916512Y-17584253D01*
X49918146Y-17586054D01*
X49919866Y-17587759D01*
X49921668Y-17589365D01*
X49923547Y-17590870D01*
X49925498Y-17592272D01*
X49927518Y-17593567D01*
X49929601Y-17594755D01*
X49931744Y-17595831D01*
X49933941Y-17596795D01*
X49936189Y-17597643D01*
X49938483Y-17598373D01*
X49940819Y-17598983D01*
X49943191Y-17599470D01*
X49945596Y-17599833D01*
X49948030Y-17600068D01*
X49950472Y-17600173D01*
X49952904Y-17600148D01*
X49955321Y-17599995D01*
X49957718Y-17599715D01*
X49960092Y-17599310D01*
X49962435Y-17598783D01*
X49964745Y-17598134D01*
X49967017Y-17597365D01*
X49969245Y-17596479D01*
X49971425Y-17595476D01*
X49973552Y-17594359D01*
X49975622Y-17593130D01*
X49977629Y-17591789D01*
X49979570Y-17590340D01*
X49981438Y-17588783D01*
X49983230Y-17587120D01*
X49984635Y-17585636D01*
X49985965Y-17584104D01*
X49987220Y-17582527D01*
X49988399Y-17580908D01*
X49989502Y-17579250D01*
X49990529Y-17577554D01*
X49991480Y-17575823D01*
X49992354Y-17574061D01*
X49993151Y-17572269D01*
X49993871Y-17570451D01*
X49994513Y-17568608D01*
X49995077Y-17566744D01*
X49995563Y-17564861D01*
X49995971Y-17562961D01*
X49996300Y-17561047D01*
X49996550Y-17559123D01*
X49996721Y-17557189D01*
X49996812Y-17555250D01*
X49996823Y-17553307D01*
X49996755Y-17551363D01*
X49996606Y-17549421D01*
X49996376Y-17547483D01*
X49996065Y-17545552D01*
X49995673Y-17543631D01*
X49995200Y-17541722D01*
X49994645Y-17539827D01*
X49994007Y-17537949D01*
X49993287Y-17536092D01*
X49992485Y-17534257D01*
X49991600Y-17532447D01*
X49990631Y-17530664D01*
X49989579Y-17528912D01*
X49978927Y-17509920D01*
X49968934Y-17490621D01*
X49959606Y-17471032D01*
X49950948Y-17451171D01*
X49942963Y-17431055D01*
X49935657Y-17410701D01*
X49929034Y-17390127D01*
X49923099Y-17369350D01*
X49917857Y-17348387D01*
X49913312Y-17327257D01*
X49909469Y-17305975D01*
X49906333Y-17284561D01*
X49903907Y-17263031D01*
X49902198Y-17241402D01*
X49901209Y-17219692D01*
X49900946Y-17197918D01*
X49901377Y-17175862D01*
X49902908Y-17153953D01*
X49905521Y-17132230D01*
X49909202Y-17110729D01*
X49913935Y-17089489D01*
X49919705Y-17068546D01*
X49926496Y-17047938D01*
X49934292Y-17027702D01*
X49943078Y-17007877D01*
X49952839Y-16988499D01*
X49963559Y-16969605D01*
X49975223Y-16951234D01*
X49987815Y-16933422D01*
X50001319Y-16916207D01*
X50015721Y-16899627D01*
X50031004Y-16883718D01*
X50047067Y-16868597D01*
X50063793Y-16854365D01*
X50081144Y-16841036D01*
X50099082Y-16828626D01*
X50117571Y-16817149D01*
X50136573Y-16806622D01*
X50156049Y-16797058D01*
X50175963Y-16788473D01*
X50196276Y-16780883D01*
X50216952Y-16774302D01*
X50237952Y-16768745D01*
X50259239Y-16764228D01*
X50280776Y-16760766D01*
X50302524Y-16758373D01*
X50324447Y-16757065D01*
X50346506Y-16756858D01*
X50367712Y-16757393D01*
X50391930Y-16759283D01*
X50418704Y-16762951D01*
X50447571Y-16768822D01*
X50478075Y-16777318D01*
X50509755Y-16788865D01*
X50525893Y-16795915D01*
X50542152Y-16803886D01*
X50558476Y-16812832D01*
X50574807Y-16822805D01*
X50591087Y-16833859D01*
X50607260Y-16846046D01*
X50623267Y-16859420D01*
X50639052Y-16874034D01*
X50654557Y-16889940D01*
X50669725Y-16907192D01*
X50684497Y-16925842D01*
X50698818Y-16945944D01*
X50712628Y-16967550D01*
X50725872Y-16990714D01*
X50738491Y-17015488D01*
X50750428Y-17041926D01*
X50761626Y-17070081D01*
X50772028Y-17100005D01*
X50781575Y-17131752D01*
X50790210Y-17165374D01*
X50793984Y-17183450D01*
X50797331Y-17201591D01*
X50800250Y-17219790D01*
X50802742Y-17238041D01*
X50804806Y-17256334D01*
X50806442Y-17274664D01*
X50807650Y-17293021D01*
X50808429Y-17311400D01*
X50808779Y-17329791D01*
X50808700Y-17348188D01*
X50808192Y-17366584D01*
X50807254Y-17384970D01*
X50805887Y-17403338D01*
X50804090Y-17421683D01*
X50801862Y-17439995D01*
X50799205Y-17458268D01*
X50797090Y-17477053D01*
X50793824Y-17495185D01*
X50788542Y-17512968D01*
X50781322Y-17530404D01*
X50772242Y-17547492D01*
X50761378Y-17564235D01*
X50748808Y-17580631D01*
X50734610Y-17596682D01*
X50718860Y-17612388D01*
X50701636Y-17627750D01*
X50683015Y-17642768D01*
X50663076Y-17657443D01*
X50641894Y-17671776D01*
X50619548Y-17685767D01*
X50596115Y-17699417D01*
X50546297Y-17725696D01*
X50493060Y-17750616D01*
X50437021Y-17774182D01*
X50378800Y-17796400D01*
X50319016Y-17817274D01*
X50258288Y-17836809D01*
X50197235Y-17855009D01*
X50136475Y-17871878D01*
X50076628Y-17887422D01*
X50023261Y-17901783D01*
X49975769Y-17916836D01*
X49954178Y-17924737D01*
X49934000Y-17932950D01*
X49915215Y-17941519D01*
X49897803Y-17950492D01*
X49881747Y-17959915D01*
X49867026Y-17969833D01*
X49853623Y-17980293D01*
X49841517Y-17991341D01*
X49830691Y-18003023D01*
X49821124Y-18015386D01*
X49812799Y-18028474D01*
X49805695Y-18042336D01*
X49799795Y-18057015D01*
X49795078Y-18072560D01*
X49791527Y-18089015D01*
X49789122Y-18106427D01*
X49787843Y-18124842D01*
X49787673Y-18144306D01*
X49788592Y-18164866D01*
X49790581Y-18186567D01*
X49793621Y-18209455D01*
X49797693Y-18233577D01*
X49802779Y-18258979D01*
X49808858Y-18285707D01*
X49823923Y-18343324D01*
X49842737Y-18406799D01*
X49852183Y-18440009D01*
X49859935Y-18473085D01*
X49866071Y-18505983D01*
X49870669Y-18538660D01*
X49875564Y-18603181D01*
X49875244Y-18666302D01*
X49870333Y-18727678D01*
X49861457Y-18786967D01*
X49849239Y-18843822D01*
X49834304Y-18897899D01*
X49817275Y-18948854D01*
X49798779Y-18996342D01*
X49779438Y-19040019D01*
X49759877Y-19079539D01*
X49740721Y-19114560D01*
X49722594Y-19144735D01*
X49691925Y-19189172D01*
X49661021Y-19228045D01*
X49631071Y-19267631D01*
X49602087Y-19307911D01*
X49574079Y-19348868D01*
X49547060Y-19390484D01*
X49521042Y-19432741D01*
X49496036Y-19475622D01*
X49472055Y-19519108D01*
X49445668Y-19571714D01*
X49420547Y-19624908D01*
X49396699Y-19678667D01*
X49374136Y-19732969D01*
X49352865Y-19787791D01*
X49332896Y-19843108D01*
X49314238Y-19898900D01*
X49296901Y-19955141D01*
X49275473Y-20021545D01*
X49253216Y-20086771D01*
X49241294Y-20119295D01*
X49228585Y-20151947D01*
X49214895Y-20184870D01*
X49200031Y-20218203D01*
X49183800Y-20252088D01*
X49166008Y-20286666D01*
X49146462Y-20322078D01*
X49124968Y-20358465D01*
X49101333Y-20395968D01*
X49075364Y-20434729D01*
X49046868Y-20474888D01*
X49015650Y-20516587D01*
X48962152Y-20594016D01*
X48911617Y-20682790D01*
X48864230Y-20781952D01*
X48820176Y-20890542D01*
X48779640Y-21007603D01*
X48742806Y-21132177D01*
X48709859Y-21263305D01*
X48680985Y-21400030D01*
X48656367Y-21541394D01*
X48636192Y-21686438D01*
X48620644Y-21834204D01*
X48609907Y-21983734D01*
X48604167Y-22134071D01*
X48603608Y-22284255D01*
X48608416Y-22433330D01*
X48618775Y-22580336D01*
X48620985Y-22603592D01*
X48623409Y-22625543D01*
X48625988Y-22646197D01*
X48628663Y-22665565D01*
X48634066Y-22700478D01*
X48639147Y-22730355D01*
X48643160Y-22754410D01*
X48646353Y-22776446D01*
X48647492Y-22786743D01*
X48648249Y-22796579D01*
X48648562Y-22805967D01*
X48648374Y-22814923D01*
X48647625Y-22823459D01*
X48646255Y-22831592D01*
X48644205Y-22839334D01*
X48641417Y-22846702D01*
X48639727Y-22850249D01*
X48637830Y-22853707D01*
X48635718Y-22857079D01*
X48633385Y-22860366D01*
X48630822Y-22863570D01*
X48628023Y-22866693D01*
X48624979Y-22869736D01*
X48621685Y-22872701D01*
X48618229Y-22875500D01*
X48614702Y-22878046D01*
X48611094Y-22880342D01*
X48607397Y-22882392D01*
X48603600Y-22884201D01*
X48599695Y-22885772D01*
X48595672Y-22887109D01*
X48591522Y-22888217D01*
X48587235Y-22889098D01*
X48582803Y-22889757D01*
X48578216Y-22890199D01*
X48573464Y-22890426D01*
X48568539Y-22890443D01*
X48563431Y-22890253D01*
X48558130Y-22889861D01*
X48552628Y-22889271D01*
X48540982Y-22887510D01*
X48528419Y-22885003D01*
X48514863Y-22881780D01*
X48500241Y-22877873D01*
X48484477Y-22873313D01*
X48467499Y-22868133D01*
X48429597Y-22856032D01*
X48338845Y-22827193D01*
X48297740Y-22815790D01*
X48256480Y-22804996D01*
X48215069Y-22794813D01*
X48173515Y-22785242D01*
X48131824Y-22776285D01*
X48090004Y-22767943D01*
X48048060Y-22760217D01*
X48006000Y-22753110D01*
X48002626Y-22752478D01*
X47999317Y-22751650D01*
X47996081Y-22750632D01*
X47992925Y-22749427D01*
X47989857Y-22748043D01*
X47986883Y-22746483D01*
X47984010Y-22744753D01*
X47981247Y-22742859D01*
X47978600Y-22740806D01*
X47976076Y-22738599D01*
X47973683Y-22736243D01*
X47971428Y-22733743D01*
X47969318Y-22731106D01*
X47967360Y-22728336D01*
X47965562Y-22725438D01*
X47963931Y-22722417D01*
X47947830Y-22687719D01*
X47933490Y-22652248D01*
X47920805Y-22616100D01*
X47909667Y-22579369D01*
X47899970Y-22542152D01*
X47891610Y-22504543D01*
X47884479Y-22466638D01*
X47878471Y-22428532D01*
X47873479Y-22390321D01*
X47869399Y-22352099D01*
X47863546Y-22276008D01*
X47860062Y-22201020D01*
X47858097Y-22127899D01*
X47857998Y-22110288D01*
X47857701Y-22092114D01*
X47857205Y-22073378D01*
X47856510Y-22054080D01*
X47854731Y-21972859D01*
X47853934Y-21883689D01*
X47855277Y-21787027D01*
X47859916Y-21683333D01*
X47863833Y-21628992D01*
X47869008Y-21573066D01*
X47875585Y-21515611D01*
X47883708Y-21456684D01*
X47893523Y-21396344D01*
X47905174Y-21334647D01*
X47918806Y-21271651D01*
X47934562Y-21207413D01*
X47934964Y-21206089D01*
X47935295Y-21204760D01*
X47935556Y-21203428D01*
X47935748Y-21202097D01*
X47935872Y-21200767D01*
X47935929Y-21199442D01*
X47935921Y-21198122D01*
X47935848Y-21196812D01*
X47935712Y-21195511D01*
X47935512Y-21194224D01*
X47935252Y-21192951D01*
X47934931Y-21191695D01*
X47934551Y-21190459D01*
X47934113Y-21189243D01*
X47933617Y-21188051D01*
X47933066Y-21186884D01*
X47932459Y-21185745D01*
X47931799Y-21184636D01*
X47931086Y-21183558D01*
X47930321Y-21182515D01*
X47929505Y-21181507D01*
X47928640Y-21180538D01*
X47927726Y-21179610D01*
X47926764Y-21178724D01*
X47925757Y-21177882D01*
X47924703Y-21177088D01*
X47923606Y-21176342D01*
X47922466Y-21175648D01*
X47921283Y-21175007D01*
X47920059Y-21174421D01*
X47918796Y-21173892D01*
X47917493Y-21173424D01*
X47916168Y-21173021D01*
X47914839Y-21172690D01*
X47913508Y-21172429D01*
X47912176Y-21172236D01*
X47910847Y-21172112D01*
X47909521Y-21172054D01*
X47908202Y-21172062D01*
X47906891Y-21172135D01*
X47905591Y-21172271D01*
X47904303Y-21172469D01*
X47903031Y-21172730D01*
X47901775Y-21173050D01*
X47900538Y-21173430D01*
X47899322Y-21173868D01*
X47898130Y-21174363D01*
X47896963Y-21174914D01*
X47895824Y-21175520D01*
X47894714Y-21176180D01*
X47893636Y-21176893D01*
X47892593Y-21177657D01*
X47891585Y-21178473D01*
X47890616Y-21179338D01*
X47889687Y-21180251D01*
X47888800Y-21181212D01*
X47887959Y-21182220D01*
X47887164Y-21183273D01*
X47886418Y-21184370D01*
X47885723Y-21185510D01*
X47885081Y-21186693D01*
X47884495Y-21187916D01*
X47883966Y-21189180D01*
X47883497Y-21190482D01*
X47850995Y-21271951D01*
X47821444Y-21354447D01*
X47794865Y-21437890D01*
X47771279Y-21522200D01*
X47750707Y-21607296D01*
X47733170Y-21693096D01*
X47718689Y-21779521D01*
X47707286Y-21866490D01*
X47696732Y-21974479D01*
X47690077Y-22074504D01*
X47686878Y-22166707D01*
X47686693Y-22251227D01*
X47689081Y-22328207D01*
X47693598Y-22397788D01*
X47699802Y-22460110D01*
X47707252Y-22515314D01*
X47724119Y-22604936D01*
X47740660Y-22667781D01*
X47758615Y-22717655D01*
X47759591Y-22719761D01*
X47760448Y-22721905D01*
X47761183Y-22724083D01*
X47761798Y-22726290D01*
X47762293Y-22728520D01*
X47762666Y-22730769D01*
X47762919Y-22733032D01*
X47763050Y-22735303D01*
X47763060Y-22737579D01*
X47762948Y-22739853D01*
X47762714Y-22742120D01*
X47762359Y-22744377D01*
X47761881Y-22746617D01*
X47761282Y-22748837D01*
X47760560Y-22751030D01*
X47759716Y-22753192D01*
X47758755Y-22755305D01*
X47757687Y-22757352D01*
X47756514Y-22759330D01*
X47755242Y-22761234D01*
X47753872Y-22763063D01*
X47752410Y-22764812D01*
X47750858Y-22766478D01*
X47749220Y-22768057D01*
X47747501Y-22769548D01*
X47745703Y-22770945D01*
X47743831Y-22772245D01*
X47741888Y-22773446D01*
X47739877Y-22774544D01*
X47737803Y-22775536D01*
X47735669Y-22776418D01*
X47733479Y-22777186D01*
X47720334Y-22782136D01*
X47707370Y-22787481D01*
X47694596Y-22793217D01*
X47682020Y-22799337D01*
X47669651Y-22805836D01*
X47657496Y-22812709D01*
X47645565Y-22819949D01*
X47633865Y-22827552D01*
X47622405Y-22835511D01*
X47611193Y-22843822D01*
X47600237Y-22852478D01*
X47589546Y-22861474D01*
X47579127Y-22870805D01*
X47568990Y-22880465D01*
X47559143Y-22890447D01*
X47549593Y-22900748D01*
X47546125Y-22904793D01*
X47542964Y-22908693D01*
X47540107Y-22912445D01*
X47537552Y-22916046D01*
X47535297Y-22919492D01*
X47533339Y-22922781D01*
X47531677Y-22925910D01*
X47530308Y-22928876D01*
X47529230Y-22931676D01*
X47528441Y-22934307D01*
X47527938Y-22936767D01*
X47527720Y-22939052D01*
X46396615Y-22939052D01*
X46403940Y-22857809D01*
X46416571Y-22752998D01*
X46433000Y-22640029D01*
X46476378Y-22394003D01*
X46532333Y-22128505D01*
X46599120Y-21852310D01*
X46674999Y-21574192D01*
X46715802Y-21437155D01*
X46758226Y-21302927D01*
X46802244Y-21180341D01*
X46853646Y-21057644D01*
X46911703Y-20935124D01*
X46975688Y-20813068D01*
X47044873Y-20691762D01*
X47118529Y-20571493D01*
X47195930Y-20452548D01*
X47276346Y-20335214D01*
X47443316Y-20106525D01*
X47613616Y-19887721D01*
X47781423Y-19681095D01*
X47940914Y-19488944D01*
X48036428Y-19374115D01*
X48147796Y-19236339D01*
X48245616Y-19108634D01*
X48330865Y-18988872D01*
X48404517Y-18874925D01*
X48467548Y-18764666D01*
X48520933Y-18655968D01*
X48544313Y-18601540D01*
X48565648Y-18546704D01*
X48602669Y-18434745D01*
X48632971Y-18317965D01*
X48657529Y-18194236D01*
X48677320Y-18061431D01*
X48693318Y-17917422D01*
X48706499Y-17760083D01*
X48717839Y-17587285D01*
X48738896Y-17186804D01*
X48752787Y-16912928D01*
X48769853Y-16604721D01*
X48791263Y-16363600D01*
X48807304Y-16248796D01*
X48826896Y-16137835D01*
X48850036Y-16030720D01*
X48876719Y-15927454D01*
X48906942Y-15828042D01*
X48940699Y-15732486D01*
X48977987Y-15640789D01*
X49018802Y-15552956D01*
X49063139Y-15468990D01*
X49110994Y-15388894D01*
X49162364Y-15312671D01*
X49217243Y-15240326D01*
X49275629Y-15171861D01*
X49337516Y-15107280D01*
X49402900Y-15046586D01*
X49471778Y-14989783D01*
X49544145Y-14936874D01*
X49619997Y-14887863D01*
X49699329Y-14842753D01*
X49782139Y-14801548D01*
X49868420Y-14764250D01*
X49958170Y-14730864D01*
X50051384Y-14701393D01*
X50148059Y-14675841D01*
X50248188Y-14654210D01*
X50351770Y-14636504D01*
X50458799Y-14622727D01*
X50569271Y-14612882D01*
X50683183Y-14606972D01*
X50800529Y-14605001D01*
X50923749Y-14607217D01*
X51043364Y-14613859D01*
X51159352Y-14624920D01*
X51271694Y-14640393D01*
X51380368Y-14660271D01*
X51485352Y-14684545D01*
X51586627Y-14713209D01*
X51684171Y-14746256D01*
X51777963Y-14783677D01*
X51867983Y-14825466D01*
X51954209Y-14871615D01*
X52036621Y-14922117D01*
X52115197Y-14976964D01*
X52189917Y-15036150D01*
X52260760Y-15099666D01*
X52327704Y-15167505D01*
X52378280Y-15224786D01*
X52425899Y-15284537D01*
X52470519Y-15346647D01*
X52512098Y-15411009D01*
X52550593Y-15477511D01*
X52585963Y-15546045D01*
X52618164Y-15616500D01*
X52647155Y-15688768D01*
X52672894Y-15762737D01*
X52695338Y-15838299D01*
X52714445Y-15915344D01*
X52730172Y-15993762D01*
X52742479Y-16073443D01*
X52751321Y-16154279D01*
X52756657Y-16236158D01*
X52758446Y-16318972D01*
X52756164Y-16603540D01*
X52750115Y-16868119D01*
X52744065Y-17014031D01*
X52731491Y-17317278D01*
G37*
%TD*%
%LPC*%
D12*
%TO.C,USB1*%
X5140000Y-18110000D03*
X5140000Y-23890000D03*
D13*
X5670000Y-16680000D03*
D14*
X1490000Y-16680000D03*
D13*
X5670000Y-25320000D03*
D14*
X1490000Y-25320000D03*
%TD*%
%LPD*%
M02*
