%TF.GenerationSoftware,KiCad,Pcbnew,8.0.4+dfsg-1*%
%TF.CreationDate,2024-12-02T22:27:05+01:00*%
%TF.ProjectId,usb-serial,7573622d-7365-4726-9961-6c2e6b696361,rev?*%
%TF.SameCoordinates,Original*%
%TF.FileFunction,Paste,Top*%
%TF.FilePolarity,Positive*%
%FSLAX46Y46*%
G04 Gerber Fmt 4.6, Leading zero omitted, Abs format (unit mm)*
G04 Created by KiCad (PCBNEW 8.0.4+dfsg-1) date 2024-12-02 22:27:05*
%MOMM*%
%LPD*%
G01*
G04 APERTURE LIST*
G04 Aperture macros list*
%AMRoundRect*
0 Rectangle with rounded corners*
0 $1 Rounding radius*
0 $2 $3 $4 $5 $6 $7 $8 $9 X,Y pos of 4 corners*
0 Add a 4 corners polygon primitive as box body*
4,1,4,$2,$3,$4,$5,$6,$7,$8,$9,$2,$3,0*
0 Add four circle primitives for the rounded corners*
1,1,$1+$1,$2,$3*
1,1,$1+$1,$4,$5*
1,1,$1+$1,$6,$7*
1,1,$1+$1,$8,$9*
0 Add four rect primitives between the rounded corners*
20,1,$1+$1,$2,$3,$4,$5,0*
20,1,$1+$1,$4,$5,$6,$7,0*
20,1,$1+$1,$6,$7,$8,$9,0*
20,1,$1+$1,$8,$9,$2,$3,0*%
G04 Aperture macros list end*
%ADD10RoundRect,0.062500X0.117500X0.062500X-0.117500X0.062500X-0.117500X-0.062500X0.117500X-0.062500X0*%
%ADD11RoundRect,0.135000X0.135000X0.185000X-0.135000X0.185000X-0.135000X-0.185000X0.135000X-0.185000X0*%
%ADD12RoundRect,0.140000X0.170000X-0.140000X0.170000X0.140000X-0.170000X0.140000X-0.170000X-0.140000X0*%
%ADD13RoundRect,0.150000X-0.650000X-0.150000X0.650000X-0.150000X0.650000X0.150000X-0.650000X0.150000X0*%
%ADD14RoundRect,0.243750X0.243750X0.456250X-0.243750X0.456250X-0.243750X-0.456250X0.243750X-0.456250X0*%
%ADD15RoundRect,0.225000X-0.225000X-0.225000X0.225000X-0.225000X0.225000X0.225000X-0.225000X0.225000X0*%
%ADD16RoundRect,0.062500X-0.337500X-0.062500X0.337500X-0.062500X0.337500X0.062500X-0.337500X0.062500X0*%
%ADD17RoundRect,0.062500X-0.062500X-0.337500X0.062500X-0.337500X0.062500X0.337500X-0.062500X0.337500X0*%
%ADD18RoundRect,0.250000X0.250000X0.475000X-0.250000X0.475000X-0.250000X-0.475000X0.250000X-0.475000X0*%
%ADD19R,2.580000X1.000000*%
%ADD20RoundRect,0.250000X1.500000X-0.250000X1.500000X0.250000X-1.500000X0.250000X-1.500000X-0.250000X0*%
%ADD21RoundRect,0.250001X1.449999X-0.499999X1.449999X0.499999X-1.449999X0.499999X-1.449999X-0.499999X0*%
%ADD22RoundRect,0.250000X-0.250000X-0.475000X0.250000X-0.475000X0.250000X0.475000X-0.250000X0.475000X0*%
%ADD23R,1.450000X0.600000*%
%ADD24R,1.450000X0.300000*%
%ADD25RoundRect,0.150000X0.512500X0.150000X-0.512500X0.150000X-0.512500X-0.150000X0.512500X-0.150000X0*%
%ADD26RoundRect,0.250000X0.375000X0.625000X-0.375000X0.625000X-0.375000X-0.625000X0.375000X-0.625000X0*%
G04 APERTURE END LIST*
D10*
%TO.C,D3*%
X43180000Y-16510000D03*
X44020000Y-16510000D03*
%TD*%
%TO.C,D4*%
X43180000Y-25400000D03*
X44020000Y-25400000D03*
%TD*%
D11*
%TO.C,R3*%
X11305000Y-19685000D03*
X10285000Y-19685000D03*
%TD*%
%TO.C,R12*%
X8130000Y-14605000D03*
X7110000Y-14605000D03*
%TD*%
D12*
%TO.C,C3*%
X31115000Y-16990000D03*
X31115000Y-16030000D03*
%TD*%
D13*
%TO.C,U1*%
X31325000Y-19050000D03*
X31325000Y-20320000D03*
X31325000Y-21590000D03*
X31325000Y-22860000D03*
X38525000Y-22860000D03*
X38525000Y-21590000D03*
X38525000Y-20320000D03*
X38525000Y-19050000D03*
%TD*%
D14*
%TO.C,D1*%
X3175000Y-14605000D03*
X1300000Y-14605000D03*
%TD*%
D15*
%TO.C,U6*%
X23645000Y-19110000D03*
X23645000Y-20230000D03*
X23645000Y-21350000D03*
X24765000Y-19110000D03*
X24765000Y-20230000D03*
X24765000Y-21350000D03*
X25885000Y-19110000D03*
X25885000Y-20230000D03*
X25885000Y-21350000D03*
D16*
X22315000Y-18730000D03*
X22315000Y-19230000D03*
X22315000Y-19730000D03*
X22315000Y-20230000D03*
X22315000Y-20730000D03*
X22315000Y-21230000D03*
X22315000Y-21730000D03*
D17*
X23265000Y-22680000D03*
X23765000Y-22680000D03*
X24265000Y-22680000D03*
X24765000Y-22680000D03*
X25265000Y-22680000D03*
X25765000Y-22680000D03*
X26265000Y-22680000D03*
D16*
X27215000Y-21730000D03*
X27215000Y-21230000D03*
X27215000Y-20730000D03*
X27215000Y-20230000D03*
X27215000Y-19730000D03*
X27215000Y-19230000D03*
X27215000Y-18730000D03*
D17*
X26265000Y-17780000D03*
X25765000Y-17780000D03*
X25265000Y-17780000D03*
X24765000Y-17780000D03*
X24265000Y-17780000D03*
X23765000Y-17780000D03*
X23265000Y-17780000D03*
%TD*%
D10*
%TO.C,D5*%
X43180000Y-15240000D03*
X44020000Y-15240000D03*
%TD*%
D18*
%TO.C,C2*%
X18730000Y-26165000D03*
X16830000Y-26165000D03*
%TD*%
D11*
%TO.C,R9*%
X23245000Y-24040000D03*
X22225000Y-24040000D03*
%TD*%
%TO.C,R4*%
X11305000Y-22860000D03*
X10285000Y-22860000D03*
%TD*%
D19*
%TO.C,J1*%
X43635000Y-18955000D03*
X47805000Y-18955000D03*
X43635000Y-20955000D03*
X47805000Y-20955000D03*
X43635000Y-22955000D03*
X47805000Y-22955000D03*
%TD*%
D20*
%TO.C,J2*%
X53665000Y-23955000D03*
X53665000Y-21955000D03*
X53665000Y-19955000D03*
X53665000Y-17955000D03*
D21*
X59415000Y-26305000D03*
X59415000Y-15605000D03*
%TD*%
D22*
%TO.C,C1*%
X16830000Y-24130000D03*
X18730000Y-24130000D03*
%TD*%
D23*
%TO.C,USB1*%
X6585000Y-17750000D03*
X6585000Y-18550000D03*
D24*
X6585000Y-19750000D03*
X6585000Y-20750000D03*
X6585000Y-21250000D03*
X6585000Y-22250000D03*
D23*
X6585000Y-23450000D03*
X6585000Y-24250000D03*
D24*
X6585000Y-22750000D03*
X6585000Y-21750000D03*
X6585000Y-20250000D03*
X6585000Y-19250000D03*
%TD*%
D25*
%TO.C,U3*%
X17647500Y-21270000D03*
X17647500Y-20320000D03*
X17647500Y-19370000D03*
X15372500Y-19370000D03*
X15372500Y-20320000D03*
X15372500Y-21270000D03*
%TD*%
D12*
%TO.C,C7*%
X38735000Y-16990000D03*
X38735000Y-16030000D03*
%TD*%
D26*
%TO.C,F1*%
X13465000Y-26165000D03*
X10665000Y-26165000D03*
%TD*%
M02*
