M48
; DRILL file {KiCad 8.0.4+dfsg-1} date 2024-10-16T21:23:15+0200
; FORMAT={-:-/ absolute / inch / decimal}
; #@! TF.CreationDate,2024-10-16T21:23:15+02:00
; #@! TF.GenerationSoftware,Kicad,Pcbnew,8.0.4+dfsg-1
; #@! TF.FileFunction,Plated,1,4,PTH
FMAT,2
INCH
; #@! TA.AperFunction,Plated,PTH,ViaDrill
T1C0.0118
; #@! TA.AperFunction,Plated,PTH,ComponentDrill
T2C0.0236
%
G90
G05
T1
X0.05Y-1.075
X0.05Y-1.175
X0.125Y-0.4881
X0.175Y-0.8
X0.175Y-0.85
X0.2Y-0.775
X0.2Y-0.875
X0.275Y-0.5619
X0.3Y-1.2
X0.325Y-0.46
X0.325Y-0.975
X0.35Y-0.675
X0.375Y-0.75
X0.375Y-0.925
X0.4937Y-0.9
X0.55Y-0.8
X0.55Y-1.2
X0.575Y-0.46
X0.6Y-1.075
X0.625Y-0.95
X0.75Y-0.8
X0.7974Y-1.075
X0.8Y-0.875
X0.8Y-0.95
X0.8Y-1.2
X0.825Y-0.46
X0.825Y-0.7465
X0.8442Y-0.8495
X0.875Y-0.6965
X0.885Y-0.8865
X1.05Y-1.2
X1.075Y-0.46
X1.075Y-0.6965
X1.075Y-0.8965
X1.15Y-0.975
X1.175Y-0.675
X1.3Y-0.825
X1.3Y-0.975
X1.3Y-1.2
X1.325Y-0.46
X1.375Y-0.575
X1.375Y-0.725
X1.375Y-1.075
X1.625Y-0.575
X1.625Y-0.825
X1.625Y-0.925
X1.625Y-1.075
X1.65Y-0.46
X1.65Y-1.2
X1.75Y-0.625
X1.8Y-0.675
X1.8Y-0.975
X1.9Y-0.46
X1.9Y-1.2
X2.0Y-0.575
X2.125Y-0.575
X2.15Y-0.46
X2.15Y-1.2
X2.3Y-0.7463
X2.3Y-0.825
X2.325Y-0.65
X2.325Y-1.0
X2.325Y-1.05
X2.4Y-0.46
X2.4Y-1.2
X2.575Y-0.4881
X2.65Y-0.675
X2.65Y-1.025
X2.65Y-1.175
T2
G00X0.0705Y-0.6567
M15
G01X0.0469Y-0.6567
M16
G05
G00X0.0705Y-0.9969
M15
G01X0.0469Y-0.9969
M16
G05
G00X0.2449Y-0.6567
M15
G01X0.2016Y-0.6567
M16
G05
G00X0.2449Y-0.9969
M15
G01X0.2016Y-0.9969
M16
G05
M30
