%TF.GenerationSoftware,KiCad,Pcbnew,8.0.4+dfsg-1*%
%TF.CreationDate,2024-10-16T21:23:15+02:00*%
%TF.ProjectId,usb-serial,7573622d-7365-4726-9961-6c2e6b696361,rev?*%
%TF.SameCoordinates,Original*%
%TF.FileFunction,Legend,Top*%
%TF.FilePolarity,Positive*%
%FSLAX46Y46*%
G04 Gerber Fmt 4.6, Leading zero omitted, Abs format (unit mm)*
G04 Created by KiCad (PCBNEW 8.0.4+dfsg-1) date 2024-10-16 21:23:15*
%MOMM*%
%LPD*%
G01*
G04 APERTURE LIST*
G04 Aperture macros list*
%AMRoundRect*
0 Rectangle with rounded corners*
0 $1 Rounding radius*
0 $2 $3 $4 $5 $6 $7 $8 $9 X,Y pos of 4 corners*
0 Add a 4 corners polygon primitive as box body*
4,1,4,$2,$3,$4,$5,$6,$7,$8,$9,$2,$3,0*
0 Add four circle primitives for the rounded corners*
1,1,$1+$1,$2,$3*
1,1,$1+$1,$4,$5*
1,1,$1+$1,$6,$7*
1,1,$1+$1,$8,$9*
0 Add four rect primitives between the rounded corners*
20,1,$1+$1,$2,$3,$4,$5,0*
20,1,$1+$1,$4,$5,$6,$7,0*
20,1,$1+$1,$6,$7,$8,$9,0*
20,1,$1+$1,$8,$9,$2,$3,0*%
G04 Aperture macros list end*
%ADD10C,0.150000*%
%ADD11C,0.120000*%
%ADD12RoundRect,0.135000X-0.135000X-0.185000X0.135000X-0.185000X0.135000X0.185000X-0.135000X0.185000X0*%
%ADD13RoundRect,0.243750X0.456250X-0.243750X0.456250X0.243750X-0.456250X0.243750X-0.456250X-0.243750X0*%
%ADD14RoundRect,0.062500X0.117500X0.062500X-0.117500X0.062500X-0.117500X-0.062500X0.117500X-0.062500X0*%
%ADD15RoundRect,0.135000X0.135000X0.185000X-0.135000X0.185000X-0.135000X-0.185000X0.135000X-0.185000X0*%
%ADD16RoundRect,0.140000X-0.140000X-0.170000X0.140000X-0.170000X0.140000X0.170000X-0.140000X0.170000X0*%
%ADD17RoundRect,0.140000X0.140000X0.170000X-0.140000X0.170000X-0.140000X-0.170000X0.140000X-0.170000X0*%
%ADD18RoundRect,0.062500X-0.337500X-0.062500X0.337500X-0.062500X0.337500X0.062500X-0.337500X0.062500X0*%
%ADD19RoundRect,0.062500X-0.062500X-0.337500X0.062500X-0.337500X0.062500X0.337500X-0.062500X0.337500X0*%
%ADD20R,3.350000X3.350000*%
%ADD21RoundRect,0.250000X0.250000X0.475000X-0.250000X0.475000X-0.250000X-0.475000X0.250000X-0.475000X0*%
%ADD22R,2.000000X0.640000*%
%ADD23R,2.580000X1.000000*%
%ADD24RoundRect,0.250000X-0.250000X-0.475000X0.250000X-0.475000X0.250000X0.475000X-0.250000X0.475000X0*%
%ADD25C,0.650000*%
%ADD26R,1.450000X0.600000*%
%ADD27R,1.450000X0.300000*%
%ADD28O,2.100000X1.000000*%
%ADD29O,1.600000X1.000000*%
%ADD30RoundRect,0.150000X0.512500X0.150000X-0.512500X0.150000X-0.512500X-0.150000X0.512500X-0.150000X0*%
%ADD31RoundRect,0.150000X-0.825000X-0.150000X0.825000X-0.150000X0.825000X0.150000X-0.825000X0.150000X0*%
%ADD32RoundRect,0.250000X0.375000X0.625000X-0.375000X0.625000X-0.375000X-0.625000X0.375000X-0.625000X0*%
G04 APERTURE END LIST*
D10*
X30948333Y-22679819D02*
X30615000Y-22203628D01*
X30376905Y-22679819D02*
X30376905Y-21679819D01*
X30376905Y-21679819D02*
X30757857Y-21679819D01*
X30757857Y-21679819D02*
X30853095Y-21727438D01*
X30853095Y-21727438D02*
X30900714Y-21775057D01*
X30900714Y-21775057D02*
X30948333Y-21870295D01*
X30948333Y-21870295D02*
X30948333Y-22013152D01*
X30948333Y-22013152D02*
X30900714Y-22108390D01*
X30900714Y-22108390D02*
X30853095Y-22156009D01*
X30853095Y-22156009D02*
X30757857Y-22203628D01*
X30757857Y-22203628D02*
X30376905Y-22203628D01*
X31329286Y-21775057D02*
X31376905Y-21727438D01*
X31376905Y-21727438D02*
X31472143Y-21679819D01*
X31472143Y-21679819D02*
X31710238Y-21679819D01*
X31710238Y-21679819D02*
X31805476Y-21727438D01*
X31805476Y-21727438D02*
X31853095Y-21775057D01*
X31853095Y-21775057D02*
X31900714Y-21870295D01*
X31900714Y-21870295D02*
X31900714Y-21965533D01*
X31900714Y-21965533D02*
X31853095Y-22108390D01*
X31853095Y-22108390D02*
X31281667Y-22679819D01*
X31281667Y-22679819D02*
X31900714Y-22679819D01*
X65936905Y-16329819D02*
X65936905Y-15329819D01*
X65936905Y-15329819D02*
X66175000Y-15329819D01*
X66175000Y-15329819D02*
X66317857Y-15377438D01*
X66317857Y-15377438D02*
X66413095Y-15472676D01*
X66413095Y-15472676D02*
X66460714Y-15567914D01*
X66460714Y-15567914D02*
X66508333Y-15758390D01*
X66508333Y-15758390D02*
X66508333Y-15901247D01*
X66508333Y-15901247D02*
X66460714Y-16091723D01*
X66460714Y-16091723D02*
X66413095Y-16186961D01*
X66413095Y-16186961D02*
X66317857Y-16282200D01*
X66317857Y-16282200D02*
X66175000Y-16329819D01*
X66175000Y-16329819D02*
X65936905Y-16329819D01*
X66889286Y-15425057D02*
X66936905Y-15377438D01*
X66936905Y-15377438D02*
X67032143Y-15329819D01*
X67032143Y-15329819D02*
X67270238Y-15329819D01*
X67270238Y-15329819D02*
X67365476Y-15377438D01*
X67365476Y-15377438D02*
X67413095Y-15425057D01*
X67413095Y-15425057D02*
X67460714Y-15520295D01*
X67460714Y-15520295D02*
X67460714Y-15615533D01*
X67460714Y-15615533D02*
X67413095Y-15758390D01*
X67413095Y-15758390D02*
X66841667Y-16329819D01*
X66841667Y-16329819D02*
X67460714Y-16329819D01*
X59371905Y-15764819D02*
X59371905Y-14764819D01*
X59371905Y-14764819D02*
X59610000Y-14764819D01*
X59610000Y-14764819D02*
X59752857Y-14812438D01*
X59752857Y-14812438D02*
X59848095Y-14907676D01*
X59848095Y-14907676D02*
X59895714Y-15002914D01*
X59895714Y-15002914D02*
X59943333Y-15193390D01*
X59943333Y-15193390D02*
X59943333Y-15336247D01*
X59943333Y-15336247D02*
X59895714Y-15526723D01*
X59895714Y-15526723D02*
X59848095Y-15621961D01*
X59848095Y-15621961D02*
X59752857Y-15717200D01*
X59752857Y-15717200D02*
X59610000Y-15764819D01*
X59610000Y-15764819D02*
X59371905Y-15764819D01*
X60276667Y-14764819D02*
X60895714Y-14764819D01*
X60895714Y-14764819D02*
X60562381Y-15145771D01*
X60562381Y-15145771D02*
X60705238Y-15145771D01*
X60705238Y-15145771D02*
X60800476Y-15193390D01*
X60800476Y-15193390D02*
X60848095Y-15241009D01*
X60848095Y-15241009D02*
X60895714Y-15336247D01*
X60895714Y-15336247D02*
X60895714Y-15574342D01*
X60895714Y-15574342D02*
X60848095Y-15669580D01*
X60848095Y-15669580D02*
X60800476Y-15717200D01*
X60800476Y-15717200D02*
X60705238Y-15764819D01*
X60705238Y-15764819D02*
X60419524Y-15764819D01*
X60419524Y-15764819D02*
X60324286Y-15717200D01*
X60324286Y-15717200D02*
X60276667Y-15669580D01*
X61491905Y-25854819D02*
X61491905Y-24854819D01*
X61491905Y-24854819D02*
X61730000Y-24854819D01*
X61730000Y-24854819D02*
X61872857Y-24902438D01*
X61872857Y-24902438D02*
X61968095Y-24997676D01*
X61968095Y-24997676D02*
X62015714Y-25092914D01*
X62015714Y-25092914D02*
X62063333Y-25283390D01*
X62063333Y-25283390D02*
X62063333Y-25426247D01*
X62063333Y-25426247D02*
X62015714Y-25616723D01*
X62015714Y-25616723D02*
X61968095Y-25711961D01*
X61968095Y-25711961D02*
X61872857Y-25807200D01*
X61872857Y-25807200D02*
X61730000Y-25854819D01*
X61730000Y-25854819D02*
X61491905Y-25854819D01*
X62920476Y-25188152D02*
X62920476Y-25854819D01*
X62682381Y-24807200D02*
X62444286Y-25521485D01*
X62444286Y-25521485D02*
X63063333Y-25521485D01*
X10628333Y-18869819D02*
X10295000Y-18393628D01*
X10056905Y-18869819D02*
X10056905Y-17869819D01*
X10056905Y-17869819D02*
X10437857Y-17869819D01*
X10437857Y-17869819D02*
X10533095Y-17917438D01*
X10533095Y-17917438D02*
X10580714Y-17965057D01*
X10580714Y-17965057D02*
X10628333Y-18060295D01*
X10628333Y-18060295D02*
X10628333Y-18203152D01*
X10628333Y-18203152D02*
X10580714Y-18298390D01*
X10580714Y-18298390D02*
X10533095Y-18346009D01*
X10533095Y-18346009D02*
X10437857Y-18393628D01*
X10437857Y-18393628D02*
X10056905Y-18393628D01*
X10961667Y-17869819D02*
X11580714Y-17869819D01*
X11580714Y-17869819D02*
X11247381Y-18250771D01*
X11247381Y-18250771D02*
X11390238Y-18250771D01*
X11390238Y-18250771D02*
X11485476Y-18298390D01*
X11485476Y-18298390D02*
X11533095Y-18346009D01*
X11533095Y-18346009D02*
X11580714Y-18441247D01*
X11580714Y-18441247D02*
X11580714Y-18679342D01*
X11580714Y-18679342D02*
X11533095Y-18774580D01*
X11533095Y-18774580D02*
X11485476Y-18822200D01*
X11485476Y-18822200D02*
X11390238Y-18869819D01*
X11390238Y-18869819D02*
X11104524Y-18869819D01*
X11104524Y-18869819D02*
X11009286Y-18822200D01*
X11009286Y-18822200D02*
X10961667Y-18774580D01*
X63333333Y-13557319D02*
X63000000Y-13081128D01*
X62761905Y-13557319D02*
X62761905Y-12557319D01*
X62761905Y-12557319D02*
X63142857Y-12557319D01*
X63142857Y-12557319D02*
X63238095Y-12604938D01*
X63238095Y-12604938D02*
X63285714Y-12652557D01*
X63285714Y-12652557D02*
X63333333Y-12747795D01*
X63333333Y-12747795D02*
X63333333Y-12890652D01*
X63333333Y-12890652D02*
X63285714Y-12985890D01*
X63285714Y-12985890D02*
X63238095Y-13033509D01*
X63238095Y-13033509D02*
X63142857Y-13081128D01*
X63142857Y-13081128D02*
X62761905Y-13081128D01*
X63666667Y-12557319D02*
X64333333Y-12557319D01*
X64333333Y-12557319D02*
X63904762Y-13557319D01*
X8247142Y-15029819D02*
X7913809Y-14553628D01*
X7675714Y-15029819D02*
X7675714Y-14029819D01*
X7675714Y-14029819D02*
X8056666Y-14029819D01*
X8056666Y-14029819D02*
X8151904Y-14077438D01*
X8151904Y-14077438D02*
X8199523Y-14125057D01*
X8199523Y-14125057D02*
X8247142Y-14220295D01*
X8247142Y-14220295D02*
X8247142Y-14363152D01*
X8247142Y-14363152D02*
X8199523Y-14458390D01*
X8199523Y-14458390D02*
X8151904Y-14506009D01*
X8151904Y-14506009D02*
X8056666Y-14553628D01*
X8056666Y-14553628D02*
X7675714Y-14553628D01*
X9199523Y-15029819D02*
X8628095Y-15029819D01*
X8913809Y-15029819D02*
X8913809Y-14029819D01*
X8913809Y-14029819D02*
X8818571Y-14172676D01*
X8818571Y-14172676D02*
X8723333Y-14267914D01*
X8723333Y-14267914D02*
X8628095Y-14315533D01*
X9580476Y-14125057D02*
X9628095Y-14077438D01*
X9628095Y-14077438D02*
X9723333Y-14029819D01*
X9723333Y-14029819D02*
X9961428Y-14029819D01*
X9961428Y-14029819D02*
X10056666Y-14077438D01*
X10056666Y-14077438D02*
X10104285Y-14125057D01*
X10104285Y-14125057D02*
X10151904Y-14220295D01*
X10151904Y-14220295D02*
X10151904Y-14315533D01*
X10151904Y-14315533D02*
X10104285Y-14458390D01*
X10104285Y-14458390D02*
X9532857Y-15029819D01*
X9532857Y-15029819D02*
X10151904Y-15029819D01*
X30918333Y-20044580D02*
X30870714Y-20092200D01*
X30870714Y-20092200D02*
X30727857Y-20139819D01*
X30727857Y-20139819D02*
X30632619Y-20139819D01*
X30632619Y-20139819D02*
X30489762Y-20092200D01*
X30489762Y-20092200D02*
X30394524Y-19996961D01*
X30394524Y-19996961D02*
X30346905Y-19901723D01*
X30346905Y-19901723D02*
X30299286Y-19711247D01*
X30299286Y-19711247D02*
X30299286Y-19568390D01*
X30299286Y-19568390D02*
X30346905Y-19377914D01*
X30346905Y-19377914D02*
X30394524Y-19282676D01*
X30394524Y-19282676D02*
X30489762Y-19187438D01*
X30489762Y-19187438D02*
X30632619Y-19139819D01*
X30632619Y-19139819D02*
X30727857Y-19139819D01*
X30727857Y-19139819D02*
X30870714Y-19187438D01*
X30870714Y-19187438D02*
X30918333Y-19235057D01*
X31251667Y-19139819D02*
X31870714Y-19139819D01*
X31870714Y-19139819D02*
X31537381Y-19520771D01*
X31537381Y-19520771D02*
X31680238Y-19520771D01*
X31680238Y-19520771D02*
X31775476Y-19568390D01*
X31775476Y-19568390D02*
X31823095Y-19616009D01*
X31823095Y-19616009D02*
X31870714Y-19711247D01*
X31870714Y-19711247D02*
X31870714Y-19949342D01*
X31870714Y-19949342D02*
X31823095Y-20044580D01*
X31823095Y-20044580D02*
X31775476Y-20092200D01*
X31775476Y-20092200D02*
X31680238Y-20139819D01*
X31680238Y-20139819D02*
X31394524Y-20139819D01*
X31394524Y-20139819D02*
X31299286Y-20092200D01*
X31299286Y-20092200D02*
X31251667Y-20044580D01*
X3706905Y-13154819D02*
X3706905Y-12154819D01*
X3706905Y-12154819D02*
X3945000Y-12154819D01*
X3945000Y-12154819D02*
X4087857Y-12202438D01*
X4087857Y-12202438D02*
X4183095Y-12297676D01*
X4183095Y-12297676D02*
X4230714Y-12392914D01*
X4230714Y-12392914D02*
X4278333Y-12583390D01*
X4278333Y-12583390D02*
X4278333Y-12726247D01*
X4278333Y-12726247D02*
X4230714Y-12916723D01*
X4230714Y-12916723D02*
X4183095Y-13011961D01*
X4183095Y-13011961D02*
X4087857Y-13107200D01*
X4087857Y-13107200D02*
X3945000Y-13154819D01*
X3945000Y-13154819D02*
X3706905Y-13154819D01*
X5230714Y-13154819D02*
X4659286Y-13154819D01*
X4945000Y-13154819D02*
X4945000Y-12154819D01*
X4945000Y-12154819D02*
X4849762Y-12297676D01*
X4849762Y-12297676D02*
X4754524Y-12392914D01*
X4754524Y-12392914D02*
X4659286Y-12440533D01*
X28125866Y-18752874D02*
X28935389Y-18752874D01*
X28935389Y-18752874D02*
X29030627Y-18705255D01*
X29030627Y-18705255D02*
X29078247Y-18657636D01*
X29078247Y-18657636D02*
X29125866Y-18562398D01*
X29125866Y-18562398D02*
X29125866Y-18371922D01*
X29125866Y-18371922D02*
X29078247Y-18276684D01*
X29078247Y-18276684D02*
X29030627Y-18229065D01*
X29030627Y-18229065D02*
X28935389Y-18181446D01*
X28935389Y-18181446D02*
X28125866Y-18181446D01*
X28125866Y-17276684D02*
X28125866Y-17467160D01*
X28125866Y-17467160D02*
X28173485Y-17562398D01*
X28173485Y-17562398D02*
X28221104Y-17610017D01*
X28221104Y-17610017D02*
X28363961Y-17705255D01*
X28363961Y-17705255D02*
X28554437Y-17752874D01*
X28554437Y-17752874D02*
X28935389Y-17752874D01*
X28935389Y-17752874D02*
X29030627Y-17705255D01*
X29030627Y-17705255D02*
X29078247Y-17657636D01*
X29078247Y-17657636D02*
X29125866Y-17562398D01*
X29125866Y-17562398D02*
X29125866Y-17371922D01*
X29125866Y-17371922D02*
X29078247Y-17276684D01*
X29078247Y-17276684D02*
X29030627Y-17229065D01*
X29030627Y-17229065D02*
X28935389Y-17181446D01*
X28935389Y-17181446D02*
X28697294Y-17181446D01*
X28697294Y-17181446D02*
X28602056Y-17229065D01*
X28602056Y-17229065D02*
X28554437Y-17276684D01*
X28554437Y-17276684D02*
X28506818Y-17371922D01*
X28506818Y-17371922D02*
X28506818Y-17562398D01*
X28506818Y-17562398D02*
X28554437Y-17657636D01*
X28554437Y-17657636D02*
X28602056Y-17705255D01*
X28602056Y-17705255D02*
X28697294Y-17752874D01*
X61491905Y-27124819D02*
X61491905Y-26124819D01*
X61491905Y-26124819D02*
X61730000Y-26124819D01*
X61730000Y-26124819D02*
X61872857Y-26172438D01*
X61872857Y-26172438D02*
X61968095Y-26267676D01*
X61968095Y-26267676D02*
X62015714Y-26362914D01*
X62015714Y-26362914D02*
X62063333Y-26553390D01*
X62063333Y-26553390D02*
X62063333Y-26696247D01*
X62063333Y-26696247D02*
X62015714Y-26886723D01*
X62015714Y-26886723D02*
X61968095Y-26981961D01*
X61968095Y-26981961D02*
X61872857Y-27077200D01*
X61872857Y-27077200D02*
X61730000Y-27124819D01*
X61730000Y-27124819D02*
X61491905Y-27124819D01*
X62968095Y-26124819D02*
X62491905Y-26124819D01*
X62491905Y-26124819D02*
X62444286Y-26601009D01*
X62444286Y-26601009D02*
X62491905Y-26553390D01*
X62491905Y-26553390D02*
X62587143Y-26505771D01*
X62587143Y-26505771D02*
X62825238Y-26505771D01*
X62825238Y-26505771D02*
X62920476Y-26553390D01*
X62920476Y-26553390D02*
X62968095Y-26601009D01*
X62968095Y-26601009D02*
X63015714Y-26696247D01*
X63015714Y-26696247D02*
X63015714Y-26934342D01*
X63015714Y-26934342D02*
X62968095Y-27029580D01*
X62968095Y-27029580D02*
X62920476Y-27077200D01*
X62920476Y-27077200D02*
X62825238Y-27124819D01*
X62825238Y-27124819D02*
X62587143Y-27124819D01*
X62587143Y-27124819D02*
X62491905Y-27077200D01*
X62491905Y-27077200D02*
X62444286Y-27029580D01*
X20485833Y-27664580D02*
X20438214Y-27712200D01*
X20438214Y-27712200D02*
X20295357Y-27759819D01*
X20295357Y-27759819D02*
X20200119Y-27759819D01*
X20200119Y-27759819D02*
X20057262Y-27712200D01*
X20057262Y-27712200D02*
X19962024Y-27616961D01*
X19962024Y-27616961D02*
X19914405Y-27521723D01*
X19914405Y-27521723D02*
X19866786Y-27331247D01*
X19866786Y-27331247D02*
X19866786Y-27188390D01*
X19866786Y-27188390D02*
X19914405Y-26997914D01*
X19914405Y-26997914D02*
X19962024Y-26902676D01*
X19962024Y-26902676D02*
X20057262Y-26807438D01*
X20057262Y-26807438D02*
X20200119Y-26759819D01*
X20200119Y-26759819D02*
X20295357Y-26759819D01*
X20295357Y-26759819D02*
X20438214Y-26807438D01*
X20438214Y-26807438D02*
X20485833Y-26855057D01*
X20866786Y-26855057D02*
X20914405Y-26807438D01*
X20914405Y-26807438D02*
X21009643Y-26759819D01*
X21009643Y-26759819D02*
X21247738Y-26759819D01*
X21247738Y-26759819D02*
X21342976Y-26807438D01*
X21342976Y-26807438D02*
X21390595Y-26855057D01*
X21390595Y-26855057D02*
X21438214Y-26950295D01*
X21438214Y-26950295D02*
X21438214Y-27045533D01*
X21438214Y-27045533D02*
X21390595Y-27188390D01*
X21390595Y-27188390D02*
X20819167Y-27759819D01*
X20819167Y-27759819D02*
X21438214Y-27759819D01*
X30472142Y-26394580D02*
X30424523Y-26442200D01*
X30424523Y-26442200D02*
X30281666Y-26489819D01*
X30281666Y-26489819D02*
X30186428Y-26489819D01*
X30186428Y-26489819D02*
X30043571Y-26442200D01*
X30043571Y-26442200D02*
X29948333Y-26346961D01*
X29948333Y-26346961D02*
X29900714Y-26251723D01*
X29900714Y-26251723D02*
X29853095Y-26061247D01*
X29853095Y-26061247D02*
X29853095Y-25918390D01*
X29853095Y-25918390D02*
X29900714Y-25727914D01*
X29900714Y-25727914D02*
X29948333Y-25632676D01*
X29948333Y-25632676D02*
X30043571Y-25537438D01*
X30043571Y-25537438D02*
X30186428Y-25489819D01*
X30186428Y-25489819D02*
X30281666Y-25489819D01*
X30281666Y-25489819D02*
X30424523Y-25537438D01*
X30424523Y-25537438D02*
X30472142Y-25585057D01*
X31424523Y-26489819D02*
X30853095Y-26489819D01*
X31138809Y-26489819D02*
X31138809Y-25489819D01*
X31138809Y-25489819D02*
X31043571Y-25632676D01*
X31043571Y-25632676D02*
X30948333Y-25727914D01*
X30948333Y-25727914D02*
X30853095Y-25775533D01*
X31805476Y-25585057D02*
X31853095Y-25537438D01*
X31853095Y-25537438D02*
X31948333Y-25489819D01*
X31948333Y-25489819D02*
X32186428Y-25489819D01*
X32186428Y-25489819D02*
X32281666Y-25537438D01*
X32281666Y-25537438D02*
X32329285Y-25585057D01*
X32329285Y-25585057D02*
X32376904Y-25680295D01*
X32376904Y-25680295D02*
X32376904Y-25775533D01*
X32376904Y-25775533D02*
X32329285Y-25918390D01*
X32329285Y-25918390D02*
X31757857Y-26489819D01*
X31757857Y-26489819D02*
X32376904Y-26489819D01*
X30948333Y-16329819D02*
X30615000Y-15853628D01*
X30376905Y-16329819D02*
X30376905Y-15329819D01*
X30376905Y-15329819D02*
X30757857Y-15329819D01*
X30757857Y-15329819D02*
X30853095Y-15377438D01*
X30853095Y-15377438D02*
X30900714Y-15425057D01*
X30900714Y-15425057D02*
X30948333Y-15520295D01*
X30948333Y-15520295D02*
X30948333Y-15663152D01*
X30948333Y-15663152D02*
X30900714Y-15758390D01*
X30900714Y-15758390D02*
X30853095Y-15806009D01*
X30853095Y-15806009D02*
X30757857Y-15853628D01*
X30757857Y-15853628D02*
X30376905Y-15853628D01*
X31900714Y-16329819D02*
X31329286Y-16329819D01*
X31615000Y-16329819D02*
X31615000Y-15329819D01*
X31615000Y-15329819D02*
X31519762Y-15472676D01*
X31519762Y-15472676D02*
X31424524Y-15567914D01*
X31424524Y-15567914D02*
X31329286Y-15615533D01*
X44283333Y-20139819D02*
X43950000Y-19663628D01*
X43711905Y-20139819D02*
X43711905Y-19139819D01*
X43711905Y-19139819D02*
X44092857Y-19139819D01*
X44092857Y-19139819D02*
X44188095Y-19187438D01*
X44188095Y-19187438D02*
X44235714Y-19235057D01*
X44235714Y-19235057D02*
X44283333Y-19330295D01*
X44283333Y-19330295D02*
X44283333Y-19473152D01*
X44283333Y-19473152D02*
X44235714Y-19568390D01*
X44235714Y-19568390D02*
X44188095Y-19616009D01*
X44188095Y-19616009D02*
X44092857Y-19663628D01*
X44092857Y-19663628D02*
X43711905Y-19663628D01*
X45188095Y-19139819D02*
X44711905Y-19139819D01*
X44711905Y-19139819D02*
X44664286Y-19616009D01*
X44664286Y-19616009D02*
X44711905Y-19568390D01*
X44711905Y-19568390D02*
X44807143Y-19520771D01*
X44807143Y-19520771D02*
X45045238Y-19520771D01*
X45045238Y-19520771D02*
X45140476Y-19568390D01*
X45140476Y-19568390D02*
X45188095Y-19616009D01*
X45188095Y-19616009D02*
X45235714Y-19711247D01*
X45235714Y-19711247D02*
X45235714Y-19949342D01*
X45235714Y-19949342D02*
X45188095Y-20044580D01*
X45188095Y-20044580D02*
X45140476Y-20092200D01*
X45140476Y-20092200D02*
X45045238Y-20139819D01*
X45045238Y-20139819D02*
X44807143Y-20139819D01*
X44807143Y-20139819D02*
X44711905Y-20092200D01*
X44711905Y-20092200D02*
X44664286Y-20044580D01*
X24598333Y-24494819D02*
X24265000Y-24018628D01*
X24026905Y-24494819D02*
X24026905Y-23494819D01*
X24026905Y-23494819D02*
X24407857Y-23494819D01*
X24407857Y-23494819D02*
X24503095Y-23542438D01*
X24503095Y-23542438D02*
X24550714Y-23590057D01*
X24550714Y-23590057D02*
X24598333Y-23685295D01*
X24598333Y-23685295D02*
X24598333Y-23828152D01*
X24598333Y-23828152D02*
X24550714Y-23923390D01*
X24550714Y-23923390D02*
X24503095Y-23971009D01*
X24503095Y-23971009D02*
X24407857Y-24018628D01*
X24407857Y-24018628D02*
X24026905Y-24018628D01*
X25074524Y-24494819D02*
X25265000Y-24494819D01*
X25265000Y-24494819D02*
X25360238Y-24447200D01*
X25360238Y-24447200D02*
X25407857Y-24399580D01*
X25407857Y-24399580D02*
X25503095Y-24256723D01*
X25503095Y-24256723D02*
X25550714Y-24066247D01*
X25550714Y-24066247D02*
X25550714Y-23685295D01*
X25550714Y-23685295D02*
X25503095Y-23590057D01*
X25503095Y-23590057D02*
X25455476Y-23542438D01*
X25455476Y-23542438D02*
X25360238Y-23494819D01*
X25360238Y-23494819D02*
X25169762Y-23494819D01*
X25169762Y-23494819D02*
X25074524Y-23542438D01*
X25074524Y-23542438D02*
X25026905Y-23590057D01*
X25026905Y-23590057D02*
X24979286Y-23685295D01*
X24979286Y-23685295D02*
X24979286Y-23923390D01*
X24979286Y-23923390D02*
X25026905Y-24018628D01*
X25026905Y-24018628D02*
X25074524Y-24066247D01*
X25074524Y-24066247D02*
X25169762Y-24113866D01*
X25169762Y-24113866D02*
X25360238Y-24113866D01*
X25360238Y-24113866D02*
X25455476Y-24066247D01*
X25455476Y-24066247D02*
X25503095Y-24018628D01*
X25503095Y-24018628D02*
X25550714Y-23923390D01*
X10628333Y-22044819D02*
X10295000Y-21568628D01*
X10056905Y-22044819D02*
X10056905Y-21044819D01*
X10056905Y-21044819D02*
X10437857Y-21044819D01*
X10437857Y-21044819D02*
X10533095Y-21092438D01*
X10533095Y-21092438D02*
X10580714Y-21140057D01*
X10580714Y-21140057D02*
X10628333Y-21235295D01*
X10628333Y-21235295D02*
X10628333Y-21378152D01*
X10628333Y-21378152D02*
X10580714Y-21473390D01*
X10580714Y-21473390D02*
X10533095Y-21521009D01*
X10533095Y-21521009D02*
X10437857Y-21568628D01*
X10437857Y-21568628D02*
X10056905Y-21568628D01*
X11485476Y-21378152D02*
X11485476Y-22044819D01*
X11247381Y-20997200D02*
X11009286Y-21711485D01*
X11009286Y-21711485D02*
X11628333Y-21711485D01*
X37338095Y-17869819D02*
X37338095Y-18679342D01*
X37338095Y-18679342D02*
X37385714Y-18774580D01*
X37385714Y-18774580D02*
X37433333Y-18822200D01*
X37433333Y-18822200D02*
X37528571Y-18869819D01*
X37528571Y-18869819D02*
X37719047Y-18869819D01*
X37719047Y-18869819D02*
X37814285Y-18822200D01*
X37814285Y-18822200D02*
X37861904Y-18774580D01*
X37861904Y-18774580D02*
X37909523Y-18679342D01*
X37909523Y-18679342D02*
X37909523Y-17869819D01*
X38909523Y-18869819D02*
X38338095Y-18869819D01*
X38623809Y-18869819D02*
X38623809Y-17869819D01*
X38623809Y-17869819D02*
X38528571Y-18012676D01*
X38528571Y-18012676D02*
X38433333Y-18107914D01*
X38433333Y-18107914D02*
X38338095Y-18155533D01*
X61896666Y-16349819D02*
X61896666Y-17064104D01*
X61896666Y-17064104D02*
X61849047Y-17206961D01*
X61849047Y-17206961D02*
X61753809Y-17302200D01*
X61753809Y-17302200D02*
X61610952Y-17349819D01*
X61610952Y-17349819D02*
X61515714Y-17349819D01*
X62896666Y-17349819D02*
X62325238Y-17349819D01*
X62610952Y-17349819D02*
X62610952Y-16349819D01*
X62610952Y-16349819D02*
X62515714Y-16492676D01*
X62515714Y-16492676D02*
X62420476Y-16587914D01*
X62420476Y-16587914D02*
X62325238Y-16635533D01*
X37338095Y-22949819D02*
X37338095Y-23759342D01*
X37338095Y-23759342D02*
X37385714Y-23854580D01*
X37385714Y-23854580D02*
X37433333Y-23902200D01*
X37433333Y-23902200D02*
X37528571Y-23949819D01*
X37528571Y-23949819D02*
X37719047Y-23949819D01*
X37719047Y-23949819D02*
X37814285Y-23902200D01*
X37814285Y-23902200D02*
X37861904Y-23854580D01*
X37861904Y-23854580D02*
X37909523Y-23759342D01*
X37909523Y-23759342D02*
X37909523Y-22949819D01*
X38338095Y-23045057D02*
X38385714Y-22997438D01*
X38385714Y-22997438D02*
X38480952Y-22949819D01*
X38480952Y-22949819D02*
X38719047Y-22949819D01*
X38719047Y-22949819D02*
X38814285Y-22997438D01*
X38814285Y-22997438D02*
X38861904Y-23045057D01*
X38861904Y-23045057D02*
X38909523Y-23140295D01*
X38909523Y-23140295D02*
X38909523Y-23235533D01*
X38909523Y-23235533D02*
X38861904Y-23378390D01*
X38861904Y-23378390D02*
X38290476Y-23949819D01*
X38290476Y-23949819D02*
X38909523Y-23949819D01*
X44283333Y-23949819D02*
X43950000Y-23473628D01*
X43711905Y-23949819D02*
X43711905Y-22949819D01*
X43711905Y-22949819D02*
X44092857Y-22949819D01*
X44092857Y-22949819D02*
X44188095Y-22997438D01*
X44188095Y-22997438D02*
X44235714Y-23045057D01*
X44235714Y-23045057D02*
X44283333Y-23140295D01*
X44283333Y-23140295D02*
X44283333Y-23283152D01*
X44283333Y-23283152D02*
X44235714Y-23378390D01*
X44235714Y-23378390D02*
X44188095Y-23426009D01*
X44188095Y-23426009D02*
X44092857Y-23473628D01*
X44092857Y-23473628D02*
X43711905Y-23473628D01*
X45140476Y-22949819D02*
X44950000Y-22949819D01*
X44950000Y-22949819D02*
X44854762Y-22997438D01*
X44854762Y-22997438D02*
X44807143Y-23045057D01*
X44807143Y-23045057D02*
X44711905Y-23187914D01*
X44711905Y-23187914D02*
X44664286Y-23378390D01*
X44664286Y-23378390D02*
X44664286Y-23759342D01*
X44664286Y-23759342D02*
X44711905Y-23854580D01*
X44711905Y-23854580D02*
X44759524Y-23902200D01*
X44759524Y-23902200D02*
X44854762Y-23949819D01*
X44854762Y-23949819D02*
X45045238Y-23949819D01*
X45045238Y-23949819D02*
X45140476Y-23902200D01*
X45140476Y-23902200D02*
X45188095Y-23854580D01*
X45188095Y-23854580D02*
X45235714Y-23759342D01*
X45235714Y-23759342D02*
X45235714Y-23521247D01*
X45235714Y-23521247D02*
X45188095Y-23426009D01*
X45188095Y-23426009D02*
X45140476Y-23378390D01*
X45140476Y-23378390D02*
X45045238Y-23330771D01*
X45045238Y-23330771D02*
X44854762Y-23330771D01*
X44854762Y-23330771D02*
X44759524Y-23378390D01*
X44759524Y-23378390D02*
X44711905Y-23426009D01*
X44711905Y-23426009D02*
X44664286Y-23521247D01*
X15073333Y-24489580D02*
X15025714Y-24537200D01*
X15025714Y-24537200D02*
X14882857Y-24584819D01*
X14882857Y-24584819D02*
X14787619Y-24584819D01*
X14787619Y-24584819D02*
X14644762Y-24537200D01*
X14644762Y-24537200D02*
X14549524Y-24441961D01*
X14549524Y-24441961D02*
X14501905Y-24346723D01*
X14501905Y-24346723D02*
X14454286Y-24156247D01*
X14454286Y-24156247D02*
X14454286Y-24013390D01*
X14454286Y-24013390D02*
X14501905Y-23822914D01*
X14501905Y-23822914D02*
X14549524Y-23727676D01*
X14549524Y-23727676D02*
X14644762Y-23632438D01*
X14644762Y-23632438D02*
X14787619Y-23584819D01*
X14787619Y-23584819D02*
X14882857Y-23584819D01*
X14882857Y-23584819D02*
X15025714Y-23632438D01*
X15025714Y-23632438D02*
X15073333Y-23680057D01*
X16025714Y-24584819D02*
X15454286Y-24584819D01*
X15740000Y-24584819D02*
X15740000Y-23584819D01*
X15740000Y-23584819D02*
X15644762Y-23727676D01*
X15644762Y-23727676D02*
X15549524Y-23822914D01*
X15549524Y-23822914D02*
X15454286Y-23870533D01*
X2071905Y-26759819D02*
X2071905Y-27569342D01*
X2071905Y-27569342D02*
X2119524Y-27664580D01*
X2119524Y-27664580D02*
X2167143Y-27712200D01*
X2167143Y-27712200D02*
X2262381Y-27759819D01*
X2262381Y-27759819D02*
X2452857Y-27759819D01*
X2452857Y-27759819D02*
X2548095Y-27712200D01*
X2548095Y-27712200D02*
X2595714Y-27664580D01*
X2595714Y-27664580D02*
X2643333Y-27569342D01*
X2643333Y-27569342D02*
X2643333Y-26759819D01*
X3071905Y-27712200D02*
X3214762Y-27759819D01*
X3214762Y-27759819D02*
X3452857Y-27759819D01*
X3452857Y-27759819D02*
X3548095Y-27712200D01*
X3548095Y-27712200D02*
X3595714Y-27664580D01*
X3595714Y-27664580D02*
X3643333Y-27569342D01*
X3643333Y-27569342D02*
X3643333Y-27474104D01*
X3643333Y-27474104D02*
X3595714Y-27378866D01*
X3595714Y-27378866D02*
X3548095Y-27331247D01*
X3548095Y-27331247D02*
X3452857Y-27283628D01*
X3452857Y-27283628D02*
X3262381Y-27236009D01*
X3262381Y-27236009D02*
X3167143Y-27188390D01*
X3167143Y-27188390D02*
X3119524Y-27140771D01*
X3119524Y-27140771D02*
X3071905Y-27045533D01*
X3071905Y-27045533D02*
X3071905Y-26950295D01*
X3071905Y-26950295D02*
X3119524Y-26855057D01*
X3119524Y-26855057D02*
X3167143Y-26807438D01*
X3167143Y-26807438D02*
X3262381Y-26759819D01*
X3262381Y-26759819D02*
X3500476Y-26759819D01*
X3500476Y-26759819D02*
X3643333Y-26807438D01*
X4405238Y-27236009D02*
X4548095Y-27283628D01*
X4548095Y-27283628D02*
X4595714Y-27331247D01*
X4595714Y-27331247D02*
X4643333Y-27426485D01*
X4643333Y-27426485D02*
X4643333Y-27569342D01*
X4643333Y-27569342D02*
X4595714Y-27664580D01*
X4595714Y-27664580D02*
X4548095Y-27712200D01*
X4548095Y-27712200D02*
X4452857Y-27759819D01*
X4452857Y-27759819D02*
X4071905Y-27759819D01*
X4071905Y-27759819D02*
X4071905Y-26759819D01*
X4071905Y-26759819D02*
X4405238Y-26759819D01*
X4405238Y-26759819D02*
X4500476Y-26807438D01*
X4500476Y-26807438D02*
X4548095Y-26855057D01*
X4548095Y-26855057D02*
X4595714Y-26950295D01*
X4595714Y-26950295D02*
X4595714Y-27045533D01*
X4595714Y-27045533D02*
X4548095Y-27140771D01*
X4548095Y-27140771D02*
X4500476Y-27188390D01*
X4500476Y-27188390D02*
X4405238Y-27236009D01*
X4405238Y-27236009D02*
X4071905Y-27236009D01*
X5595714Y-27759819D02*
X5024286Y-27759819D01*
X5310000Y-27759819D02*
X5310000Y-26759819D01*
X5310000Y-26759819D02*
X5214762Y-26902676D01*
X5214762Y-26902676D02*
X5119524Y-26997914D01*
X5119524Y-26997914D02*
X5024286Y-27045533D01*
X15615595Y-17234819D02*
X15615595Y-18044342D01*
X15615595Y-18044342D02*
X15663214Y-18139580D01*
X15663214Y-18139580D02*
X15710833Y-18187200D01*
X15710833Y-18187200D02*
X15806071Y-18234819D01*
X15806071Y-18234819D02*
X15996547Y-18234819D01*
X15996547Y-18234819D02*
X16091785Y-18187200D01*
X16091785Y-18187200D02*
X16139404Y-18139580D01*
X16139404Y-18139580D02*
X16187023Y-18044342D01*
X16187023Y-18044342D02*
X16187023Y-17234819D01*
X16567976Y-17234819D02*
X17187023Y-17234819D01*
X17187023Y-17234819D02*
X16853690Y-17615771D01*
X16853690Y-17615771D02*
X16996547Y-17615771D01*
X16996547Y-17615771D02*
X17091785Y-17663390D01*
X17091785Y-17663390D02*
X17139404Y-17711009D01*
X17139404Y-17711009D02*
X17187023Y-17806247D01*
X17187023Y-17806247D02*
X17187023Y-18044342D01*
X17187023Y-18044342D02*
X17139404Y-18139580D01*
X17139404Y-18139580D02*
X17091785Y-18187200D01*
X17091785Y-18187200D02*
X16996547Y-18234819D01*
X16996547Y-18234819D02*
X16710833Y-18234819D01*
X16710833Y-18234819D02*
X16615595Y-18187200D01*
X16615595Y-18187200D02*
X16567976Y-18139580D01*
X44283333Y-16234580D02*
X44235714Y-16282200D01*
X44235714Y-16282200D02*
X44092857Y-16329819D01*
X44092857Y-16329819D02*
X43997619Y-16329819D01*
X43997619Y-16329819D02*
X43854762Y-16282200D01*
X43854762Y-16282200D02*
X43759524Y-16186961D01*
X43759524Y-16186961D02*
X43711905Y-16091723D01*
X43711905Y-16091723D02*
X43664286Y-15901247D01*
X43664286Y-15901247D02*
X43664286Y-15758390D01*
X43664286Y-15758390D02*
X43711905Y-15567914D01*
X43711905Y-15567914D02*
X43759524Y-15472676D01*
X43759524Y-15472676D02*
X43854762Y-15377438D01*
X43854762Y-15377438D02*
X43997619Y-15329819D01*
X43997619Y-15329819D02*
X44092857Y-15329819D01*
X44092857Y-15329819D02*
X44235714Y-15377438D01*
X44235714Y-15377438D02*
X44283333Y-15425057D01*
X44616667Y-15329819D02*
X45283333Y-15329819D01*
X45283333Y-15329819D02*
X44854762Y-16329819D01*
X49056095Y-15129819D02*
X49056095Y-15939342D01*
X49056095Y-15939342D02*
X49103714Y-16034580D01*
X49103714Y-16034580D02*
X49151333Y-16082200D01*
X49151333Y-16082200D02*
X49246571Y-16129819D01*
X49246571Y-16129819D02*
X49437047Y-16129819D01*
X49437047Y-16129819D02*
X49532285Y-16082200D01*
X49532285Y-16082200D02*
X49579904Y-16034580D01*
X49579904Y-16034580D02*
X49627523Y-15939342D01*
X49627523Y-15939342D02*
X49627523Y-15129819D01*
X50532285Y-15463152D02*
X50532285Y-16129819D01*
X50294190Y-15082200D02*
X50056095Y-15796485D01*
X50056095Y-15796485D02*
X50675142Y-15796485D01*
X8556666Y-27236009D02*
X8223333Y-27236009D01*
X8223333Y-27759819D02*
X8223333Y-26759819D01*
X8223333Y-26759819D02*
X8699523Y-26759819D01*
X9604285Y-27759819D02*
X9032857Y-27759819D01*
X9318571Y-27759819D02*
X9318571Y-26759819D01*
X9318571Y-26759819D02*
X9223333Y-26902676D01*
X9223333Y-26902676D02*
X9128095Y-26997914D01*
X9128095Y-26997914D02*
X9032857Y-27045533D01*
D11*
%TO.C,R2*%
X30836359Y-23115000D02*
X31143641Y-23115000D01*
X30836359Y-23875000D02*
X31143641Y-23875000D01*
%TO.C,D2*%
X65715000Y-12335000D02*
X65715000Y-15020000D01*
X65715000Y-15020000D02*
X67635000Y-15020000D01*
X67635000Y-15020000D02*
X67635000Y-12335000D01*
%TO.C,D3*%
X59250000Y-16110000D02*
X59250000Y-16910000D01*
X60610000Y-16110000D02*
X59250000Y-16110000D01*
X60610000Y-16910000D02*
X59250000Y-16910000D01*
%TO.C,D4*%
X59250000Y-25000000D02*
X59250000Y-25800000D01*
X60610000Y-25000000D02*
X59250000Y-25000000D01*
X60610000Y-25800000D02*
X59250000Y-25800000D01*
%TO.C,R3*%
X10948641Y-19305000D02*
X10641359Y-19305000D01*
X10948641Y-20065000D02*
X10641359Y-20065000D01*
%TO.C,R7*%
X63346359Y-13892500D02*
X63653641Y-13892500D01*
X63346359Y-14652500D02*
X63653641Y-14652500D01*
%TO.C,R12*%
X5868641Y-13892500D02*
X5561359Y-13892500D01*
X5868641Y-14652500D02*
X5561359Y-14652500D01*
%TO.C,C3*%
X30977164Y-18055000D02*
X31192836Y-18055000D01*
X30977164Y-18775000D02*
X31192836Y-18775000D01*
%TO.C,D1*%
X945000Y-12335000D02*
X945000Y-15020000D01*
X945000Y-15020000D02*
X2865000Y-15020000D01*
X2865000Y-15020000D02*
X2865000Y-12335000D01*
%TO.C,C4*%
X52615336Y-14245000D02*
X52399664Y-14245000D01*
X52615336Y-14965000D02*
X52399664Y-14965000D01*
%TO.C,U6*%
X22155000Y-18345000D02*
X22155000Y-17860000D01*
X22155000Y-22840000D02*
X22155000Y-22115000D01*
X22880000Y-17620000D02*
X22455000Y-17620000D01*
X22880000Y-22840000D02*
X22155000Y-22840000D01*
X26650000Y-17620000D02*
X27375000Y-17620000D01*
X26650000Y-22840000D02*
X27375000Y-22840000D01*
X27375000Y-17620000D02*
X27375000Y-18345000D01*
X27375000Y-22840000D02*
X27375000Y-22115000D01*
X22155000Y-17620000D02*
X21915000Y-17290000D01*
X22395000Y-17290000D01*
X22155000Y-17620000D01*
G36*
X22155000Y-17620000D02*
G01*
X21915000Y-17290000D01*
X22395000Y-17290000D01*
X22155000Y-17620000D01*
G37*
%TO.C,D5*%
X59250000Y-26270000D02*
X59250000Y-27070000D01*
X60610000Y-26270000D02*
X59250000Y-26270000D01*
X60610000Y-27070000D02*
X59250000Y-27070000D01*
%TO.C,C2*%
X18041252Y-26570000D02*
X17518748Y-26570000D01*
X18041252Y-28040000D02*
X17518748Y-28040000D01*
%TO.C,C12*%
X31097836Y-24405000D02*
X30882164Y-24405000D01*
X31097836Y-25125000D02*
X30882164Y-25125000D01*
%TO.C,R1*%
X30961359Y-16765000D02*
X31268641Y-16765000D01*
X30961359Y-17525000D02*
X31268641Y-17525000D01*
%TO.C,R5*%
X44603641Y-18035000D02*
X44296359Y-18035000D01*
X44603641Y-18795000D02*
X44296359Y-18795000D01*
%TO.C,R9*%
X22888641Y-23660000D02*
X22581359Y-23660000D01*
X22888641Y-24420000D02*
X22581359Y-24420000D01*
%TO.C,R4*%
X10948641Y-22480000D02*
X10641359Y-22480000D01*
X10948641Y-23240000D02*
X10641359Y-23240000D01*
%TO.C,U1*%
X35700000Y-16415000D02*
X40500000Y-16415000D01*
X35700000Y-16565000D02*
X35700000Y-16415000D01*
X35700000Y-19065000D02*
X35700000Y-17765000D01*
X35700000Y-20415000D02*
X35700000Y-20265000D01*
X40500000Y-16415000D02*
X40500000Y-16565000D01*
X40500000Y-20265000D02*
X40500000Y-20415000D01*
X40500000Y-20415000D02*
X35700000Y-20415000D01*
X35275000Y-16565000D02*
X35035000Y-16235000D01*
X35515000Y-16235000D01*
X35275000Y-16565000D01*
G36*
X35275000Y-16565000D02*
G01*
X35035000Y-16235000D01*
X35515000Y-16235000D01*
X35275000Y-16565000D01*
G37*
%TO.C,J1*%
X58915000Y-18195000D02*
X60170000Y-18195000D01*
X60170000Y-17895000D02*
X60170000Y-18195000D01*
X60170000Y-17895000D02*
X64290000Y-17895000D01*
X60170000Y-19715000D02*
X60170000Y-20195000D01*
X60170000Y-21715000D02*
X60170000Y-22195000D01*
X60170000Y-23715000D02*
X60170000Y-24015000D01*
X60170000Y-24015000D02*
X64290000Y-24015000D01*
X64290000Y-17895000D02*
X64290000Y-18195000D01*
X64290000Y-19715000D02*
X64290000Y-20195000D01*
X64290000Y-21715000D02*
X64290000Y-22195000D01*
X64290000Y-23715000D02*
X64290000Y-24015000D01*
%TO.C,U2*%
X35700000Y-21495000D02*
X40500000Y-21495000D01*
X35700000Y-21645000D02*
X35700000Y-21495000D01*
X35700000Y-25495000D02*
X35700000Y-25345000D01*
X40500000Y-21495000D02*
X40500000Y-21645000D01*
X40500000Y-22845000D02*
X40500000Y-24145000D01*
X40500000Y-25345000D02*
X40500000Y-25495000D01*
X40500000Y-25495000D02*
X35700000Y-25495000D01*
X41165000Y-25675000D02*
X40685000Y-25675000D01*
X40925000Y-25345000D01*
X41165000Y-25675000D01*
G36*
X41165000Y-25675000D02*
G01*
X40685000Y-25675000D01*
X40925000Y-25345000D01*
X41165000Y-25675000D01*
G37*
%TO.C,R6*%
X44296359Y-24385000D02*
X44603641Y-24385000D01*
X44296359Y-25145000D02*
X44603641Y-25145000D01*
%TO.C,C1*%
X17518748Y-23395000D02*
X18041252Y-23395000D01*
X17518748Y-24865000D02*
X18041252Y-24865000D01*
%TO.C,USB1*%
X-1360000Y-16300000D02*
X-1360000Y-25700000D01*
X540000Y-16300000D02*
X-1360000Y-16300000D01*
X540000Y-25700000D02*
X-1360000Y-25700000D01*
X4440000Y-16300000D02*
X2440000Y-16300000D01*
X4440000Y-25700000D02*
X2440000Y-25700000D01*
%TO.C,U3*%
X16510000Y-18760000D02*
X15710000Y-18760000D01*
X16510000Y-18760000D02*
X17310000Y-18760000D01*
X16510000Y-21880000D02*
X15710000Y-21880000D01*
X16510000Y-21880000D02*
X17310000Y-21880000D01*
X18050000Y-22160000D02*
X17570000Y-22160000D01*
X17810000Y-21830000D01*
X18050000Y-22160000D01*
G36*
X18050000Y-22160000D02*
G01*
X17570000Y-22160000D01*
X17810000Y-21830000D01*
X18050000Y-22160000D01*
G37*
%TO.C,C7*%
X44322164Y-16785000D02*
X44537836Y-16785000D01*
X44322164Y-17505000D02*
X44537836Y-17505000D01*
%TO.C,U4*%
X50512500Y-16520000D02*
X48562500Y-16520000D01*
X50512500Y-16520000D02*
X52462500Y-16520000D01*
X50512500Y-25390000D02*
X48562500Y-25390000D01*
X50512500Y-25390000D02*
X52462500Y-25390000D01*
X47812500Y-16585000D02*
X47572500Y-16255000D01*
X48052500Y-16255000D01*
X47812500Y-16585000D01*
G36*
X47812500Y-16585000D02*
G01*
X47572500Y-16255000D01*
X48052500Y-16255000D01*
X47812500Y-16585000D01*
G37*
%TO.C,F1*%
X12667064Y-26395000D02*
X11462936Y-26395000D01*
X12667064Y-28215000D02*
X11462936Y-28215000D01*
%TD*%
%LPC*%
D12*
%TO.C,R2*%
X30480000Y-23495000D03*
X31500000Y-23495000D03*
%TD*%
D13*
%TO.C,D2*%
X66675000Y-14272500D03*
X66675000Y-12397500D03*
%TD*%
D14*
%TO.C,D3*%
X59690000Y-16510000D03*
X60530000Y-16510000D03*
%TD*%
%TO.C,D4*%
X59690000Y-25400000D03*
X60530000Y-25400000D03*
%TD*%
D15*
%TO.C,R3*%
X11305000Y-19685000D03*
X10285000Y-19685000D03*
%TD*%
D12*
%TO.C,R7*%
X62990000Y-14272500D03*
X64010000Y-14272500D03*
%TD*%
D15*
%TO.C,R12*%
X6225000Y-14272500D03*
X5205000Y-14272500D03*
%TD*%
D16*
%TO.C,C3*%
X30605000Y-18415000D03*
X31565000Y-18415000D03*
%TD*%
D13*
%TO.C,D1*%
X1905000Y-14272500D03*
X1905000Y-12397500D03*
%TD*%
D17*
%TO.C,C4*%
X52987500Y-14605000D03*
X52027500Y-14605000D03*
%TD*%
D18*
%TO.C,U6*%
X22315000Y-18730000D03*
X22315000Y-19230000D03*
X22315000Y-19730000D03*
X22315000Y-20230000D03*
X22315000Y-20730000D03*
X22315000Y-21230000D03*
X22315000Y-21730000D03*
D19*
X23265000Y-22680000D03*
X23765000Y-22680000D03*
X24265000Y-22680000D03*
X24765000Y-22680000D03*
X25265000Y-22680000D03*
X25765000Y-22680000D03*
X26265000Y-22680000D03*
D18*
X27215000Y-21730000D03*
X27215000Y-21230000D03*
X27215000Y-20730000D03*
X27215000Y-20230000D03*
X27215000Y-19730000D03*
X27215000Y-19230000D03*
X27215000Y-18730000D03*
D19*
X26265000Y-17780000D03*
X25765000Y-17780000D03*
X25265000Y-17780000D03*
X24765000Y-17780000D03*
X24265000Y-17780000D03*
X23765000Y-17780000D03*
X23265000Y-17780000D03*
D20*
X24765000Y-20230000D03*
%TD*%
D14*
%TO.C,D5*%
X59690000Y-26670000D03*
X60530000Y-26670000D03*
%TD*%
D21*
%TO.C,C2*%
X18730000Y-27305000D03*
X16830000Y-27305000D03*
%TD*%
D17*
%TO.C,C12*%
X31470000Y-24765000D03*
X30510000Y-24765000D03*
%TD*%
D12*
%TO.C,R1*%
X30605000Y-17145000D03*
X31625000Y-17145000D03*
%TD*%
D15*
%TO.C,R5*%
X44960000Y-18415000D03*
X43940000Y-18415000D03*
%TD*%
%TO.C,R9*%
X23245000Y-24040000D03*
X22225000Y-24040000D03*
%TD*%
%TO.C,R4*%
X11305000Y-22860000D03*
X10285000Y-22860000D03*
%TD*%
D22*
%TO.C,U1*%
X34950000Y-17145000D03*
X34950000Y-19685000D03*
X41250000Y-19685000D03*
X41250000Y-18415000D03*
X41250000Y-17145000D03*
%TD*%
D23*
%TO.C,J1*%
X60145000Y-18955000D03*
X64315000Y-18955000D03*
X60145000Y-20955000D03*
X64315000Y-20955000D03*
X60145000Y-22955000D03*
X64315000Y-22955000D03*
%TD*%
D22*
%TO.C,U2*%
X41250000Y-24765000D03*
X41250000Y-22225000D03*
X34950000Y-22225000D03*
X34950000Y-23495000D03*
X34950000Y-24765000D03*
%TD*%
D12*
%TO.C,R6*%
X43940000Y-24765000D03*
X44960000Y-24765000D03*
%TD*%
D24*
%TO.C,C1*%
X16830000Y-24130000D03*
X18730000Y-24130000D03*
%TD*%
D25*
%TO.C,USB1*%
X5140000Y-18110000D03*
X5140000Y-23890000D03*
D26*
X6585000Y-17750000D03*
X6585000Y-18550000D03*
D27*
X6585000Y-19750000D03*
X6585000Y-20750000D03*
X6585000Y-21250000D03*
X6585000Y-22250000D03*
D26*
X6585000Y-23450000D03*
X6585000Y-24250000D03*
D27*
X6585000Y-22750000D03*
X6585000Y-21750000D03*
X6585000Y-20250000D03*
X6585000Y-19250000D03*
D28*
X5670000Y-16680000D03*
D29*
X1490000Y-16680000D03*
D28*
X5670000Y-25320000D03*
D29*
X1490000Y-25320000D03*
%TD*%
D30*
%TO.C,U3*%
X17647500Y-21270000D03*
X17647500Y-20320000D03*
X17647500Y-19370000D03*
X15372500Y-19370000D03*
X15372500Y-20320000D03*
X15372500Y-21270000D03*
%TD*%
D16*
%TO.C,C7*%
X43950000Y-17145000D03*
X44910000Y-17145000D03*
%TD*%
D31*
%TO.C,U4*%
X48037500Y-17145000D03*
X48037500Y-18415000D03*
X48037500Y-19685000D03*
X48037500Y-20955000D03*
X48037500Y-22225000D03*
X48037500Y-23495000D03*
X48037500Y-24765000D03*
X52987500Y-24765000D03*
X52987500Y-23495000D03*
X52987500Y-22225000D03*
X52987500Y-20955000D03*
X52987500Y-19685000D03*
X52987500Y-18415000D03*
X52987500Y-17145000D03*
%TD*%
D32*
%TO.C,F1*%
X13465000Y-27305000D03*
X10665000Y-27305000D03*
%TD*%
%LPD*%
M02*
