%TF.GenerationSoftware,KiCad,Pcbnew,8.0.4+dfsg-1*%
%TF.CreationDate,2024-10-16T21:23:15+02:00*%
%TF.ProjectId,usb-serial,7573622d-7365-4726-9961-6c2e6b696361,rev?*%
%TF.SameCoordinates,Original*%
%TF.FileFunction,Copper,L3,Inr*%
%TF.FilePolarity,Positive*%
%FSLAX46Y46*%
G04 Gerber Fmt 4.6, Leading zero omitted, Abs format (unit mm)*
G04 Created by KiCad (PCBNEW 8.0.4+dfsg-1) date 2024-10-16 21:23:15*
%MOMM*%
%LPD*%
G01*
G04 APERTURE LIST*
%TA.AperFunction,ComponentPad*%
%ADD10O,2.100000X1.000000*%
%TD*%
%TA.AperFunction,ComponentPad*%
%ADD11O,1.600000X1.000000*%
%TD*%
%TA.AperFunction,ViaPad*%
%ADD12C,0.560000*%
%TD*%
%TA.AperFunction,Conductor*%
%ADD13C,0.200000*%
%TD*%
G04 APERTURE END LIST*
D10*
%TO.N,GND*%
%TO.C,USB1*%
X5670000Y-16680000D03*
D11*
X1490000Y-16680000D03*
D10*
X5670000Y-25320000D03*
D11*
X1490000Y-25320000D03*
%TD*%
D12*
%TO.N,VBUS*%
X15240000Y-27305000D03*
X22479000Y-22516000D03*
X20320000Y-24130000D03*
X3175000Y-12397500D03*
%TO.N,GND*%
X6985000Y-14272500D03*
X26670000Y-30480000D03*
X20320000Y-22225000D03*
X27305000Y-17690000D03*
X27305000Y-11684000D03*
X33020000Y-30480000D03*
X33655000Y-11684000D03*
X20955000Y-11684000D03*
X20955000Y-18960000D03*
X19050000Y-20320000D03*
X8255000Y-24765000D03*
X34925000Y-14605000D03*
X29210000Y-24765000D03*
X33020000Y-20955000D03*
X20320000Y-30480000D03*
X1270000Y-29845000D03*
X7620000Y-30480000D03*
X13970000Y-30480000D03*
X8890000Y-17145000D03*
X34925000Y-27305000D03*
X22225000Y-17690000D03*
X8255000Y-11684000D03*
X27305000Y-22770000D03*
X1270000Y-27305000D03*
X20254000Y-27305000D03*
X12538946Y-22860000D03*
X15875000Y-24130000D03*
X34925000Y-18415000D03*
X14605000Y-11684000D03*
%TO.N,Net-(USB1-DP1)*%
X5080000Y-22225000D03*
X4445000Y-20320000D03*
%TO.N,Net-(USB1-DN1)*%
X5080000Y-19685000D03*
X4445000Y-21590000D03*
%TO.N,VDD*%
X29845000Y-17145000D03*
X21442589Y-21576327D03*
X33020000Y-24765000D03*
%TO.N,GND1*%
X41275000Y-23495000D03*
X41275000Y-27305000D03*
X67310000Y-17145000D03*
X58420000Y-20955000D03*
X41275000Y-20955000D03*
X67310000Y-26035000D03*
X48260000Y-11684000D03*
X41910000Y-30480000D03*
X48260000Y-30480000D03*
X45720000Y-17145000D03*
X50800000Y-14605000D03*
X41275000Y-14605000D03*
X60960000Y-11684000D03*
X54610000Y-11684000D03*
X67310000Y-29845000D03*
X59055000Y-16510000D03*
X54610000Y-30480000D03*
X59055000Y-25400000D03*
X59055000Y-26670000D03*
X60960000Y-30480000D03*
X41910000Y-11684000D03*
%TO.N,Net-(U3-VBUS)*%
X9525000Y-23495000D03*
X9525000Y-19050000D03*
X13970000Y-20320000D03*
%TO.N,+3V3*%
X44450000Y-15875000D03*
X53975000Y-14605000D03*
X65405000Y-12397500D03*
X45720000Y-24765000D03*
X58420000Y-18955000D03*
%TD*%
D13*
%TO.N,Net-(USB1-DN1)*%
X5080000Y-20955000D02*
X5080000Y-19685000D01*
X4445000Y-21590000D02*
X5080000Y-20955000D01*
%TD*%
%TA.AperFunction,Conductor*%
%TO.N,GND1*%
G36*
X67340000Y-11203318D02*
G01*
X67368222Y-11213844D01*
X67402525Y-11226638D01*
X67418610Y-11233984D01*
X67653501Y-11362244D01*
X67668375Y-11371802D01*
X67882624Y-11532188D01*
X67895994Y-11543774D01*
X68085225Y-11733005D01*
X68096811Y-11746375D01*
X68154767Y-11823795D01*
X68179184Y-11889258D01*
X68179500Y-11898105D01*
X68179500Y-30265894D01*
X68159815Y-30332933D01*
X68154767Y-30340205D01*
X68096813Y-30417622D01*
X68085227Y-30430992D01*
X67895994Y-30620225D01*
X67882624Y-30631811D01*
X67684980Y-30779767D01*
X67619516Y-30804184D01*
X67610669Y-30804500D01*
X41609331Y-30804500D01*
X41542292Y-30784815D01*
X41535020Y-30779767D01*
X41337375Y-30631811D01*
X41324005Y-30620225D01*
X41134774Y-30430994D01*
X41123188Y-30417624D01*
X41009604Y-30265894D01*
X40962802Y-30203375D01*
X40953244Y-30188501D01*
X40824987Y-29953616D01*
X40817638Y-29937524D01*
X40724108Y-29686762D01*
X40719129Y-29669803D01*
X40662241Y-29408291D01*
X40659724Y-29390785D01*
X40640316Y-29119418D01*
X40640000Y-29110572D01*
X40640000Y-24764997D01*
X44934561Y-24764997D01*
X44934561Y-24765002D01*
X44954252Y-24939771D01*
X45012344Y-25105790D01*
X45105919Y-25254713D01*
X45230287Y-25379081D01*
X45379211Y-25472656D01*
X45545223Y-25530746D01*
X45545226Y-25530746D01*
X45545228Y-25530747D01*
X45719997Y-25550439D01*
X45720000Y-25550439D01*
X45720003Y-25550439D01*
X45894771Y-25530747D01*
X45894772Y-25530746D01*
X45894777Y-25530746D01*
X46060789Y-25472656D01*
X46209713Y-25379081D01*
X46334081Y-25254713D01*
X46427656Y-25105789D01*
X46485746Y-24939777D01*
X46505439Y-24765000D01*
X46485746Y-24590223D01*
X46427656Y-24424211D01*
X46334081Y-24275287D01*
X46209713Y-24150919D01*
X46060790Y-24057344D01*
X45894771Y-23999252D01*
X45720003Y-23979561D01*
X45719997Y-23979561D01*
X45545228Y-23999252D01*
X45379209Y-24057344D01*
X45230286Y-24150919D01*
X45105919Y-24275286D01*
X45012344Y-24424209D01*
X44954252Y-24590228D01*
X44934561Y-24764997D01*
X40640000Y-24764997D01*
X40640000Y-18954997D01*
X57634561Y-18954997D01*
X57634561Y-18955002D01*
X57654252Y-19129771D01*
X57712344Y-19295790D01*
X57805919Y-19444713D01*
X57930287Y-19569081D01*
X58079211Y-19662656D01*
X58245223Y-19720746D01*
X58245226Y-19720746D01*
X58245228Y-19720747D01*
X58419997Y-19740439D01*
X58420000Y-19740439D01*
X58420003Y-19740439D01*
X58594771Y-19720747D01*
X58594772Y-19720746D01*
X58594777Y-19720746D01*
X58760789Y-19662656D01*
X58909713Y-19569081D01*
X59034081Y-19444713D01*
X59127656Y-19295789D01*
X59185746Y-19129777D01*
X59205439Y-18955000D01*
X59185746Y-18780223D01*
X59127656Y-18614211D01*
X59034081Y-18465287D01*
X58909713Y-18340919D01*
X58760790Y-18247344D01*
X58594771Y-18189252D01*
X58420003Y-18169561D01*
X58419997Y-18169561D01*
X58245228Y-18189252D01*
X58079209Y-18247344D01*
X57930286Y-18340919D01*
X57805919Y-18465286D01*
X57712344Y-18614209D01*
X57654252Y-18780228D01*
X57634561Y-18954997D01*
X40640000Y-18954997D01*
X40640000Y-15874997D01*
X43664561Y-15874997D01*
X43664561Y-15875002D01*
X43684252Y-16049771D01*
X43742344Y-16215790D01*
X43835919Y-16364713D01*
X43960287Y-16489081D01*
X44109211Y-16582656D01*
X44275223Y-16640746D01*
X44275226Y-16640746D01*
X44275228Y-16640747D01*
X44449997Y-16660439D01*
X44450000Y-16660439D01*
X44450003Y-16660439D01*
X44624771Y-16640747D01*
X44624772Y-16640746D01*
X44624777Y-16640746D01*
X44790789Y-16582656D01*
X44939713Y-16489081D01*
X45064081Y-16364713D01*
X45157656Y-16215789D01*
X45215746Y-16049777D01*
X45235439Y-15875000D01*
X45215746Y-15700223D01*
X45157656Y-15534211D01*
X45064081Y-15385287D01*
X44939713Y-15260919D01*
X44790790Y-15167344D01*
X44624771Y-15109252D01*
X44450003Y-15089561D01*
X44449997Y-15089561D01*
X44275228Y-15109252D01*
X44109209Y-15167344D01*
X43960286Y-15260919D01*
X43835919Y-15385286D01*
X43742344Y-15534209D01*
X43684252Y-15700228D01*
X43664561Y-15874997D01*
X40640000Y-15874997D01*
X40640000Y-14604997D01*
X53189561Y-14604997D01*
X53189561Y-14605002D01*
X53209252Y-14779771D01*
X53267344Y-14945790D01*
X53357682Y-15089561D01*
X53360919Y-15094713D01*
X53485287Y-15219081D01*
X53634211Y-15312656D01*
X53800223Y-15370746D01*
X53800226Y-15370746D01*
X53800228Y-15370747D01*
X53974997Y-15390439D01*
X53975000Y-15390439D01*
X53975003Y-15390439D01*
X54149771Y-15370747D01*
X54149772Y-15370746D01*
X54149777Y-15370746D01*
X54315789Y-15312656D01*
X54464713Y-15219081D01*
X54589081Y-15094713D01*
X54682656Y-14945789D01*
X54740746Y-14779777D01*
X54760439Y-14605000D01*
X54740746Y-14430223D01*
X54682656Y-14264211D01*
X54589081Y-14115287D01*
X54464713Y-13990919D01*
X54315790Y-13897344D01*
X54149771Y-13839252D01*
X53975003Y-13819561D01*
X53974997Y-13819561D01*
X53800228Y-13839252D01*
X53634209Y-13897344D01*
X53485286Y-13990919D01*
X53360919Y-14115286D01*
X53267344Y-14264209D01*
X53209252Y-14430228D01*
X53189561Y-14604997D01*
X40640000Y-14604997D01*
X40640000Y-13053427D01*
X40640316Y-13044581D01*
X40659724Y-12773214D01*
X40662240Y-12755710D01*
X40719130Y-12494192D01*
X40724107Y-12477241D01*
X40753850Y-12397497D01*
X64619561Y-12397497D01*
X64619561Y-12397502D01*
X64639252Y-12572271D01*
X64697344Y-12738290D01*
X64790919Y-12887213D01*
X64915287Y-13011581D01*
X65064211Y-13105156D01*
X65230223Y-13163246D01*
X65230226Y-13163246D01*
X65230228Y-13163247D01*
X65404997Y-13182939D01*
X65405000Y-13182939D01*
X65405003Y-13182939D01*
X65579771Y-13163247D01*
X65579772Y-13163246D01*
X65579777Y-13163246D01*
X65745789Y-13105156D01*
X65894713Y-13011581D01*
X66019081Y-12887213D01*
X66112656Y-12738289D01*
X66170746Y-12572277D01*
X66179545Y-12494192D01*
X66190439Y-12397502D01*
X66190439Y-12397497D01*
X66170747Y-12222728D01*
X66170746Y-12222726D01*
X66170746Y-12222723D01*
X66112656Y-12056711D01*
X66019081Y-11907787D01*
X65894713Y-11783419D01*
X65835758Y-11746375D01*
X65745790Y-11689844D01*
X65579771Y-11631752D01*
X65405003Y-11612061D01*
X65404997Y-11612061D01*
X65230228Y-11631752D01*
X65064209Y-11689844D01*
X64915286Y-11783419D01*
X64790919Y-11907786D01*
X64697344Y-12056709D01*
X64639252Y-12222728D01*
X64619561Y-12397497D01*
X40753850Y-12397497D01*
X40817640Y-12226470D01*
X40824985Y-12210388D01*
X40953248Y-11975491D01*
X40962798Y-11960630D01*
X41123195Y-11746366D01*
X41134767Y-11733012D01*
X41324012Y-11543767D01*
X41337366Y-11532195D01*
X41551630Y-11371798D01*
X41566491Y-11362248D01*
X41801394Y-11233981D01*
X41817474Y-11226638D01*
X41837171Y-11219291D01*
X41880001Y-11203318D01*
X41923333Y-11195500D01*
X67296667Y-11195500D01*
X67340000Y-11203318D01*
G37*
%TD.AperFunction*%
%TD*%
M02*
